<svg width="204" height="204" viewBox="0 0 204 204" fill="none" xmlns="http://www.w3.org/2000/svg">
<path d="M201.574 117.465C203.326 106.148 199.566 95.2606 192.303 87.5068C193.721 84.4872 194.739 81.22 195.272 77.7527C198.242 58.4921 185.287 40.4603 166.22 37.0406C163.365 22.7047 151.846 10.9978 136.578 8.63549C129.115 7.4829 121.842 8.73074 115.531 11.7884C110.438 6.959 103.88 3.57744 96.4169 2.42485C81.1388 0.0625201 66.6222 7.74962 59.5781 20.5614C40.5685 18.361 23.0724 31.5825 20.1215 50.6621C19.5789 54.1961 19.5694 57.6824 20.0359 61.0449C10.9071 66.2744 4.15803 75.457 2.42556 86.659C0.693089 97.8515 4.35792 108.625 11.4592 116.369C10.0313 119.408 9.00321 122.685 8.46062 126.171C5.51923 145.241 18.1892 163.111 36.9417 166.778C39.7308 181.2 51.2774 192.992 66.6222 195.364C74.0851 196.517 81.3577 195.269 87.6688 192.211C92.7615 197.041 99.3202 200.422 106.783 201.575C122.118 203.947 136.673 196.193 143.689 183.305C162.879 185.772 180.642 172.503 183.612 153.261C184.135 149.842 184.154 146.47 183.735 143.203C192.969 137.992 199.823 128.762 201.565 117.465H201.574Z" fill="#FFF18C" stroke="black" stroke-width="3" stroke-miterlimit="10"/>
</svg>
