<svg width="204" height="204" viewBox="0 0 204 204" fill="none" xmlns="http://www.w3.org/2000/svg">
<path d="M202 102C202 114.789 188.565 124.822 183.955 135.942C179.169 147.477 181.401 164.019 172.715 172.715C164.029 181.401 147.477 179.178 135.942 183.955C124.822 188.565 114.789 202 102 202C89.2107 202 79.1784 188.565 68.0581 183.955C56.5228 179.169 39.9806 181.401 31.2854 172.715C22.5994 164.029 24.8216 147.477 20.0452 135.942C15.4348 124.822 2 114.789 2 102C2 89.2107 15.4348 79.1784 20.0452 68.0581C24.8308 56.5228 22.5994 39.9806 31.2854 31.2854C39.9714 22.5994 56.5228 24.8216 68.0581 20.0452C79.1784 15.4348 89.2107 2 102 2C114.789 2 124.822 15.4348 135.942 20.0452C147.477 24.8308 164.019 22.5994 172.715 31.2854C181.401 39.9714 179.178 56.5228 183.955 68.0581C188.731 79.5934 202 89.2107 202 102Z" fill="#FF923F" stroke="black" stroke-width="3" stroke-miterlimit="10"/>
</svg>
