<svg width="204" height="204" viewBox="0 0 204 204" fill="none" xmlns="http://www.w3.org/2000/svg">
<path d="M201.884 117.432C200.88 123.901 193.386 128.615 191.24 134.544C189.021 140.654 191.695 149.078 188.397 154.5C185.036 160.017 176.305 161.508 171.993 166.211C167.638 170.946 166.888 179.762 161.719 183.546C156.55 187.33 147.915 185.385 142.091 188.112C136.309 190.807 132.251 198.682 125.972 200.214C119.799 201.726 112.58 196.631 106.09 196.895C99.7909 197.159 93.0368 202.878 86.5681 201.884C80.0994 200.88 75.3854 193.386 69.4557 191.24C63.3464 189.021 54.9223 191.695 49.5 188.397C43.9826 185.036 42.4923 176.305 37.7887 171.993C33.0535 167.638 24.2383 166.888 20.4543 161.719C16.6704 156.55 18.6152 147.915 15.8882 142.091C13.1929 136.309 5.31845 132.251 3.78584 125.972C2.27436 119.799 7.36898 112.58 7.10474 106.09C6.8405 99.7909 1.12226 93.0368 2.11582 86.5682C3.11994 80.0995 10.6139 75.3853 12.7596 69.4557C14.9792 63.3464 12.3051 54.9223 15.6028 49.5C18.964 43.9826 27.6946 42.4923 32.0071 37.7887C36.3618 33.0535 37.1123 24.2383 42.2809 20.4543C47.4495 16.6704 56.085 18.6152 61.9089 15.8882C67.6906 13.1929 71.7494 5.31845 78.0278 3.78584C84.2005 2.27436 91.4197 7.36898 97.9095 7.10474C104.209 6.8405 110.963 1.12226 117.432 2.11582C123.901 3.10937 128.615 10.6139 134.544 12.7596C140.654 14.9792 149.078 12.3051 154.5 15.6028C160.017 18.964 161.508 27.6946 166.211 32.0071C170.946 36.3618 179.762 37.1123 183.546 42.2809C187.33 47.4495 185.385 56.085 188.112 61.9089C190.807 67.6906 198.682 71.7494 200.214 78.0278C201.726 84.2005 196.631 91.4197 196.895 97.9095C197.159 104.209 202.878 110.963 201.884 117.432Z" fill="#E99AD1" stroke="black" stroke-width="3" stroke-miterlimit="10"/>
</svg>
