<svg width="95" height="95" viewBox="0 0 95 95" fill="none" xmlns="http://www.w3.org/2000/svg">
<path d="M47.3606 94.7212C73.5171 94.7212 94.7212 73.5171 94.7212 47.3606C94.7212 21.2041 73.5171 0 47.3606 0C21.2041 0 0 21.2041 0 47.3606C0 73.5171 21.2041 94.7212 47.3606 94.7212Z" fill="#F45557"/>
<path d="M93.2212 47.3606C93.2212 72.6887 72.6887 93.2212 47.3606 93.2212C22.0325 93.2212 1.5 72.6887 1.5 47.3606C1.5 22.0325 22.0325 1.5 47.3606 1.5C72.6887 1.5 93.2212 22.0325 93.2212 47.3606Z" fill="#FF4FAA" stroke="black" stroke-width="3"/>
<path d="M38.9642 47.0722L56.2999 47.0722" stroke="black" stroke-width="3"/>
<line x1="46.9989" y1="55.74" x2="46.9989" y2="38.4043" stroke="black" stroke-width="3"/>
</svg>
