<svg width="444" height="444" viewBox="0 0 444 444" fill="none" xmlns="http://www.w3.org/2000/svg">
<path d="M442 222C442 250.136 412.444 272.207 402.301 296.672C391.772 322.05 396.682 358.443 377.572 377.572C358.463 396.681 322.05 391.793 296.672 402.301C272.208 412.444 250.137 442 222 442C193.864 442 171.793 412.444 147.328 402.301C121.95 391.772 85.5574 396.681 66.4279 377.572C47.3186 358.463 52.2075 322.05 41.6994 296.672C31.5565 272.207 2 250.136 2 222C2 193.864 31.5565 171.793 41.6994 147.328C52.2278 121.95 47.3186 85.5574 66.4279 66.4278C85.5371 47.3186 121.95 52.2075 147.328 41.6994C171.793 31.5565 193.864 2 222 2C250.137 2 272.208 31.5565 296.672 41.6994C322.05 52.2278 358.443 47.3186 377.572 66.4278C396.682 85.5371 391.793 121.95 402.301 147.328C412.809 172.705 442 193.864 442 222V222Z" stroke="black" stroke-width="3" stroke-miterlimit="10"/>
</svg>
