<?xml version="1.0" encoding="utf-8"?>
<!-- Generator: Adobe Illustrator 26.3.1, SVG Export Plug-In . SVG Version: 6.00 Build 0)  -->
<svg version="1.1" id="Layer_1" xmlns="http://www.w3.org/2000/svg" xmlns:xlink="http://www.w3.org/1999/xlink" x="0px" y="0px"
	 viewBox="0 0 204 204" style="enable-background:new 0 0 204 204;" xml:space="preserve">
<style type="text/css">
	.st0{fill:#FFFFFF;stroke:#000000;stroke-width:3;stroke-miterlimit:10;}
</style>
<path class="st0" d="M201.6,117.5c1.8-11.3-2-22.2-9.3-30c1.4-3,2.4-6.3,3-9.8c3-19.3-10-37.3-29.1-40.7
	c-2.9-14.3-14.4-26-29.6-28.4c-7.5-1.2-14.7,0.1-21,3.2c-5.1-4.8-11.7-8.2-19.1-9.4C81.1,0.1,66.6,7.7,59.6,20.6
	c-19-2.2-36.5,11-39.5,30.1c-0.5,3.5-0.6,7-0.1,10.4C10.9,66.3,4.2,75.5,2.4,86.7c-1.7,11.2,1.9,22,9,29.7c-1.4,3-2.5,6.3-3,9.8
	c-2.9,19.1,9.7,36.9,28.5,40.6c2.8,14.4,14.3,26.2,29.7,28.6c7.5,1.2,14.7-0.1,21-3.2c5.1,4.8,11.7,8.2,19.1,9.4
	c15.3,2.4,29.9-5.4,36.9-18.3c19.2,2.5,37-10.8,39.9-30c0.5-3.4,0.5-6.8,0.1-10.1C193,138,199.8,128.8,201.6,117.5L201.6,117.5z"/>
</svg>
