<svg width="429" height="104" viewBox="0 0 429 104" fill="none" xmlns="http://www.w3.org/2000/svg">
<path d="M28.6306 103.749C23.6641 103.749 18.9897 102.588 14.6074 100.265C10.3226 97.8446 6.81681 94.2147 4.09008 89.3748C1.36336 84.5349 0 78.4851 0 71.2253C0 64.7399 0.973829 58.8836 2.92149 53.6566C4.96653 48.3327 7.74195 43.7832 11.2477 40.0081C14.7535 36.233 18.6488 33.3291 22.9337 31.2964C27.3159 29.2636 31.8929 28.2472 36.6647 28.2472C42.2155 28.2472 47.2307 29.554 51.7104 32.1675C56.19 34.7811 59.5497 38.5078 61.7895 43.3476L70.554 0.659975H83.1164L61.3513 102.297H49.3732L51.2721 93.1499C48.9349 96.3442 45.8187 98.9093 41.9234 100.845C38.0281 102.781 33.5971 103.749 28.6306 103.749ZM31.6982 93.5855C35.6909 93.5855 39.2453 92.6175 42.3616 90.6816C45.5752 88.7456 48.2533 86.2289 50.3957 83.1314C52.6355 79.937 54.291 76.4523 55.3622 72.6772C56.5308 68.8054 57.1151 64.8851 57.1151 60.9164C57.1151 55.8829 56.19 51.7206 54.3397 48.4295C52.5868 45.1384 50.2496 42.67 47.3281 41.0245C44.504 39.2821 41.3878 38.411 37.9794 38.411C33.4997 38.411 29.3123 39.7661 25.417 42.4765C21.5216 45.09 18.3567 48.8167 15.9221 53.6566C13.5849 58.3996 12.4163 63.9655 12.4163 70.3541C12.4163 75.4844 13.2441 79.7919 14.8996 83.2766C16.5551 86.6645 18.7949 89.2296 21.619 90.972C24.5405 92.7143 27.9002 93.5855 31.6982 93.5855Z" fill="black"/>
<path d="M103.779 104C95.023 104 88.1708 101.304 83.222 95.9119C78.2732 90.5199 75.7987 83.094 75.7987 73.6342C75.7987 64.9313 77.7973 56.8905 81.7944 49.5119C85.8867 42.0387 91.359 36.1263 98.2112 31.7748C105.063 27.4234 112.534 25.2476 120.624 25.2476C129.379 25.2476 136.184 27.849 141.038 33.0519C145.986 38.2548 148.461 45.5861 148.461 55.0458C148.461 63.7488 146.415 71.8842 142.322 79.452C138.325 86.9252 132.901 92.8848 126.048 97.3309C119.196 101.777 111.773 104 103.779 104ZM85.9343 75.1951C85.9343 82.7629 87.5046 88.5806 90.6452 92.6483C93.7858 96.6214 98.2588 98.6079 104.064 98.6079C110.06 98.6079 115.675 96.5741 120.909 92.5064C126.239 88.4387 130.474 82.9994 133.614 76.1883C136.755 69.2827 138.325 61.9041 138.325 54.0525C138.325 46.4847 136.803 40.7143 133.757 36.7412C130.712 32.6735 126.286 30.6397 120.481 30.6397C114.485 30.6397 108.823 32.6735 103.493 36.7412C98.1636 40.8089 93.881 46.2956 90.6452 53.2012C87.5046 60.0122 85.9343 67.3435 85.9343 75.1951Z" fill="black"/>
<path d="M203.656 102.297V51.1486H210.993V43.8559H229.385V51.1486H236.722V102.297H251.446V43.8559H244.109V36.5633H236.722V29.2706H210.993V36.5633H203.656V0H188.982V102.297H203.656Z" fill="black"/>
<path d="M279.615 104C273.905 104 269.48 102.25 266.339 98.7498C263.294 95.1551 261.771 90.0942 261.771 83.5669C261.771 79.2155 262.77 74.2018 264.769 68.526C266.767 62.7555 270.812 53.2958 276.903 40.1467L278.473 36.7412L269.337 27.9436H292.463L286.039 41.5657C280.519 53.485 276.617 62.6609 274.333 69.0935C272.049 75.4316 270.907 80.4925 270.907 84.2764C270.907 88.3441 271.954 91.5604 274.048 93.9254C276.237 96.1957 279.187 97.3309 282.899 97.3309C290.512 97.3309 297.745 92.2226 304.597 82.0061C311.545 71.695 317.635 57.0797 322.87 38.1602L323.155 36.5993L314.162 27.9436H334.433L320.3 80.3033C319.444 83.2359 319.015 86.1211 319.015 88.959C319.015 91.6077 319.491 93.6416 320.443 95.0605C321.395 96.4795 322.775 97.189 324.583 97.189C325.725 97.189 326.724 96.9052 327.581 96.3376C328.532 95.77 329.437 94.8713 330.293 93.6416L331.292 94.6349C330.626 97.0944 329.341 99.0336 327.438 100.453C325.63 101.777 323.393 102.439 320.728 102.439C317.398 102.439 314.828 101.304 313.02 99.0336C311.212 96.6687 310.307 93.4051 310.307 89.2428C310.307 86.2157 310.783 82.9521 311.735 79.452C302.884 95.8173 292.178 104 279.615 104Z" fill="black"/>
<path d="M369.728 104C360.972 104 354.12 101.635 349.171 96.9052C344.222 92.1753 341.748 85.6008 341.748 77.1816C341.748 68.7625 344.08 60.5325 348.743 52.4917C353.501 44.4509 359.592 37.9237 367.016 32.91C374.534 27.8017 382.243 25.2476 390.142 25.2476C396.328 25.2476 401.229 26.8558 404.846 30.0721C408.557 33.2884 410.413 37.6399 410.413 43.1265C410.413 51.9241 405.512 58.5932 395.709 63.1339C385.907 67.6746 371.488 69.9449 352.455 69.9449C352.074 72.7828 351.884 74.8167 351.884 76.0465C351.884 82.6683 353.787 87.8711 357.594 91.655C361.496 95.4389 366.873 97.3309 373.725 97.3309C384.289 97.3309 393.187 92.8848 400.42 83.9926L401.99 84.9859C394.662 97.662 383.908 104 369.728 104ZM353.168 65.2623C369.633 65.2623 381.91 63.4177 389.999 59.7284C398.088 56.0391 402.133 50.4105 402.133 42.8427C402.133 38.8696 401.039 35.8425 398.85 33.7614C396.756 31.6802 393.711 30.6397 389.714 30.6397C384.765 30.6397 379.768 32.2005 374.724 35.3222C369.68 38.444 365.207 42.7009 361.305 48.0929C357.499 53.3904 354.786 59.1135 353.168 65.2623Z" fill="black"/>
<path d="M422.148 103.007C420.149 103.007 418.484 102.392 417.151 101.162C415.914 99.8377 415.296 98.1823 415.296 96.1957C415.296 94.2092 415.914 92.5537 417.151 91.2293C418.484 89.905 420.149 89.2428 422.148 89.2428C424.146 89.2428 425.764 89.905 427.001 91.2293C428.334 92.5537 429 94.2092 429 96.1957C429 98.1823 428.334 99.8377 427.001 101.162C425.764 102.392 424.146 103.007 422.148 103.007Z" fill="black"/>
</svg>
