<svg width="25" height="25" viewBox="0 0 25 25" fill="none" xmlns="http://www.w3.org/2000/svg">
<g clip-path="url(#clip0_1600_224)">
<path d="M12.3797 2.23163C15.6919 2.23163 16.0795 2.24337 17.3832 2.3021C18.593 2.36083 19.2507 2.5605 19.6853 2.72494C20.2608 2.9481 20.6719 3.21824 21.1065 3.65282C21.5411 4.08741 21.8112 4.4985 22.0344 5.07402C22.1988 5.5086 22.4103 6.16634 22.4572 7.37612C22.516 8.67986 22.5277 9.07921 22.5277 12.3797C22.5277 15.6919 22.516 16.0795 22.4572 17.3832C22.3985 18.593 22.1988 19.2507 22.0344 19.6853C21.8112 20.2608 21.5411 20.6719 21.1065 21.1065C20.6719 21.5411 20.2608 21.8112 19.6853 22.0344C19.2507 22.1988 18.593 22.4103 17.3832 22.4572C16.0795 22.516 15.6801 22.5277 12.3797 22.5277C9.06746 22.5277 8.67986 22.516 7.37612 22.4572C6.16634 22.3985 5.5086 22.1988 5.07402 22.0344C4.4985 21.8112 4.08741 21.5411 3.65282 21.1065C3.21824 20.6719 2.9481 20.2608 2.72494 19.6853C2.5605 19.2507 2.34908 18.593 2.3021 17.3832C2.24337 16.0795 2.23163 15.6801 2.23163 12.3797C2.23163 9.06746 2.24337 8.67986 2.3021 7.37612C2.36083 6.16634 2.5605 5.5086 2.72494 5.07402C2.9481 4.4985 3.21824 4.08741 3.65282 3.65282C4.08741 3.21824 4.4985 2.9481 5.07402 2.72494C5.5086 2.5605 6.16634 2.34908 7.37612 2.3021C8.67986 2.24337 9.07921 2.23163 12.3797 2.23163ZM12.3797 0C9.02048 0 8.59765 0.0117454 7.27041 0.0704725C5.95493 0.1292 5.05053 0.340617 4.26359 0.645998C3.45315 0.963124 2.76017 1.38596 2.06719 2.07894C1.37421 2.77192 0.951379 3.45315 0.634253 4.27533C0.328872 5.06227 0.117454 5.96667 0.0587271 7.28216C0.0117454 8.59764 0 9.02048 0 12.3797C0 15.7389 0.0117454 16.1617 0.0704725 17.4889C0.1292 18.8044 0.340617 19.7088 0.645998 20.4958C0.963124 21.3062 1.38596 21.9992 2.07894 22.6921C2.77192 23.3851 3.45315 23.808 4.27533 24.1251C5.06227 24.4305 5.96667 24.6419 7.28216 24.7006C8.59764 24.7593 9.02048 24.7711 12.3914 24.7711C15.7506 24.7711 16.1734 24.7593 17.5007 24.7006C18.8162 24.6419 19.7206 24.4305 20.5075 24.1251C21.3179 23.808 22.0109 23.3851 22.7039 22.6921C23.3969 21.9992 23.8197 21.3179 24.1368 20.4958C24.4422 19.7088 24.6536 18.8044 24.7124 17.4889C24.7711 16.1734 24.7828 15.7506 24.7828 12.3797C24.7828 9.02048 24.7711 8.59765 24.7124 7.27041C24.6536 5.95493 24.4422 5.05053 24.1368 4.26359C23.8197 3.45315 23.3969 2.76017 22.7039 2.06719C22.0109 1.37421 21.3297 0.951379 20.5075 0.634253C19.7206 0.328872 18.8162 0.117454 17.5007 0.0587271C16.1734 0.0117454 15.7506 0 12.3797 0V0Z" fill="black"/>
<path d="M12.3797 6.02515C8.86778 6.02515 6.02539 8.86754 6.02539 12.3794C6.02539 15.8913 8.86778 18.7337 12.3797 18.7337C15.8915 18.7337 18.7339 15.8913 18.7339 12.3794C18.7339 8.86754 15.8915 6.02515 12.3797 6.02515ZM12.3797 16.5138C10.1011 16.5138 8.25702 14.6698 8.25702 12.3912C8.25702 10.1126 10.1011 8.26852 12.3797 8.26852C14.6583 8.26852 16.5023 10.1126 16.5023 12.3912C16.5023 14.6698 14.6583 16.5138 12.3797 16.5138Z" fill="black"/>
<path d="M18.9923 7.2702C19.8161 7.2702 20.4839 6.60236 20.4839 5.77853C20.4839 4.95471 19.8161 4.28687 18.9923 4.28687C18.1685 4.28687 17.5006 4.95471 17.5006 5.77853C17.5006 6.60236 18.1685 7.2702 18.9923 7.2702Z" fill="black"/>
</g>
<defs>
<clipPath id="clip0_1600_224">
<rect width="24.7711" height="24.7711" fill="white"/>
</clipPath>
</defs>
</svg>
