<svg width="650" height="848" viewBox="0 0 650 848" fill="none" xmlns="http://www.w3.org/2000/svg">
<path d="M30.2739 321.213C90.7884 242.62 251.572 339.436 266.916 272.09C282.261 204.744 169.054 149.424 171.928 -15.1352C174.794 -179.668 348.591 -222.345 433.057 -140.382C538.739 -37.8165 398.283 55.3308 411.684 120.374C428.816 203.414 605.315 242.706 584.435 344.644C558.835 469.673 310.221 361.119 308.858 439.119C307.673 506.847 429.903 453.141 550.921 507.535C666.244 559.341 669.606 693.178 609.764 773.271C528.437 882.11 360.287 874.27 290.907 717.975C254.482 635.933 251.696 553.774 167.485 528.472C50.6261 493.366 -47.6301 422.369 30.2739 321.213Z" fill="#FE3E78" stroke="black" stroke-width="3" stroke-miterlimit="10"/>
</svg>
