<svg width="666" height="394" viewBox="0 0 666 394" fill="none" xmlns="http://www.w3.org/2000/svg">
<path d="M367.349 368.938C412.674 324.867 339.603 230.344 381.116 215.667C422.629 200.99 465.944 268.492 569.916 254.521C673.873 240.557 688.162 127.503 630.084 80.144C557.409 20.8902 508.725 116.588 466.564 112.918C412.737 108.217 374.933 -0.49243 311.926 20.2399C234.644 45.6622 321.58 194.858 272.298 201.48C229.506 207.232 254.554 125.973 211.254 53.4631C170.008 -15.6363 85.0298 -7.87829 38.7052 35.8788C-24.2439 95.3449 -6.96446 201.097 97.0677 233.427C151.677 250.402 203.896 246.095 226.082 297.478C256.868 368.782 309.012 425.672 367.349 368.938Z" fill="#9F37DC" stroke="black" stroke-width="3" stroke-miterlimit="10"/>
</svg>
