<svg width="626" height="623" viewBox="0 0 626 623" fill="none" xmlns="http://www.w3.org/2000/svg">
<path d="M500.511 128.233C504.576 207.951 355.757 232.615 381.552 281.863C407.347 331.111 505.42 305.879 589.607 408.14C673.786 510.382 589.865 627.253 495.441 621.166C377.292 613.54 414.478 483.173 372.319 450.343C318.481 408.441 190.099 476.533 149.621 403.214C99.9671 313.291 308.591 249.958 268.687 201.487C234.04 159.397 187.393 256.098 85.0297 285.976C-12.5017 314.464 -84.4545 234.27 -89.7145 153.984C-96.8572 44.8803 9.99494 -38.1102 134.02 21.3676C199.128 52.5854 243.739 101.438 308.416 72.9635C398.164 33.4476 495.288 25.62 500.511 128.233Z" fill="#769FF4" stroke="black" stroke-width="3" stroke-miterlimit="10"/>
</svg>
