<svg width="212" height="31" viewBox="0 0 212 31" fill="none" xmlns="http://www.w3.org/2000/svg">
<g clip-path="url(#clip0_1550_5689)">
<path d="M102.004 24.7171V0H112.633C113.926 0 115.11 0.264838 116.18 0.794514C117.25 1.32419 118.093 2.07689 118.703 3.05261C119.317 4.02833 119.62 5.17828 119.62 6.4955C119.62 7.81272 119.243 9.04283 118.491 10.0429C117.738 11.0431 116.773 11.7539 115.595 12.1791C116.936 12.416 118.031 13.0328 118.877 14.0329C119.724 15.033 120.149 16.3468 120.149 17.9707C120.149 19.3123 119.825 20.4936 119.177 21.5181C118.529 22.5426 117.654 23.3301 116.546 23.8842C115.438 24.4383 114.239 24.7136 112.946 24.7136H102.001L102.004 24.7171ZM112.208 10.7364C113.48 10.7364 114.504 10.3879 115.278 9.69447C116.055 9.00101 116.442 8.04272 116.442 6.8161C116.442 5.58948 116.055 4.63467 115.278 3.93772C114.501 3.24427 113.476 2.8958 112.208 2.8958H105.183V10.7329H112.208V10.7364ZM112.312 21.8213C113.724 21.8213 114.856 21.4623 115.703 20.7445C116.55 20.0266 116.975 19.0196 116.975 17.7267C116.975 16.4339 116.55 15.4268 115.703 14.709C114.856 13.9911 113.727 13.6322 112.312 13.6322H105.179V21.8248H112.312V21.8213Z" fill="black"/>
<path d="M131.907 25.069C130.401 25.069 129.028 24.7206 127.795 24.0271C126.558 23.3336 125.575 22.2917 124.847 20.9013C124.118 19.5144 123.753 17.8313 123.753 15.852C123.753 13.8726 124.129 12.2313 124.882 10.8549C125.634 9.47842 126.631 8.44346 127.865 7.74652C129.102 7.05306 130.426 6.70459 131.837 6.70459C133.322 6.70459 134.621 7.03564 135.74 7.69425C136.859 8.35286 137.716 9.27631 138.319 10.4646C138.918 11.6529 139.218 13.0119 139.218 14.5417V16.3085H126.753C126.798 17.6745 127.07 18.8209 127.565 19.7514C128.06 20.6818 128.694 21.3752 129.471 21.8352C130.248 22.2952 131.046 22.5252 131.872 22.5252H132.154C133.165 22.5252 134.036 22.2778 134.768 21.7829C135.496 21.2881 135.966 20.5459 136.179 19.5597H139.179C138.848 21.302 138.019 22.6541 136.691 23.6194C135.36 24.5846 133.768 25.0655 131.907 25.0655V25.069ZM136.214 13.8761C136.144 12.3916 135.719 11.2521 134.942 10.4507C134.165 9.64917 133.175 9.25191 131.976 9.25191H131.694C130.565 9.25191 129.551 9.62129 128.659 10.3635C127.763 11.1058 127.175 12.2766 126.892 13.8761H136.214V13.8761Z" fill="black"/>
<path d="M148.362 25.0689C147.278 25.0689 146.302 24.8459 145.431 24.3963C144.56 23.9503 143.87 23.3265 143.365 22.525C142.859 21.7236 142.605 20.8315 142.605 19.8418C142.605 18.6187 142.915 17.6116 143.542 16.8241C144.166 16.0365 144.95 15.4581 145.891 15.0956C146.832 14.7297 147.846 14.5137 148.926 14.444L154.01 14.0189V13.4195C154.01 12.5239 153.857 11.7712 153.55 11.1614C153.244 10.5481 152.791 10.0777 152.191 9.75009C151.592 9.41905 150.891 9.25527 150.09 9.25527H149.843C148.808 9.25527 147.923 9.50268 147.194 9.99751C146.466 10.4923 146.051 11.1963 145.957 12.1162H142.957C143.051 10.5167 143.751 9.21693 145.058 8.21334C146.365 7.21322 148.006 6.71143 149.982 6.71143C151.466 6.71143 152.742 7.01111 153.812 7.61048C154.882 8.20985 155.683 9.02179 156.213 10.0463C156.742 11.0708 157.007 12.1929 157.007 13.4195V20.835C157.007 21.6364 157.018 22.2602 157.042 22.7063C157.042 23.0373 157.052 23.3718 157.077 23.7133C157.101 24.0548 157.136 24.3894 157.181 24.7204H154.355C154.307 24.4869 154.279 24.2326 154.268 23.9608C154.258 23.6889 154.237 23.4136 154.216 23.1314C154.192 22.8735 154.181 22.6366 154.181 22.424V21.8943C153.805 22.7655 153.087 23.5112 152.028 24.135C150.968 24.7588 149.745 25.0724 148.355 25.0724L148.362 25.0689ZM148.996 22.5285C149.749 22.5285 150.515 22.3404 151.292 21.964C152.069 21.5877 152.717 21.0754 153.233 20.4273C153.749 19.7791 154.01 19.0926 154.01 18.3608V16.385L149.386 16.7369C148.257 16.831 147.344 17.1377 146.651 17.6534C145.957 18.1726 145.609 18.8556 145.609 19.7024C145.609 20.5039 145.901 21.173 146.49 21.7131C147.079 22.2532 147.808 22.525 148.679 22.525H148.996V22.5285Z" fill="black"/>
<path d="M168.134 25.069C166.838 25.069 165.74 24.7972 164.834 24.257C163.928 23.7169 163.245 22.9677 162.785 22.0164C162.325 21.0651 162.095 19.9639 162.095 18.7164V7.06348H165.095V18.009C165.095 19.5144 165.405 20.6469 166.033 21.3996C166.656 22.1523 167.604 22.5286 168.876 22.5286H169.193C169.995 22.5286 170.747 22.2882 171.451 21.8038C172.159 21.3229 172.734 20.6329 173.18 19.7374C173.626 18.8418 173.852 17.7964 173.852 16.5942V7.06348H176.853V24.717H173.852V21.3613C173.452 22.4694 172.758 23.3615 171.768 24.0445C170.779 24.7275 169.566 25.069 168.13 25.069H168.134Z" fill="black"/>
<path d="M187.798 24.7172C186.599 24.7172 185.679 24.4071 185.045 23.7799C184.411 23.1561 184.09 22.257 184.09 21.0792V9.6389H180.135V7.06021H184.09V1.3418H187.091V7.06369H191.398V9.64238H187.091V20.6576C187.091 21.1768 187.195 21.5392 187.408 21.7518C187.62 21.9643 187.983 22.0689 188.502 22.0689H191.928V24.7172H187.798V24.7172Z" fill="black"/>
<path d="M194.611 31V28.3516H199.59C199.942 28.3516 200.221 28.3029 200.42 28.2088C200.618 28.1147 200.768 27.9683 200.862 27.7662C200.956 27.5676 201.005 27.2888 201.005 26.9369V22.8423L201.43 25.3478L193.558 7.06006H196.771L202.915 21.5356H202.033L208.034 7.06006H211.142L203.41 25.3478L203.87 22.8423V27.5014C203.87 28.7001 203.573 29.5852 202.988 30.1498C202.399 30.7143 201.503 30.9965 200.305 30.9965H194.621L194.611 31Z" fill="black"/>
<path d="M4.74963 24.7136V0H15.6254C17.0855 0 18.3679 0.275292 19.4725 0.829362C20.5772 1.38343 21.4449 2.14658 22.0687 3.12579C22.6924 4.10151 23.0026 5.21661 23.0026 6.46066C23.0026 7.87197 22.6262 9.07419 21.8735 10.0604C21.1208 11.05 20.1312 11.7539 18.908 12.1791C20.274 12.4369 21.3857 13.0851 22.2429 14.1201C23.1001 15.155 23.5322 16.4757 23.5322 18.0752C23.5322 19.3471 23.2012 20.4866 22.5426 21.5007C21.884 22.5147 20.9779 23.3023 19.8245 23.8668C18.6711 24.4313 17.3887 24.7136 15.9774 24.7136H4.74963ZM14.9877 10.3461C16.1865 10.3461 17.1169 10.0569 17.7755 9.4819C18.4341 8.90692 18.7651 8.09847 18.7651 7.06351C18.7651 6.02855 18.4341 5.19222 17.7755 4.6277C17.1169 4.06317 16.1865 3.78091 14.9877 3.78091H8.98704V10.3461H14.9877ZM15.27 20.9396C16.5175 20.9396 17.5002 20.64 18.218 20.0406C18.9359 19.4412 19.2948 18.5875 19.2948 17.4793C19.2948 16.3712 18.9359 15.4895 18.218 14.9006C17.5002 14.3117 16.5175 14.019 15.27 14.019H8.98704V20.9396H15.27Z" fill="black"/>
<path d="M26.9926 24.7136V0H31.0522V24.7136H26.9926Z" fill="black"/>
<path d="M40.0916 25.069C39.0323 25.069 38.0601 24.8494 37.1784 24.4173C36.2968 23.9852 35.5964 23.3719 35.0771 22.5809C34.5579 21.7933 34.3 20.8908 34.3 19.8802C34.3 18.6327 34.5997 17.6012 35.1991 16.7893C35.7985 15.9773 36.5825 15.364 37.5478 14.9528C38.5131 14.5416 39.5829 14.2873 40.7607 14.1932L45.3849 13.8064V13.3115C45.3849 12.6529 45.256 12.0745 44.9981 11.5831C44.7402 11.0883 44.3674 10.705 43.8865 10.4367C43.4021 10.1648 42.8341 10.0289 42.1755 10.0289H41.8932C41.0221 10.0289 40.2938 10.252 39.7048 10.698C39.1159 11.144 38.7884 11.7121 38.7152 12.3916H34.6555C34.7984 10.7189 35.5371 9.35639 36.8787 8.29704C38.2204 7.23768 39.9383 6.70801 42.0326 6.70801C43.538 6.70801 44.8448 6.97982 45.9529 7.51995C47.0576 8.06008 47.9009 8.81974 48.4759 9.79895C49.0508 10.7747 49.3401 11.9107 49.3401 13.207V20.835C49.3401 21.6365 49.3505 22.2603 49.3749 22.7063C49.3749 23.0374 49.3854 23.3719 49.4098 23.7134C49.4342 24.0549 49.469 24.3894 49.5143 24.7205H45.702C45.6776 24.5323 45.6532 24.3337 45.6323 24.1211C45.6079 23.9085 45.5835 23.6751 45.5626 23.4137C45.5382 23.2012 45.5278 22.9956 45.5278 22.7969V22.2847C45.0574 23.1105 44.3395 23.7796 43.3742 24.2988C42.409 24.8146 41.3148 25.0759 40.0916 25.0759V25.069ZM41.0813 21.7515C41.7887 21.7515 42.4682 21.5808 43.1303 21.2393C43.7889 20.8978 44.329 20.4273 44.7542 19.8279C45.1793 19.2286 45.3884 18.5735 45.3884 17.8695V16.8102L41.2939 17.197C40.4715 17.2667 39.771 17.5106 39.1926 17.9218C38.6141 18.333 38.3284 18.9045 38.3284 19.6328C38.3284 20.2461 38.5619 20.7514 39.0358 21.1521C39.5062 21.5529 40.0951 21.7515 40.8025 21.7515H41.0848H41.0813Z" fill="black"/>
<path d="M53.438 24.7136V7.06003H57.4977V9.60039C58.0622 8.70481 58.8079 8.0009 59.7383 7.48168C60.6688 6.96246 61.7455 6.70459 62.9687 6.70459C64.3347 6.70459 65.4812 6.9764 66.4116 7.51653C67.342 8.05666 68.0424 8.81633 68.5129 9.79553C68.9833 10.7712 69.2202 11.9073 69.2202 13.2036V24.7136H65.1606V13.8029C65.1606 13.0015 65.0421 12.3185 64.8086 11.7539C64.5716 11.1894 64.2267 10.7608 63.7667 10.4646C63.3067 10.1719 62.7247 10.022 62.0173 10.022H61.7351C60.9824 10.022 60.282 10.2276 59.6338 10.6388C58.9856 11.05 58.4699 11.6285 58.0796 12.3672C57.6928 13.1095 57.4977 13.9389 57.4977 14.8553V24.7066H53.438V24.7136Z" fill="black"/>
<path d="M73.28 24.7136V0H77.3397V14.0887L84.3301 7.06351H89.4491L82.4239 14.0887L89.8045 24.7171H84.9329L79.5665 16.9496L77.3432 19.138V24.7171H73.2835L73.28 24.7136Z" fill="black"/>
<path d="M191.143 28.9893H96.2721V30.993H191.143V28.9893Z" fill="black"/>
<path d="M92.0174 21.3335C92.9548 21.3335 93.7144 22.0932 93.7144 23.0305C93.7144 23.9679 92.9513 24.7276 92.0174 24.7276C91.08 24.7276 90.3203 23.9645 90.3203 23.0305C90.3203 22.0932 91.08 21.3335 92.0174 21.3335V21.3335ZM92.0174 21.6785C91.2716 21.6785 90.6653 22.2848 90.6653 23.0305C90.6653 23.7763 91.2716 24.3826 92.0174 24.3826C92.7631 24.3826 93.3694 23.7763 93.3694 23.0305C93.3694 22.2848 92.7631 21.6785 92.0174 21.6785Z" fill="black"/>
<path d="M91.2751 22.1036C91.2751 22.1036 91.2821 22.1036 91.2856 22.1036C91.526 22.1036 91.7665 22.1036 92.0069 22.1036C92.1219 22.1036 92.2404 22.1175 92.3519 22.1524C92.4251 22.1768 92.4913 22.2116 92.5436 22.2708C92.5993 22.3336 92.6307 22.4068 92.6412 22.4869C92.6551 22.5775 92.6516 22.6681 92.6272 22.7552C92.5924 22.8737 92.5157 22.9539 92.4077 23.0096C92.3763 23.0235 92.345 23.0375 92.3136 23.0479C92.3519 23.0584 92.3903 23.0758 92.4251 23.1002C92.4913 23.1455 92.5366 23.2082 92.5749 23.2779C92.6272 23.372 92.6725 23.4696 92.7213 23.5637C92.7701 23.6647 92.8189 23.7623 92.8712 23.8634C92.8712 23.8668 92.8746 23.8738 92.8781 23.8773C92.8711 23.8773 92.8677 23.8773 92.8642 23.8773C92.7108 23.8773 92.5575 23.8773 92.4077 23.8773C92.3972 23.8773 92.3903 23.8773 92.3868 23.8634C92.3136 23.7135 92.2404 23.5637 92.1638 23.4138C92.1463 23.379 92.1254 23.3476 92.1045 23.3163C92.0627 23.2535 92.0034 23.2187 91.9268 23.2117C91.8641 23.2048 91.8013 23.2082 91.7351 23.2048V23.8773H91.2786V22.1001L91.2751 22.1036ZM91.7316 22.8911C91.8118 22.8911 91.8885 22.8911 91.9651 22.8911C91.993 22.8911 92.0209 22.8842 92.0488 22.8772C92.1184 22.8598 92.1638 22.8179 92.1847 22.7483C92.1986 22.6925 92.1986 22.6333 92.1847 22.5775C92.1672 22.5148 92.1324 22.473 92.0697 22.4555C92.0418 22.4486 92.0139 22.4416 91.986 22.4381C91.9024 22.4381 91.8223 22.4381 91.7386 22.4381C91.7386 22.4381 91.7386 22.4381 91.7351 22.4381V22.8911H91.7316Z" fill="black"/>
<path d="M93.7144 28.9893H0V30.993H93.7144V28.9893Z" fill="black"/>
</g>
<defs>
<clipPath id="clip0_1550_5689">
<rect width="211.135" height="31" fill="white"/>
</clipPath>
</defs>
</svg>
