<svg width="154" height="154" viewBox="0 0 154 154" fill="none" xmlns="http://www.w3.org/2000/svg">
    <path d="M151.681 88.281c1.313-8.487-1.507-16.653-6.954-22.468a26.691 26.691 0 0 0 2.227-7.316c2.228-14.445-7.489-27.97-21.789-30.534-2.142-10.752-10.78-19.532-22.232-21.304a26.723 26.723 0 0 0-15.785 2.365A26.671 26.671 0 0 0 72.813 2C61.354.23 50.467 5.995 45.183 15.604c-14.257-1.65-27.379 8.265-29.592 22.575a26.89 26.89 0 0 0-.064 7.787C8.68 49.888 3.619 56.776 2.319 65.176c-1.3 8.395 1.45 16.475 6.775 22.284a27.003 27.003 0 0 0-2.249 7.35c-2.206 14.303 7.297 27.706 21.361 30.456 2.092 10.816 10.752 19.661 22.26 21.44a26.729 26.729 0 0 0 15.786-2.365 26.677 26.677 0 0 0 14.335 7.023c11.502 1.779 22.418-4.037 27.679-13.703 14.393 1.851 27.715-8.101 29.943-22.532.392-2.565.407-5.094.093-7.544 6.925-3.908 12.065-10.831 13.371-19.304h.008z" stroke="#000" stroke-width="3" stroke-miterlimit="10"/>
</svg>
