<svg width="154" height="154" viewBox="0 0 154 154" fill="none" xmlns="http://www.w3.org/2000/svg">
    <path d="M151.681 88.598c1.313-8.487-1.507-16.653-6.954-22.468a26.691 26.691 0 0 0 2.227-7.315c2.228-14.446-7.489-27.97-21.789-30.535-2.142-10.752-10.78-19.532-22.232-21.303A26.723 26.723 0 0 0 87.148 9.34 26.671 26.671 0 0 0 72.813 2.32C61.354.547 50.467 6.312 45.183 15.92c-14.257-1.65-27.379 8.266-29.592 22.576a26.89 26.89 0 0 0-.064 7.787C8.68 50.206 3.619 57.093 2.319 65.494 1.02 73.89 3.77 81.97 9.094 87.777a27.004 27.004 0 0 0-2.249 7.351c-2.206 14.303 7.297 27.705 21.361 30.456 2.092 10.816 10.752 19.66 22.26 21.439a26.714 26.714 0 0 0 15.786-2.365 26.662 26.662 0 0 0 14.335 7.023c11.502 1.779 22.418-4.036 27.68-13.702 14.392 1.85 27.714-8.102 29.942-22.533.392-2.565.407-5.094.093-7.544 6.925-3.908 12.065-10.83 13.371-19.304h.008z" fill="#88AE9C" stroke="#000" stroke-width="3" stroke-miterlimit="10"/>
</svg>
