<svg width="78" height="78" viewBox="0 0 78 78" fill="none" xmlns="http://www.w3.org/2000/svg">
    <path d="M76.5 39.25c0 4.764-5.004 8.501-6.722 12.643-1.782 4.297-.951 10.46-4.187 13.698-3.235 3.236-9.4 2.408-13.698 4.187-4.142 1.718-7.879 6.722-12.643 6.722-4.764 0-8.501-5.004-12.643-6.722-4.297-1.782-10.46-.951-13.698-4.187-3.236-3.235-2.408-9.4-4.187-13.698C7.004 47.751 2 44.014 2 39.25c0-4.764 5.004-8.501 6.722-12.643 1.783-4.297.951-10.46 4.187-13.698 3.235-3.236 9.4-2.408 13.698-4.187C30.749 7.004 34.486 2 39.25 2c4.764 0 8.501 5.004 12.643 6.722 4.297 1.783 10.46.951 13.698 4.187 3.236 3.235 2.408 9.4 4.187 13.698 1.78 4.297 6.722 7.879 6.722 12.643z" stroke="#000" stroke-width="3" stroke-miterlimit="10"/>
</svg>
