<svg width="84" height="29" viewBox="0 0 84 29" fill="none" xmlns="http://www.w3.org/2000/svg">
<g style="mix-blend-mode:multiply" opacity="0.1">
<g clip-path="url(#clip0_1175_2895)">
<path d="M24.678 23.1274V0.880859H28.3099V23.1274H24.678Z" fill="black"/>
<path d="M36.4974 23.4431C35.549 23.4431 34.6814 23.2461 33.8916 22.8551C33.1018 22.4641 32.4736 21.9135 32.0134 21.2035C31.5501 20.4934 31.3169 19.6833 31.3169 18.773C31.3169 17.65 31.5843 16.7241 32.1223 15.9922C32.6602 15.2602 33.3599 14.7097 34.2243 14.3406C35.0888 13.9715 36.0465 13.7431 37.1007 13.6587L41.2395 13.3083V12.8642C41.2395 12.2698 41.1244 11.7506 40.8912 11.3064C40.658 10.8622 40.3284 10.5181 39.8961 10.2741C39.4639 10.0302 38.9539 9.90817 38.3631 9.90817H38.1113C37.3308 9.90817 36.6778 10.1084 36.1522 10.5119C35.6267 10.9154 35.3313 11.4221 35.266 12.0384H31.6341C31.7616 10.5338 32.4239 9.30446 33.6242 8.35041C34.8245 7.39636 36.3606 6.9209 38.2356 6.9209C39.5821 6.9209 40.7513 7.16488 41.7432 7.65286C42.732 8.14083 43.4846 8.82274 44.0007 9.70172C44.5169 10.5807 44.775 11.6036 44.775 12.7672V19.6301C44.775 20.3495 44.7843 20.9126 44.8061 21.313C44.8061 21.6101 44.8154 21.9135 44.8372 22.2201C44.859 22.5266 44.8901 22.8301 44.9305 23.1272H41.5193C41.4976 22.9583 41.4758 22.7769 41.4571 22.5861C41.4354 22.3953 41.4136 22.1826 41.3949 21.9511C41.3732 21.7603 41.3638 21.5757 41.3638 21.3943V20.9345C40.9409 21.6758 40.3004 22.2795 39.4359 22.7456C38.5715 23.2117 37.592 23.4463 36.4974 23.4463V23.4431ZM37.3836 20.4559C38.0149 20.4559 38.6243 20.3026 39.2151 19.9961C39.806 19.6895 40.2879 19.2641 40.6673 18.7261C41.0467 18.1849 41.2364 17.5969 41.2364 16.9619V16.0078L37.5733 16.3582C36.8363 16.4207 36.2082 16.6397 35.692 17.0088C35.1758 17.3779 34.9178 17.894 34.9178 18.5509C34.9178 19.1014 35.1292 19.5581 35.549 19.9179C35.9688 20.2776 36.4974 20.459 37.1286 20.459H37.3805L37.3836 20.4559Z" fill="black"/>
<path d="M48.2827 23.1272V7.23683H51.9147V9.52655C52.4215 8.72264 53.0901 8.08453 53.9203 7.61845C54.7506 7.15237 55.7145 6.9209 56.8122 6.9209C58.0343 6.9209 59.0604 7.16488 59.8938 7.65286C60.724 8.14083 61.3521 8.82274 61.775 9.70172C62.1948 10.5807 62.4063 11.6036 62.4063 12.7672V23.1272H58.7743V13.3083C58.7743 12.5889 58.6686 11.9727 58.4572 11.4659C58.2457 10.9592 57.9348 10.5713 57.5243 10.3054C57.1138 10.0395 56.5914 9.90817 55.9602 9.90817H55.7083C55.0335 9.90817 54.4085 10.0927 53.827 10.465C53.2487 10.8372 52.7853 11.3533 52.4371 12.0227C52.0888 12.689 51.9147 13.4366 51.9147 14.2624V23.1303H48.2827V23.1272Z" fill="black"/>
<path d="M4.50024 23.1366V0.937012H14.2114C15.5143 0.937012 16.6586 1.18725 17.6474 1.68148C18.6363 2.17884 19.4074 2.86701 19.964 3.74285C20.5206 4.62183 20.8005 5.61967 20.8005 6.7395C20.8005 8.00948 20.4647 9.08553 19.793 9.97389C19.1213 10.8622 18.2382 11.4972 17.1437 11.8757C18.3626 12.1072 19.3546 12.689 20.1226 13.6212C20.8907 14.5502 21.2731 15.7357 21.2731 17.1746C21.2731 18.3163 20.9777 19.3423 20.39 20.2526C19.8023 21.1628 18.9907 21.8698 17.9615 22.3765C16.9322 22.8833 15.7848 23.1366 14.5254 23.1366H4.50024ZM13.6423 10.2304C14.7151 10.2304 15.5454 9.97076 16.1331 9.45463C16.7208 8.93538 17.0162 8.21281 17.0162 7.28065C17.0162 6.3485 16.7208 5.6009 16.1331 5.09103C15.5454 4.58429 14.7151 4.33092 13.6423 4.33092H8.28456V10.2304H13.6454H13.6423ZM13.8942 19.7458C15.0074 19.7458 15.8843 19.4768 16.528 18.9357C17.1685 18.3977 17.4888 17.6313 17.4888 16.6366C17.4888 15.6419 17.1685 14.8505 16.528 14.3218C15.8874 13.7932 15.0105 13.5273 13.8942 13.5273H8.28456V19.7427H13.8973L13.8942 19.7458Z" fill="black"/>
<path d="M65.6963 23.1366V0.937012H69.322V13.5899L75.566 7.27753H80.137L73.862 13.5899L80.4511 23.1366H76.1008L71.309 16.158L69.322 18.1255V23.1366H65.6963Z" fill="black"/>
<path d="M82.4286 20.0996C83.2651 20.0996 83.9461 20.7815 83.9429 21.6261C83.9429 22.4675 83.262 23.1526 82.4255 23.1494C81.589 23.1494 80.9111 22.4644 80.9111 21.623C80.9111 20.7815 81.589 20.0996 82.4255 20.0996H82.4286ZM82.4286 20.4093C81.7632 20.4093 81.2221 20.9536 81.2221 21.623C81.2221 22.2924 81.7632 22.8398 82.4286 22.8398C83.094 22.8398 83.6351 22.2955 83.6351 21.6261C83.6351 20.9567 83.094 20.4093 82.4286 20.4093Z" fill="black"/>
<path d="M81.7664 20.7907C81.7664 20.7907 81.7726 20.7907 81.7757 20.7907C81.9902 20.7907 82.2048 20.7907 82.4194 20.7907C82.522 20.7907 82.6277 20.8032 82.7272 20.8376C82.7925 20.8595 82.8516 20.8908 82.8982 20.944C82.948 21.0003 82.976 21.066 82.9853 21.1379C82.9977 21.2193 82.9946 21.3006 82.9729 21.3788C82.9418 21.4851 82.8734 21.5571 82.777 21.6071C82.749 21.6197 82.721 21.6322 82.693 21.6416C82.7272 21.6509 82.7614 21.6666 82.7925 21.6885C82.8516 21.7291 82.892 21.7854 82.9262 21.848C82.9729 21.9325 83.0133 22.02 83.0568 22.1045C83.1004 22.1952 83.1439 22.2828 83.1905 22.3735L83.1968 22.386C83.1968 22.386 83.1874 22.386 83.1843 22.386C83.0475 22.386 82.9107 22.386 82.7738 22.386C82.7645 22.386 82.7583 22.386 82.7552 22.3735C82.6899 22.239 82.6246 22.1014 82.5562 21.9669C82.5406 21.9356 82.522 21.9074 82.5033 21.8793C82.466 21.823 82.4131 21.7917 82.3447 21.7854C82.2888 21.7792 82.2328 21.7823 82.1737 21.7792V22.3829H81.7664V20.7876V20.7907ZM82.1737 21.4977C82.2452 21.4977 82.3136 21.4977 82.3821 21.4977C82.4069 21.4977 82.4318 21.4914 82.4567 21.4851C82.5189 21.4695 82.5593 21.432 82.578 21.3694C82.5904 21.3194 82.5904 21.2662 82.578 21.2161C82.5624 21.1598 82.5313 21.1223 82.4753 21.1067C82.4505 21.1004 82.4256 21.0941 82.4007 21.091C82.3261 21.091 82.2515 21.091 82.1799 21.091H82.1768V21.5008L82.1737 21.4977Z" fill="black"/>
<path d="M83.9461 26.978H0.258789V28.7766H83.9461V26.978Z" fill="black"/>
</g>
</g>
<defs>
<clipPath id="clip0_1175_2895">
<rect width="83.6873" height="27.8958" fill="white" transform="translate(0.258789 0.880859)"/>
</clipPath>
</defs>
</svg>
