<svg width="25" height="25" viewBox="0 0 25 25" fill="none" xmlns="http://www.w3.org/2000/svg">
<path d="M24.9999 12.0711C25.0044 18.717 19.6056 24.1159 12.9436 24.128C6.3005 24.1403 0.873945 18.7264 0.872071 12.0852C0.870197 5.40205 6.26718 -0.00270531 12.9402 1.01592e-06C19.607 0.00270735 24.9955 5.39622 25.0001 12.0711H24.9999ZM19.484 7.98492C19.4607 7.97306 19.4548 7.96827 19.4484 7.96702C19.3905 7.9562 19.3326 7.94412 19.2743 7.93621C18.3776 7.8163 17.6243 7.41118 16.981 6.78623C16.4857 6.30513 16.098 5.74554 15.7816 5.13495C15.7447 5.06396 15.7045 5.03711 15.6225 5.03752C14.88 5.04106 14.1376 5.0396 13.3952 5.0396C13.361 5.0396 13.3271 5.0396 13.2794 5.0396V5.19199C13.2794 8.26555 13.2798 11.3393 13.2794 14.4129C13.2792 15.694 12.2036 16.7026 10.9251 16.6233C9.76517 16.5513 8.8572 15.5993 8.84242 14.4397C8.82764 13.2748 9.71562 12.2919 10.8768 12.2035C11.1874 12.1797 11.5007 12.1937 11.8128 12.1904C11.8493 12.1899 11.8859 12.1904 11.923 12.1904V9.73425C11.3758 9.74071 10.8349 9.70573 10.298 9.79671C7.77081 10.2245 6.04753 12.5707 6.4454 15.1019C6.72377 16.8725 7.72542 18.1289 9.39665 18.7674C11.0718 19.4073 12.6567 19.1346 14.0479 17.9981C15.1901 17.0651 15.7347 15.8225 15.738 14.3483C15.7422 12.5549 15.7391 10.7612 15.7391 8.96774C15.7391 8.92236 15.7391 8.87697 15.7391 8.80557C16.6585 9.73405 17.7732 10.1646 19.0205 10.3355C19.1761 9.54773 19.3299 8.76705 19.4842 7.98513L19.484 7.98492Z" fill="black"/>
</svg>
