<svg width="27" height="22" viewBox="0 0 27 22" fill="none" xmlns="http://www.w3.org/2000/svg">
<path d="M26.0164 3.1421C25.065 3.56494 24.0431 3.84683 22.9743 3.97603C24.0666 3.31828 24.9123 2.28469 25.2999 1.05142C24.2781 1.66218 23.1388 2.09676 21.9407 2.33167C20.9658 1.30982 19.5916 0.663818 18.0765 0.663818C15.1519 0.663818 12.7793 3.03639 12.7793 5.961C12.7793 6.37209 12.8263 6.78318 12.9202 7.17078C8.51571 6.94762 4.60448 4.83344 1.997 1.63869C1.53893 2.42563 1.28053 3.33003 1.28053 4.3049C1.28053 6.13718 2.22016 7.75805 3.64136 8.70943C2.7722 8.68594 1.96176 8.43929 1.24529 8.05169V8.12216C1.24529 10.6827 3.06583 12.8321 5.49713 13.3136C5.05081 13.4311 4.58099 13.5016 4.09943 13.5016C3.75881 13.5016 3.42994 13.4663 3.10107 13.4076C3.77056 15.51 5.73204 17.0487 8.04589 17.0839C6.2371 18.5051 3.94674 19.3508 1.46846 19.3508C1.04562 19.3508 0.622786 19.3273 0.199951 19.2803C2.54903 20.7837 5.3327 21.6646 8.31603 21.6646C18.053 21.6646 23.3854 13.5955 23.3854 6.59525C23.3854 6.36035 23.3854 6.13718 23.3737 5.91402C24.4073 5.16231 25.3117 4.23443 26.0164 3.17734V3.1421Z" fill="black"/>
</svg>
