<svg width="186" height="186" viewBox="0 0 186 186" fill="none" xmlns="http://www.w3.org/2000/svg">
<path d="M183.641 93C183.641 104.638 171.416 113.768 167.22 123.887C162.865 134.384 164.896 149.438 156.992 157.35C149.087 165.255 134.025 163.232 123.528 167.579C113.409 171.774 104.279 184 92.6411 184C81.0029 184 71.8735 171.774 61.754 167.579C51.2569 163.224 36.2035 165.255 28.2908 157.35C20.3865 149.446 22.4088 134.384 18.0622 123.887C13.8668 113.768 1.64111 104.638 1.64111 93C1.64111 81.3617 13.8668 72.2324 18.0622 62.1129C22.4171 51.6158 20.3865 36.5624 28.2908 28.6497C36.1951 20.7454 51.2569 22.7676 61.754 18.4211C71.8735 14.2256 81.0029 2 92.6411 2C104.279 2 113.409 14.2256 123.528 18.4211C134.025 22.776 149.079 20.7454 156.992 28.6497C164.896 36.554 162.874 51.6158 167.22 62.1129C171.567 72.61 183.641 81.3617 183.641 93Z" fill="#FC0050" stroke="black" stroke-width="3" stroke-miterlimit="10"/>
</svg>
