<svg width="177" height="177" viewBox="0 0 177 177" fill="none" xmlns="http://www.w3.org/2000/svg">
<path d="M174.541 101.849C173.672 107.444 167.19 111.522 165.334 116.651C163.414 121.935 165.727 129.222 162.875 133.912C159.967 138.685 152.415 139.974 148.685 144.043C144.918 148.139 144.269 155.764 139.798 159.037C135.327 162.31 127.858 160.628 122.82 162.987C117.819 165.318 114.308 172.13 108.877 173.455C103.538 174.763 97.2931 170.356 91.6794 170.584C86.2303 170.813 80.388 175.759 74.7926 174.9C69.1972 174.031 65.1194 167.549 59.9903 165.693C54.7058 163.773 47.4189 166.086 42.7286 163.234C37.9561 160.326 36.6669 152.774 32.5984 149.044C28.5024 145.277 20.8773 144.628 17.6041 140.157C14.331 135.686 16.0133 128.216 13.6544 123.179C11.323 118.178 4.51157 114.667 3.18586 109.236C1.87844 103.897 6.28529 97.652 6.05671 92.0383C5.82814 86.5891 0.881868 80.7469 1.74129 75.1515C2.60986 69.556 9.09214 65.4783 10.9481 60.3492C12.8681 55.0646 10.555 47.7778 13.4076 43.0875C16.315 38.315 23.867 37.0258 27.5972 32.9573C31.3641 28.8613 32.0132 21.2361 36.4841 17.963C40.9549 14.6899 48.4246 16.3722 53.4623 14.0133C58.4635 11.6819 61.9743 4.87046 67.4052 3.54475C72.7446 2.23732 78.9891 6.64417 84.6028 6.4156C90.052 6.18703 95.8942 1.24075 101.49 2.10018C107.085 2.95961 111.163 9.45102 116.292 11.307C121.576 13.227 128.863 10.9139 133.554 13.7664C138.326 16.6739 139.615 24.2259 143.684 27.9561C147.78 31.723 155.405 32.3721 158.678 36.843C161.951 41.3138 160.269 48.7835 162.628 53.8212C164.959 58.8223 171.771 62.3332 173.096 67.764C174.404 73.1035 169.997 79.348 170.226 84.9617C170.454 90.4108 175.4 96.2531 174.541 101.849Z" fill="#FA849A" stroke="black" stroke-width="3" stroke-miterlimit="10"/>
</svg>
