<svg width="30" height="21" viewBox="0 0 30 21" fill="none" xmlns="http://www.w3.org/2000/svg">
<path d="M14.7582 0.663818C15.8623 0.675564 16.9312 0.687309 18.0117 0.7108C18.8104 0.722545 19.6209 0.746036 20.4195 0.781273C21.0773 0.804763 21.7233 0.84 22.381 0.875236C23.0035 0.910472 23.6378 0.957454 24.2603 1.01618C24.7536 1.06316 25.2469 1.11014 25.7402 1.21585C26.8325 1.47425 27.6665 2.06152 28.2185 3.04814C28.4182 3.4005 28.5356 3.7881 28.6178 4.1757C28.747 4.78646 28.841 5.39722 28.9232 6.01973C29.0054 6.7362 29.0642 7.44092 29.1112 8.1574C29.1816 9.37892 29.1934 10.6122 29.1699 11.8337C29.1581 12.4797 29.1229 13.1375 29.0759 13.7835C29.0289 14.6056 28.9467 15.4161 28.8175 16.2265C28.747 16.6963 28.6766 17.1779 28.5591 17.6359C28.3829 18.4111 27.9601 19.0571 27.3376 19.5622C26.856 19.9615 26.304 20.2082 25.6815 20.3256C25.0942 20.4314 24.4952 20.5136 23.8962 20.5606C23.0623 20.6193 22.2283 20.6898 21.3827 20.7367C20.6897 20.772 19.9967 20.7955 19.3037 20.819C17.7651 20.8659 16.2264 20.8894 14.6878 20.8777C13.2666 20.8777 11.8454 20.8424 10.4242 20.819C9.80168 20.819 9.17918 20.7837 8.56841 20.7485C7.88718 20.7132 7.20595 20.6898 6.52471 20.631C5.7965 20.5723 5.08003 20.5018 4.35181 20.4314C4.09341 20.4079 3.84676 20.3609 3.58836 20.3139C2.24938 19.9968 1.35673 19.1863 0.910402 17.8826C0.792948 17.5537 0.745966 17.2014 0.675494 16.849C0.522803 15.9798 0.42884 15.0989 0.370113 14.218C0.311386 12.8791 0.27615 11.5636 0.287895 10.2481C0.29964 9.48463 0.323131 8.72118 0.358367 7.95772C0.393604 7.18253 0.464076 6.39558 0.55804 5.62038C0.628512 5.06835 0.71073 4.52806 0.828184 3.98777C1.02786 3.08337 1.52116 2.35516 2.27287 1.82661C2.7192 1.50949 3.2125 1.30982 3.75279 1.2276C4.44577 1.11014 5.1505 1.02793 5.84348 0.969199C6.81835 0.886981 7.80496 0.816509 8.79158 0.781273C9.77819 0.746036 10.7766 0.7108 11.7632 0.699055C12.7615 0.675564 13.7716 0.675564 14.7465 0.663818H14.7582ZM19.4917 10.7649L11.9276 6.43082V6.61875C11.9276 9.39066 11.9276 12.1626 11.9276 14.9228C11.9276 14.958 11.9276 14.9815 11.9276 15.0167C11.9276 15.0402 11.9276 15.0637 11.9393 15.0989L19.4799 10.7766L19.4917 10.7649Z" fill="black"/>
</svg>
