<svg width="108" height="107" viewBox="0 0 108 107" fill="none" xmlns="http://www.w3.org/2000/svg">
<path d="M93.3239 87.6739C97.2283 83.211 98.6037 77.407 97.578 72.0019C99.0357 71.0748 100.387 69.9285 101.582 68.5601C108.223 60.9611 107.558 49.4826 100.169 42.6992C102.896 35.638 101.106 27.3241 95.0841 22.0564C92.1402 19.4826 88.6138 18.0112 85.0058 17.598C84.1182 14.0736 82.188 10.7759 79.2441 8.20205C73.2181 2.9317 64.738 2.26718 58.1043 5.91617C50.4016 -0.318272 39.0837 0.611048 32.5016 8.13618C31.2842 9.53111 30.3131 11.0531 29.5845 12.6528C24.1421 12.4079 18.644 14.5517 14.7796 18.9698C10.9178 23.3838 9.53251 29.1115 10.4901 34.4675C9.02291 35.4003 7.66455 36.5481 6.46035 37.9222C-0.114909 45.4459 0.469537 56.7743 7.65296 63.579C4.87288 70.6591 6.65164 79.0184 12.7041 84.3114C15.648 86.8853 19.1744 88.3566 22.7823 88.7698C23.6699 92.2942 25.6002 95.5919 28.5441 98.1658C34.5924 103.456 43.1076 104.102 49.75 100.412C57.4578 106.813 68.9055 105.937 75.5408 98.3462C76.7182 96.9959 77.6617 95.5266 78.3847 93.9817C83.8676 94.264 89.4247 92.1284 93.3197 87.6713L93.3239 87.6739Z" fill="#BB3348" stroke="black" stroke-width="3" stroke-miterlimit="10"/>
</svg>
