<svg width="104" height="104" viewBox="0 0 104 104" fill="none" xmlns="http://www.w3.org/2000/svg">
<path d="M66.1948 2.4086C72.551 4.26862 75.5831 12.4046 80.4393 16.3132C85.4762 20.3693 94.0221 21.6661 97.0803 27.2476C100.134 32.8277 96.6224 40.7305 97.3186 47.1581C97.9926 53.3553 103.211 60.2952 101.351 66.6514C99.4905 73.0076 91.3545 76.0396 87.4458 80.8958C83.3898 85.9328 82.093 94.4787 76.5115 97.5369C70.9313 100.591 63.0286 97.0789 56.601 97.7751C50.4038 98.4492 43.4639 103.667 37.1077 101.807C30.7515 99.9471 27.7195 91.811 22.8633 87.9024C17.8263 83.8464 9.28046 82.5495 6.22224 76.9681C3.16861 71.3879 6.6802 63.4852 5.984 57.0576C5.30995 50.8603 0.0920223 43.9205 1.95204 37.5643C3.81206 31.2081 11.9481 28.176 15.8567 23.3198C19.9128 18.2828 21.2096 9.73697 26.7911 6.67876C32.3712 3.62512 40.2739 7.13674 46.7015 6.44054C53.1291 5.74434 59.8386 0.54858 66.1948 2.4086Z" fill="#E99AD1" stroke="black" stroke-width="3" stroke-miterlimit="10"/>
</svg>
