<svg width="108" height="108" viewBox="0 0 108 108" fill="none" xmlns="http://www.w3.org/2000/svg">
<path d="M104.127 70.0845C103.087 73.3109 98.8714 75.1118 97.2915 77.9696C95.6592 80.9133 96.3412 85.439 94.2134 87.9435C92.0454 90.4916 87.4593 90.5432 84.8711 92.5976C82.2587 94.6648 81.1575 99.1118 78.2064 100.626C75.2552 102.141 70.9973 100.443 67.797 101.364C64.6209 102.272 61.9044 105.969 58.5688 106.241C55.2891 106.512 52.0119 103.319 48.6715 102.926C45.4284 102.548 41.5089 104.923 38.2817 103.888C35.0554 102.848 33.2545 98.6324 30.3967 97.0526C27.453 95.4202 22.9273 96.1022 20.4227 93.9744C17.8747 91.8065 17.8231 87.2204 15.7687 84.6322C13.7015 82.0198 9.25445 80.9186 7.73998 77.9674C6.2255 75.0162 7.92289 70.7583 7.00228 67.558C6.09445 64.3819 2.39778 61.6654 2.12497 58.3299C1.85437 55.0502 5.04728 51.7729 5.44032 48.4325C5.81788 45.1894 3.44325 41.27 4.47781 38.0428C5.51777 34.8164 9.73383 33.0155 11.3137 30.1577C12.946 27.2141 12.2641 22.6884 14.3918 20.1838C16.5598 17.6357 21.1459 17.5841 23.7341 15.5297C26.3465 13.4625 27.4477 9.01551 30.3989 7.50104C33.35 5.98656 37.6079 7.68394 40.8082 6.76334C43.9843 5.85551 46.7008 2.15883 50.0364 1.88602C53.3161 1.61542 56.5934 4.80834 59.9338 5.20138C63.1769 5.57893 67.0963 3.20431 70.3235 4.23886C73.5507 5.27342 75.3508 9.49489 78.2085 11.0748C81.1522 12.7071 85.6779 12.0251 88.1825 14.1529C90.7305 16.3208 90.7821 20.907 92.8366 23.4951C94.9038 26.1075 99.3508 27.2087 100.865 30.1599C102.38 33.1111 100.682 37.369 101.603 40.5693C102.511 43.7454 106.207 46.4619 106.48 49.7974C106.751 53.0772 103.558 56.3544 103.165 59.6948C102.787 62.9379 105.162 66.8573 104.127 70.0845Z" fill="#FF3C4B" stroke="black" stroke-width="3" stroke-miterlimit="10"/>
</svg>
