<svg width="106" height="109" viewBox="0 0 106 109" fill="none" xmlns="http://www.w3.org/2000/svg">
<path d="M103.468 66.7813C104.861 61.0176 103.392 55.2366 99.9794 50.9213C100.842 49.4245 101.509 47.7825 101.934 46.0164C104.3 36.2059 98.3946 26.3406 88.7037 23.7511C87.8503 16.2298 82.4131 9.6905 74.6364 7.8109C70.8352 6.89327 67.0283 7.22255 63.6394 8.52735C61.2203 5.81491 57.9822 3.78619 54.181 2.86855C46.3993 0.988549 38.5758 4.32724 34.3866 10.6337C24.6724 8.67582 15.072 14.7415 12.7238 24.4593C12.2909 26.2595 12.1352 28.0581 12.2304 29.8134C7.2935 32.117 3.41356 36.5635 2.03493 42.269C0.656701 47.9697 2.08175 53.6876 5.41111 57.991C4.54284 59.4972 3.87057 61.1437 3.43975 62.9192C1.09688 72.6326 6.86173 82.402 16.3799 85.1058C17.1952 92.6684 22.6433 99.2532 30.459 101.141C34.2602 102.059 38.067 101.729 41.456 100.425C43.875 103.137 47.1131 105.166 50.9143 106.083C58.7251 107.971 66.5711 104.599 70.7489 98.2523C80.5449 100.356 90.2849 94.2769 92.6499 84.4763C93.068 82.7343 93.2237 80.9951 93.1489 79.291C98.1391 77.0017 102.075 72.5352 103.463 66.7809L103.468 66.7813Z" fill="#54B7E6" stroke="black" stroke-width="3" stroke-miterlimit="10"/>
</svg>
