<svg width="108" height="106" viewBox="0 0 108 106" fill="none" xmlns="http://www.w3.org/2000/svg">
<path d="M106.027 53.7491C106.103 47.8198 103.385 42.5104 99.0982 39.062C99.6063 37.4109 99.8913 35.6617 99.913 33.8453C100.038 23.7544 92.0862 15.4495 82.0621 15.0801C79.5573 7.9371 72.8019 2.7708 64.8019 2.66789C60.8918 2.61865 57.2536 3.78634 54.2396 5.8122C51.2779 3.7057 47.6698 2.44798 43.7597 2.39874C35.7548 2.29652 28.8698 7.29158 26.1881 14.3718C16.2817 14.6235 8.27079 22.6724 8.14274 32.6691C8.12106 34.5205 8.36926 36.3087 8.85249 37.9988C4.55155 41.3428 1.75772 46.5408 1.68257 52.4101C1.60673 58.2744 4.26778 63.5322 8.47087 66.9874C7.95935 68.649 7.67008 70.4037 7.64495 72.2306C7.52108 82.2218 15.3144 90.4644 25.1954 90.9835C27.6723 98.1753 34.4485 103.384 42.4882 103.486C46.3983 103.535 50.0365 102.367 53.0504 100.341C56.0121 102.448 59.6204 103.706 63.5305 103.755C71.5654 103.858 78.4651 98.8259 81.1266 91.7086C91.145 91.5806 99.2891 83.4879 99.4152 73.4068C99.4354 71.6154 99.2004 69.8851 98.7485 68.2403C103.104 64.8986 105.949 59.6685 106.022 53.7497L106.027 53.7491Z" fill="#FFF18C" stroke="black" stroke-width="3" stroke-miterlimit="10"/>
</svg>
