<svg width="101" height="101" viewBox="0 0 101 101" fill="none" xmlns="http://www.w3.org/2000/svg">
<path d="M97.9491 30.1234C100.514 36.2293 96.1123 43.7133 96.1415 49.9471C96.1702 56.414 100.553 63.864 98.1503 69.7574C95.7456 75.6463 87.3979 77.9049 82.8487 82.4988C78.4643 86.9302 76.3692 95.3563 70.2634 97.9213C64.1575 100.486 56.6734 96.0844 50.4397 96.1136C43.9728 96.1424 36.5227 100.525 30.6294 98.1225C24.7404 95.7177 22.4818 87.3701 17.888 82.8209C13.4566 78.4365 5.03047 76.3414 2.46544 70.2356C-0.0995902 64.1297 4.30234 56.6456 4.27314 50.4119C4.24436 43.945 -0.138684 36.495 2.26426 30.6016C4.66906 24.7127 13.0167 22.454 17.5659 17.8602C21.9503 13.4288 24.0454 5.00269 30.1512 2.43765C36.2571 -0.127378 43.7412 4.27453 49.9749 4.24533C56.4419 4.21655 63.8919 -0.166492 69.7852 2.23645C75.6742 4.64125 77.9328 12.9889 82.5266 17.5381C87.1205 22.0873 95.3841 24.0176 97.9491 30.1234Z" fill="#FF923F" stroke="black" stroke-width="3" stroke-miterlimit="10"/>
</svg>
