<svg width="108" height="107" viewBox="0 0 108 107" fill="none" xmlns="http://www.w3.org/2000/svg">
<path d="M105.377 48.3011C104.747 42.4049 101.417 37.4565 96.7502 34.5427C97.0582 32.8428 97.1331 31.0722 96.9385 29.2661C95.8618 19.232 86.9788 11.9321 76.9819 12.7579C73.6451 5.96362 66.3231 1.63769 58.3676 2.48728C54.4794 2.90357 51.006 4.49582 48.2545 6.86585C45.0632 5.12667 41.331 4.30715 37.4428 4.72345C29.4826 5.5743 23.2408 11.353 21.4204 18.702C11.6144 20.1304 4.61796 29.0752 5.68013 39.0162C5.87886 40.857 6.33803 42.6029 7.01891 44.2236C3.14634 48.0555 0.990762 53.549 1.61441 59.3855C2.2368 65.2173 5.50447 70.1211 10.0888 73.0517C9.77856 74.7623 9.70012 76.539 9.89252 78.3559C10.9582 88.2909 19.6767 95.5478 29.5494 94.8876C32.8642 101.734 40.212 106.099 48.2068 105.244C52.0949 104.828 55.5684 103.235 58.3199 100.865C61.5112 102.604 65.2434 103.424 69.1316 103.008C77.1216 102.154 83.3737 96.3368 85.1695 88.9535C95.1016 87.6345 102.225 78.6304 101.151 68.6058C100.958 66.8248 100.519 65.1347 99.8743 63.5554C103.802 59.7191 106.003 54.1879 105.372 48.3024L105.377 48.3011Z" fill="#FEB2BB" stroke="black" stroke-width="3" stroke-miterlimit="10"/>
</svg>
