<svg width="106" height="106" viewBox="0 0 106 106" fill="none" xmlns="http://www.w3.org/2000/svg">
<path d="M25.1066 96.8726C19.5333 93.295 18.9197 84.6341 15.3634 79.5142C11.6754 74.2019 3.84249 70.5469 2.48313 64.3293C1.12779 58.1143 6.72622 51.5233 7.87164 45.1604C8.97331 39.0247 5.92521 30.8946 9.50286 25.3214C13.0805 19.7481 21.7415 19.1345 26.8613 15.5783C32.1736 11.8902 35.8287 4.05734 42.0463 2.69798C48.2612 1.34264 54.8523 6.94108 61.2152 8.0865C67.3509 9.18817 75.4809 6.14005 81.0541 9.7177C86.6274 13.2954 87.241 21.9563 90.7972 27.0762C94.4853 32.3885 102.318 36.0435 103.678 42.2611C105.033 48.4761 99.4344 55.0671 98.289 61.43C97.1873 67.5657 100.235 75.6957 96.6578 81.269C93.0802 86.8422 84.4192 87.4558 79.2993 91.0121C73.987 94.7002 70.3319 102.533 64.1144 103.892C57.8994 105.248 51.3084 99.6493 44.9455 98.5039C38.5826 97.3585 30.6798 100.45 25.1066 96.8726Z" fill="white" stroke="black" stroke-width="3" stroke-miterlimit="10"/>
</svg>
