<svg width="108" height="109" viewBox="0 0 108 109" fill="none" xmlns="http://www.w3.org/2000/svg">
<path d="M100.474 78.8942C98.8972 81.8948 94.435 82.9472 92.3891 85.4923C90.2768 88.113 90.1738 92.6886 87.6486 94.7918C85.0764 96.931 80.5491 96.1966 77.6474 97.7775C74.7196 99.3668 72.8732 103.56 69.7063 104.546C66.5394 105.533 62.635 103.132 59.3243 103.491C56.0397 103.841 52.7303 107.018 49.3974 106.716C46.1197 106.421 43.4376 102.714 40.2138 101.755C37.0833 100.827 32.8151 102.496 29.8127 100.924C26.8121 99.347 25.7597 94.8848 23.2147 92.8389C20.594 90.7267 16.0183 90.6236 13.9151 88.0984C11.7759 85.5262 12.5103 80.999 10.9294 78.0972C9.34008 75.1695 5.14731 73.3231 4.16054 70.1561C3.17376 66.9892 5.57516 63.0848 5.21614 59.7742C4.86557 56.4895 1.68864 53.1802 1.991 49.8472C2.28599 46.5695 5.99291 43.8874 6.95213 40.6637C7.87942 37.5331 6.21099 33.265 7.78287 30.2626C9.35993 27.2619 13.8221 26.2095 15.868 23.6645C17.9802 21.0438 18.0833 16.4682 20.6085 14.3649C23.1807 12.2257 27.7079 12.9602 30.6097 11.3793C33.5375 9.78991 35.3839 5.59715 38.5508 4.61037C41.7177 3.6236 45.6221 6.025 48.9327 5.66598C52.2174 5.3154 55.5268 2.13847 58.8597 2.44084C62.1374 2.73583 64.8195 6.44275 68.0432 7.40196C71.1738 8.32926 75.4419 6.66083 78.4444 8.23271C81.4468 9.80458 82.4974 14.2719 85.0424 16.3178C87.6631 18.4301 92.2388 18.5331 94.342 21.0583C96.4812 23.6305 95.7468 28.1578 97.3277 31.0595C98.917 33.9873 103.11 35.8337 104.097 39.0006C105.083 42.1675 102.682 46.0719 103.041 49.3826C103.392 52.6672 106.568 55.9766 106.266 59.3096C105.971 62.5872 102.264 65.2693 101.305 68.4931C100.378 71.6236 102.046 75.8918 100.474 78.8942Z" fill="#C4001B" stroke="black" stroke-width="3" stroke-miterlimit="10"/>
</svg>
