<svg width="108" height="107" viewBox="0 0 108 107" fill="none" xmlns="http://www.w3.org/2000/svg">
<path d="M105.949 56.5277C106.289 50.6076 103.809 45.1829 99.6792 41.5479C100.26 39.9209 100.622 38.1861 100.724 36.3724C101.296 26.2969 93.721 17.6476 83.7231 16.8342C81.5374 9.58714 75.0178 4.1264 67.0302 3.66889C63.1261 3.44633 59.4397 4.45156 56.3389 6.34179C53.4735 4.10605 49.9247 2.68958 46.0206 2.46702C38.0281 2.00998 30.9284 6.69486 27.9354 13.6492C18.0277 13.4614 9.66773 21.1472 9.09656 31.1284C8.99282 32.977 9.16149 34.7744 9.56931 36.4844C5.12433 39.6343 2.10278 44.7033 1.76746 50.5635C1.43168 56.4188 3.857 61.7893 7.90276 65.4275C7.31806 67.0648 6.95127 68.8049 6.84516 70.6289C6.27843 80.6048 13.6986 89.1848 23.5469 90.1415C25.7025 97.4361 32.241 102.94 40.2684 103.398C44.1724 103.621 47.8588 102.616 50.9596 100.725C53.825 102.961 57.374 104.378 61.278 104.6C69.3004 105.059 76.4164 100.338 79.3909 93.3459C89.4052 93.6622 97.9001 85.9385 98.473 75.8729C98.5726 74.0842 98.4145 72.3452 98.036 70.682C102.536 67.5367 105.609 62.4379 105.945 56.5281L105.949 56.5277Z" fill="#D3C1AD" stroke="black" stroke-width="3" stroke-miterlimit="10"/>
</svg>
