<svg width="104" height="103" viewBox="0 0 104 103" fill="none" xmlns="http://www.w3.org/2000/svg">
<path d="M28.7847 98.1057C22.8652 95.1358 21.3415 86.5879 17.265 81.8717C13.0372 76.978 4.86251 74.1696 2.85494 68.1301C0.851627 62.0927 5.72363 54.948 6.19153 48.4997C6.63989 42.2821 2.75126 34.5189 5.72112 28.5993C8.69097 22.6798 17.2389 21.1561 21.9551 17.0797C26.8488 12.8519 29.6573 4.67717 35.6968 2.66959C41.7341 0.666281 48.8789 5.5383 55.3271 6.00619C61.5448 6.45456 69.3079 2.56591 75.2275 5.53576C81.147 8.50561 82.6707 17.0535 86.7471 21.7697C90.9749 26.6634 99.1496 29.4719 101.157 35.5114C103.161 41.5487 98.2885 48.6935 97.8206 55.1418C97.3722 61.3594 101.261 69.1226 98.291 75.0421C95.3212 80.9616 86.7733 82.4853 82.057 86.5618C77.1634 90.7896 74.3549 98.9643 68.3154 100.972C62.278 102.975 55.1333 98.1032 48.685 97.6353C42.2368 97.1674 34.7042 101.076 28.7847 98.1057Z" fill="#CF2957" stroke="black" stroke-width="3" stroke-miterlimit="10"/>
</svg>
