<svg width="107" height="107" viewBox="0 0 107 107" fill="none" xmlns="http://www.w3.org/2000/svg">
<path d="M96.9938 81.7506C95.1348 84.5852 90.5919 85.2024 88.3102 87.5383C85.955 89.9431 85.4112 94.4874 82.695 96.3374C79.9285 98.2186 75.4932 97.051 72.4525 98.3447C69.3851 99.6443 67.143 103.64 63.8957 104.316C60.6484 104.993 56.9938 102.226 53.6639 102.264C50.3608 102.297 46.7605 105.14 43.4722 104.517C40.2383 103.908 37.9261 99.9594 34.8099 98.6938C31.7833 97.4689 27.3742 98.718 24.5373 96.8639C21.7027 95.0049 21.0856 90.462 18.7496 88.1803C16.3449 85.8251 11.8005 85.2813 9.95055 82.5651C8.06936 79.7986 9.23693 75.3632 7.94321 72.3226C6.64359 69.2552 2.64841 67.0131 1.97162 63.7658C1.29483 60.5185 4.06154 56.8638 4.02344 53.534C3.99123 50.2309 1.14823 46.6305 1.77058 43.3423C2.38025 40.1083 6.32854 37.7962 7.59415 34.6799C8.819 31.6534 7.56992 27.2443 9.424 24.4074C11.2831 21.5728 15.8259 20.9556 18.1077 18.6197C20.4628 16.215 21.0066 11.6706 23.7228 9.82064C26.4894 7.93944 30.9247 9.10701 33.9653 7.81329C37.0327 6.51368 39.2748 2.5185 42.5221 1.84171C45.7695 1.16492 49.4241 3.93162 52.7539 3.89352C56.0571 3.86131 59.6574 1.01831 62.9457 1.64066C66.1796 2.25034 68.4917 6.19862 71.608 7.46423C74.6345 8.68909 79.0437 7.44001 81.8805 9.29408C84.7173 11.1482 85.3323 15.696 87.6682 17.9778C90.073 20.3329 94.6174 20.8767 96.4673 23.5929C98.3485 26.3594 97.1809 30.7948 98.4746 33.8354C99.7742 36.9028 103.769 39.1449 104.446 42.3922C105.123 45.6396 102.356 49.2942 102.394 52.624C102.427 55.9271 105.27 59.5275 104.647 62.8157C104.038 66.0497 100.089 68.3618 98.8237 71.4781C97.5988 74.5046 98.8479 78.9137 96.9938 81.7506Z" fill="#A73077" stroke="black" stroke-width="3" stroke-miterlimit="10"/>
</svg>
