<svg width="108" height="107" viewBox="0 0 108 107" fill="none" xmlns="http://www.w3.org/2000/svg">
<path d="M82.6771 9.43569C85.5113 11.2954 86.1275 15.8383 88.4629 18.1206C90.8672 20.4763 95.4115 21.0211 97.2608 23.7377C99.1414 26.5046 97.9729 30.9397 99.2659 33.9807C100.565 37.0483 104.56 39.2913 105.236 42.5388C105.912 45.7862 103.144 49.4402 103.182 52.7701C103.213 56.0732 106.055 59.6742 105.432 62.9623C104.822 66.1961 100.873 68.5074 99.6068 71.6234C98.3812 74.6497 99.6294 79.0591 97.7747 81.8955C95.915 84.7297 91.372 85.3459 89.0897 87.6813C86.7341 90.0855 86.1893 94.6298 83.4726 96.4792C80.7057 98.3597 76.2706 97.1912 73.2297 98.4843C70.162 99.7832 67.9191 103.778 64.6716 104.454C61.4241 105.13 57.7701 102.363 54.4403 102.4C51.1371 102.431 47.5362 105.274 44.248 104.651C41.0143 104.04 38.703 100.091 35.587 98.8251C32.5607 97.5996 28.1513 98.8477 25.3149 96.993C22.4807 95.1334 21.8645 90.5904 19.5291 88.3081C17.1248 85.9524 12.5805 85.4077 10.7312 82.691C8.85061 79.9241 10.0191 75.489 8.72609 72.4481C7.42715 69.3804 3.43246 67.1374 2.75638 63.89C2.08029 60.6425 4.84779 56.9885 4.81042 53.6586C4.77893 50.3555 1.93672 46.7546 2.55979 43.4664C3.17017 40.2326 7.11895 37.9213 8.38524 34.8054C9.61076 31.7791 8.36264 27.3697 10.2173 24.5332C12.072 21.6968 16.62 21.0828 18.9023 18.7474C21.2579 16.3432 21.8027 11.7989 24.5194 9.94956C27.2863 8.06897 31.7213 9.2375 34.7623 7.94445C37.83 6.64551 40.0729 2.65081 43.3204 1.97473C46.5679 1.29865 50.2219 4.06615 53.5517 4.02877C56.8549 3.99728 60.4558 1.15507 63.744 1.77814C66.9777 2.38852 69.289 6.33731 72.405 7.6036C75.4313 8.82911 79.8407 7.581 82.6771 9.43569Z" fill="#933273" stroke="black" stroke-width="3" stroke-miterlimit="10"/>
</svg>
