<svg width="109" height="105" viewBox="0 0 109 105" fill="none" xmlns="http://www.w3.org/2000/svg">
<path d="M106.558 50.6389C106.345 44.7129 103.371 39.5425 98.9214 36.3074C99.3483 34.6334 99.5476 32.8725 99.4806 31.0571C99.1128 20.9722 90.7656 13.0651 80.7353 13.1853C77.885 6.17302 70.8856 1.34249 62.8901 1.63004C58.9823 1.77165 55.4054 3.11547 52.4939 5.28598C49.4329 3.3265 45.7676 2.24633 41.8598 2.38793C33.8595 2.67642 27.2264 8.00148 24.8933 15.2041C15.0111 15.9388 7.40245 24.369 7.76231 34.3601C7.831 36.2103 8.16614 37.9843 8.73126 39.6489C4.5986 43.1987 2.06173 48.5268 2.27305 54.3928C2.48344 60.2539 5.39786 65.3755 9.76454 68.6215C9.33469 70.3061 9.1314 72.0728 9.19544 73.8988C9.55922 83.8841 17.7454 91.7366 27.64 91.773C30.4648 98.8354 37.4871 103.707 45.5223 103.417C49.4301 103.275 53.007 101.931 55.9185 99.7607C58.9794 101.72 62.6447 102.8 66.5526 102.659C74.5829 102.369 81.2288 97.0068 83.5399 89.7682C93.5402 89.1515 101.28 80.6711 100.914 70.5958C100.847 68.8056 100.527 67.0888 99.9957 65.468C104.183 61.9177 106.769 56.5551 106.553 50.6398L106.558 50.6389Z" fill="#FABA98" stroke="black" stroke-width="3" stroke-miterlimit="10"/>
</svg>
