<svg width="107" height="107" viewBox="0 0 107 107" fill="none" xmlns="http://www.w3.org/2000/svg">
<path d="M104.965 57.8495C104.412 64.4492 97.0464 69.0461 94.1871 74.5854C91.2195 80.3313 91.6567 88.964 86.799 93.0759C81.9416 97.1831 73.4965 95.3217 67.3377 97.2884C61.4002 99.1873 55.6431 105.687 49.0434 105.135C42.4437 104.582 37.8469 97.2164 32.3075 94.3571C26.5616 91.3895 17.929 91.8267 13.817 86.969C9.70979 82.1117 11.5712 73.6666 9.60455 67.5078C7.7056 61.5703 1.20603 55.8132 1.75828 49.2135C2.31052 42.6138 9.67648 38.017 12.5358 32.4776C15.5034 26.7317 15.0662 18.099 19.9239 13.9871C24.7813 9.87988 33.2264 11.7413 39.3852 9.77463C45.3227 7.87569 51.0798 1.37612 57.6794 1.92837C64.2791 2.48061 68.876 9.84657 74.4154 12.7059C80.1613 15.6735 88.7939 15.2363 92.9059 20.094C97.0131 24.9513 95.1516 33.3964 97.1183 39.5552C99.085 45.714 105.517 51.2498 104.965 57.8495Z" fill="#FFF18C" stroke="black" stroke-width="3" stroke-miterlimit="10"/>
</svg>
