<svg width="107" height="107" viewBox="0 0 107 107" fill="none" xmlns="http://www.w3.org/2000/svg">
<path d="M97.0731 81.9764C95.2095 84.808 90.6657 85.418 88.3802 87.7503C86.0213 90.1513 85.4702 94.6948 82.751 96.5404C79.9815 98.4172 75.5481 97.2425 72.5053 98.5314C69.4359 99.8261 67.1874 103.818 63.939 104.489C60.6906 105.161 57.0404 102.388 53.7105 102.421C50.4074 102.448 46.8025 105.285 43.5152 104.658C40.2823 104.043 37.9764 100.091 34.8622 98.8205C31.8376 97.5908 27.4265 98.8329 24.5926 96.9743C21.761 95.1107 21.151 90.5669 18.8187 88.2814C16.4177 85.9224 11.8742 85.3714 10.0286 82.6522C8.15183 79.8827 9.32646 75.4492 8.03759 72.4065C6.74286 69.3371 2.75126 67.0886 2.07964 63.8402C1.40803 60.5918 4.18055 56.9416 4.14776 53.6117C4.12081 50.3085 1.28355 46.7037 1.91114 43.4164C2.52597 40.1834 6.47793 37.8776 7.74851 34.7634C8.97818 31.7388 7.73613 27.3277 9.59472 24.4938C11.4583 21.6621 16.0021 21.0522 18.2876 18.7199C20.6466 16.3189 21.1976 11.7754 23.9168 9.92978C26.6863 8.053 31.1198 9.22763 34.1625 7.93876C37.2319 6.64403 39.4804 2.65244 42.7288 1.98082C45.9772 1.3092 49.6274 4.08173 52.9573 4.04893C56.2605 4.02199 59.8653 1.18473 63.1526 1.81232C66.3855 2.42715 68.6914 6.37911 71.8056 7.64968C74.8302 8.87936 79.2413 7.6373 82.0752 9.49589C84.9091 11.3545 85.5168 15.9033 87.8491 18.1888C90.2501 20.5477 94.7936 21.0988 96.6392 23.818C98.516 26.5875 97.3414 31.0209 98.6302 34.0636C99.925 37.1331 103.917 39.3816 104.588 42.63C105.26 45.8784 102.487 49.5286 102.52 52.8585C102.547 56.1616 105.384 59.7665 104.757 63.0538C104.142 66.2867 100.19 68.5926 98.9193 71.7068C97.6896 74.7314 98.9317 79.1425 97.0731 81.9764Z" fill="#D9B7F0" stroke="black" stroke-width="3" stroke-miterlimit="10"/>
</svg>
