<svg width="108" height="108" viewBox="0 0 108 108" fill="none" xmlns="http://www.w3.org/2000/svg">
<path d="M105.459 62.5116C104.904 65.8557 100.998 68.2561 99.8548 71.3149C98.6723 74.4663 100.011 78.8428 98.2743 81.6326C96.504 84.4714 91.9751 85.1958 89.7166 87.6079C87.4361 90.0363 86.9997 94.5967 84.3028 96.5281C81.606 98.4594 77.145 97.4056 74.1146 98.7861C71.1062 100.15 68.9618 104.206 65.7025 104.965C62.498 105.715 58.7875 103.037 55.4256 103.139C52.1622 103.242 48.6339 106.166 45.2898 105.617C41.9457 105.062 39.5453 101.156 36.4866 100.012C33.3351 98.83 28.9586 100.169 26.1688 98.432C23.3301 96.6617 22.6057 92.1328 20.1935 89.8743C17.7652 87.5937 13.2047 87.1574 11.2733 84.4605C9.34198 81.7637 10.3958 77.3027 9.01534 74.2723C7.65104 71.2639 3.59559 69.1195 2.83602 65.8602C2.08683 62.6557 4.76398 58.9452 4.66233 55.5833C4.55965 52.3199 1.63531 48.7916 2.18484 45.4475C2.73984 42.1034 6.64581 39.703 7.78899 36.6442C8.97145 33.4928 7.63242 29.1163 9.36941 26.3265C11.1398 23.4877 15.6686 22.7633 17.9271 20.3512C20.2077 17.9229 20.6441 13.3624 23.3409 11.431C26.0378 9.49966 30.4987 10.5535 33.5292 9.17302C36.5376 7.80872 38.6819 3.75327 41.9412 2.9937C45.1457 2.24451 48.8562 4.92166 52.2181 4.82001C55.4815 4.71733 59.0098 1.79299 62.354 2.34252C65.6981 2.89205 68.0984 6.8035 71.1572 7.94667C74.3086 9.12913 78.6852 7.7901 81.475 9.52709C84.3137 11.2974 85.0381 15.8263 87.4502 18.0848C89.8786 20.3654 94.4391 20.8017 96.3704 23.4986C98.3018 26.1954 97.2479 30.6564 98.6284 33.6869C99.9927 36.6952 104.048 38.8396 104.808 42.0989C105.557 45.3034 102.88 49.0139 102.981 52.3758C103.084 55.6392 106.008 59.1675 105.459 62.5116Z" fill="#CDDEC8" stroke="black" stroke-width="3" stroke-miterlimit="10"/>
</svg>
