<svg width="289" height="289" viewBox="0 0 289 289" fill="none" xmlns="http://www.w3.org/2000/svg">
    <path d="M286.835 166.984c-1.431 9.218-12.11 15.936-15.167 24.385-3.163 8.706.647 20.71-4.052 28.437-4.79 7.862-17.231 9.986-23.376 16.689-6.206 6.747-7.275 19.309-14.64 24.701-7.366 5.392-19.671 2.621-27.97 6.507-8.239 3.841-14.023 15.062-22.97 17.246-8.796 2.154-19.083-5.106-28.331-4.73-8.977.377-18.602 8.525-27.819 7.11-9.218-1.431-15.936-12.11-24.386-15.168-8.705-3.163-20.71.648-28.436-4.051-7.863-4.79-9.986-17.231-16.689-23.376-6.748-6.206-19.31-7.275-24.702-14.641-5.392-7.365-2.62-19.67-6.506-27.97-3.841-8.238-15.062-14.022-17.246-22.969-2.154-8.796 5.106-19.083 4.73-28.331-.377-8.977-8.526-18.602-7.11-27.82 1.43-9.218 12.11-15.935 15.167-24.385 3.163-8.706-.647-20.71 4.052-28.437 4.79-7.862 17.23-9.986 23.376-16.688 6.206-6.748 7.275-19.31 14.64-24.702 7.366-5.392 19.671-2.62 27.97-6.507 8.24-3.84 14.023-15.062 22.97-17.246 8.796-2.153 19.083 5.107 28.331 4.73 8.977-.377 18.601-8.525 27.819-7.11 9.218 1.417 15.936 12.11 24.386 15.168 8.705 3.163 20.71-.648 28.436 4.052 7.863 4.79 9.986 17.23 16.689 23.376 6.748 6.205 19.309 7.275 24.702 14.64 5.392 7.365 2.62 19.67 6.506 27.97 3.841 8.239 15.062 14.022 17.246 22.969 2.154 8.796-5.106 19.084-4.729 28.332.376 8.977 8.525 18.601 7.109 27.819z" fill="#5FABCB" stroke="#000" stroke-width="3" stroke-miterlimit="10"/>
</svg>
