<svg width="289" height="289" viewBox="0 0 289 289" fill="none" xmlns="http://www.w3.org/2000/svg">
    <path d="M286.393 167.031c2.496-16.126-2.862-31.641-13.212-42.69a50.769 50.769 0 0 0 4.232-13.9c4.232-27.446-14.229-53.142-41.399-58.015-4.07-20.428-20.483-37.11-42.241-40.477a50.774 50.774 0 0 0-29.991 4.493A50.674 50.674 0 0 0 136.544 3.1c-21.771-3.366-42.457 7.588-52.495 25.845-27.089-3.136-52.02 15.705-56.226 42.893a51.084 51.084 0 0 0-.122 14.796c-13.008 7.452-22.626 20.537-25.095 36.5C.138 139.082 5.36 154.434 15.48 165.47a51.304 51.304 0 0 0-4.273 13.967c-4.191 27.175 13.864 52.64 40.586 57.866 3.974 20.55 20.428 37.355 42.295 40.735a50.78 50.78 0 0 0 29.991-4.493c7.257 6.882 16.603 11.7 27.238 13.343 21.853 3.38 42.593-7.669 52.59-26.035 27.347 3.516 52.658-15.393 56.891-42.812.746-4.873.773-9.678.176-14.334 13.158-7.425 22.924-20.578 25.407-36.676h.013z" fill="#424544" stroke="#000" stroke-width="3" stroke-miterlimit="10"/>
</svg>
