<svg width="289" height="289" viewBox="0 0 289 289" fill="none" xmlns="http://www.w3.org/2000/svg">
    <path d="M287 144.994c0 18.224-19.144 32.52-25.714 48.367-6.82 16.438-3.64 40.01-16.018 52.401-12.377 12.378-35.963 9.211-52.401 16.017-15.846 6.57-30.142 25.715-48.367 25.715-18.225 0-32.521-19.145-48.367-25.715-16.438-6.819-40.01-3.639-52.401-16.017-12.378-12.378-9.211-35.963-16.018-52.401C21.144 177.514 2 163.218 2 144.994c0-18.225 19.145-32.521 25.714-48.368 6.82-16.437 3.64-40.01 16.018-52.4 12.377-12.378 35.963-9.212 52.4-16.018 15.847-6.57 30.143-25.714 48.368-25.714s32.521 19.144 48.367 25.714c16.438 6.82 40.011 3.64 52.401 16.017 12.378 12.378 9.211 35.964 16.018 52.401C268.092 113.064 287 126.77 287 144.994z" fill="#E29383" stroke="#000" stroke-width="3" stroke-miterlimit="10"/>
</svg>
