<svg width="289" height="289" viewBox="0 0 289 289" fill="none" xmlns="http://www.w3.org/2000/svg">
<path d="M286.835 166.49C285.404 175.708 274.725 182.426 271.668 190.876C268.505 199.581 272.315 211.586 267.616 219.312C262.826 227.175 250.385 229.298 244.24 236.001C238.034 242.749 236.965 255.31 229.6 260.703C222.234 266.095 209.929 263.323 201.63 267.209C193.391 271.05 187.607 282.271 178.66 284.455C169.864 286.609 159.577 279.349 150.329 279.726C141.352 280.102 131.727 288.251 122.51 286.835C113.292 285.404 106.574 274.725 98.1244 271.668C89.4186 268.505 77.4143 272.315 69.6875 267.616C61.8252 262.826 59.7015 250.385 52.999 244.24C46.2512 238.034 33.6896 236.965 28.2974 229.6C22.9053 222.234 25.6767 209.929 21.7907 201.63C17.9499 193.391 6.7288 187.607 4.54482 178.66C2.39097 169.864 9.6508 159.577 9.27426 150.329C8.89771 141.352 0.74922 131.727 2.16504 122.51C3.59592 113.292 14.2748 106.574 17.3324 98.1244C20.4954 89.4186 16.6847 77.4143 21.384 69.6875C26.1737 61.8252 38.6148 59.7015 44.7601 52.9989C50.9656 46.2512 52.035 33.6896 59.4003 28.2974C66.7655 22.9053 79.0711 25.6767 87.3702 21.7907C95.6091 17.9499 101.393 6.7288 110.34 4.54482C119.136 2.39097 129.423 9.6508 138.671 9.27426C147.648 8.89771 157.272 0.74922 166.49 2.16504C175.708 3.58086 182.426 14.2748 190.876 17.3324C199.581 20.4954 211.586 16.6847 219.312 21.384C227.175 26.1737 229.298 38.6148 236.001 44.7601C242.749 50.9656 255.31 52.035 260.703 59.4003C266.095 66.7655 263.323 79.0711 267.209 87.3702C271.05 95.6091 282.271 101.393 284.455 110.34C286.609 119.136 279.349 129.423 279.726 138.671C280.102 147.648 288.251 157.272 286.835 166.49Z" fill="white" stroke="black" stroke-width="3" stroke-miterlimit="10"/>
</svg>
