<?xml version="1.0" standalone="no"?>
<!DOCTYPE svg PUBLIC "-//W3C//DTD SVG 1.1//EN" "http://www.w3.org/Graphics/SVG/1.1/DTD/svg11.dtd" >
<svg xmlns="http://www.w3.org/2000/svg" xmlns:xlink="http://www.w3.org/1999/xlink" version="1.1">
<metadata>
Created by FontForge 20190801 at Wed Aug  3 01:53:01 2022
 By www-data
Copyright 2020 Dinamo (Johannes Breyer, Fabian Harb). All rights reserved.
</metadata>
<defs>
<font id="ABCFavoritLiningLightItalic" horiz-adv-x="600" >
  <font-face 
    font-family="ABCFavoritLiningLightItalic"
    font-weight="300"
    font-style="italic"
    font-stretch="normal"
    units-per-em="1000"
    panose-1="2 11 3 4 3 2 2 13 2 3"
    ascent="780"
    descent="-220"
    x-height="500"
    cap-height="700"
    bbox="-386 -318 2239 919"
    underline-thickness="50"
    underline-position="-100"
    slope="-12"
    unicode-range="U+0020-FB04"
  />
<missing-glyph horiz-adv-x="680" 
d="M590 0h-500v700h500v-700zM150 645v-590h380v590h-380zM614 -225h-726l12 55h726z" />
    <glyph glyph-name="f_f" unicode="ff" horiz-adv-x="663" 
d="M130 0h-64l95 445h-108l11 55h109l22 105q11 50 34 72.5t68 22.5h139l-12 -55h-116q-22 0 -32.5 -8.5t-15.5 -33.5l-22 -103h269l22 105q11 50 34 72.5t68 22.5h139l-12 -55h-116q-22 0 -32.5 -8.5t-15.5 -33.5l-22 -103h115l-11 -55h-116l-96 -445h-64l95 445h-269z
M597 -225h-703l12 55h703z" />
    <glyph glyph-name="fi" unicode="fi" horiz-adv-x="608" 
d="M572 500l-106 -500h-65l94 445h-269l-96 -445h-64l95 445h-108l11 55h109l22 105q11 50 34 72.5t68 22.5h139l-12 -55h-116q-22 0 -32.5 -8.5t-15.5 -33.5l-22 -103h334zM521 590l17 85h75l-17 -85h-75zM542 -225h-648l12 55h648z" />
    <glyph glyph-name="fl" unicode="fl" horiz-adv-x="608" 
d="M130 0h-64l95 445h-108l11 55h109l22 105q11 50 34 72.5t68 22.5h317l-149 -700h-65l137 645h-229q-22 0 -32.5 -8.5t-15.5 -33.5l-22 -103h115l-11 -55h-116zM542 -225h-648l12 55h648z" />
    <glyph glyph-name="f_f_i" unicode="ffi" horiz-adv-x="942" 
d="M130 0h-64l95 445h-108l11 55h109l22 105q11 50 34 72.5t68 22.5h139l-12 -55h-116q-22 0 -32.5 -8.5t-15.5 -33.5l-22 -103h269l22 105q11 50 34 72.5t68 22.5h139l-12 -55h-116q-22 0 -32.5 -8.5t-15.5 -33.5l-22 -103h334l-106 -500h-65l94 445h-269l-96 -445h-64
l95 445h-269zM930 590h-75l17 85h75zM876 -225h-982l12 55h982z" />
    <glyph glyph-name="f_f_l" unicode="ffl" horiz-adv-x="942" 
d="M130 0h-64l95 445h-108l11 55h109l22 105q11 50 34 72.5t68 22.5h139l-12 -55h-116q-22 0 -32.5 -8.5t-15.5 -33.5l-22 -103h269l22 105q11 50 34 72.5t68 22.5h317l-149 -700h-65l137 645h-229q-22 0 -32.5 -8.5t-15.5 -33.5l-22 -103h115l-11 -55h-116l-96 -445h-64
l95 445h-269zM876 -225h-982l12 55h982z" />
    <glyph glyph-name="j_j" unicode="jj" horiz-adv-x="468" 
d="M219 590h-75l17 85h75zM453 590h-75l17 85h75zM-29 -225h-141l12 55h115q34 0 44 44l131 626h65l-131 -631q-20 -94 -95 -94zM205 -225h-85l12 55h59q34 0 44 44l131 626h65l-131 -631q-20 -94 -95 -94z" />
    <glyph glyph-name="w_w_w" unicode="www" horiz-adv-x="2049" 
d="M394 421l-207 -421h-87l-47 500h63l38 -441l214 441h79l32 -440l226 440h68l-1 -2l38 -439l214 441h79l32 -440l226 440h68l-2 -3l38 -438l214 441h79l32 -440l226 440h68l-262 -500h-87l-30 421l-207 -421h-87l-37 395l-207 -395h-87l-30 421l-207 -421h-87l-37 396
l-208 -396h-87zM1998 -225h-2115l12 55h2115z" />
    <glyph glyph-name="slash_slash" unicode="&#x2f;&#x2f;" horiz-adv-x="660" 
d="M-121 -225l476 925h74l-476 -925h-74zM627 700h74l-448 -870h353l-12 -55h-443z" />
    <glyph glyph-name="backslash_backslash" unicode="\\" horiz-adv-x="968" 
d="M563 -170l-448 870h74l476 -925h-771l12 55h657zM387 700h74l476 -925h-74z" />
    <glyph glyph-name=".notdef" horiz-adv-x="680" 
d="M590 0h-500v700h500v-700zM150 645v-590h380v590h-380zM614 -225h-726l12 55h726z" />
    <glyph glyph-name=".null" horiz-adv-x="0" 
 />
    <glyph glyph-name="nonmarkingreturn" horiz-adv-x="333" 
 />
    <glyph glyph-name="space" unicode=" " horiz-adv-x="252" 
 />
    <glyph glyph-name="exclam" unicode="!" horiz-adv-x="241" 
d="M109 190h-22l36 286l48 224h70l-48 -224zM103 0h-75l17 85h75zM175 -225h-281l12 55h281z" />
    <glyph glyph-name="quotedbl" unicode="&#x22;" horiz-adv-x="340" 
d="M142 490h-22l9 130l17 80h65l-17 -80zM297 490h-22l9 130l17 80h65l-17 -80z" />
    <glyph glyph-name="numbersign" unicode="#" horiz-adv-x="662" 
d="M569 700l-39 -190h108v-55h-120l-43 -210h121v-55h-133l-39 -190h-65l39 190h-178l-41 -190h-65l41 190h-108v55h120l45 210h-122v55h133l41 190h65l-41 -190h177l39 190h65zM232 245h178l43 210h-176zM596 -225h-702l12 55h702z" />
    <glyph glyph-name="dollar" unicode="$" horiz-adv-x="621" 
d="M528 820l-49 -132q60 -25 93.5 -74.5t33.5 -109.5v-8h-68q-1 92 -82 129l-91 -246l21 -7q154 -53 154 -173q0 -91 -68 -150t-178 -59q-38 0 -71 6l-82 -221h-239l12 55h182l68 182q-63 24 -97.5 73t-34.5 115q0 16 1 20h68v-14q0 -93 86 -131l96 260l-23 8
q-74 25 -108.5 60t-34.5 94q0 92 71.5 152.5t176.5 60.5q27 0 55 -5l43 115h65zM288 406l19 -7l90 243q-18 3 -37 3q-73 0 -123.5 -39t-50.5 -98q0 -38 25.5 -61t76.5 -41zM472 188q0 43 -28 72.5t-103 55.5l-95 -257q21 -4 48 -4q78 0 128 36.5t50 96.5zM547 -225h-322
l12 55h322z" />
    <glyph glyph-name="percent" unicode="%" horiz-adv-x="1009" 
d="M233 300q-73 0 -112.5 46t-39.5 127q0 103 51.5 167.5t130.5 64.5q71 0 110 -47t39 -127q0 -103 -51 -167t-128 -64zM69 -170l696 870h73l-740 -925h-204l12 55h163zM261 655q-49 0 -84 -49t-35 -130q0 -126 93 -126q47 0 81.5 49.5t34.5 129.5q0 55 -22 90.5t-68 35.5z
M621 168q0 103 51.5 167.5t130.5 64.5q71 0 110 -47t39 -127q0 -103 -51 -167t-128 -64q-73 0 -112.5 46t-39.5 127zM891 224q0 55 -22 90.5t-68 35.5q-49 0 -84 -49t-35 -130q0 -126 93 -126q47 0 81.5 49.5t34.5 129.5zM205 -225l12 55h737l-12 -55h-737z" />
    <glyph glyph-name="ampersand" unicode="&#x26;" horiz-adv-x="632" 
d="M431 0h-207q-87 0 -138.5 46t-51.5 124q0 73 43.5 129t114.5 67q-37 17 -60.5 56t-23.5 87q0 82 57.5 136.5t144.5 54.5h131l-14 -65h-107q-67 0 -105.5 -34.5t-38.5 -94.5q0 -56 31 -87t87 -31h151l27 126h68l-27 -126h111l-13 -65h-112zM238 65h139l55 258h-185
q-65 0 -105 -40.5t-40 -103.5q0 -53 37 -83.5t99 -30.5zM566 -225h-671l12 55h671z" />
    <glyph glyph-name="quotesingle" unicode="'" horiz-adv-x="185" 
d="M142 490h-22l9 130l17 80h65l-17 -80z" />
    <glyph glyph-name="parenleft" unicode="(" horiz-adv-x="534" 
d="M488 845l-13 -60q-95 -17 -179.5 -101.5t-135 -212.5t-50.5 -264q0 -54 6 -104.5t21 -101t38.5 -87.5t62.5 -60.5t88 -23.5h130l-12 -55h-130q-92 0 -154.5 61t-88.5 152t-26 205q0 125 37 243.5t98 206t142.5 142.5t165.5 60z" />
    <glyph glyph-name="parenright" unicode=")" horiz-adv-x="511" 
d="M259 790l12 55q88 -22 148 -131.5t60 -256.5q0 -174 -65 -332t-174 -254t-230 -96h-140l12 55h121q102 0 198 90.5t154.5 233t58.5 289.5q0 122 -38.5 214t-116.5 133z" />
    <glyph glyph-name="asterisk" unicode="*" horiz-adv-x="437" 
d="M274 534l-60 -104l-43 25l60 104h-120v50h120l-60 104l44 25l60 -104l60 104l43 -25l-60 -104h120v-50h-120l60 -104l-44 -25z" />
    <glyph glyph-name="plus" unicode="+" horiz-adv-x="585" 
d="M318 15h-65v213h-215v60h215v212h65v-212h215v-60h-215v-213zM520 -225h-626l12 55h626z" />
    <glyph glyph-name="comma" unicode="," horiz-adv-x="241" 
d="M-41 -225h-71l12 55h60q67 0 81 60l25 110h-58l21 100h105l-45 -220q-22 -105 -130 -105z" />
    <glyph glyph-name="hyphen" unicode="-" horiz-adv-x="390" 
d="M315 275h-250l12 55h250zM325 -225h-431l12 55h431z" />
    <glyph glyph-name="period" unicode="." horiz-adv-x="236" 
d="M108 0h-100l21 100h100zM165 -225h-276l12 55h276z" />
    <glyph glyph-name="slash" unicode="/" horiz-adv-x="388" 
d="M-47 -225h-74l476 925h74zM322 -225h-277l12 55h277z" />
    <glyph glyph-name="zero" unicode="0" horiz-adv-x="656" 
d="M287 -10q-103 0 -162.5 72.5t-59.5 198.5q0 54 10 111.5t34.5 118.5t61 109t94.5 79t129 31q103 0 162.5 -72t59.5 -198q0 -54 -10 -111.5t-34.5 -119t-61 -109.5t-94.5 -79t-129 -31zM295 55q105 0 179 111.5t74 269.5q0 90 -39.5 149.5t-120.5 59.5
q-106 0 -180.5 -111.5t-74.5 -269.5q0 -90 40 -149.5t122 -59.5zM589 -225h-694l12 55h694z" />
    <glyph glyph-name="one" unicode="1" horiz-adv-x="360" 
d="M199 0h-68l126 592l-193 -146l20 91l212 163h52zM294 -225h-400l12 55h400z" />
    <glyph glyph-name="two" unicode="2" horiz-adv-x="569" 
d="M121 67h362l-14 -67h-456l16 75l268 208q95 74 134.5 122.5t39.5 101.5q0 64 -41.5 101t-112.5 37q-64 0 -107 -41.5t-46 -107.5h-68q1 93 66 153.5t163 60.5q96 0 155 -57.5t59 -142.5q0 -70 -45 -128.5t-155 -144.5zM503 -225h-609l12 55h609z" />
    <glyph glyph-name="three" unicode="3" horiz-adv-x="572" 
d="M252 -10q-100 0 -162.5 51t-62.5 137h68q0 -53 44.5 -88t115.5 -35q74 0 120 42t46 104q0 55 -36.5 85.5t-102.5 30.5h-40l14 65h70q61 0 106.5 37.5t45.5 98.5q0 60 -39.5 93.5t-107.5 33.5q-60 0 -101 -34t-50 -91h-68q8 79 68.5 134.5t156.5 55.5q94 0 151.5 -51
t57.5 -133q0 -69 -42 -117t-105 -65q40 -19 65 -56.5t25 -89.5q0 -88 -65 -148t-172 -60zM506 -225h-612l12 55h612z" />
    <glyph glyph-name="four" unicode="4" horiz-adv-x="595" 
d="M382 0h-64l36 169h-347l18 86l408 445h98l-100 -468h121l-13 -63h-121zM453 637l-367 -405h281zM530 -225h-636l12 55h636z" />
    <glyph glyph-name="five" unicode="5" horiz-adv-x="564" 
d="M252 -10q-93 0 -156 50t-66 140h68q4 -63 47.5 -94t108.5 -31q77 0 125 47t48 120q0 67 -41.5 109t-111.5 42q-52 0 -87 -19.5t-73 -60.5h-65l172 407h347l-14 -67h-297l-107 -248q61 53 142 53q84 0 143.5 -60.5t59.5 -147.5q0 -109 -68 -174.5t-175 -65.5zM498 -225
h-603l12 55h603z" />
    <glyph glyph-name="six" unicode="6" horiz-adv-x="613" 
d="M290 -10q-98 0 -162 67t-64 201q0 116 38.5 217.5t117 168t181.5 66.5q87 0 144 -48t64 -127h-68q-8 51 -47.5 80.5t-101.5 29.5q-93 0 -161 -76.5t-94 -203.5q64 96 187 96q93 0 153.5 -59t60.5 -154q0 -105 -68 -181.5t-180 -76.5zM321 396h-7q-77 0 -129.5 -47.5
t-52.5 -125.5q0 -73 42.5 -120.5t108.5 -47.5h8q78 0 128.5 54t50.5 132q0 69 -39 112t-110 43zM549 -225h-653l12 55h653z" />
    <glyph glyph-name="seven" unicode="7" horiz-adv-x="523" 
d="M95 633l14 67h466l-15 -70q-175 -73 -269 -215t-116 -392l-2 -23h-68l4 44q19 214 109 365.5t237 223.5h-360zM448 -225h-555l12 55h555z" />
    <glyph glyph-name="eight" unicode="8" horiz-adv-x="563" 
d="M245 -10q-86 0 -140 48.5t-54 131.5q0 62 45.5 116t113.5 67q-43 17 -72.5 57t-29.5 95q0 94 67 149.5t167 55.5q88 0 147.5 -50t59.5 -137q0 -74 -53 -127t-122 -63q43 -22 67.5 -61t24.5 -86q0 -81 -60.5 -138.5t-160.5 -57.5zM316 379q66 0 115.5 37t49.5 104
q0 61 -41 93t-104 32q-70 0 -115 -38t-45 -104q0 -59 42 -91.5t98 -32.5zM251 55q64 0 105.5 38.5t41.5 98.5q0 51 -37 84t-94 33q-63 0 -105.5 -39t-42.5 -99q0 -50 37 -83t95 -33zM496 -225h-602l12 55h602z" />
    <glyph glyph-name="nine" unicode="9" horiz-adv-x="613" 
d="M237 -10q-87 0 -144 48t-64 127h68q8 -51 47.5 -80.5t101.5 -29.5q93 0 161 76.5t94 203.5q-64 -96 -187 -96q-93 0 -153.5 59t-60.5 154q0 105 68 181.5t180 76.5q98 0 162 -67t64 -201q0 -116 -38.5 -217.5t-117 -168t-181.5 -66.5zM317 304h7q77 0 129.5 47.5
t52.5 125.5q0 73 -42.5 120.5t-108.5 47.5h-8q-78 0 -128.5 -54t-50.5 -132q0 -69 39 -112t110 -43zM545 -225h-652l12 55h652z" />
    <glyph glyph-name="colon" unicode=":" horiz-adv-x="238" 
d="M192 400h-100l21 100h100zM107 0h-100l21 100h100zM172 -225h-278l12 55h278z" />
    <glyph glyph-name="semicolon" unicode=";" horiz-adv-x="249" 
d="M195 400h-100l21 100h100zM-39 -225h-85l12 55h74q67 0 81 60l25 110h-58l21 100h105l-45 -220q-22 -105 -130 -105z" />
    <glyph glyph-name="less" unicode="&#x3c;" horiz-adv-x="551" 
d="M131 258l330 -131v-76l-425 177v56l425 177v-73zM-106 -225l12 55h591l-12 -55h-591z" />
    <glyph glyph-name="equal" unicode="=" horiz-adv-x="695" 
d="M587 315h-494v65h494v-65zM587 134h-494v65h494v-65zM629 -225h-735l12 55h735z" />
    <glyph glyph-name="greater" unicode="&#x3e;" horiz-adv-x="549" 
d="M498 228l-425 -177v73l330 131l-330 130v76l425 -177v-56zM483 -225h-589l12 55h589z" />
    <glyph glyph-name="question" unicode="?" horiz-adv-x="450" 
d="M179 205h-68l25 118q13 52 38 70t67 18h10q64 0 102.5 34.5t38.5 88.5t-33.5 77.5t-99.5 23.5h-151l14 65h145q91 0 142 -42t51 -121q0 -81 -57.5 -136t-146.5 -55q-44 0 -53 -40zM145 0h-75l17 85h75zM384 -225h-490l12 55h490z" />
    <glyph glyph-name="at" unicode="@" horiz-adv-x="926" 
d="M860 -225h-228q-155 0 -285.5 70t-205 188.5t-74.5 256.5q0 101 34.5 185.5t91.5 139.5t130 85t152 30q178 0 290 -104.5t112 -271.5q0 -67 -20.5 -119t-53 -81t-67.5 -44t-70 -15h-74v77q-12 -35 -48 -61t-84 -26q-79 0 -131 58t-52 157q0 98 52 154t131 56
q92 0 132 -80v70h60v-350h9q23 0 46 8t48.5 28t41 63t15.5 105q0 145 -91.5 233t-245.5 88q-145 0 -244 -106.5t-99 -278.5q0 -86 37.5 -168.5t102 -147.5t160.5 -104.5t205 -39.5h235zM461 140h8q51 0 87 44.5t36 115.5q0 73 -36.5 114t-86.5 41h-8q-51 0 -85 -40.5
t-34 -114.5q0 -72 33.5 -116t85.5 -44zM188 -225h-292l12 55h292z" />
    <glyph glyph-name="A" unicode="A" horiz-adv-x="668" 
d="M494 193h-356l-118 -193h-76l433 700h90l131 -700h-68zM482 258l-71 380l-233 -380h304zM-116 -225l12 55h728l-12 -55h-728z" />
    <glyph glyph-name="B" unicode="B" horiz-adv-x="668" 
d="M377 0h-341l149 700h257q90 0 144 -46t54 -122q0 -67 -42.5 -119.5t-107.5 -65.5q46 -17 71 -53.5t25 -86.5q0 -85 -59 -146t-150 -61zM241 635l-53 -248h231q64 0 107.5 37t43.5 100q0 111 -138 111h-191zM174 322l-54 -257h247q63 0 106 36t43 113q0 51 -33.5 79.5
t-94.5 28.5h-214zM601 -225h-707l12 55h707z" />
    <glyph glyph-name="C" unicode="C" horiz-adv-x="704" 
d="M354 -10q-132 0 -211 80t-79 213q0 181 100.5 304t266.5 123q105 0 173 -60t72 -164h-70q-2 73 -49.5 115.5t-130.5 43.5h-6q-121 0 -203.5 -99t-82.5 -251q0 -111 59 -175.5t170 -64.5h6q47 0 89.5 16t77 53t43.5 90h70q-18 -104 -97 -164t-198 -60zM638 -225h-744
l12 55h744z" />
    <glyph glyph-name="D" unicode="D" horiz-adv-x="710" 
d="M330 0h-294l149 700h183q87 0 149 -25.5t94 -69.5t46 -91t14 -102q0 -75 -23 -147.5t-65 -132t-108 -96t-145 -36.5zM241 635l-121 -570h196q92 0 159 52t96.5 128.5t29.5 164.5q0 108 -60 166.5t-174 58.5h-126zM644 -225h-750l12 55h750z" />
    <glyph glyph-name="E" unicode="E" horiz-adv-x="642" 
d="M36 0l149 700h490l-14 -65h-420l-51 -242h360l-14 -65h-360l-56 -263h430l-14 -65h-500zM576 -225h-681l11 55h682z" />
    <glyph glyph-name="F" unicode="F" horiz-adv-x="601" 
d="M36 0l149 700h470l-14 -65h-400l-56 -263h351l-14 -65h-351l-65 -307h-70zM534 -225h-640l12 55h640z" />
    <glyph glyph-name="G" unicode="G" horiz-adv-x="745" 
d="M353 -10q-129 0 -208.5 83t-79.5 213q0 117 45 213t131 153.5t197 57.5t186 -68t75 -167h-70q-6 83 -62.5 126.5t-138.5 43.5q-128 0 -210.5 -102.5t-82.5 -241.5q0 -115 59 -180.5t160 -65.5q89 0 163.5 67t100.5 163h-224l13 65h211q33 0 51 -16t18 -45q0 -15 -3 -33
l-54 -256h-65l27 128q-29 -57 -96.5 -97.5t-142.5 -40.5zM680 -225h-785l12 55h785z" />
    <glyph glyph-name="H" unicode="H" horiz-adv-x="731" 
d="M106 0h-70l149 700h70l-67 -317h395l67 317h70l-149 -700h-70l68 318h-395zM665 -225h-771l12 55h771z" />
    <glyph glyph-name="I" unicode="I" horiz-adv-x="266" 
d="M106 0h-70l149 700h70zM200 -225h-306l12 55h306z" />
    <glyph glyph-name="J" unicode="J" horiz-adv-x="379" 
d="M53 0h-86l14 65h88q52 0 82 29.5t44 95.5l109 510h70l-111 -520q-21 -97 -68 -138.5t-142 -41.5zM313 -225h-419l12 55h419z" />
    <glyph glyph-name="K" unicode="K" horiz-adv-x="701" 
d="M645 700h98l-360 -299l271 -401h-82l-241 357l-181 -150l-43 -207h-70l147 700h70l-83 -397zM641 -225h-747l12 55h747z" />
    <glyph glyph-name="L" unicode="L" horiz-adv-x="597" 
d="M526 0h-490l149 700h70l-135 -635h420zM531 -225h-637l12 55h637z" />
    <glyph glyph-name="M" unicode="M" horiz-adv-x="929" 
d="M355 0l-113 637l-136 -637h-70l149 700h114l113 -644l386 644h120l-149 -700h-70l136 636l-384 -636h-96zM863 -225h-969l12 55h969z" />
    <glyph glyph-name="N" unicode="N" horiz-adv-x="741" 
d="M496 0l-259 618l-131 -618h-70l149 700h90l256 -607l129 607h70l-149 -700h-85zM675 -225h-781l12 55h781z" />
    <glyph glyph-name="O" unicode="O" horiz-adv-x="754" 
d="M352 -10q-129 0 -208.5 81t-79.5 227q0 174 108.5 293t263.5 119q127 0 202.5 -84t75.5 -224q0 -104 -41 -196.5t-125.5 -154t-195.5 -61.5zM347 55h7q120 0 205 96t85 243q0 117 -58 184t-162 67h-7q-109 0 -196 -99t-87 -244q0 -116 59 -181.5t154 -65.5zM689 -225
h-795l12 55h795z" />
    <glyph glyph-name="P" unicode="P" horiz-adv-x="629" 
d="M106 0h-70l149 700h231q96 0 157 -51t61 -133q0 -100 -62 -164t-165 -64h-240zM241 635l-60 -282h223q70 0 115 41.5t45 113.5q0 59 -39.5 93t-118.5 34h-165zM563 -225h-669l12 55h669z" />
    <glyph glyph-name="Q" unicode="Q" horiz-adv-x="754" 
d="M363 -10l-25 -117q-5 -23 2.5 -33t30.5 -10h329l-12 -55h-326q-114 0 -90 115l22 105q-105 17 -167.5 96t-62.5 207q0 174 108.5 293t263.5 119q127 0 202.5 -84t75.5 -224q0 -103 -40 -194t-122 -153t-189 -65zM134 302q0 -116 59 -181.5t154 -65.5h7q120 0 205 96
t85 243q0 117 -58 184t-162 67h-7q-109 0 -196 -99t-87 -244zM184 -225h-290l12 55h290z" />
    <glyph glyph-name="R" unicode="R" horiz-adv-x="673" 
d="M106 0h-70l149 700h229q100 0 155.5 -47.5t55.5 -128.5q0 -63 -33.5 -114.5t-87.5 -71.5q34 -3 55 -26.5t21 -58.5q0 -20 -5 -47l-44 -206h-70l45 212q4 17 4 33q0 27 -21 38.5t-67 11.5h-253zM241 635l-58 -275h204q74 0 120.5 42t46.5 110q0 123 -159 123h-154z
M607 -225h-713l12 55h713z" />
    <glyph glyph-name="S" unicode="S" horiz-adv-x="615" 
d="M291 -10q-122 0 -192 57t-70 153q0 16 1 20h69v-14q0 -76 54.5 -113.5t132.5 -37.5h10q75 0 123 36.5t48 96.5q0 44 -28 73.5t-105 55.5l-77 26q-73 25 -108 62.5t-35 97.5q0 91 71 149t177 58q107 0 174 -59.5t67 -146.5v-9h-70q-1 72 -49 111t-122 39h-10
q-70 0 -119 -39t-49 -98q0 -38 25 -61t76 -41l98 -34q154 -53 154 -179q0 -90 -67.5 -146.5t-178.5 -56.5zM548 -225h-652l12 55h652z" />
    <glyph glyph-name="T" unicode="T" horiz-adv-x="596" 
d="M276 0h-70l135 635h-255l14 65h570l-14 -65h-245zM530 -225h-636l12 55h636z" />
    <glyph glyph-name="U" unicode="U" horiz-adv-x="694" 
d="M293 -10q-101 0 -157.5 55t-56.5 155q0 43 10 87l88 413h70l-90 -422q-9 -41 -9 -74q0 -149 161 -149q173 0 214 191l97 454h70l-102 -477q-24 -112 -98 -172.5t-197 -60.5zM628 -225h-734l12 55h734z" />
    <glyph glyph-name="V" unicode="V" horiz-adv-x="668" 
d="M747 700l-434 -700h-80l-141 700h70l124 -628l383 628h78zM602 -225h-708l12 55h708z" />
    <glyph glyph-name="W" unicode="W" horiz-adv-x="907" 
d="M522 612l-295 -612h-86l-38 700h73l22 -625l301 625h78l37 -629l283 629h78l-334 -700h-84zM845 -225h-955l12 55h955z" />
    <glyph glyph-name="X" unicode="X" horiz-adv-x="624" 
d="M318 305l-285 -305h-84l339 363l-176 337h76l149 -285l266 285h84l-320 -343l186 -357h-76zM558 -225h-664l12 55h664z" />
    <glyph glyph-name="Y" unicode="Y" horiz-adv-x="620" 
d="M283 0h-70l61 284l-180 416h73l152 -353l295 353h85l-356 -418zM550 -225h-652l12 55h652z" />
    <glyph glyph-name="Z" unicode="Z" horiz-adv-x="593" 
d="M123 635l14 65h492l-17 -80l-539 -555h434l-14 -65h-514l17 81l542 554h-415zM528 -225h-634l12 55h634z" />
    <glyph glyph-name="bracketleft" unicode="[" horiz-adv-x="365" 
d="M275 -225h-269l228 1070h199l-12 -55h-139l-204 -960h209z" />
    <glyph glyph-name="backslash" unicode="\" horiz-adv-x="698" 
d="M665 -225h-74l-476 925h74zM475 -225h-581l12 55h581z" />
    <glyph glyph-name="bracketright" unicode="]" horiz-adv-x="268" 
d="M91 -225h-221l12 55h161l204 960h-140l12 55h200z" />
    <glyph glyph-name="asciicircum" unicode="^" horiz-adv-x="524" 
d="M423 285l-151 356l-151 -356h-65l177 415h79l178 -415h-67zM458 -225h-564l12 55h564z" />
    <glyph glyph-name="underscore" unicode="_" horiz-adv-x="490" 
d="M386 -55h-430l12 55h430z" />
    <glyph glyph-name="grave" unicode="`" horiz-adv-x="225" 
d="M263 570h-49l-88 130h80z" />
    <glyph glyph-name="a" unicode="a" horiz-adv-x="590" 
d="M235 -10q-80 0 -137.5 56.5t-57.5 165.5q0 133 71 215.5t176 82.5q61 0 109.5 -31t70.5 -88l22 109h65l-106 -500h-60l13 66q-61 -76 -166 -76zM250 45q83 0 136 75t53 169q0 79 -44 122.5t-104 43.5q-77 0 -131.5 -65.5t-54.5 -169.5q0 -85 40.5 -130t104.5 -45z
M524 -225h-630l12 55h630z" />
    <glyph glyph-name="b" unicode="b" horiz-adv-x="592" 
d="M287 -10q-60 0 -109.5 31.5t-71.5 88.5l-23 -110h-64l149 700h64l-56 -261q61 71 161 71q80 0 138.5 -57.5t58.5 -164.5q0 -133 -71 -215.5t-176 -82.5zM283 45q77 0 131.5 65.5t54.5 169.5q0 86 -38.5 130.5t-105.5 44.5q-86 0 -138 -74.5t-52 -169.5q0 -79 44 -122.5
t104 -43.5zM526 -225h-631l12 55h631z" />
    <glyph glyph-name="c" unicode="c" horiz-adv-x="538" 
d="M254 -10q-96 0 -155.5 57t-59.5 158q0 140 76 222.5t188 82.5q83 0 136 -46.5t53 -123.5h-65q0 57 -35.5 86t-94.5 29q-84 0 -138.5 -69t-54.5 -179q0 -74 41.5 -118t115.5 -44q53 0 91.5 31t53.5 84h65q-17 -80 -76.5 -125t-140.5 -45zM471 -225h-577l12 55h577z" />
    <glyph glyph-name="d" unicode="d" horiz-adv-x="591" 
d="M235 -10q-80 0 -137.5 56.5t-57.5 165.5q0 133 72.5 215.5t177.5 82.5q59 0 107.5 -29.5t71.5 -83.5l61 303h67l-149 -700h-60l13 67q-61 -77 -166 -77zM249 45q86 0 138 73t52 165q0 83 -42.5 127.5t-102.5 44.5q-78 0 -133.5 -65t-55.5 -170q0 -85 40 -130t104 -45z
M525 -225h-631l12 55h631z" />
    <glyph glyph-name="e" unicode="e" horiz-adv-x="540" 
d="M245 -10q-93 0 -149 62.5t-56 168.5q0 125 74.5 207t187.5 82q78 0 130.5 -47t52.5 -136q0 -35 -11 -82h-368q-1 -8 -1 -24q0 -80 42 -128t108 -48q109 0 146 98h65q-20 -70 -77 -111.5t-144 -41.5zM114 300h303q3 19 3 35q0 60 -33.5 90t-93.5 30q-69 0 -115.5 -41.5
t-63.5 -113.5zM472 -225h-578l12 55h578z" />
    <glyph glyph-name="f" unicode="f" horiz-adv-x="329" 
d="M424 645h-116q-22 0 -32.5 -8.5t-15.5 -33.5l-22 -103h115l-11 -55h-116l-96 -445h-64l95 445h-108l11 55h109l22 105q11 50 34 72.5t68 22.5h139zM263 -225h-369l12 55h369z" />
    <glyph glyph-name="g" unicode="g" horiz-adv-x="587" 
d="M191 -225h-297l12 55h294q145 0 181 176l14 67q-58 -73 -160 -73q-80 0 -137.5 53.5t-57.5 158.5q0 133 71 215.5t176 82.5q60 0 107.5 -31.5t68.5 -87.5l23 109h65l-109 -512q-45 -213 -251 -213zM250 55q84 0 134 71.5t50 162.5q0 80 -41.5 123t-101.5 43
q-77 0 -131.5 -65.5t-54.5 -169.5q0 -80 40.5 -122.5t104.5 -42.5z" />
    <glyph glyph-name="h" unicode="h" horiz-adv-x="561" 
d="M84 0h-65l148 700h65l-55 -264q61 74 157 74q71 0 115 -43t44 -113q0 -39 -8 -74l-60 -280h-65l64 302q4 20 4 42q0 49 -31 80t-81 31q-64 0 -111 -51t-66 -144zM494 -225h-600l12 55h600z" />
    <glyph glyph-name="i" unicode="i" horiz-adv-x="226" 
d="M213 590h-75l17 85h75zM84 0h-65l106 500h65zM160 -225h-266l12 55h266z" />
    <glyph glyph-name="j" unicode="j" horiz-adv-x="234" 
d="M219 590h-75l17 85h75zM-29 -225h-141l12 55h115q34 0 44 44l131 626h65l-131 -631q-20 -94 -95 -94z" />
    <glyph glyph-name="k" unicode="k" horiz-adv-x="559" 
d="M84 0h-65l149 700h65l-100 -471l338 271h92l-255 -204l199 -296h-76l-172 258l-145 -116zM493 -225h-598l12 55h598z" />
    <glyph glyph-name="l" unicode="l" horiz-adv-x="226" 
d="M83 0h-65l149 700h65zM160 -225h-266l12 55h266z" />
    <glyph glyph-name="m" unicode="m" horiz-adv-x="890" 
d="M84 0h-65l106 500h64l-13 -64q61 74 158 74q55 0 93 -27t53 -77q64 104 187 104q68 0 111.5 -43t43.5 -111q0 -36 -8 -76l-60 -280h-65l64 302q5 25 5 42q0 50 -27.5 80.5t-80.5 30.5q-64 0 -110.5 -51t-65.5 -144l-55 -260h-65l64 302q5 25 5 42q0 50 -27 80.5t-80 30.5
q-64 0 -111 -51t-66 -144zM824 -225h-930l12 55h930z" />
    <glyph glyph-name="n" unicode="n" horiz-adv-x="561" 
d="M139 260l-55 -260h-65l106 500h65l-13 -64q61 74 157 74q71 0 115 -43t44 -113q0 -39 -8 -74l-60 -280h-65l64 302q4 20 4 42q0 50 -31 80.5t-80 30.5q-64 0 -111.5 -51t-66.5 -144zM-106 -225l12 55h601l-12 -55h-601z" />
    <glyph glyph-name="o" unicode="o" horiz-adv-x="564" 
d="M254 -10q-95 0 -155 59t-60 159q0 133 74.5 217.5t178.5 84.5q95 0 155 -59t60 -159q0 -136 -74 -219t-179 -83zM251 45h8q72 0 127.5 66t55.5 181q0 70 -40 116.5t-107 46.5h-8q-73 0 -128 -65.5t-55 -181.5q0 -69 39.5 -116t107.5 -47zM498 -225h-604l12 55h604z" />
    <glyph glyph-name="p" unicode="p" horiz-adv-x="593" 
d="M288 -10q-61 0 -110.5 31.5t-70.5 89.5l-72 -336h-141l12 55h76l143 670h65l-14 -65q62 75 163 75q81 0 138.5 -56.5t57.5 -165.5q0 -133 -71 -215.5t-176 -82.5zM325 455q-86 0 -137.5 -74.5t-51.5 -169.5q0 -79 44.5 -122.5t103.5 -43.5q77 0 131.5 66t54.5 170
q0 85 -40 129.5t-105 44.5zM110 -225l12 55h417l-12 -55h-417z" />
    <glyph glyph-name="q" unicode="q" horiz-adv-x="593" 
d="M492 500h65l-142 -670h95l-12 -55h-160l61 288q-59 -73 -164 -73q-80 0 -137.5 56.5t-57.5 165.5q0 133 71 215.5t176 82.5q63 0 111.5 -32t69.5 -90zM250 45q86 0 137.5 74.5t51.5 169.5q0 79 -44 122.5t-104 43.5q-77 0 -131.5 -65.5t-54.5 -169.5q0 -85 40.5 -130
t104.5 -45zM263 -225h-369l12 55h369z" />
    <glyph glyph-name="r" unicode="r" horiz-adv-x="349" 
d="M324 505h51l-12 -60h-49q-64 0 -111 -54t-70 -161l-49 -230h-65l106 500h63l-20 -96q21 43 63.5 72t92.5 29zM283 -225h-389l12 55h389z" />
    <glyph glyph-name="s" unicode="s" horiz-adv-x="473" 
d="M205 -10q-89 0 -141.5 42.5t-55.5 117.5h65q4 -53 40.5 -79t94.5 -26q51 0 83 26t32 68q0 48 -77 75l-57 20q-56 19 -84.5 47t-28.5 72q0 66 50 111.5t131 45.5q77 0 129.5 -42.5t53.5 -117.5h-65q-1 49 -37 77t-87 28q-49 0 -79.5 -26t-30.5 -69q0 -45 73 -70l60 -21
q52 -18 83 -46.5t31 -81.5q0 -67 -52 -109t-131 -42zM408 -225h-513l12 55h513z" />
    <glyph glyph-name="t" unicode="t" horiz-adv-x="367" 
d="M276 662l-35 -162h128l-11 -55h-129l-74 -347q-1 -5 -1 -15q0 -13 10 -20.5t24 -7.5h113l-12 -55h-110q-89 0 -89 77q0 22 3 34l70 334h-118l11 55h120l35 162h65zM301 -225h-407l12 55h407z" />
    <glyph glyph-name="u" unicode="u" horiz-adv-x="551" 
d="M200 -10q-72 1 -111 40.5t-39 112.5q0 33 9 74l60 283h66l-64 -302q-6 -27 -6 -49q0 -49 26.5 -76.5t75.5 -27.5q67 0 112.5 50.5t65.5 144.5l55 260h65l-106 -500h-65l14 64q-64 -75 -158 -74zM485 -225h-591l12 55h591z" />
    <glyph glyph-name="v" unicode="v" horiz-adv-x="495" 
d="M523 500l-304 -500h-67l-90 500h65l73 -424l252 424h71zM430 -225h-536l12 55h536z" />
    <glyph glyph-name="w" unicode="w" horiz-adv-x="758" 
d="M404 421l-207 -421h-87l-47 500h63l38 -441l214 441h79l32 -440l226 440h68l-262 -500h-87zM697 -225h-804l12 55h804z" />
    <glyph glyph-name="x" unicode="x" horiz-adv-x="500" 
d="M234 204l-196 -204h-80l247 257l-136 243h70l110 -197l190 197h80l-240 -250l139 -250h-70zM434 -225h-540l12 55h540z" />
    <glyph glyph-name="y" unicode="y" horiz-adv-x="523" 
d="M487 500h71l-320 -481l-31 -150q-10 -45 -36 -69.5t-64 -24.5h-228l12 55h194q31 0 42.5 12.5t20.5 56.5l25 116l-105 485h65l86 -407zM458 -225h-201l12 55h201z" />
    <glyph glyph-name="z" unicode="z" horiz-adv-x="471" 
d="M79 445l11 55h375l-15 -70l-389 -375h324l-12 -55h-394l15 70l388 375h-303zM405 -225h-511l12 55h511z" />
    <glyph glyph-name="braceleft" unicode="{" horiz-adv-x="379" 
d="M289 -225h-140q-98 0 -98 101q0 22 7 59l62 302q2 10 2 19q0 17 -7.5 23t-28.5 6h-30l27 130h40q35 0 43 40l52 248q16 78 48 110t92 32h88l-12 -55h-54q-29 0 -47.5 -6t-28.5 -22t-14.5 -30t-10.5 -44l-52 -252q-15 -76 -71 -76h-32l-5 -20h14q58 0 58 -57q0 -13 -4 -33
l-68 -321q-7 -30 -7 -47q0 -25 15 -38.5t52 -13.5h122z" />
    <glyph glyph-name="bar" unicode="|" horiz-adv-x="283" 
d="M189 -225h-65v1010h65v-1010z" />
    <glyph glyph-name="braceright" unicode="}" horiz-adv-x="298" 
d="M-18 -225h-112l12 55h78q55 0 72.5 22t28.5 80l68 332q15 76 71 76h32l5 20h-14q-58 0 -58 57q0 13 4 33l51 241q7 30 7 47q0 25 -15 38.5t-52 13.5h-54l12 55h72q98 0 98 -101q0 -22 -7 -59l-45 -222q-2 -10 -2 -19q0 -17 7.5 -23t28.5 -6h30l-27 -130h-40
q-35 0 -43 -40l-68 -328q-16 -78 -48 -110t-92 -32z" />
    <glyph glyph-name="asciitilde" unicode="~" horiz-adv-x="476" 
d="M346 347q-31 0 -77 26l-38 22q-35 20 -48 20q-40 0 -40 -63h-50v10q0 52 25.5 78.5t65.5 26.5q30 0 73 -26l40 -24q31 -18 46 -18q40 0 40 63h50v-10q0 -49 -24 -77t-63 -28zM411 -225h-517l12 55h517z" />
    <glyph glyph-name="uni00A0" unicode="&#xa0;" horiz-adv-x="252" 
 />
    <glyph glyph-name="exclamdown" unicode="&#xa1;" horiz-adv-x="249" 
d="M138 500h75l-17 -85h-75zM154 310l-36 -286l-41 -194h120l-12 -55h-190l53 249l84 286h22z" />
    <glyph glyph-name="cent" unicode="&#xa2;" horiz-adv-x="544" 
d="M261 -10q-24 0 -51 5l-82 -220h-227l12 55h171l68 184q-106 54 -106 191q0 140 76 222.5t188 82.5q18 0 26 -1l42 111h65l-47 -126q101 -42 103 -154h-68q-1 68 -58 93l-140 -376q22 -2 35 -2q48 0 82.5 26.5t49.5 78.5h68q-17 -79 -75 -124.5t-132 -45.5zM114 207
q0 -92 62 -130l137 368h-9q-84 0 -137 -64t-53 -174zM478 -225h-266l12 55h266z" />
    <glyph glyph-name="sterling" unicode="&#xa3;" horiz-adv-x="565" 
d="M447 700h92l-14 -65h-71q-77 0 -117.5 -33t-58.5 -106l-33 -131l144 33l-14 -63l-147 -33l-33 -131q-21 -80 -68 -106h357l-14 -65h-472l14 65q50 0 73.5 28.5t36.5 77.5l29 114l-96 -22l15 63l97 22l43 167q24 94 87.5 139.5t149.5 45.5zM499 -225h-601l12 55h601z" />
    <glyph glyph-name="currency" unicode="&#xa4;" horiz-adv-x="771" 
d="M225 102l-88 -84l-44 44l90 90q-45 67 -45 153q0 83 43 150l-88 88l44 44l87 -83q71 61 164 61q97 0 166 -63l89 85l44 -44l-91 -91q42 -64 42 -147t-43 -151l92 -92l-44 -44l-90 86q-70 -64 -165 -64q-93 0 -163 62zM393 500h-10q-76 0 -126.5 -54.5t-50.5 -140.5
t53 -143t129 -57h5q75 0 126 56.5t51 143.5q0 86 -50.5 140.5t-126.5 54.5zM-105 -225l12 55h808l-12 -55h-808z" />
    <glyph glyph-name="yen" unicode="&#xa5;" horiz-adv-x="675" 
d="M306 0h-69l28 133l-192 -42l14 63l192 42l18 86l-192 -42l13 63l170 37l-171 360h73l156 -327l291 327h85l-292 -328l151 33l-14 -63l-198 -44l-18 -86l199 44l-13 -63l-199 -44zM609 -225h-715l12 55h715z" />
    <glyph glyph-name="brokenbar" unicode="&#xa6;" horiz-adv-x="283" 
d="M190 400h-65v385h65v-385zM190 -225h-65v475h65v-475z" />
    <glyph glyph-name="section" unicode="&#xa7;" horiz-adv-x="514" 
d="M234 -60h-196l14 64h171q57 0 81.5 21.5t24.5 53.5q0 26 -18.5 44t-59.5 35l-93 39q-55 23 -80 53t-25 79q-1 34 29 77t92 71q-42 40 -42 87q0 65 45.5 100.5t131.5 35.5h180l-14 -64h-166q-109 0 -109 -69q0 -44 75 -79l83 -38q57 -26 86 -56.5t29 -78.5
q0 -38 -23.5 -73t-88.5 -74q36 -34 36 -89t-41.5 -97t-121.5 -42zM199 247l105 -44q101 44 101 105q0 32 -24 54t-81 46l-78 33q-54 -19 -77.5 -51t-23.5 -57q0 -30 17.5 -49t60.5 -37zM447 -225h-552l12 55h552z" />
    <glyph glyph-name="dieresis" unicode="&#xa8;" horiz-adv-x="320" 
d="M182 590h-75l18 80h75zM357 590h-75l18 80h75z" />
    <glyph glyph-name="copyright" unicode="&#xa9;" horiz-adv-x="905" 
d="M465 -40q-161 0 -275.5 114.5t-114.5 275.5t114.5 275.5t275.5 114.5t275.5 -114.5t114.5 -275.5t-114.5 -275.5t-275.5 -114.5zM465 10q140 0 239 100t99 240t-99 240t-239 100t-239 -100t-99 -240t99 -240t239 -100zM466 157q-78 0 -129 50t-51 143q0 89 49.5 143.5
t130.5 54.5q63 0 105.5 -34t49.5 -95h-61q-7 33 -32.5 56t-60.5 23h-5q-49 0 -82 -41t-33 -107q0 -65 33 -104t82 -39h5q37 0 64 22t34 57h61q-10 -60 -55 -94.5t-105 -34.5zM836 -225h-939l12 55h939z" />
    <glyph glyph-name="ordfeminine" unicode="&#xaa;" horiz-adv-x="386" 
d="M204 410q-48 0 -74 33.5t-26 86.5q0 71 37.5 123t97.5 52q32 0 57 -17t34 -42l11 54h57l-60 -285h-57l6 28q-33 -33 -83 -33zM223 455q41 0 65.5 37t23.5 88q-1 33 -18.5 56.5t-50.5 23.5q-36 0 -59 -36t-23 -86q0 -83 62 -83zM321 -225h-427l12 55h427z" />
    <glyph glyph-name="guillemotleft" unicode="&#xab;" horiz-adv-x="521" 
d="M114 276l96 -206h-69l-99 215l190 215h81zM420 70h-69l-99 215l190 215h81l-199 -224zM455 -225h-561l12 55h561z" />
    <glyph glyph-name="logicalnot" unicode="&#xac;" horiz-adv-x="630" 
d="M529 130h-68v145h-377v65h445v-210zM564 -225h-669l12 55h669z" />
    <glyph glyph-name="uni00AD" unicode="&#xad;" horiz-adv-x="390" 
d="M315 275h-250l12 55h250zM325 -225h-431l12 55h431z" />
    <glyph glyph-name="registered" unicode="&#xae;" horiz-adv-x="905" 
d="M465 -40q-161 0 -275.5 114.5t-114.5 275.5t114.5 275.5t275.5 114.5t275.5 -114.5t114.5 -275.5t-114.5 -275.5t-275.5 -114.5zM465 10q140 0 239 100t99 240t-99 240t-239 100t-239 -100t-99 -240t99 -240t239 -100zM396 167h-61v376h165q56 0 88 -28.5t32 -74.5
q0 -40 -21.5 -65t-54.5 -30q38 -1 54.5 -18.5t16.5 -61.5v-98h-61v99q0 48 -54 48h-104v-147zM396 493v-131h79q84 0 84 64q0 37 -21 52t-63 15h-79zM836 -225h-939l12 55h939z" />
    <glyph glyph-name="macron" unicode="&#xaf;" horiz-adv-x="347" 
d="M389 590h-285l10 55h285z" />
    <glyph glyph-name="degree" unicode="&#xb0;" horiz-adv-x="467" 
d="M281 340q-80 0 -132.5 53t-52.5 132t52.5 132t132.5 53q79 0 132 -53t53 -132t-53 -132t-132 -53zM281 398q51 0 87 37t36 90t-36 90t-87 37t-87 -37t-36 -90t36 -90t87 -37zM401 -225h-506l12 55h506z" />
    <glyph glyph-name="plusminus" unicode="&#xb1;" horiz-adv-x="654" 
d="M340 150h-64v140h-215v65h215v145h64v-145h215v-65h-215v-140zM555 0h-494v65h494v-65zM588 -225h-694l12 55h694z" />
    <glyph glyph-name="uni00B2" unicode="&#xb2;" horiz-adv-x="361" 
d="M291 549l-125 -84h204l-10 -50h-279l12 60l139 97q5 3 20.5 13.5t21.5 15.5t18.5 15t18.5 17t13 17.5t10 21.5t3 23q0 29 -18 49.5t-54 20.5h-4q-34 0 -57 -19.5t-26 -49.5h-62q3 50 44 84.5t107 34.5q57 0 94 -31.5t37 -83.5q0 -49 -27 -82.5t-80 -68.5zM294 -225h-399
l12 55h399z" />
    <glyph glyph-name="uni00B3" unicode="&#xb3;" horiz-adv-x="351" 
d="M220 410q-63 0 -98.5 30.5t-39.5 74.5v8h61q2 -28 21.5 -45.5t51.5 -17.5h6q34 0 56 19.5t22 49.5q0 26 -19 42.5t-49 16.5h-46l11 55h51q38 0 60 17t22 45q0 29 -18 44t-45 16h-4q-32 0 -52.5 -16.5t-24.5 -43.5h-61q3 49 41.5 79.5t97.5 30.5q57 0 92 -29.5t35 -76.5
q0 -39 -25.5 -66t-62.5 -33q24 -10 40.5 -33.5t16.5 -50.5q0 -48 -39 -82t-101 -34zM285 -225h-391l12 55h391z" />
    <glyph glyph-name="acute" unicode="&#xb4;" horiz-adv-x="169" 
d="M147 570h-49l57 130h80z" />
    <glyph glyph-name="uni00B5" unicode="&#xb5;" horiz-adv-x="609" 
d="M266 -10q-63 0 -108 32v-247h-254l12 55h177v670h65v-310q0 -145 120 -145h10q58 0 101.5 51t43.5 134v270h65v-500h-65v94q-41 -104 -167 -104zM233 -225v55h311l-12 -55h-299z" />
    <glyph glyph-name="paragraph" unicode="&#xb6;" horiz-adv-x="666" 
d="M269 700h435l-12 -55h-69l-174 -815h163l-12 -55h-228l186 870h-131l-185 -870h-346l12 55h281l104 495q-212 5 -212 168q0 89 55 148t133 59z" />
    <glyph glyph-name="periodcentered" unicode="&#xb7;" horiz-adv-x="241" 
d="M172 300h-100l21 100h100z" />
    <glyph glyph-name="cedilla" unicode="&#xb8;" horiz-adv-x="222" 
d="M-12 -225h-59l12 55h61q27 0 43 13.5t16 37.5q0 16 -12.5 26t-32.5 10h-22l21 95h46l-15 -60q31 -5 48 -24.5t17 -47.5q0 -49 -33.5 -77t-89.5 -28z" />
    <glyph glyph-name="uni00B9" unicode="&#xb9;" horiz-adv-x="260" 
d="M225 415h-58l65 309l-136 -92l13 64l161 114h39zM195 -225h-299l12 55h299z" />
    <glyph glyph-name="ordmasculine" unicode="&#xba;" horiz-adv-x="365" 
d="M225 410q-54 0 -88 33.5t-34 90.5q0 77 42.5 124t102.5 47q51 0 86.5 -32t35.5 -91q0 -76 -42 -124t-103 -48zM226 455q37 0 62 36t25 88q0 36 -17 58.5t-48 22.5q-40 0 -64 -38.5t-24 -84.5q0 -36 17 -59t49 -23zM299 -225h-405l12 55h405z" />
    <glyph glyph-name="guillemotright" unicode="&#xbb;" horiz-adv-x="520" 
d="M266 285l-190 -215h-81l199 224l-96 206h69zM286 70h-81l199 224l-96 206h69l99 -215zM454 -225h-560l12 55h560z" />
    <glyph glyph-name="onequarter" unicode="&#xbc;" horiz-adv-x="842" 
d="M-27 -170l696 870h73l-740 -925h-108l12 55h67zM212 305h-58l65 309l-136 -92l13 64l161 114h39zM474 152l223 243h74l-54 -252h58l-11 -47h-57l-20 -96h-59l20 96h-186zM527 143h131l39 185zM109 -225l12 55h667l-12 -55h-667z" />
    <glyph glyph-name="onehalf" unicode="&#xbd;" horiz-adv-x="897" 
d="M-36 -170l696 870h73l-740 -925h-99l12 55h58zM212 305h-58l65 309l-136 -92l13 64l161 114h39zM619 281h-62q3 50 44 84.5t107 34.5q57 0 94 -31.5t37 -83.5q0 -49 -27 -82.5t-80 -68.5l-125 -84h204l-10 -50h-279l12 60l139 97q5 3 20.5 13.5t21.5 15.5t18.5 15
t18.5 17t13 17.5t10 21.5t3 23q0 29 -18 49.5t-54 20.5h-4q-34 0 -57 -19.5t-26 -49.5zM100 -225l12 55h731l-12 -55h-731z" />
    <glyph glyph-name="threequarters" unicode="&#xbe;" horiz-adv-x="913" 
d="M206 300q-63 0 -98.5 30.5t-39.5 74.5v8h61q2 -28 21.5 -45.5t51.5 -17.5h6q34 0 56 19.5t22 49.5q0 26 -19 42.5t-49 16.5h-46l11 55h51q38 0 60 17t22 45q0 29 -18 44t-45 16h-4q-32 0 -52.5 -16.5t-24.5 -43.5h-61q3 49 41.5 79.5t97.5 30.5q57 0 92 -29.5t35 -76.5
q0 -39 -25.5 -66t-62.5 -33q24 -10 40.5 -33.5t16.5 -50.5q0 -48 -39 -82t-101 -34zM44 -170l696 870h73l-740 -925h-179l12 55h138zM546 152l223 243h74l-54 -252h58l-11 -47h-57l-20 -96h-59l20 96h-186zM599 143h131l39 185zM215 -225l12 55h632l-12 -55h-632z" />
    <glyph glyph-name="questiondown" unicode="&#xbf;" horiz-adv-x="471" 
d="M346 415h-75l17 85h75zM381 -225h-215q-91 0 -142 43.5t-51 124.5q0 90 57.5 150.5t146.5 60.5q44 0 53 40l24 101h68l-25 -118q-13 -52 -38 -70t-67 -18h-10q-64 0 -102.5 -40t-38.5 -103q0 -62 33.5 -89t99.5 -27h219z" />
    <glyph glyph-name="Agrave" unicode="&#xc0;" horiz-adv-x="668" 
d="M413 890l53 -125h-60l-83 125h90zM494 193h-356l-118 -193h-76l433 700h90l131 -700h-68zM482 258l-71 380l-233 -380h304zM-116 -225l12 55h728l-12 -55h-728z" />
    <glyph glyph-name="Aacute" unicode="&#xc1;" horiz-adv-x="668" 
d="M459 890h90l-83 -125h-60zM494 193h-356l-118 -193h-76l433 700h90l131 -700h-68zM482 258l-71 380l-233 -380h304zM-116 -225l12 55h728l-12 -55h-728z" />
    <glyph glyph-name="Acircumflex" unicode="&#xc2;" horiz-adv-x="668" 
d="M534 765l-82 73l-123 -73h-69l150 125h90l99 -125h-65zM494 193h-356l-118 -193h-76l433 700h90l131 -700h-68zM482 258l-71 380l-233 -380h304zM-116 -225l12 55h728l-12 -55h-728z" />
    <glyph glyph-name="Atilde" unicode="&#xc3;" horiz-adv-x="668" 
d="M371 824q-17 0 -26 -11.5t-15 -42.5h-55l3 14q12 53 32.5 76.5t59.5 23.5q26 0 70 -25l39 -23q26 -16 40 -16q34 0 46 54h55l-3 -15q-9 -46 -33 -72.5t-60 -26.5q-29 0 -69 23l-37 22q-31 19 -47 19zM494 193h-356l-118 -193h-76l433 700h90l131 -700h-68zM482 258
l-71 380l-233 -380h304zM-116 -225l12 55h728l-12 -55h-728z" />
    <glyph glyph-name="Adieresis" unicode="&#xc4;" horiz-adv-x="668" 
d="M323 860h80l-17 -80h-80zM509 860h80l-17 -80h-80zM494 193h-356l-118 -193h-76l433 700h90l131 -700h-68zM482 258l-71 380l-233 -380h304zM-116 -225l12 55h728l-12 -55h-728z" />
    <glyph glyph-name="Aring" unicode="&#xc5;" horiz-adv-x="668" 
d="M444 761q-32 0 -55.5 22.5t-23.5 56.5q0 33 24 56t55 23t55 -23t24 -56q0 -34 -23.5 -56.5t-55.5 -22.5zM445 874q-13 0 -23.5 -10t-10.5 -24t10.5 -24t23.5 -10t23 10t10 24t-10 24t-23 10zM494 193h-356l-118 -193h-76l433 700h90l131 -700h-68zM482 258l-71 380
l-233 -380h304zM-116 -225l12 55h728l-12 -55h-728z" />
    <glyph glyph-name="AE" unicode="&#xc6;" horiz-adv-x="982" 
d="M22 0h-85l578 700h456l-14 -65h-353l-19 -242h307l-14 -65h-298l-20 -263h352l-14 -65h-407l15 193h-327zM542 641l-310 -383h280zM916 -225h-1033l12 55h1033z" />
    <glyph glyph-name="Ccedilla" unicode="&#xc7;" horiz-adv-x="704" 
d="M360 -10l-10 -38q31 -5 48 -24.5t17 -47.5q0 -49 -33.5 -77t-89.5 -28h-398l12 55h400q27 0 43 13.5t16 37.5q0 16 -12.5 26t-32.5 10h-22l17 75q-116 12 -183.5 90.5t-67.5 200.5q0 181 100.5 304t266.5 123q105 0 173 -60t72 -164h-70q-2 73 -49.5 115.5t-130.5 43.5
h-6q-121 0 -203.5 -99t-82.5 -251q0 -111 59 -175.5t170 -64.5h6q47 0 89.5 16t77 53t43.5 90h70q-18 -103 -95.5 -162.5t-193.5 -61.5zM638 -225h-171l12 55h171z" />
    <glyph glyph-name="Egrave" unicode="&#xc8;" horiz-adv-x="642" 
d="M419 890l53 -125h-60l-83 125h90zM36 0l149 700h490l-14 -65h-420l-51 -242h360l-14 -65h-360l-56 -263h430l-14 -65h-500zM576 -225h-681l11 55h682z" />
    <glyph glyph-name="Eacute" unicode="&#xc9;" horiz-adv-x="642" 
d="M465 890h90l-83 -125h-60zM36 0l149 700h490l-14 -65h-420l-51 -242h360l-14 -65h-360l-56 -263h430l-14 -65h-500zM576 -225h-681l11 55h682z" />
    <glyph glyph-name="Ecircumflex" unicode="&#xca;" horiz-adv-x="642" 
d="M540 765l-82 73l-123 -73h-69l150 125h90l99 -125h-65zM36 0l149 700h490l-14 -65h-420l-51 -242h360l-14 -65h-360l-56 -263h430l-14 -65h-500zM576 -225h-681l11 55h682z" />
    <glyph glyph-name="Edieresis" unicode="&#xcb;" horiz-adv-x="642" 
d="M329 860h80l-17 -80h-80zM515 860h80l-17 -80h-80zM36 0l149 700h490l-14 -65h-420l-51 -242h360l-14 -65h-360l-56 -263h430l-14 -65h-500zM576 -225h-681l11 55h682z" />
    <glyph glyph-name="Igrave" unicode="&#xcc;" horiz-adv-x="266" 
d="M259 765h-60l-83 125h90zM106 0h-70l149 700h70zM200 -225h-316l12 55h316z" />
    <glyph glyph-name="Iacute" unicode="&#xcd;" horiz-adv-x="266" 
d="M264 765h-60l53 125h90zM106 0h-70l149 700h70zM200 -225h-306l12 55h306z" />
    <glyph glyph-name="Icircumflex" unicode="&#xce;" horiz-adv-x="266" 
d="M202 890h90l99 -125h-65l-82 73l-123 -73h-69zM106 0h-70l149 700h70zM228 -225h-379l12 55h379z" />
    <glyph glyph-name="Idieresis" unicode="&#xcf;" horiz-adv-x="266" 
d="M176 780h-80l17 80h80zM362 780h-80l17 80h80zM106 0h-70l149 700h70zM200 -225h-306l12 55h306z" />
    <glyph glyph-name="Eth" unicode="&#xd0;" horiz-adv-x="721" 
d="M341 0h-294l68 320h-87l13 60h87l68 320h183q87 0 149 -25.5t94 -69.5t46 -91t14 -102q0 -75 -23 -147.5t-65 -132t-108 -96t-145 -36.5zM378 635h-126l-54 -255h153l-13 -60h-153l-54 -255h196q92 0 159 52t96.5 128.5t29.5 164.5q0 108 -60 166.5t-174 58.5zM655 -225
h-756l12 55h756z" />
    <glyph glyph-name="Ntilde" unicode="&#xd1;" horiz-adv-x="741" 
d="M407 824q-17 0 -26 -11.5t-15 -42.5h-55l3 14q12 53 32.5 76.5t59.5 23.5q26 0 70 -25l39 -23q26 -16 40 -16q34 0 46 54h55l-3 -15q-9 -46 -33 -72.5t-60 -26.5q-29 0 -69 23l-37 22q-31 19 -47 19zM496 0l-259 618l-131 -618h-70l149 700h90l256 -607l129 607h70
l-149 -700h-85zM675 -225h-781l12 55h781z" />
    <glyph glyph-name="Ograve" unicode="&#xd2;" horiz-adv-x="754" 
d="M495 765h-60l-83 125h90zM352 -10q-129 0 -208.5 81t-79.5 227q0 174 108.5 293t263.5 119q127 0 202.5 -84t75.5 -224q0 -104 -41 -196.5t-125.5 -154t-195.5 -61.5zM347 55h7q120 0 205 96t85 243q0 117 -58 184t-162 67h-7q-109 0 -196 -99t-87 -244q0 -116 59 -181.5
t154 -65.5zM689 -225h-795l12 55h795z" />
    <glyph glyph-name="Oacute" unicode="&#xd3;" horiz-adv-x="754" 
d="M495 765h-60l53 125h90zM352 -10q-129 0 -208.5 81t-79.5 227q0 174 108.5 293t263.5 119q127 0 202.5 -84t75.5 -224q0 -104 -41 -196.5t-125.5 -154t-195.5 -61.5zM347 55h7q120 0 205 96t85 243q0 117 -58 184t-162 67h-7q-109 0 -196 -99t-87 -244q0 -116 59 -181.5
t154 -65.5zM689 -225h-795l12 55h795z" />
    <glyph glyph-name="Ocircumflex" unicode="&#xd4;" horiz-adv-x="754" 
d="M563 765l-82 73l-123 -73h-69l150 125h90l99 -125h-65zM352 -10q-129 0 -208.5 81t-79.5 227q0 174 108.5 293t263.5 119q127 0 202.5 -84t75.5 -224q0 -104 -41 -196.5t-125.5 -154t-195.5 -61.5zM424 645h-7q-109 0 -196 -99t-87 -244q0 -116 59 -181.5t154 -65.5h7
q120 0 205 96t85 243q0 117 -58 184t-162 67zM689 -225h-795l12 55h795z" />
    <glyph glyph-name="Otilde" unicode="&#xd5;" horiz-adv-x="754" 
d="M553 760q-29 0 -69 23l-37 22q-31 19 -47 19q-17 0 -26 -11.5t-15 -42.5h-55l3 14q12 53 32.5 76.5t59.5 23.5q26 0 70 -25l39 -23q26 -16 40 -16q34 0 46 54h55l-3 -15q-9 -46 -33 -72.5t-60 -26.5zM352 -10q-129 0 -208.5 81t-79.5 227q0 174 108.5 293t263.5 119
q127 0 202.5 -84t75.5 -224q0 -104 -41 -196.5t-125.5 -154t-195.5 -61.5zM347 55h7q120 0 205 96t85 243q0 117 -58 184t-162 67h-7q-109 0 -196 -99t-87 -244q0 -116 59 -181.5t154 -65.5zM689 -225h-795l12 55h795z" />
    <glyph glyph-name="Odieresis" unicode="&#xd6;" horiz-adv-x="754" 
d="M415 780h-80l17 80h80zM601 780h-80l17 80h80zM352 -10q-129 0 -208.5 81t-79.5 227q0 174 108.5 293t263.5 119q127 0 202.5 -84t75.5 -224q0 -104 -41 -196.5t-125.5 -154t-195.5 -61.5zM347 55h7q120 0 205 96t85 243q0 117 -58 184t-162 67h-7q-109 0 -196 -99
t-87 -244q0 -116 59 -181.5t154 -65.5zM689 -225h-795l12 55h795z" />
    <glyph glyph-name="multiply" unicode="&#xd7;" horiz-adv-x="556" 
d="M270 211l-162 -162l-47 47l162 162l-162 161l47 47l162 -161l161 161l47 -47l-161 -161l161 -162l-47 -47zM490 -225h-596l12 55h596z" />
    <glyph glyph-name="Oslash" unicode="&#xd8;" horiz-adv-x="756" 
d="M722 698l42 -46l-87 -80q38 -71 38 -170q0 -104 -41 -196.5t-125.5 -154t-195.5 -61.5q-135 0 -213 86l-82 -75l-42 45l88 81q-39 72 -39 171q0 174 108.5 293t263.5 119q129 0 204 -86zM135 302q0 -71 23 -125l431 398q-58 70 -150 70h-10q-120 0 -207 -97.5t-87 -245.5
zM645 394q0 70 -24 126l-430 -397q59 -68 160 -68h10q114 0 199 96.5t85 242.5zM690 -225h-795l12 55h795z" />
    <glyph glyph-name="Ugrave" unicode="&#xd9;" horiz-adv-x="694" 
d="M468 765h-60l-83 125h90zM293 -10q-101 0 -157.5 55t-56.5 155q0 43 10 87l88 413h70l-90 -422q-9 -41 -9 -74q0 -149 161 -149q173 0 214 191l97 454h70l-102 -477q-24 -112 -98 -172.5t-197 -60.5zM628 -225h-734l12 55h734z" />
    <glyph glyph-name="Uacute" unicode="&#xda;" horiz-adv-x="694" 
d="M468 765h-60l53 125h90zM293 -10q-101 0 -157.5 55t-56.5 155q0 43 10 87l88 413h70l-90 -422q-9 -41 -9 -74q0 -149 161 -149q173 0 214 191l97 454h70l-102 -477q-24 -112 -98 -172.5t-197 -60.5zM628 -225h-734l12 55h734z" />
    <glyph glyph-name="Ucircumflex" unicode="&#xdb;" horiz-adv-x="694" 
d="M536 765l-82 73l-123 -73h-69l150 125h90l99 -125h-65zM293 -10q-101 0 -157.5 55t-56.5 155q0 43 10 87l88 413h70l-90 -422q-9 -41 -9 -74q0 -149 161 -149q173 0 214 191l97 454h70l-102 -477q-24 -112 -98 -172.5t-197 -60.5zM628 -225h-734l12 55h734z" />
    <glyph glyph-name="Udieresis" unicode="&#xdc;" horiz-adv-x="694" 
d="M388 780h-80l17 80h80zM574 780h-80l17 80h80zM293 -10q-101 0 -157.5 55t-56.5 155q0 43 10 87l88 413h70l-90 -422q-9 -41 -9 -74q0 -149 161 -149q173 0 214 191l97 454h70l-102 -477q-24 -112 -98 -172.5t-197 -60.5zM628 -225h-734l12 55h734z" />
    <glyph glyph-name="Yacute" unicode="&#xdd;" horiz-adv-x="620" 
d="M428 890h90l-83 -125h-60zM283 0h-70l61 284l-180 416h73l152 -353l295 353h85l-356 -418zM550 -225h-652l12 55h652z" />
    <glyph glyph-name="Thorn" unicode="&#xde;" horiz-adv-x="640" 
d="M106 0h-70l149 700h70l-32 -150h168q94 0 153 -49t59 -130q0 -99 -63.5 -160t-169.5 -61h-232zM209 485l-57 -270h220q71 0 116 38.5t45 109.5q0 122 -162 122h-162zM562 -225h-668l12 55h668z" />
    <glyph glyph-name="germandbls" unicode="&#xdf;" horiz-adv-x="546" 
d="M340 655q-56 0 -94 -37.5t-54 -110.5l-155 -732h-143l12 55h77l147 695q40 185 214 185q78 0 127 -46.5t49 -121.5q0 -73 -45.5 -121.5t-93.5 -55.5q37 -10 66 -49.5t29 -99.5q0 -92 -60.5 -154t-155.5 -62h-83l13 60h54q82 0 124.5 44t42.5 110q0 57 -34.5 93t-91.5 36
h-33l12 55h41q63 0 106.5 43t43.5 98q0 54 -32 85t-83 31zM480 -225h-368l12 55h368z" />
    <glyph glyph-name="agrave" unicode="&#xe0;" horiz-adv-x="590" 
d="M352 570h-49l-88 130h80zM235 -10q-80 0 -137.5 56.5t-57.5 165.5q0 133 71 215.5t176 82.5q61 0 109.5 -31t70.5 -88l22 109h65l-106 -500h-60l13 66q-61 -76 -166 -76zM250 45q83 0 136 75t53 169q0 79 -44 122.5t-104 43.5q-77 0 -131.5 -65.5t-54.5 -169.5
q0 -85 40.5 -130t104.5 -45zM524 -225h-630l12 55h630z" />
    <glyph glyph-name="aacute" unicode="&#xe1;" horiz-adv-x="590" 
d="M356 570h-49l57 130h80zM235 -10q-80 0 -137.5 56.5t-57.5 165.5q0 133 71 215.5t176 82.5q61 0 109.5 -31t70.5 -88l22 109h65l-106 -500h-60l13 66q-61 -76 -166 -76zM250 45q83 0 136 75t53 169q0 79 -44 122.5t-104 43.5q-77 0 -131.5 -65.5t-54.5 -169.5
q0 -85 40.5 -130t104.5 -45zM524 -225h-630l12 55h630z" />
    <glyph glyph-name="acircumflex" unicode="&#xe2;" horiz-adv-x="590" 
d="M413 570l-70 73l-105 -73h-60l137 130h66l92 -130h-60zM235 -10q-80 0 -137.5 56.5t-57.5 165.5q0 133 71 215.5t176 82.5q61 0 109.5 -31t70.5 -88l22 109h65l-106 -500h-60l13 66q-61 -76 -166 -76zM291 455q-77 0 -131.5 -65.5t-54.5 -169.5q0 -85 40.5 -130
t104.5 -45q83 0 136 75t53 169q0 79 -44 122.5t-104 43.5zM524 -225h-630l12 55h630z" />
    <glyph glyph-name="atilde" unicode="&#xe3;" horiz-adv-x="590" 
d="M416 565q-30 0 -70 27l-37 24q-28 19 -47 19q-20 0 -30.5 -15t-17.5 -50h-50l4 19q8 40 30.5 68t61.5 28q29 0 72 -27l36 -23q33 -20 46 -20q20 0 31 15t19 50h50l-4 -18q-9 -40 -32 -68.5t-62 -28.5zM235 -10q-80 0 -137.5 56.5t-57.5 165.5q0 133 71 215.5t176 82.5
q61 0 109.5 -31t70.5 -88l22 109h65l-106 -500h-60l13 66q-61 -76 -166 -76zM250 45q83 0 136 75t53 169q0 79 -44 122.5t-104 43.5q-77 0 -131.5 -65.5t-54.5 -169.5q0 -85 40.5 -130t104.5 -45zM524 -225h-630l12 55h630z" />
    <glyph glyph-name="adieresis" unicode="&#xe4;" horiz-adv-x="590" 
d="M276 590h-75l18 80h75zM451 590h-75l18 80h75zM235 -10q-80 0 -137.5 56.5t-57.5 165.5q0 133 71 215.5t176 82.5q61 0 109.5 -31t70.5 -88l22 109h65l-106 -500h-60l13 66q-61 -76 -166 -76zM250 45q83 0 136 75t53 169q0 79 -44 122.5t-104 43.5q-77 0 -131.5 -65.5
t-54.5 -169.5q0 -85 40.5 -130t104.5 -45zM524 -225h-630l12 55h630z" />
    <glyph glyph-name="aring" unicode="&#xe5;" horiz-adv-x="590" 
d="M346 561q-34 0 -59 24t-25 60q0 35 25 59.5t59 24.5t59 -24.5t25 -59.5q0 -36 -25 -60t-59 -24zM347 600q18 0 30.5 13t12.5 32t-12.5 32t-30.5 13t-31 -13t-13 -32t13 -32t31 -13zM235 -10q-80 0 -137.5 56.5t-57.5 165.5q0 133 71 215.5t176 82.5q61 0 109.5 -31
t70.5 -88l22 109h65l-106 -500h-60l13 66q-61 -76 -166 -76zM250 45q83 0 136 75t53 169q0 79 -44 122.5t-104 43.5q-77 0 -131.5 -65.5t-54.5 -169.5q0 -85 40.5 -130t104.5 -45zM524 -225h-630l12 55h630z" />
    <glyph glyph-name="ae" unicode="&#xe6;" horiz-adv-x="863" 
d="M188 -10q-74 0 -121 42t-47 108q0 81 59.5 120.5t156.5 39.5h135q6 41 6 48q0 48 -29.5 77.5t-78.5 29.5h-10q-44 0 -78 -26t-44 -69h-65q11 68 65 109t137 41q54 0 93.5 -26t56.5 -72q77 98 201 98q78 0 130.5 -47t52.5 -136q0 -35 -11 -82h-368q-1 -8 -1 -24
q0 -80 40.5 -128t105.5 -48h8q52 0 88.5 26t53.5 72h65q-20 -70 -77 -111.5t-144 -41.5q-68 0 -117 34.5t-72 96.5q-23 -64 -73 -97.5t-118 -33.5zM437 300h303q3 20 3 35q0 59 -33 89.5t-91 30.5h-8q-66 0 -111.5 -42t-62.5 -113zM191 45h6q59 0 100 39.5t54 105.5l11 55
h-135q-142 0 -142 -103q0 -43 29.5 -70t76.5 -27zM794 -225h-899l12 55h899z" />
    <glyph glyph-name="ccedilla" unicode="&#xe7;" horiz-adv-x="538" 
d="M262 -10l-10 -38q31 -5 48 -24.5t17 -47.5q0 -49 -33.5 -77t-89.5 -28h-300l12 55h302q27 0 43 13.5t16 37.5q0 16 -12.5 26t-32.5 10h-22l17 75q-81 12 -129.5 67t-48.5 146q0 140 76 222.5t188 82.5q83 0 136 -46.5t53 -123.5h-65q0 57 -35.5 86t-94.5 29
q-84 0 -138.5 -69t-54.5 -179q0 -74 41.5 -118t115.5 -44q53 0 91.5 31t53.5 84h65q-16 -78 -73.5 -123t-135.5 -47zM472 -225h-103l12 55h103z" />
    <glyph glyph-name="egrave" unicode="&#xe8;" horiz-adv-x="540" 
d="M338 570h-49l-88 130h80zM245 -10q-93 0 -149 62.5t-56 168.5q0 125 74.5 207t187.5 82q78 0 130.5 -47t52.5 -136q0 -35 -11 -82h-368q-1 -8 -1 -24q0 -80 42 -128t108 -48q109 0 146 98h65q-20 -70 -77 -111.5t-144 -41.5zM114 300h303q3 19 3 35q0 60 -33.5 90
t-93.5 30q-69 0 -115.5 -41.5t-63.5 -113.5zM472 -225h-578l12 55h578z" />
    <glyph glyph-name="eacute" unicode="&#xe9;" horiz-adv-x="540" 
d="M342 570h-49l57 130h80zM245 -10q-93 0 -149 62.5t-56 168.5q0 125 74.5 207t187.5 82q78 0 130.5 -47t52.5 -136q0 -35 -11 -82h-368q-1 -8 -1 -24q0 -80 42 -128t108 -48q109 0 146 98h65q-20 -70 -77 -111.5t-144 -41.5zM114 300h303q3 19 3 35q0 60 -33.5 90
t-93.5 30q-69 0 -115.5 -41.5t-63.5 -113.5zM472 -225h-578l12 55h578z" />
    <glyph glyph-name="ecircumflex" unicode="&#xea;" horiz-adv-x="540" 
d="M399 570l-70 73l-105 -73h-60l137 130h66l92 -130h-60zM245 -10q-93 0 -149 62.5t-56 168.5q0 125 74.5 207t187.5 82q78 0 130.5 -47t52.5 -136q0 -35 -11 -82h-368q-1 -8 -1 -24q0 -80 42 -128t108 -48q109 0 146 98h65q-20 -70 -77 -111.5t-144 -41.5zM293 455
q-69 0 -115.5 -41.5t-63.5 -113.5h303q3 19 3 35q0 60 -33.5 90t-93.5 30zM472 -225h-578l12 55h578z" />
    <glyph glyph-name="edieresis" unicode="&#xeb;" horiz-adv-x="540" 
d="M262 590h-75l18 80h75zM437 590h-75l18 80h75zM245 -10q-93 0 -149 62.5t-56 168.5q0 125 74.5 207t187.5 82q78 0 130.5 -47t52.5 -136q0 -35 -11 -82h-368q-1 -8 -1 -24q0 -80 42 -128t108 -48q109 0 146 98h65q-20 -70 -77 -111.5t-144 -41.5zM114 300h303q3 19 3 35
q0 60 -33.5 90t-93.5 30q-69 0 -115.5 -41.5t-63.5 -113.5zM472 -225h-578l12 55h578z" />
    <glyph glyph-name="igrave" unicode="&#xec;" horiz-adv-x="226" 
d="M193 570h-49l-88 130h80zM84 0h-65l106 500h65zM163 -225h-309l12 55h309z" />
    <glyph glyph-name="iacute" unicode="&#xed;" horiz-adv-x="226" 
d="M197 570h-49l57 130h80zM84 0h-65l106 500h65zM160 -225h-266l12 55h266z" />
    <glyph glyph-name="icircumflex" unicode="&#xee;" horiz-adv-x="226" 
d="M162 700h66l92 -130h-60l-70 73l-105 -73h-60zM19 0l106 500h65l-106 -500h-65zM186 -225h-335l12 55h335z" />
    <glyph glyph-name="idieresis" unicode="&#xef;" horiz-adv-x="226" 
d="M127 590h-75l18 80h75zM302 590h-75l18 80h75zM84 0h-65l106 500h65zM165 -225h-291l12 55h291z" />
    <glyph glyph-name="eth" unicode="&#xf0;" horiz-adv-x="566" 
d="M242 -10q-93 -4 -150 53.5t-57 153.5q0 112 72.5 195t171.5 83q58 0 109 -30t74 -82v24q0 125 -56 197l-90 -57l-27 40l82 52q-50 38 -120 33l12 57q96 0 160 -58l77 49l27 -40l-71 -45q61 -84 61 -222q0 -69 -16 -136.5t-47.5 -127.5t-86.5 -98t-125 -41zM236 45
q79 0 137.5 67t58.5 152q0 74 -46 115t-104 41q-71 0 -127.5 -60t-56.5 -155q0 -77 39.5 -118.5t98.5 -41.5zM499 -225h-604l12 55h604z" />
    <glyph glyph-name="ntilde" unicode="&#xf1;" horiz-adv-x="561" 
d="M481 680h50l-4 -18q-9 -40 -32 -68.5t-62 -28.5q-29 0 -70 27l-37 24q-28 19 -47 19q-20 0 -30.5 -15t-17.5 -50h-50l4 19q8 40 30.5 68t61.5 28q29 0 72 -27l36 -23q33 -20 46 -20q20 0 31 15t19 50zM139 260l-55 -260h-65l106 500h65l-13 -64q61 74 157 74
q71 0 115 -43t44 -113q0 -39 -8 -74l-60 -280h-65l64 302q4 20 4 42q0 50 -31 80.5t-80 30.5q-64 0 -111.5 -51t-66.5 -144zM495 -225h-601l12 55h601z" />
    <glyph glyph-name="ograve" unicode="&#xf2;" horiz-adv-x="564" 
d="M344 570h-49l-88 130h80zM254 -10q-95 0 -155 59t-60 159q0 133 74.5 217.5t178.5 84.5q95 0 155 -59t60 -159q0 -136 -74 -219t-179 -83zM251 45h8q72 0 127.5 66t55.5 181q0 70 -40 116.5t-107 46.5h-8q-73 0 -128 -65.5t-55 -181.5q0 -69 39.5 -116t107.5 -47z
M498 -225h-604l12 55h604z" />
    <glyph glyph-name="oacute" unicode="&#xf3;" horiz-adv-x="564" 
d="M348 570h-49l57 130h80zM254 -10q-95 0 -155 59t-60 159q0 133 74.5 217.5t178.5 84.5q95 0 155 -59t60 -159q0 -136 -74 -219t-179 -83zM251 45h8q72 0 127.5 66t55.5 181q0 70 -40 116.5t-107 46.5h-8q-73 0 -128 -65.5t-55 -181.5q0 -69 39.5 -116t107.5 -47z
M498 -225h-604l12 55h604z" />
    <glyph glyph-name="ocircumflex" unicode="&#xf4;" horiz-adv-x="564" 
d="M405 570l-70 73l-105 -73h-60l137 130h66l92 -130h-60zM254 -10q-95 0 -155 59t-60 159q0 133 74.5 217.5t178.5 84.5q95 0 155 -59t60 -159q0 -136 -74 -219t-179 -83zM295 455h-8q-73 0 -128 -65.5t-55 -181.5q0 -69 39.5 -116t107.5 -47h8q72 0 127.5 66t55.5 181
q0 70 -40 116.5t-107 46.5zM-106 -225l12 55h604l-12 -55h-604z" />
    <glyph glyph-name="otilde" unicode="&#xf5;" horiz-adv-x="564" 
d="M408 565q-30 0 -70 27l-37 24q-28 19 -47 19q-20 0 -30.5 -15t-17.5 -50h-50l4 19q8 40 30.5 68t61.5 28q29 0 72 -27l36 -23q33 -20 46 -20q20 0 31 15t19 50h50l-4 -18q-9 -40 -32 -68.5t-62 -28.5zM254 -10q-95 0 -155 59t-60 159q0 133 74.5 217.5t178.5 84.5
q95 0 155 -59t60 -159q0 -136 -74 -219t-179 -83zM251 45h8q72 0 127.5 66t55.5 181q0 70 -40 116.5t-107 46.5h-8q-73 0 -128 -65.5t-55 -181.5q0 -69 39.5 -116t107.5 -47zM498 -225h-604l12 55h604z" />
    <glyph glyph-name="odieresis" unicode="&#xf6;" horiz-adv-x="564" 
d="M268 590h-75l18 80h75zM443 590h-75l18 80h75zM254 -10q-95 0 -155 59t-60 159q0 133 74.5 217.5t178.5 84.5q95 0 155 -59t60 -159q0 -136 -74 -219t-179 -83zM251 45h8q72 0 127.5 66t55.5 181q0 70 -40 116.5t-107 46.5h-8q-73 0 -128 -65.5t-55 -181.5
q0 -69 39.5 -116t107.5 -47zM498 -225h-604l12 55h604z" />
    <glyph glyph-name="divide" unicode="&#xf7;" horiz-adv-x="646" 
d="M354 380h-75v85h75v-85zM563 225h-494v65h494v-65zM354 50h-75v85h75v-85zM580 -225h-686l12 55h686z" />
    <glyph glyph-name="oslash" unicode="&#xf8;" horiz-adv-x="566" 
d="M99 50l-68 -65l-35 40l71 68q-27 51 -27 115q0 133 74.5 217.5t178.5 84.5q94 0 154 -58l65 62l39 -36l-72 -68q29 -50 29 -118q0 -136 -74 -219t-179 -83q-98 0 -156 60zM105 208q0 -38 12 -68l285 270q-40 45 -106 45h-8q-73 0 -128 -65.5t-55 -181.5zM443 292
q0 41 -13 71l-286 -271q41 -47 108 -47h8q72 0 127.5 66t55.5 181zM499 -225h-604l12 55h604z" />
    <glyph glyph-name="ugrave" unicode="&#xf9;" horiz-adv-x="551" 
d="M296 700l57 -130h-49l-88 130h80zM200 -10q-72 1 -111 40.5t-39 112.5q0 33 9 74l60 283h66l-64 -302q-6 -27 -6 -49q0 -49 26.5 -76.5t75.5 -27.5q67 0 112.5 50.5t65.5 144.5l55 260h65l-106 -500h-65l14 64q-64 -75 -158 -74zM485 -225h-591l12 55h591z" />
    <glyph glyph-name="uacute" unicode="&#xfa;" horiz-adv-x="551" 
d="M365 700h80l-88 -130h-49zM200 -10q-72 1 -111 40.5t-39 112.5q0 33 9 74l60 283h66l-64 -302q-6 -27 -6 -49q0 -49 26.5 -76.5t75.5 -27.5q67 0 112.5 50.5t65.5 144.5l55 260h65l-106 -500h-65l14 64q-64 -75 -158 -74zM485 -225h-591l12 55h591z" />
    <glyph glyph-name="ucircumflex" unicode="&#xfb;" horiz-adv-x="551" 
d="M414 570l-70 73l-105 -73h-60l137 130h66l92 -130h-60zM200 -10q-72 1 -111 40.5t-39 112.5q0 33 9 74l60 283h66l-64 -302q-6 -27 -6 -49q0 -49 26.5 -76.5t75.5 -27.5q67 0 112.5 50.5t65.5 144.5l55 260h65l-106 -500h-65l14 64q-64 -75 -158 -74zM485 -225h-591
l12 55h591z" />
    <glyph glyph-name="udieresis" unicode="&#xfc;" horiz-adv-x="551" 
d="M220 670h75l-18 -80h-75zM395 670h75l-18 -80h-75zM200 -10q-72 1 -111 40.5t-39 112.5q0 33 9 74l60 283h66l-64 -302q-6 -27 -6 -49q0 -49 26.5 -76.5t75.5 -27.5q67 0 112.5 50.5t65.5 144.5l55 260h65l-106 -500h-65l14 64q-64 -75 -158 -74zM485 -225h-591l12 55
h591z" />
    <glyph glyph-name="yacute" unicode="&#xfd;" horiz-adv-x="523" 
d="M352 700h80l-88 -130h-49zM487 500h71l-320 -481l-31 -150q-10 -45 -36 -69.5t-64 -24.5h-228l12 55h194q31 0 42.5 12.5t20.5 56.5l25 116l-105 485h65l86 -407zM458 -225h-201l12 55h201z" />
    <glyph glyph-name="thorn" unicode="&#xfe;" horiz-adv-x="593" 
d="M288 -10q-61 0 -110.5 31.5t-70.5 89.5l-71 -336h-141l12 55h76l184 870h65l-56 -265q62 75 163 75q81 0 138.5 -56.5t57.5 -165.5q0 -133 -71 -215.5t-176 -82.5zM325 455q-86 0 -137.5 -74.5t-51.5 -169.5q0 -79 44.5 -122.5t103.5 -43.5q77 0 131.5 66t54.5 170
q0 85 -40 129.5t-105 44.5zM111 -225l12 55h416l-12 -55h-416z" />
    <glyph glyph-name="ydieresis" unicode="&#xff;" horiz-adv-x="523" 
d="M207 670h75l-18 -80h-75zM382 670h75l-18 -80h-75zM487 500h71l-320 -481l-31 -150q-10 -45 -36 -69.5t-64 -24.5h-228l12 55h194q31 0 42.5 12.5t20.5 56.5l25 116l-105 485h65l86 -407zM458 -225h-201l12 55h201z" />
    <glyph glyph-name="Amacron" unicode="&#x100;" horiz-adv-x="668" 
d="M310 835h276l-11 -55h-276zM494 193h-356l-118 -193h-76l433 700h90l131 -700h-68zM482 258l-71 380l-233 -380h304zM-116 -225l12 55h728l-12 -55h-728z" />
    <glyph glyph-name="amacron" unicode="&#x101;" horiz-adv-x="590" 
d="M467 590h-285l10 55h285zM235 -10q-80 0 -137.5 56.5t-57.5 165.5q0 133 71 215.5t176 82.5q61 0 109.5 -31t70.5 -88l22 109h65l-106 -500h-60l13 66q-61 -76 -166 -76zM250 45q83 0 136 75t53 169q0 79 -44 122.5t-104 43.5q-77 0 -131.5 -65.5t-54.5 -169.5
q0 -85 40.5 -130t104.5 -45zM524 -225h-630l12 55h630z" />
    <glyph glyph-name="Abreve" unicode="&#x102;" horiz-adv-x="668" 
d="M446 755q-64 0 -101 37.5t-28 97.5h55q-5 -37 16 -58.5t59 -21.5q35 0 64.5 20t40.5 60h55q-8 -63 -54 -99t-107 -36zM494 193h-356l-118 -193h-76l433 700h90l131 -700h-68zM482 258l-71 380l-233 -380h304zM-116 -225l12 55h728l-12 -55h-728z" />
    <glyph glyph-name="abreve" unicode="&#x103;" horiz-adv-x="590" 
d="M334 560q-64 0 -96 37t-25 103h50q-8 -39 13.5 -64.5t63.5 -25.5q77 0 103 90h50q-17 -68 -59.5 -104t-99.5 -36zM235 -10q-80 0 -137.5 56.5t-57.5 165.5q0 133 71 215.5t176 82.5q61 0 109.5 -31t70.5 -88l22 109h65l-106 -500h-60l13 66q-61 -76 -166 -76zM250 45
q83 0 136 75t53 169q0 79 -44 122.5t-104 43.5q-77 0 -131.5 -65.5t-54.5 -169.5q0 -85 40.5 -130t104.5 -45zM524 -225h-630l12 55h630z" />
    <glyph glyph-name="Aogonek" unicode="&#x104;" horiz-adv-x="668" 
d="M546 -170h78l-12 -55h-82q-108 0 -108 92q0 41 32.5 77t75.5 56l-36 193h-356l-118 -193h-76l433 700h90l131 -700q-47 -21 -79 -52.5t-32 -63.5q0 -28 13.5 -41t45.5 -13zM411 638l-233 -380h304zM340 -225h-456l12 55h456z" />
    <glyph glyph-name="aogonek" unicode="&#x105;" horiz-adv-x="590" 
d="M337 -116q0 -28 13.5 -41t45.5 -13h140l-12 -55h-144q-108 0 -108 92q0 43 36 80.5t81 56.5l12 62q-61 -76 -166 -76q-80 0 -137.5 56.5t-57.5 165.5q0 133 71 215.5t176 82.5q61 0 109.5 -31t70.5 -88l22 109h65l-106 -500q-47 -21 -79 -52.5t-32 -63.5zM250 45
q83 0 136 75t53 169q0 79 -44 122.5t-104 43.5q-77 0 -131.5 -65.5t-54.5 -169.5q0 -85 40.5 -130t104.5 -45zM190 -225h-296l12 55h296z" />
    <glyph glyph-name="Cacute" unicode="&#x106;" horiz-adv-x="704" 
d="M484 765h-60l53 125h90zM354 -10q-132 0 -211 80t-79 213q0 181 100.5 304t266.5 123q105 0 173 -60t72 -164h-70q-2 73 -49.5 115.5t-130.5 43.5h-6q-121 0 -203.5 -99t-82.5 -251q0 -111 59 -175.5t170 -64.5h6q47 0 89.5 16t77 53t43.5 90h70q-18 -104 -97 -164
t-198 -60zM638 -225h-744l12 55h744z" />
    <glyph glyph-name="cacute" unicode="&#x107;" horiz-adv-x="538" 
d="M352 570h-49l57 130h80zM254 -10q-96 0 -155.5 57t-59.5 158q0 140 76 222.5t188 82.5q83 0 136 -46.5t53 -123.5h-65q0 57 -35.5 86t-94.5 29q-84 0 -138.5 -69t-54.5 -179q0 -74 41.5 -118t115.5 -44q53 0 91.5 31t53.5 84h65q-17 -80 -76.5 -125t-140.5 -45zM471 -225
h-577l12 55h577z" />
    <glyph glyph-name="Ccircumflex" unicode="&#x108;" horiz-adv-x="704" 
d="M552 765l-82 73l-123 -73h-69l150 125h90l99 -125h-65zM354 -10q-132 0 -211 80t-79 213q0 181 100.5 304t266.5 123q105 0 173 -60t72 -164h-70q-2 73 -49.5 115.5t-130.5 43.5h-6q-121 0 -203.5 -99t-82.5 -251q0 -111 59 -175.5t170 -64.5h6q47 0 89.5 16t77 53
t43.5 90h70q-18 -104 -97 -164t-198 -60zM638 -225h-744l12 55h744z" />
    <glyph glyph-name="ccircumflex" unicode="&#x109;" horiz-adv-x="538" 
d="M409 570l-70 73l-105 -73h-60l137 130h66l92 -130h-60zM254 -10q-96 0 -155.5 57t-59.5 158q0 140 76 222.5t188 82.5q83 0 136 -46.5t53 -123.5h-65q0 57 -35.5 86t-94.5 29q-84 0 -138.5 -69t-54.5 -179q0 -74 41.5 -118t115.5 -44q53 0 91.5 31t53.5 84h65
q-17 -80 -76.5 -125t-140.5 -45zM471 -225h-577l12 55h577z" />
    <glyph glyph-name="Cdotaccent" unicode="&#x10a;" horiz-adv-x="704" 
d="M493 780h-75l17 85h75zM354 -10q-132 0 -211 80t-79 213q0 181 100.5 304t266.5 123q105 0 173 -60t72 -164h-70q-2 73 -49.5 115.5t-130.5 43.5h-6q-121 0 -203.5 -99t-82.5 -251q0 -111 59 -175.5t170 -64.5h6q47 0 89.5 16t77 53t43.5 90h70q-18 -104 -97 -164
t-198 -60zM638 -225h-744l12 55h744z" />
    <glyph glyph-name="cdotaccent" unicode="&#x10b;" horiz-adv-x="538" 
d="M368 590h-75l17 85h75zM254 -10q-96 0 -155.5 57t-59.5 158q0 140 76 222.5t188 82.5q83 0 136 -46.5t53 -123.5h-65q0 57 -35.5 86t-94.5 29q-84 0 -138.5 -69t-54.5 -179q0 -74 41.5 -118t115.5 -44q53 0 91.5 31t53.5 84h65q-17 -80 -76.5 -125t-140.5 -45zM471 -225
h-577l12 55h577z" />
    <glyph glyph-name="Ccaron" unicode="&#x10c;" horiz-adv-x="704" 
d="M655 890l-150 -125h-90l-99 125h66l82 -73l123 73h68zM354 -10q-132 0 -211 80t-79 213q0 181 100.5 304t266.5 123q105 0 173 -60t72 -164h-70q-2 73 -49.5 115.5t-130.5 43.5h-6q-121 0 -203.5 -99t-82.5 -251q0 -111 59 -175.5t170 -64.5h6q47 0 89.5 16t77 53
t43.5 90h70q-18 -104 -97 -164t-198 -60zM638 -225h-744l12 55h744z" />
    <glyph glyph-name="ccaron" unicode="&#x10d;" horiz-adv-x="538" 
d="M504 700l-137 -130h-66l-92 130h60l70 -73l105 73h60zM303 510q83 0 136 -46.5t53 -123.5h-65q0 57 -35.5 86t-94.5 29q-84 0 -138.5 -69t-54.5 -179q0 -74 41.5 -118t115.5 -44q53 0 91.5 31t53.5 84h65q-17 -80 -76.5 -125t-140.5 -45q-96 0 -155.5 57t-59.5 158
q0 140 76 222.5t188 82.5zM471 -225h-577l12 55h577z" />
    <glyph glyph-name="Dcaron" unicode="&#x10e;" horiz-adv-x="710" 
d="M608 890l-150 -125h-90l-99 125h66l82 -73l123 73h68zM671 412q0 -75 -23 -147.5t-65 -132t-108 -96t-145 -36.5h-294l149 700h183q87 0 149 -25.5t94 -69.5t46 -91t14 -102zM241 635l-121 -570h196q92 0 159 52t96.5 128.5t29.5 164.5q0 108 -60 166.5t-174 58.5h-126z
M644 -225h-750l12 55h750z" />
    <glyph glyph-name="dcaron" unicode="&#x10f;" horiz-adv-x="591" 
d="M235 -10q-81 0 -138 57t-57 168q0 131 72.5 213t177.5 82q59 0 107.5 -29.5t71.5 -83.5l61 303h67l-149 -700h-60l13 67q-61 -77 -166 -77zM627 540h-12l7 35h8q22 0 33.5 11t17.5 35l1 4h-30l16 75h65l-15 -69q-10 -47 -30.5 -69t-60.5 -22zM245 45h8q84 1 135 73.5
t51 164.5q0 82 -41.5 127t-99.5 45h-8q-76 0 -130.5 -65.5t-54.5 -169.5q0 -84 39 -129t101 -46zM571 -225h-677l12 55h677z" />
    <glyph glyph-name="Dcroat" unicode="&#x110;" horiz-adv-x="721" 
d="M341 0h-294l68 320h-87l13 60h87l68 320h183q87 0 149 -25.5t94 -69.5t46 -91t14 -102q0 -75 -23 -147.5t-65 -132t-108 -96t-145 -36.5zM378 635h-126l-54 -255h153l-13 -60h-153l-54 -255h196q92 0 159 52t96.5 128.5t29.5 164.5q0 108 -60 166.5t-174 58.5zM655 -225
h-756l12 55h756z" />
    <glyph glyph-name="dcroat" unicode="&#x111;" horiz-adv-x="591" 
d="M581 625h70l-11 -50h-70l-122 -575h-60l13 67q-61 -77 -166 -77q-81 0 -138 57t-57 168q0 131 72.5 213t177.5 82q59 0 107.5 -29.5t71.5 -83.5l36 178h-151l11 50h150l15 75h67zM245 45h8q84 1 135 73.5t51 164.5q0 82 -41.5 127t-99.5 45h-8q-76 0 -130.5 -65.5
t-54.5 -169.5q0 -84 39 -129t101 -46zM525 -225h-631l12 55h631z" />
    <glyph glyph-name="Emacron" unicode="&#x112;" horiz-adv-x="642" 
d="M316 835h276l-11 -55h-276zM36 0l149 700h490l-14 -65h-420l-51 -242h360l-14 -65h-360l-56 -263h430l-14 -65h-500zM576 -225h-681l11 55h682z" />
    <glyph glyph-name="emacron" unicode="&#x113;" horiz-adv-x="540" 
d="M453 590h-285l10 55h285zM245 -10q-93 0 -149 62.5t-56 168.5q0 125 74.5 207t187.5 82q78 0 130.5 -47t52.5 -136q0 -35 -11 -82h-368q-1 -8 -1 -24q0 -80 42 -128t108 -48q109 0 146 98h65q-20 -70 -77 -111.5t-144 -41.5zM114 300h303q3 19 3 35q0 60 -33.5 90
t-93.5 30q-69 0 -115.5 -41.5t-63.5 -113.5zM472 -225h-578l12 55h578z" />
    <glyph glyph-name="Ebreve" unicode="&#x114;" horiz-adv-x="642" 
d="M452 755q-64 0 -101 37.5t-28 97.5h55q-5 -37 16 -58.5t59 -21.5q35 0 64.5 20t40.5 60h55q-8 -63 -54 -99t-107 -36zM36 0l149 700h490l-14 -65h-420l-51 -242h360l-14 -65h-360l-56 -263h430l-14 -65h-500zM576 -225h-681l11 55h682z" />
    <glyph glyph-name="ebreve" unicode="&#x115;" horiz-adv-x="540" 
d="M320 560q-64 0 -96 37t-25 103h50q-8 -39 13.5 -64.5t63.5 -25.5q77 0 103 90h50q-17 -68 -59.5 -104t-99.5 -36zM245 -10q-93 0 -149 62.5t-56 168.5q0 125 74.5 207t187.5 82q78 0 130.5 -47t52.5 -136q0 -35 -11 -82h-368q-1 -8 -1 -24q0 -80 42 -128t108 -48
q109 0 146 98h65q-20 -70 -77 -111.5t-144 -41.5zM114 300h303q3 19 3 35q0 60 -33.5 90t-93.5 30q-69 0 -115.5 -41.5t-63.5 -113.5zM472 -225h-578l12 55h578z" />
    <glyph glyph-name="Edotaccent" unicode="&#x116;" horiz-adv-x="642" 
d="M423 865h75l-17 -85h-75zM36 0l149 700h490l-14 -65h-420l-51 -242h360l-14 -65h-360l-56 -263h430l-14 -65h-500zM576 -225h-681l11 55h682z" />
    <glyph glyph-name="edotaccent" unicode="&#x117;" horiz-adv-x="540" 
d="M358 590h-75l17 85h75zM245 -10q-93 0 -149 62.5t-56 168.5q0 125 74.5 207t187.5 82q78 0 130.5 -47t52.5 -136q0 -35 -11 -82h-368q-1 -8 -1 -24q0 -80 42 -128t108 -48q109 0 146 98h65q-20 -70 -77 -111.5t-144 -41.5zM114 300h303q3 19 3 35q0 60 -33.5 90t-93.5 30
q-69 0 -115.5 -41.5t-63.5 -113.5zM472 -225h-578l12 55h578z" />
    <glyph glyph-name="Eogonek" unicode="&#x118;" horiz-adv-x="642" 
d="M675 700l-14 -65h-420l-51 -242h360l-14 -65h-360l-56 -263h430l-14 -65q-47 -21 -79 -52.5t-32 -63.5q0 -28 13.5 -41t45.5 -13h105l-12 -55h-109q-108 0 -108 92q0 40 32 76.5t75 56.5h-431l149 700h490zM278 -225h-384l12 55h384z" />
    <glyph glyph-name="eogonek" unicode="&#x119;" horiz-adv-x="540" 
d="M270 -170h216l-12 -55h-220q-108 0 -108 92q0 36 25.5 68.5t63.5 54.5q-89 4 -142 66t-53 165q0 125 74.5 207t187.5 82q78 0 130.5 -47t52.5 -136q0 -35 -11 -82h-368q-1 -8 -1 -24q0 -80 42 -128t108 -48q109 0 146 98h65q-15 -53 -52 -90.5t-92 -52.5
q-47 -21 -79 -52.5t-32 -63.5q0 -28 13.5 -41t45.5 -13zM293 455q-69 0 -115.5 -41.5t-63.5 -113.5h303q3 19 3 35q0 60 -33.5 90t-93.5 30zM64 -225h-170l12 55h170z" />
    <glyph glyph-name="Ecaron" unicode="&#x11a;" horiz-adv-x="642" 
d="M643 890l-150 -125h-90l-99 125h66l82 -73l123 73h68zM36 0l149 700h490l-14 -65h-420l-51 -242h360l-14 -65h-360l-56 -263h430l-14 -65h-500zM576 -225h-681l11 55h682z" />
    <glyph glyph-name="ecaron" unicode="&#x11b;" horiz-adv-x="540" 
d="M494 700l-137 -130h-66l-92 130h60l70 -73l105 73h60zM302 510q78 0 130.5 -47t52.5 -136q0 -35 -11 -82h-368q-1 -8 -1 -24q0 -80 42 -128t108 -48q109 0 146 98h65q-20 -70 -77 -111.5t-144 -41.5q-93 0 -149 62.5t-56 168.5q0 125 74.5 207t187.5 82zM114 300h303
q3 19 3 35q0 60 -33.5 90t-93.5 30q-69 0 -115.5 -41.5t-63.5 -113.5zM472 -225h-578l12 55h578z" />
    <glyph glyph-name="Gcircumflex" unicode="&#x11c;" horiz-adv-x="745" 
d="M570 765l-82 73l-123 -73h-69l150 125h90l99 -125h-65zM353 -10q-129 0 -208.5 83t-79.5 213q0 117 45 213t131 153.5t197 57.5t186 -68t75 -167h-70q-6 83 -62.5 126.5t-138.5 43.5q-128 0 -210.5 -102.5t-82.5 -241.5q0 -115 59 -180.5t160 -65.5q89 0 163.5 67
t100.5 163h-224l13 65h211q33 0 51 -16t18 -45q0 -15 -3 -33l-54 -256h-65l27 128q-29 -57 -96.5 -97.5t-142.5 -40.5zM680 -225h-785l12 55h785z" />
    <glyph glyph-name="gcircumflex" unicode="&#x11d;" horiz-adv-x="587" 
d="M405 570l-70 73l-105 -73h-60l137 130h66l92 -130h-60zM463 391l23 109h65l-109 -512q-45 -213 -251 -213h-297l12 55h294q145 0 181 176l14 67q-58 -73 -160 -73q-80 0 -137.5 53.5t-57.5 158.5q0 133 71 215.5t176 82.5q60 0 107.5 -31.5t68.5 -87.5zM250 55
q84 0 134 71.5t50 162.5q0 80 -41.5 123t-101.5 43q-77 0 -131.5 -65.5t-54.5 -169.5q0 -80 40.5 -122.5t104.5 -42.5z" />
    <glyph glyph-name="Gbreve" unicode="&#x11e;" horiz-adv-x="745" 
d="M482 755q-64 0 -101 37.5t-28 97.5h55q-5 -37 16 -58.5t59 -21.5q35 0 64.5 20t40.5 60h55q-8 -63 -54 -99t-107 -36zM353 -10q-129 0 -208.5 83t-79.5 213q0 117 45 213t131 153.5t197 57.5t186 -68t75 -167h-70q-6 83 -62.5 126.5t-138.5 43.5q-128 0 -210.5 -102.5
t-82.5 -241.5q0 -115 59 -180.5t160 -65.5q89 0 163.5 67t100.5 163h-224l13 65h211q33 0 51 -16t18 -45q0 -15 -3 -33l-54 -256h-65l27 128q-29 -57 -96.5 -97.5t-142.5 -40.5zM680 -225h-785l12 55h785z" />
    <glyph glyph-name="gbreve" unicode="&#x11f;" horiz-adv-x="587" 
d="M326 560q-64 0 -96 37t-25 103h50q-8 -39 13.5 -64.5t63.5 -25.5q77 0 103 90h50q-17 -68 -59.5 -104t-99.5 -36zM191 -225h-297l12 55h294q145 0 181 176l14 67q-58 -73 -160 -73q-80 0 -137.5 53.5t-57.5 158.5q0 133 71 215.5t176 82.5q60 0 107.5 -31.5t68.5 -87.5
l23 109h65l-109 -512q-45 -213 -251 -213zM250 55q84 0 134 71.5t50 162.5q0 80 -41.5 123t-101.5 43q-77 0 -131.5 -65.5t-54.5 -169.5q0 -80 40.5 -122.5t104.5 -42.5z" />
    <glyph glyph-name="Gdotaccent" unicode="&#x120;" horiz-adv-x="745" 
d="M453 865h75l-17 -85h-75zM353 -10q-129 0 -208.5 83t-79.5 213q0 117 45 213t131 153.5t197 57.5t186 -68t75 -167h-70q-6 83 -62.5 126.5t-138.5 43.5q-128 0 -210.5 -102.5t-82.5 -241.5q0 -115 59 -180.5t160 -65.5q89 0 163.5 67t100.5 163h-224l13 65h211
q33 0 51 -16t18 -45q0 -15 -3 -33l-54 -256h-65l27 128q-29 -57 -96.5 -97.5t-142.5 -40.5zM680 -225h-785l12 55h785z" />
    <glyph glyph-name="gdotaccent" unicode="&#x121;" horiz-adv-x="587" 
d="M364 590h-75l17 85h75zM191 -225h-297l12 55h294q145 0 181 176l14 67q-58 -73 -160 -73q-80 0 -137.5 53.5t-57.5 158.5q0 133 71 215.5t176 82.5q60 0 107.5 -31.5t68.5 -87.5l23 109h65l-109 -512q-45 -213 -251 -213zM250 55q84 0 134 71.5t50 162.5q0 80 -41.5 123
t-101.5 43q-77 0 -131.5 -65.5t-54.5 -169.5q0 -80 40.5 -122.5t104.5 -42.5z" />
    <glyph glyph-name="uni0122" unicode="&#x122;" horiz-adv-x="745" 
d="M565 0l27 128q-29 -57 -96.5 -97.5t-142.5 -40.5q-129 0 -208.5 83t-79.5 213q0 117 45 213t131 153.5t197 57.5t186 -68t75 -167h-70q-6 83 -62.5 126.5t-138.5 43.5q-128 0 -210.5 -102.5t-82.5 -241.5q0 -115 59 -180.5t160 -65.5q89 0 163.5 67t100.5 163h-224l13 65
h211q33 0 51 -16t18 -45q0 -15 -3 -33l-54 -256h-65zM-94 -170h442l-11 -49q-11 -50 -32 -74.5t-62 -24.5h-10l7 35h6q24 0 36 14t19 44h-407zM679 -225h-268l12 55h268z" />
    <glyph glyph-name="uni0123" unicode="&#x123;" horiz-adv-x="587" 
d="M362 597h-65l15 69q10 47 30.5 69t60.5 22h12l-7 -35h-8q-22 0 -33.5 -11t-17.5 -35l-1 -4h30zM191 -225h-297l12 55h294q145 0 181 176l14 67q-58 -73 -160 -73q-80 0 -137.5 53.5t-57.5 158.5q0 133 71 215.5t176 82.5q60 0 107.5 -31.5t68.5 -87.5l23 109h65
l-109 -512q-45 -213 -251 -213zM250 55q84 0 134 71.5t50 162.5q0 80 -41.5 123t-101.5 43q-77 0 -131.5 -65.5t-54.5 -169.5q0 -80 40.5 -122.5t104.5 -42.5z" />
    <glyph glyph-name="Hcircumflex" unicode="&#x124;" horiz-adv-x="731" 
d="M565 765l-82 73l-123 -73h-69l150 125h90l99 -125h-65zM569 318h-395l-68 -318h-70l149 700h70l-67 -317h395l67 317h70l-149 -700h-70zM665 -225h-771l12 55h771z" />
    <glyph glyph-name="hcircumflex" unicode="&#x125;" horiz-adv-x="561" 
d="M480 760l-70 73l-105 -73h-60l137 130h66l92 -130h-60zM139 260l-55 -260h-65l148 700h65l-55 -264q61 74 157 74q71 0 115 -43t44 -113q0 -39 -8 -74l-60 -280h-65l64 302q4 20 4 42q0 49 -31 80t-81 31q-64 0 -111 -51t-66 -144zM494 -225h-600l12 55h600z" />
    <glyph glyph-name="Hbar" unicode="&#x126;" horiz-adv-x="761" 
d="M735 700l-26 -120h100l-12 -60h-100l-111 -520h-70l68 318h-395l-68 -318h-70l111 520h-99l12 60h99l26 120h70l-25 -120h395l25 120h70zM203 383h395l29 137h-395zM691 -225h-793l12 55h793z" />
    <glyph glyph-name="hbar" unicode="&#x127;" horiz-adv-x="561" 
d="M139 260l-55 -260h-65l122 575h-71l11 50h70l16 75h65l-16 -75h151l-11 -50h-150l-29 -139q61 74 157 74q71 0 115 -43t44 -113q0 -39 -8 -74l-60 -280h-65l64 302q4 20 4 42q0 49 -30 80t-77 31h-8q-62 0 -108.5 -51t-65.5 -144zM-106 -225l12 55h600l-12 -55h-600z" />
    <glyph glyph-name="Itilde" unicode="&#x128;" horiz-adv-x="266" 
d="M322 760q-29 0 -69 23l-37 22q-31 19 -47 19q-17 0 -26 -11.5t-15 -42.5h-55l3 14q12 53 32.5 76.5t59.5 23.5q26 0 70 -25l39 -23q26 -16 40 -16q34 0 46 54h55l-3 -15q-9 -46 -33 -72.5t-60 -26.5zM106 0h-70l149 700h70zM220 -225h-363l12 55h363z" />
    <glyph glyph-name="itilde" unicode="&#x129;" horiz-adv-x="226" 
d="M262 565q-30 0 -70 27l-37 24q-28 19 -47 19q-20 0 -30.5 -15t-17.5 -50h-50l4 19q8 40 30.5 68t61.5 28q29 0 72 -27l36 -23q33 -20 46 -20q20 0 31 15t19 50h50l-4 -18q-9 -40 -32 -68.5t-62 -28.5zM84 0h-65l106 500h65zM203 -225h-367l12 55h367z" />
    <glyph glyph-name="Imacron" unicode="&#x12a;" horiz-adv-x="266" 
d="M370 780h-276l11 55h276zM106 0h-70l149 700h70zM200 -225h-320l12 55h320z" />
    <glyph glyph-name="imacron" unicode="&#x12b;" horiz-adv-x="226" 
d="M320 590h-285l12 55h285zM84 0h-65l106 500h65zM182 -225h-327l12 55h327z" />
    <glyph glyph-name="Ibreve" unicode="&#x12c;" horiz-adv-x="266" 
d="M237 755q-64 0 -101 37.5t-28 97.5h55q-5 -37 16 -58.5t59 -21.5q35 0 64.5 20t40.5 60h55q-8 -63 -54 -99t-107 -36zM106 0h-70l149 700h70zM205 -225h-331l12 55h331z" />
    <glyph glyph-name="ibreve" unicode="&#x12d;" horiz-adv-x="226" 
d="M182 560q-64 0 -96 37t-25 103h50q-8 -39 13.5 -64.5t63.5 -25.5q77 0 103 90h50q-17 -68 -59.5 -104t-99.5 -36zM84 0h-65l106 500h65zM179 -225h-320l12 55h320z" />
    <glyph glyph-name="Iogonek" unicode="&#x12e;" horiz-adv-x="266" 
d="M54 -107q0 -30 19.5 -46.5t52.5 -16.5h86l-12 -55h-90q-51 0 -80.5 26.5t-29.5 73.5q0 65 58 125h-22l149 700h70l-149 -700q-52 -51 -52 -107z" />
    <glyph glyph-name="iogonek" unicode="&#x12f;" horiz-adv-x="226" 
d="M139 590l17 85h75l-17 -85h-75zM190 500l-106 -500q-50 -49 -50 -109q0 -61 70 -61h68l-12 -55h-72q-51 0 -80.5 27t-29.5 73q0 65 63 125h-22l106 500h65z" />
    <glyph glyph-name="Idotaccent" unicode="&#x130;" horiz-adv-x="266" 
d="M273 780h-75l17 85h75zM106 0h-70l149 700h70zM200 -225h-306l12 55h306z" />
    <glyph glyph-name="dotlessi" unicode="&#x131;" horiz-adv-x="226" 
d="M84 0h-65l106 500h65zM160 -225h-266l12 55h266z" />
    <glyph glyph-name="IJ" unicode="&#x132;" horiz-adv-x="532" 
d="M206 0h-192l14 65h189q59 0 88 29.5t43 95.5l109 510h70l-111 -520q-20 -96 -69 -138t-141 -42zM126 185h-70l107 515h70zM472 -225h-600l12 55h600z" />
    <glyph glyph-name="ij" unicode="&#x133;" horiz-adv-x="463" 
d="M214 590h-75l17 85h75zM448 590h-75l17 85h75zM199 -225h-305l12 55h279q34 0 44 44l132 626h65l-132 -631q-20 -94 -95 -94zM84 0h-65l106 500h65z" />
    <glyph glyph-name="Jcircumflex" unicode="&#x134;" horiz-adv-x="379" 
d="M329 890h90l99 -125h-65l-82 73l-123 -73h-69zM195 190l109 510h70l-111 -520q-21 -97 -68 -138.5t-142 -41.5h-86l14 65h88q52 0 82 29.5t44 95.5zM347 -225h-453l12 55h453z" />
    <glyph glyph-name="jcircumflex" unicode="&#x135;" horiz-adv-x="234" 
d="M163 700h66l92 -130h-60l-70 73l-105 -73h-60zM1 -126l131 626h65l-131 -631q-20 -94 -95 -94h-141l12 55h115q34 0 44 44z" />
    <glyph glyph-name="uni0136" unicode="&#x136;" horiz-adv-x="701" 
d="M645 700h98l-360 -299l271 -401h-82l-241 357l-181 -150l-43 -207h-70l147 700h70l-83 -397zM-94 -170h415l-11 -49q-11 -50 -32 -74.5t-62 -24.5h-10l7 35h6q24 0 36 14t19 44h-380zM635 -225h-251l12 55h251z" />
    <glyph glyph-name="uni0137" unicode="&#x137;" horiz-adv-x="559" 
d="M471 500h92l-255 -204l199 -296h-76l-172 258l-145 -116l-30 -142h-65l149 700h65l-100 -471zM-93 -170h340l-11 -49q-11 -50 -32 -74.5t-62 -24.5h-10l7 35h6q24 0 36 14t19 44h-305zM493 -225h-183l12 55h183z" />
    <glyph glyph-name="Lacute" unicode="&#x139;" horiz-adv-x="597" 
d="M264 765h-60l53 125h90zM526 0h-490l149 700h70l-135 -635h420zM531 -225h-637l12 55h637z" />
    <glyph glyph-name="lacute" unicode="&#x13a;" horiz-adv-x="226" 
d="M236 760h-49l57 130h80zM83 0h-65l149 700h65zM160 -225h-266l12 55h266z" />
    <glyph glyph-name="uni013B" unicode="&#x13b;" horiz-adv-x="597" 
d="M120 65h420l-14 -65h-490l149 700h70zM-94 -170h371l-11 -49q-11 -50 -32 -74.5t-62 -24.5h-10l7 35h6q24 0 36 14t19 44h-336zM340 -225l12 55h191l-12 -55h-191z" />
    <glyph glyph-name="uni013C" unicode="&#x13c;" horiz-adv-x="226" 
d="M18 0l149 700h65l-149 -700h-65zM-94 -170h142l-11 -49q-11 -50 -32 -74.5t-62 -24.5h-10l7 35h6q24 0 36 14t19 44h-107z" />
    <glyph glyph-name="Lcaron" unicode="&#x13d;" horiz-adv-x="597" 
d="M526 0h-490l149 700h70l-135 -635h420zM321 540h-12l7 35h8q22 0 33.5 11t17.5 35l1 4h-30l16 75h65l-15 -69q-10 -47 -30.5 -69t-60.5 -22zM531 -225h-637l12 55h637z" />
    <glyph glyph-name="lcaron" unicode="&#x13e;" horiz-adv-x="226" 
d="M83 0h-65l149 700h65zM261 540h-12l7 35h8q22 0 33.5 11t17.5 35l1 4h-30l16 75h65l-15 -69q-10 -47 -30.5 -69t-60.5 -22zM205 -225h-311l12 55h311z" />
    <glyph glyph-name="Ldot" unicode="&#x13f;" horiz-adv-x="597" 
d="M526 0h-490l149 700h70l-135 -635h420zM495 314h-90l19 90h90zM531 -225h-637l12 55h637z" />
    <glyph glyph-name="ldot" unicode="&#x140;" horiz-adv-x="294" 
d="M83 0h-65l149 700h65zM306 305h-90l19 90h90zM240 -225h-346l12 55h346z" />
    <glyph glyph-name="Lslash" unicode="&#x141;" horiz-adv-x="624" 
d="M553 0h-490l59 275l-112 -56l16 75l112 57l74 349h70l-66 -309l212 108l-16 -77l-212 -107l-53 -250h420zM-100 -225l12 55h657l-12 -55h-657z" />
    <glyph glyph-name="lslash" unicode="&#x142;" horiz-adv-x="280" 
d="M261 700l-53 -249l93 44l-15 -68l-93 -44l-81 -383h-65l74 348l-94 -45l14 68l95 45l60 284h65zM214 -225h-320l12 55h320z" />
    <glyph glyph-name="Nacute" unicode="&#x143;" horiz-adv-x="741" 
d="M495 890h90l-83 -125h-60zM496 0l-259 618l-131 -618h-70l149 700h90l256 -607l129 607h70l-149 -700h-85zM675 -225h-781l12 55h781z" />
    <glyph glyph-name="nacute" unicode="&#x144;" horiz-adv-x="561" 
d="M381 700h80l-88 -130h-49zM139 260l-55 -260h-65l106 500h65l-13 -64q61 74 157 74q71 0 115 -43t44 -113q0 -39 -8 -74l-60 -280h-65l64 302q4 20 4 42q0 50 -31 80.5t-80 30.5q-64 0 -111.5 -51t-66.5 -144zM-106 -225l12 55h601l-12 -55h-601z" />
    <glyph glyph-name="uni0145" unicode="&#x145;" horiz-adv-x="741" 
d="M496 0l-259 618l-131 -618h-70l149 700h90l256 -607l129 607h70l-149 -700h-85zM-94 -170h399l-11 -49q-11 -50 -32 -74.5t-62 -24.5h-10l7 35h6q24 0 36 14t19 44h-364zM675 -225h-307l12 55h307z" />
    <glyph glyph-name="uni0146" unicode="&#x146;" horiz-adv-x="561" 
d="M139 260l-55 -260h-65l106 500h65l-13 -64q61 74 157 74q71 0 115 -43t44 -113q0 -39 -8 -74l-60 -280h-65l64 302q4 20 4 42q0 50 -31 80.5t-80 30.5q-64 0 -111.5 -51t-66.5 -144zM-94 -170h323l-11 -49q-11 -50 -32 -74.5t-62 -24.5h-10l7 35h6q24 0 36 14t19 44h-288
zM292 -225l12 55h203l-12 -55h-203z" />
    <glyph glyph-name="Ncaron" unicode="&#x147;" horiz-adv-x="741" 
d="M673 890l-150 -125h-90l-99 125h66l82 -73l123 73h68zM496 0l-259 618l-131 -618h-70l149 700h90l256 -607l129 607h70l-149 -700h-85zM675 -225h-781l12 55h781z" />
    <glyph glyph-name="ncaron" unicode="&#x148;" horiz-adv-x="561" 
d="M525 700l-137 -130h-66l-92 130h60l70 -73l105 73h60zM139 260l-55 -260h-65l106 500h65l-13 -64q61 74 157 74q71 0 115 -43t44 -113q0 -39 -8 -74l-60 -280h-65l64 302q4 20 4 42q0 50 -31 80.5t-80 30.5q-64 0 -111.5 -51t-66.5 -144zM495 -225h-601l12 55h601z" />
    <glyph glyph-name="Eng" unicode="&#x14a;" horiz-adv-x="741" 
d="M381 -225h-487l12 55h485q50 0 71.5 21t33.5 75l16 74l-278 603l-128 -603h-70l149 700h81l270 -586l124 586h70l-160 -750q-20 -97 -59.5 -136t-129.5 -39z" />
    <glyph glyph-name="eng" unicode="&#x14b;" horiz-adv-x="561" 
d="M493 354q0 -39 -8 -74l-52 -242l-35 -168q-20 -95 -101 -95h-403l12 55h385q34 0 42 40l27 130l64 302q4 20 4 42q0 50 -31 80.5t-80 30.5q-64 0 -111.5 -51t-66.5 -144l-55 -260h-65l106 500h65l-13 -64q61 74 157 74q71 0 115 -43t44 -113z" />
    <glyph glyph-name="Omacron" unicode="&#x14c;" horiz-adv-x="754" 
d="M604 780h-276l11 55h276zM352 -10q-129 0 -208.5 81t-79.5 227q0 174 108.5 293t263.5 119q127 0 202.5 -84t75.5 -224q0 -104 -41 -196.5t-125.5 -154t-195.5 -61.5zM347 55h7q120 0 205 96t85 243q0 117 -58 184t-162 67h-7q-109 0 -196 -99t-87 -244q0 -116 59 -181.5
t154 -65.5zM689 -225h-795l12 55h795z" />
    <glyph glyph-name="omacron" unicode="&#x14d;" horiz-adv-x="564" 
d="M459 590h-285l10 55h285zM254 -10q-95 0 -155 59t-60 159q0 133 74.5 217.5t178.5 84.5q95 0 155 -59t60 -159q0 -136 -74 -219t-179 -83zM251 45h8q72 0 127.5 66t55.5 181q0 70 -40 116.5t-107 46.5h-8q-73 0 -128 -65.5t-55 -181.5q0 -69 39.5 -116t107.5 -47z
M498 -225h-604l12 55h604z" />
    <glyph glyph-name="Obreve" unicode="&#x14e;" horiz-adv-x="754" 
d="M475 755q-64 0 -101 37.5t-28 97.5h55q-5 -37 16 -58.5t59 -21.5q35 0 64.5 20t40.5 60h55q-8 -63 -54 -99t-107 -36zM352 -10q-129 0 -208.5 81t-79.5 227q0 174 108.5 293t263.5 119q127 0 202.5 -84t75.5 -224q0 -104 -41 -196.5t-125.5 -154t-195.5 -61.5zM347 55h7
q120 0 205 96t85 243q0 117 -58 184t-162 67h-7q-109 0 -196 -99t-87 -244q0 -116 59 -181.5t154 -65.5zM689 -225h-795l12 55h795z" />
    <glyph glyph-name="obreve" unicode="&#x14f;" horiz-adv-x="564" 
d="M326 560q-64 0 -96 37t-25 103h50q-8 -39 13.5 -64.5t63.5 -25.5q77 0 103 90h50q-17 -68 -59.5 -104t-99.5 -36zM254 -10q-95 0 -155 59t-60 159q0 133 74.5 217.5t178.5 84.5q95 0 155 -59t60 -159q0 -136 -74 -219t-179 -83zM251 45h8q72 0 127.5 66t55.5 181
q0 70 -40 116.5t-107 46.5h-8q-73 0 -128 -65.5t-55 -181.5q0 -69 39.5 -116t107.5 -47zM498 -225h-604l12 55h604z" />
    <glyph glyph-name="Ohungarumlaut" unicode="&#x150;" horiz-adv-x="754" 
d="M413 765h-60l53 125h90zM577 765h-60l53 125h90zM352 -10q-129 0 -208.5 81t-79.5 227q0 174 108.5 293t263.5 119q127 0 202.5 -84t75.5 -224q0 -104 -41 -196.5t-125.5 -154t-195.5 -61.5zM347 55h7q120 0 205 96t85 243q0 117 -58 184t-162 67h-7q-109 0 -196 -99
t-87 -244q0 -116 59 -181.5t154 -65.5zM689 -225h-795l12 55h795z" />
    <glyph glyph-name="ohungarumlaut" unicode="&#x151;" horiz-adv-x="564" 
d="M269 570h-49l57 130h80zM428 570h-49l57 130h80zM254 -10q-95 0 -155 59t-60 159q0 133 74.5 217.5t178.5 84.5q95 0 155 -59t60 -159q0 -136 -74 -219t-179 -83zM251 45h8q72 0 127.5 66t55.5 181q0 70 -40 116.5t-107 46.5h-8q-73 0 -128 -65.5t-55 -181.5
q0 -69 39.5 -116t107.5 -47zM498 -225h-604l12 55h604z" />
    <glyph glyph-name="OE" unicode="&#x152;" horiz-adv-x="1175" 
d="M686 550l32 150h490l-14 -65h-420l-51 -242h360l-14 -65h-360l-3 -15q-1 -4 -2.5 -11.5t-2.5 -10.5l-48 -226h430l-14 -65h-500l18 84q-97 -94 -235 -94q-129 0 -208.5 81t-79.5 227q0 174 108.5 293t263.5 119q88 0 152.5 -42t97.5 -118zM347 55h7q95 0 171 63t105 167
l9 45q5 33 5 64q0 117 -58 184t-162 67h-7q-109 0 -196 -99t-87 -244q0 -116 59 -181.5t154 -65.5zM1109 -225h-1215l12 55h1215z" />
    <glyph glyph-name="oe" unicode="&#x153;" horiz-adv-x="939" 
d="M254 -10q-95 0 -155 59t-60 159q0 133 74.5 217.5t178.5 84.5q68 0 119 -31t76 -86q35 55 91 86t123 31q78 0 130.5 -47t52.5 -136q0 -35 -11 -82h-368q-1 -8 -1 -24q0 -80 42 -128t108 -48q109 0 146 98h65q-20 -70 -77 -111.5t-144 -41.5q-65 0 -113 31t-71 88
q-35 -57 -89 -88t-117 -31zM291 455q-75 0 -131 -65t-56 -182q0 -70 40.5 -116.5t110.5 -46.5q73 0 130 65.5t57 181.5q0 70 -41 116.5t-110 46.5zM692 455q-69 0 -115.5 -41.5t-63.5 -113.5h303q3 20 3 35q0 60 -33.5 90t-93.5 30zM871 -225h-977l12 55h977z" />
    <glyph glyph-name="Racute" unicode="&#x154;" horiz-adv-x="673" 
d="M440 765h-60l53 125h90zM106 0h-70l149 700h229q100 0 155.5 -47.5t55.5 -128.5q0 -63 -33.5 -114.5t-87.5 -71.5q34 -3 55 -26.5t21 -58.5q0 -20 -5 -47l-44 -206h-70l45 212q4 17 4 33q0 27 -21 38.5t-67 11.5h-253zM241 635l-58 -275h204q74 0 120.5 42t46.5 110
q0 123 -159 123h-154zM607 -225h-713l12 55h713z" />
    <glyph glyph-name="racute" unicode="&#x155;" horiz-adv-x="349" 
d="M277 700h80l-88 -130h-49zM324 505h51l-12 -60h-49q-64 0 -111 -54t-70 -161l-49 -230h-65l106 500h63l-20 -96q21 43 63.5 72t92.5 29zM283 -225h-389l12 55h389z" />
    <glyph glyph-name="uni0156" unicode="&#x156;" horiz-adv-x="673" 
d="M422 295h-253l-63 -295h-70l149 700h229q100 0 155.5 -47.5t55.5 -128.5q0 -63 -33.5 -114.5t-87.5 -71.5q34 -3 55 -26.5t21 -58.5q0 -20 -5 -47l-44 -206h-70l45 212q4 17 4 33q0 27 -21 38.5t-67 11.5zM395 635h-154l-58 -275h204q74 0 120.5 42t46.5 110
q0 123 -159 123zM-94 -170h416l-11 -49q-11 -50 -32 -74.5t-62 -24.5h-10l7 35h6q24 0 36 14t19 44h-381zM607 -225h-222l12 55h222z" />
    <glyph glyph-name="uni0157" unicode="&#x157;" horiz-adv-x="349" 
d="M324 505h51l-12 -60h-49q-64 0 -111 -54t-70 -161l-49 -230h-65l106 500h63l-20 -96q21 43 63.5 72t92.5 29zM-94 -170h144l-11 -49q-11 -50 -32 -74.5t-62 -24.5h-10l7 35h6q24 0 36 14t19 44h-109zM283 -225h-170l12 55h170z" />
    <glyph glyph-name="Rcaron" unicode="&#x158;" horiz-adv-x="673" 
d="M611 890l-150 -125h-90l-99 125h66l82 -73l123 73h68zM422 295h-253l-63 -295h-70l149 700h229q100 0 155.5 -47.5t55.5 -128.5q0 -63 -33.5 -114.5t-87.5 -71.5q34 -3 55 -26.5t21 -58.5q0 -20 -5 -47l-44 -206h-70l45 212q4 17 4 33q0 27 -21 38.5t-67 11.5zM395 635
h-154l-58 -275h204q74 0 120.5 42t46.5 110q0 123 -159 123zM607 -225h-713l12 55h713z" />
    <glyph glyph-name="rcaron" unicode="&#x159;" horiz-adv-x="349" 
d="M421 700l-137 -130h-66l-92 130h60l70 -73l105 73h60zM188 500l-20 -96q21 43 63.5 72t92.5 29h51l-12 -60h-49q-64 0 -111 -54t-70 -161l-49 -230h-65l106 500h63zM283 -225h-389l12 55h389z" />
    <glyph glyph-name="Sacute" unicode="&#x15a;" horiz-adv-x="615" 
d="M426 765h-60l53 125h90zM291 -10q-122 0 -192 57t-70 153q0 16 1 20h69v-14q0 -76 54.5 -113.5t132.5 -37.5h10q75 0 123 36.5t48 96.5q0 44 -28 73.5t-105 55.5l-77 26q-73 25 -108 62.5t-35 97.5q0 91 71 149t177 58q107 0 174 -59.5t67 -146.5v-9h-70q-1 72 -49 111
t-122 39h-10q-70 0 -119 -39t-49 -98q0 -38 25 -61t76 -41l98 -34q154 -53 154 -179q0 -90 -67.5 -146.5t-178.5 -56.5zM548 -225h-652l12 55h652z" />
    <glyph glyph-name="sacute" unicode="&#x15b;" horiz-adv-x="473" 
d="M306 570h-49l57 130h80zM205 -10q-89 0 -141.5 42.5t-55.5 117.5h65q4 -53 40.5 -79t94.5 -26q51 0 83 26t32 68q0 48 -77 75l-57 20q-56 19 -84.5 47t-28.5 72q0 66 50 111.5t131 45.5q77 0 129.5 -42.5t53.5 -117.5h-65q-1 49 -37 77t-87 28q-49 0 -79.5 -26t-30.5 -69
q0 -45 73 -70l60 -21q52 -18 83 -46.5t31 -81.5q0 -67 -52 -109t-131 -42zM408 -225h-513l12 55h513z" />
    <glyph glyph-name="Scircumflex" unicode="&#x15c;" horiz-adv-x="615" 
d="M494 765l-82 73l-123 -73h-69l150 125h90l99 -125h-65zM362 710q107 0 174 -59.5t67 -146.5v-9h-70q-1 72 -49 111t-122 39h-10q-70 0 -119 -39t-49 -98q0 -38 25 -61t76 -41l98 -34q154 -53 154 -179q0 -90 -67.5 -146.5t-178.5 -56.5q-122 0 -192 57t-70 153q0 16 1 20
h69v-14q0 -76 54.5 -113.5t132.5 -37.5h10q75 0 123 36.5t48 96.5q0 44 -28 73.5t-105 55.5l-77 26q-73 25 -108 62.5t-35 97.5q0 91 71 149t177 58zM548 -225h-652l12 55h652z" />
    <glyph glyph-name="scircumflex" unicode="&#x15d;" horiz-adv-x="473" 
d="M363 570l-70 73l-105 -73h-60l137 130h66l92 -130h-60zM205 -10q-89 0 -141.5 42.5t-55.5 117.5h65q4 -53 40.5 -79t94.5 -26q51 0 83 26t32 68q0 48 -77 75l-57 20q-56 19 -84.5 47t-28.5 72q0 66 50 111.5t131 45.5q77 0 129.5 -42.5t53.5 -117.5h-65q-1 49 -37 77
t-87 28q-49 0 -79.5 -26t-30.5 -69q0 -45 73 -70l60 -21q52 -18 83 -46.5t31 -81.5q0 -67 -52 -109t-131 -42zM408 -225h-513l12 55h513z" />
    <glyph glyph-name="Scedilla" unicode="&#x15e;" horiz-adv-x="615" 
d="M362 710q107 0 174 -59.5t67 -146.5v-9h-70q-1 72 -49 111t-122 39h-10q-70 0 -119 -39t-49 -98q0 -38 25 -61t76 -41l98 -34q154 -53 154 -179q0 -90 -67.5 -146.5t-177.5 -56.5l-10 -38q31 -5 48 -24.5t17 -47.5q0 -49 -33.5 -77t-89.5 -28h-328l12 55h330
q27 0 43 13.5t16 37.5q0 16 -12.5 26t-32.5 10h-22l17 75q-103 10 -160.5 65.5t-57.5 142.5q0 16 1 20h69v-14q0 -76 54.5 -113.5t132.5 -37.5h10q75 0 123 36.5t48 96.5q0 44 -28 73.5t-105 55.5l-77 26q-73 25 -108 62.5t-35 97.5q0 91 71 149t177 58zM553 -225h-154
l12 55h154z" />
    <glyph glyph-name="scedilla" unicode="&#x15f;" horiz-adv-x="473" 
d="M206 -10l-10 -38q31 -5 48 -24.5t17 -47.5q0 -49 -33.5 -77t-89.5 -28h-244l12 55h246q27 0 43 13.5t16 37.5q0 16 -12.5 26t-32.5 10h-22l17 76q-70 10 -110.5 51t-42.5 106h65q4 -53 40.5 -79t94.5 -26q51 0 83 26t32 68q0 48 -77 75l-57 20q-56 19 -84.5 47t-28.5 72
q0 66 50 111.5t131 45.5q77 0 129.5 -42.5t53.5 -117.5h-65q-1 49 -37 77t-87 28q-49 0 -79.5 -26t-30.5 -69q0 -45 73 -70l60 -21q52 -18 83 -46.5t31 -81.5q0 -67 -52 -109t-130 -42zM407 -225h-91l12 55h91z" />
    <glyph glyph-name="Scaron" unicode="&#x160;" horiz-adv-x="615" 
d="M597 890l-150 -125h-90l-99 125h66l82 -73l123 73h68zM362 710q107 0 174 -59.5t67 -146.5v-9h-70q-1 72 -49 111t-122 39h-10q-70 0 -119 -39t-49 -98q0 -38 25 -61t76 -41l98 -34q154 -53 154 -179q0 -90 -67.5 -146.5t-178.5 -56.5q-122 0 -192 57t-70 153q0 16 1 20
h69v-14q0 -76 54.5 -113.5t132.5 -37.5h10q75 0 123 36.5t48 96.5q0 44 -28 73.5t-105 55.5l-77 26q-73 25 -108 62.5t-35 97.5q0 91 71 149t177 58zM548 -225h-652l12 55h652z" />
    <glyph glyph-name="scaron" unicode="&#x161;" horiz-adv-x="473" 
d="M458 700l-137 -130h-66l-92 130h60l70 -73l105 73h60zM257 510q77 0 129.5 -42.5t53.5 -117.5h-65q-1 49 -37 77t-87 28q-49 0 -79.5 -26t-30.5 -69q0 -45 73 -70l60 -21q52 -18 83 -46.5t31 -81.5q0 -67 -52 -109t-131 -42q-89 0 -141.5 42.5t-55.5 117.5h65
q4 -53 40.5 -79t94.5 -26q51 0 83 26t32 68q0 48 -77 75l-57 20q-56 19 -84.5 47t-28.5 72q0 66 50 111.5t131 45.5zM408 -225h-513l12 55h513z" />
    <glyph glyph-name="uni0162" unicode="&#x162;" horiz-adv-x="596" 
d="M86 635l14 65h570l-14 -65h-245l-135 -635h-9l-12 -48q31 -5 48 -24.5t17 -47.5q0 -49 -33.5 -77t-89.5 -28h-303l12 55h305q27 0 43 13.5t16 37.5q0 16 -12.5 26t-32.5 10h-22l18 83h-15l135 635h-255zM530 -225h-158l12 55h158z" />
    <glyph glyph-name="uni0163" unicode="&#x163;" horiz-adv-x="367" 
d="M358 445h-129l-74 -347q-1 -5 -1 -15q0 -13 10 -20.5t24 -7.5h113l-12 -55h-90l-12 -48q31 -5 48 -24.5t17 -47.5q0 -49 -33.5 -77t-89.5 -28h-235l12 55h237q27 0 43 13.5t16 37.5q0 16 -12.5 26t-32.5 10h-22l19 85q-64 11 -64 75q0 22 3 34l70 334h-118l11 55h120
l35 162h65l-35 -162h128z" />
    <glyph glyph-name="Tcaron" unicode="&#x164;" horiz-adv-x="596" 
d="M600 890l-150 -125h-90l-99 125h66l82 -73l123 73h68zM86 635l14 65h570l-14 -65h-245l-135 -635h-70l135 635h-255zM530 -225h-636l12 55h636z" />
    <glyph glyph-name="tcaron" unicode="&#x165;" horiz-adv-x="367" 
d="M387 625l16 75h65l-15 -69q-10 -47 -30.5 -69t-60.5 -22h-12l7 35h8q22 0 33.5 11t17.5 35l1 4h-30zM211 662h65l-35 -162h128l-11 -55h-129l-74 -347q-1 -5 -1 -15q0 -13 10 -20.5t24 -7.5h113l-12 -55h-110q-89 0 -89 77q0 22 3 34l70 334h-118l11 55h120zM306 -225
h-412l12 55h412z" />
    <glyph glyph-name="Tbar" unicode="&#x166;" horiz-adv-x="629" 
d="M100 635l14 65h570l-14 -65h-245l-48 -226h185l-13 -60h-185l-74 -349h-70l74 349h-184l13 60h184l48 226h-255zM563 -225h-669l12 55h669z" />
    <glyph glyph-name="tbar" unicode="&#x167;" horiz-adv-x="383" 
d="M376 500l-11 -55h-129l-28 -129h115l-11 -50h-114l-36 -168q-1 -5 -1 -15q0 -13 10 -20.5t24 -7.5h113l-12 -55h-110q-89 0 -89 77q0 22 3 34l33 155h-107l11 50h106l27 129h-118l11 55h120l35 162h65l-35 -162h128zM309 -225h-417l12 55h417z" />
    <glyph glyph-name="Utilde" unicode="&#x168;" horiz-adv-x="694" 
d="M526 760q-29 0 -69 23l-37 22q-31 19 -47 19q-17 0 -26 -11.5t-15 -42.5h-55l3 14q12 53 32.5 76.5t59.5 23.5q26 0 70 -25l39 -23q26 -16 40 -16q34 0 46 54h55l-3 -15q-9 -46 -33 -72.5t-60 -26.5zM293 -10q-101 0 -157.5 55t-56.5 155q0 43 10 87l88 413h70l-90 -422
q-9 -41 -9 -74q0 -149 161 -149q173 0 214 191l97 454h70l-102 -477q-24 -112 -98 -172.5t-197 -60.5zM628 -225h-734l12 55h734z" />
    <glyph glyph-name="utilde" unicode="&#x169;" horiz-adv-x="551" 
d="M263 635q-20 0 -30.5 -15t-17.5 -50h-50l4 19q8 40 30.5 68t61.5 28q29 0 72 -27l36 -23q33 -20 46 -20q20 0 31 15t19 50h50l-4 -18q-9 -40 -32 -68.5t-62 -28.5q-29 0 -70 27l-37 24q-28 19 -47 19zM395 240l55 260h65l-106 -500h-65l14 64q-64 -75 -158 -74
q-72 1 -111 40.5t-39 112.5q0 33 9 74l60 283h66l-64 -302q-6 -27 -6 -49q0 -49 26.5 -76.5t75.5 -27.5q67 0 112.5 50.5t65.5 144.5zM485 -225h-591l12 55h591z" />
    <glyph glyph-name="Umacron" unicode="&#x16a;" horiz-adv-x="694" 
d="M577 780h-276l11 55h276zM293 -10q-101 0 -157.5 55t-56.5 155q0 43 10 87l88 413h70l-90 -422q-9 -41 -9 -74q0 -149 161 -149q173 0 214 191l97 454h70l-102 -477q-24 -112 -98 -172.5t-197 -60.5zM628 -225h-734l12 55h734z" />
    <glyph glyph-name="umacron" unicode="&#x16b;" horiz-adv-x="551" 
d="M193 645h285l-10 -55h-285zM200 -10q-72 1 -111 40.5t-39 112.5q0 33 9 74l60 283h66l-64 -302q-6 -27 -6 -49q0 -49 26.5 -76.5t75.5 -27.5q67 0 112.5 50.5t65.5 144.5l55 260h65l-106 -500h-65l14 64q-64 -75 -158 -74zM485 -225h-591l12 55h591z" />
    <glyph glyph-name="Ubreve" unicode="&#x16c;" horiz-adv-x="694" 
d="M448 755q-64 0 -101 37.5t-28 97.5h55q-5 -37 16 -58.5t59 -21.5q35 0 64.5 20t40.5 60h55q-8 -63 -54 -99t-107 -36zM293 -10q-101 0 -157.5 55t-56.5 155q0 43 10 87l88 413h70l-90 -422q-9 -41 -9 -74q0 -149 161 -149q173 0 214 191l97 454h70l-102 -477
q-24 -112 -98 -172.5t-197 -60.5zM628 -225h-734l12 55h734z" />
    <glyph glyph-name="ubreve" unicode="&#x16d;" horiz-adv-x="551" 
d="M335 560q-64 0 -96 37t-25 103h50q-8 -39 13.5 -64.5t63.5 -25.5q77 0 103 90h50q-17 -68 -59.5 -104t-99.5 -36zM200 -10q-72 1 -111 40.5t-39 112.5q0 33 9 74l60 283h66l-64 -302q-6 -27 -6 -49q0 -49 26.5 -76.5t75.5 -27.5q67 0 112.5 50.5t65.5 144.5l55 260h65
l-106 -500h-65l14 64q-64 -75 -158 -74zM485 -225h-591l12 55h591z" />
    <glyph glyph-name="Uring" unicode="&#x16e;" horiz-adv-x="694" 
d="M446 761q-32 0 -55.5 22.5t-23.5 56.5q0 33 24 56t55 23t55 -23t24 -56q0 -34 -23.5 -56.5t-55.5 -22.5zM447 806q13 0 23 10t10 24t-10 24t-23 10t-23.5 -10t-10.5 -24t10.5 -24t23.5 -10zM293 -10q-101 0 -157.5 55t-56.5 155q0 43 10 87l88 413h70l-90 -422
q-9 -41 -9 -74q0 -149 161 -149q173 0 214 191l97 454h70l-102 -477q-24 -112 -98 -172.5t-197 -60.5zM628 -225h-734l12 55h734z" />
    <glyph glyph-name="uring" unicode="&#x16f;" horiz-adv-x="551" 
d="M347 561q-34 0 -59 24t-25 60q0 35 25 59.5t59 24.5t59 -24.5t25 -59.5q0 -36 -25 -60t-59 -24zM348 690q-18 0 -31 -13t-13 -32t13 -32t31 -13t30.5 13t12.5 32t-12.5 32t-30.5 13zM200 -10q-72 1 -111 40.5t-39 112.5q0 33 9 74l60 283h66l-64 -302q-6 -27 -6 -49
q0 -49 26.5 -76.5t75.5 -27.5q67 0 112.5 50.5t65.5 144.5l55 260h65l-106 -500h-65l14 64q-64 -75 -158 -74zM485 -225h-591l12 55h591z" />
    <glyph glyph-name="Uhungarumlaut" unicode="&#x170;" horiz-adv-x="694" 
d="M386 765h-60l53 125h90zM550 765h-60l53 125h90zM293 -10q-101 0 -157.5 55t-56.5 155q0 43 10 87l88 413h70l-90 -422q-9 -41 -9 -74q0 -149 161 -149q173 0 214 191l97 454h70l-102 -477q-24 -112 -98 -172.5t-197 -60.5zM628 -225h-734l12 55h734z" />
    <glyph glyph-name="uhungarumlaut" unicode="&#x171;" horiz-adv-x="551" 
d="M286 700h80l-88 -130h-49zM445 700h80l-88 -130h-49zM395 240l55 260h65l-106 -500h-65l14 64q-64 -75 -158 -74q-72 1 -111 40.5t-39 112.5q0 33 9 74l60 283h66l-64 -302q-6 -27 -6 -49q0 -49 26.5 -76.5t75.5 -27.5q67 0 112.5 50.5t65.5 144.5zM485 -225h-591l12 55
h591z" />
    <glyph glyph-name="Uogonek" unicode="&#x172;" horiz-adv-x="694" 
d="M273 -116q0 -28 13.5 -41t45.5 -13h308l-12 -55h-312q-108 0 -108 92q0 35 25.5 68t63.5 55h-4q-101 0 -157.5 55t-56.5 155q0 43 10 87l88 413h70l-90 -422q-9 -41 -9 -74q0 -149 161 -149q173 0 214 191l97 454h70l-102 -477q-39 -185 -204 -223q-47 -21 -79 -52.5
t-32 -63.5zM126 -225h-232l12 55h232z" />
    <glyph glyph-name="uogonek" unicode="&#x173;" horiz-adv-x="551" 
d="M298 -116q0 -28 13.5 -41t45.5 -13h140l-12 -55h-144q-108 0 -108 92q0 41 33.5 78t77.5 57l14 62q-64 -75 -158 -74q-72 1 -111 40.5t-39 112.5q0 33 9 74l60 283h66l-64 -302q-6 -27 -6 -49q0 -49 26.5 -76.5t75.5 -27.5q67 0 112.5 50.5t65.5 144.5l55 260h65
l-106 -500q-47 -21 -79 -52.5t-32 -63.5zM151 -225h-257l12 55h257z" />
    <glyph glyph-name="Wcircumflex" unicode="&#x174;" horiz-adv-x="907" 
d="M650 765l-82 73l-123 -73h-69l150 125h90l99 -125h-65zM522 612l-295 -612h-86l-38 700h73l22 -625l301 625h78l37 -629l283 629h78l-334 -700h-84zM845 -225h-955l12 55h955z" />
    <glyph glyph-name="wcircumflex" unicode="&#x175;" horiz-adv-x="758" 
d="M514 570l-70 73l-105 -73h-60l137 130h66l92 -130h-60zM404 421l-207 -421h-87l-47 500h63l38 -441l214 441h79l32 -440l226 440h68l-262 -500h-87zM697 -225h-804l12 55h804z" />
    <glyph glyph-name="Ycircumflex" unicode="&#x176;" horiz-adv-x="620" 
d="M503 765l-82 73l-123 -73h-69l150 125h90l99 -125h-65zM283 0h-70l61 284l-180 416h73l152 -353l295 353h85l-356 -418zM550 -225h-652l12 55h652z" />
    <glyph glyph-name="ycircumflex" unicode="&#x177;" horiz-adv-x="523" 
d="M401 570l-70 73l-105 -73h-60l137 130h66l92 -130h-60zM487 500h71l-320 -481l-31 -150q-10 -45 -36 -69.5t-64 -24.5h-228l12 55h194q31 0 42.5 12.5t20.5 56.5l25 116l-105 485h65l86 -407zM458 -225h-201l12 55h201z" />
    <glyph glyph-name="Ydieresis" unicode="&#x178;" horiz-adv-x="620" 
d="M292 860h80l-17 -80h-80zM478 860h80l-17 -80h-80zM283 0h-70l61 284l-180 416h73l152 -353l295 353h85l-356 -418zM550 -225h-652l12 55h652z" />
    <glyph glyph-name="Zacute" unicode="&#x179;" horiz-adv-x="593" 
d="M420 890h90l-83 -125h-60zM123 635l14 65h492l-17 -80l-539 -555h434l-14 -65h-514l17 81l542 554h-415zM528 -225h-634l12 55h634z" />
    <glyph glyph-name="zacute" unicode="&#x17a;" horiz-adv-x="471" 
d="M310 700h80l-88 -130h-49zM79 445l11 55h375l-15 -70l-389 -375h324l-12 -55h-394l15 70l388 375h-303zM405 -225h-511l12 55h511z" />
    <glyph glyph-name="Zdotaccent" unicode="&#x17b;" horiz-adv-x="593" 
d="M378 865h75l-17 -85h-75zM123 635l14 65h492l-17 -80l-539 -555h434l-14 -65h-514l17 81l542 554h-415zM528 -225h-634l12 55h634z" />
    <glyph glyph-name="zdotaccent" unicode="&#x17c;" horiz-adv-x="471" 
d="M260 675h75l-17 -85h-75zM79 445l11 55h375l-15 -70l-389 -375h324l-12 -55h-394l15 70l388 375h-303zM405 -225h-511l12 55h511z" />
    <glyph glyph-name="Zcaron" unicode="&#x17d;" horiz-adv-x="593" 
d="M598 890l-150 -125h-90l-99 125h66l82 -73l123 73h68zM123 635l14 65h492l-17 -80l-539 -555h434l-14 -65h-514l17 81l542 554h-415zM528 -225h-634l12 55h634z" />
    <glyph glyph-name="zcaron" unicode="&#x17e;" horiz-adv-x="471" 
d="M454 700l-137 -130h-66l-92 130h60l70 -73l105 73h60zM79 445l11 55h375l-15 -70l-389 -375h324l-12 -55h-394l15 70l388 375h-303zM405 -225h-511l12 55h511z" />
    <glyph glyph-name="florin" unicode="&#x192;" horiz-adv-x="411" 
d="M416 700h51l-14 -65h-41q-96 0 -123 -116l-20 -86l136 29l-13 -63l-137 -29l-95 -414q-23 -98 -72.5 -139.5t-133.5 -41.5h-56l12 55h53q54 0 83 27.5t44 92.5l93 404l-136 -29l13 63l137 29l24 103q41 180 195 180zM345 -225h-187l12 55h187z" />
    <glyph glyph-name="uni01E2" unicode="&#x1e2;" horiz-adv-x="982" 
d="M896 780h-276l11 55h276zM22 0h-85l578 700h456l-14 -65h-353l-19 -242h307l-14 -65h-298l-20 -263h352l-14 -65h-407l15 193h-327zM542 641l-310 -383h280zM916 -225h-1033l12 55h1033z" />
    <glyph glyph-name="uni01E3" unicode="&#x1e3;" horiz-adv-x="863" 
d="M602 590h-285l10 55h285zM188 -10q-74 0 -121 42t-47 108q0 81 59.5 120.5t156.5 39.5h135q6 41 6 48q0 48 -29.5 77.5t-78.5 29.5h-10q-44 0 -78 -26t-44 -69h-65q11 68 65 109t137 41q54 0 93.5 -26t56.5 -72q77 98 201 98q78 0 130.5 -47t52.5 -136q0 -35 -11 -82
h-368q-1 -8 -1 -24q0 -80 40.5 -128t105.5 -48h8q52 0 88.5 26t53.5 72h65q-20 -70 -77 -111.5t-144 -41.5q-68 0 -117 34.5t-72 96.5q-23 -64 -73 -97.5t-118 -33.5zM437 300h303q3 20 3 35q0 59 -33 89.5t-91 30.5h-8q-66 0 -111.5 -42t-62.5 -113zM191 45h6
q59 0 100 39.5t54 105.5l11 55h-135q-142 0 -142 -103q0 -43 29.5 -70t76.5 -27zM794 -225h-899l12 55h899z" />
    <glyph glyph-name="AEacute" unicode="&#x1fc;" horiz-adv-x="982" 
d="M787 765h-60l53 125h90zM22 0h-85l578 700h456l-14 -65h-353l-19 -242h307l-14 -65h-298l-20 -263h352l-14 -65h-407l15 193h-327zM542 641l-310 -383h280zM916 -225h-1033l12 55h1033z" />
    <glyph glyph-name="aeacute" unicode="&#x1fd;" horiz-adv-x="863" 
d="M491 570h-49l57 130h80zM188 -10q-74 0 -121 42t-47 108q0 81 59.5 120.5t156.5 39.5h135q6 41 6 48q0 48 -29.5 77.5t-78.5 29.5h-10q-44 0 -78 -26t-44 -69h-65q11 68 65 109t137 41q54 0 93.5 -26t56.5 -72q77 98 201 98q78 0 130.5 -47t52.5 -136q0 -35 -11 -82h-368
q-1 -8 -1 -24q0 -80 40.5 -128t105.5 -48h8q52 0 88.5 26t53.5 72h65q-20 -70 -77 -111.5t-144 -41.5q-68 0 -117 34.5t-72 96.5q-23 -64 -73 -97.5t-118 -33.5zM437 300h303q3 20 3 35q0 59 -33 89.5t-91 30.5h-8q-66 0 -111.5 -42t-62.5 -113zM191 45h6q59 0 100 39.5
t54 105.5l11 55h-135q-142 0 -142 -103q0 -43 29.5 -70t76.5 -27zM794 -225h-899l12 55h899z" />
    <glyph glyph-name="Oslashacute" unicode="&#x1fe;" horiz-adv-x="756" 
d="M494 890h90l-83 -125h-60zM722 698l42 -46l-87 -80q38 -71 38 -170q0 -104 -41 -196.5t-125.5 -154t-195.5 -61.5q-135 0 -213 86l-82 -75l-42 45l88 81q-39 72 -39 171q0 174 108.5 293t263.5 119q129 0 204 -86zM135 302q0 -71 23 -125l431 398q-58 70 -150 70h-10
q-120 0 -207 -97.5t-87 -245.5zM645 394q0 70 -24 126l-430 -397q59 -68 160 -68h10q114 0 199 96.5t85 242.5zM690 -225h-795l12 55h795z" />
    <glyph glyph-name="oslashacute" unicode="&#x1ff;" horiz-adv-x="566" 
d="M352 700h80l-88 -130h-49zM99 50l-68 -65l-35 40l71 68q-27 51 -27 115q0 133 74.5 217.5t178.5 84.5q94 0 154 -58l65 62l39 -36l-72 -68q29 -50 29 -118q0 -136 -74 -219t-179 -83q-98 0 -156 60zM105 208q0 -38 12 -68l285 270q-40 45 -106 45h-8q-73 0 -128 -65.5
t-55 -181.5zM443 292q0 41 -13 71l-286 -271q41 -47 108 -47h8q72 0 127.5 66t55.5 181zM499 -225h-604l12 55h604z" />
    <glyph glyph-name="uni0218" unicode="&#x218;" horiz-adv-x="615" 
d="M362 710q107 0 174 -59.5t67 -146.5v-9h-70q-1 72 -49 111t-122 39h-10q-70 0 -119 -39t-49 -98q0 -38 25 -61t76 -41l98 -34q154 -53 154 -179q0 -90 -67.5 -146.5t-178.5 -56.5q-122 0 -192 57t-70 153q0 16 1 20h69v-14q0 -76 54.5 -113.5t132.5 -37.5h10
q75 0 123 36.5t48 96.5q0 44 -28 73.5t-105 55.5l-77 26q-73 25 -108 62.5t-35 97.5q0 91 71 149t177 58zM-92 -170h354l-11 -49q-11 -50 -32 -74.5t-62 -24.5h-10l7 35h6q24 0 36 14t19 44h-319zM548 -225h-223l12 55h223z" />
    <glyph glyph-name="uni0219" unicode="&#x219;" horiz-adv-x="473" 
d="M388 141q0 -67 -52 -109t-131 -42q-89 0 -141.5 42.5t-55.5 117.5h65q4 -53 40.5 -79t94.5 -26q51 0 83 26t32 68q0 48 -77 75l-57 20q-56 19 -84.5 47t-28.5 72q0 66 50 111.5t131 45.5q77 0 129.5 -42.5t53.5 -117.5h-65q-1 49 -37 77t-87 28q-49 0 -79.5 -26
t-30.5 -69q0 -45 73 -70l60 -21q52 -18 83 -46.5t31 -81.5zM-94 -170h295l-11 -49q-11 -50 -32 -74.5t-62 -24.5h-10l7 35h6q24 0 36 14t19 44h-260zM407 -225h-143l12 55h143z" />
    <glyph glyph-name="uni021A" unicode="&#x21a;" horiz-adv-x="596" 
d="M86 635l14 65h570l-14 -65h-245l-135 -635h-70l135 635h-255zM-94 -170h331l-11 -49q-11 -50 -32 -74.5t-62 -24.5h-10l7 35h6q24 0 36 14t19 44h-296zM530 -225h-230l12 55h230z" />
    <glyph glyph-name="uni021B" unicode="&#x21b;" horiz-adv-x="367" 
d="M276 662l-35 -162h128l-11 -55h-129l-74 -347q-1 -5 -1 -15q0 -13 10 -20.5t24 -7.5h113l-12 -55h-110q-89 0 -89 77q0 22 3 34l70 334h-118l11 55h120l35 162h65zM-94 -170h265l-11 -49q-11 -50 -32 -74.5t-62 -24.5h-10l7 35h6q24 0 36 14t19 44h-230zM301 -225h-67
l12 55h67z" />
    <glyph glyph-name="uni0226" unicode="&#x226;" horiz-adv-x="668" 
d="M417 865h75l-17 -85h-75zM494 193h-356l-118 -193h-76l433 700h90l131 -700h-68zM482 258l-71 380l-233 -380h304zM-116 -225l12 55h728l-12 -55h-728z" />
    <glyph glyph-name="uni0227" unicode="&#x227;" horiz-adv-x="590" 
d="M372 590h-75l17 85h75zM235 -10q-80 0 -137.5 56.5t-57.5 165.5q0 133 71 215.5t176 82.5q61 0 109.5 -31t70.5 -88l22 109h65l-106 -500h-60l13 66q-61 -76 -166 -76zM250 45q83 0 136 75t53 169q0 79 -44 122.5t-104 43.5q-77 0 -131.5 -65.5t-54.5 -169.5
q0 -85 40.5 -130t104.5 -45zM524 -225h-630l12 55h630z" />
    <glyph glyph-name="uni0232" unicode="&#x232;" horiz-adv-x="620" 
d="M279 835h276l-11 -55h-276zM283 0h-70l61 284l-180 416h73l152 -353l295 353h85l-356 -418zM550 -225h-652l12 55h652z" />
    <glyph glyph-name="uni0233" unicode="&#x233;" horiz-adv-x="523" 
d="M180 645h285l-10 -55h-285zM487 500h71l-320 -481l-31 -150q-10 -45 -36 -69.5t-64 -24.5h-228l12 55h194q31 0 42.5 12.5t20.5 56.5l25 116l-105 485h65l86 -407zM458 -225h-201l12 55h201z" />
    <glyph glyph-name="uni0237" unicode="&#x237;" horiz-adv-x="234" 
d="M-29 -225h-141l12 55h115q34 0 44 44l131 626h65l-131 -631q-20 -94 -95 -94z" />
    <glyph glyph-name="uni02BC" unicode="&#x2bc;" horiz-adv-x="244" 
d="M118 485h-18l8 40h11q31 0 53 16t28 44l3 15h-58l21 100h105l-23 -110q-22 -105 -130 -105z" />
    <glyph glyph-name="circumflex" unicode="&#x2c6;" horiz-adv-x="355" 
d="M301 700l92 -130h-60l-70 73l-105 -73h-60l137 130h66z" />
    <glyph glyph-name="caron" unicode="&#x2c7;" horiz-adv-x="355" 
d="M256 627l105 73h60l-137 -130h-66l-92 130h60z" />
    <glyph glyph-name="breve" unicode="&#x2d8;" horiz-adv-x="340" 
d="M247 560q-64 0 -96 37t-25 103h50q-8 -39 13.5 -64.5t63.5 -25.5q77 0 103 90h50q-17 -68 -59.5 -104t-99.5 -36z" />
    <glyph glyph-name="dotaccent" unicode="&#x2d9;" horiz-adv-x="136" 
d="M178 590h-75l17 85h75z" />
    <glyph glyph-name="ring" unicode="&#x2da;" horiz-adv-x="232" 
d="M200 561q-34 0 -59 24t-25 60q0 35 25 59.5t59 24.5t59 -24.5t25 -59.5q0 -36 -25 -60t-59 -24zM201 600q18 0 30.5 13t12.5 32t-12.5 32t-30.5 13t-31 -13t-13 -32t13 -32t31 -13z" />
    <glyph glyph-name="ogonek" unicode="&#x2db;" horiz-adv-x="218" 
d="M93 -195h-41q-98 0 -98 77q0 41 38 77t82 50l46 -9q-43 -19 -72 -46t-29 -55q0 -39 49 -39h36z" />
    <glyph glyph-name="tilde" unicode="&#x2dc;" horiz-adv-x="387" 
d="M350 565q-30 0 -70 27l-37 24q-28 19 -47 19q-20 0 -30.5 -15t-17.5 -50h-50l4 19q8 40 30.5 68t61.5 28q29 0 72 -27l36 -23q33 -20 46 -20q20 0 31 15t19 50h50l-4 -18q-9 -40 -32 -68.5t-62 -28.5z" />
    <glyph glyph-name="hungarumlaut" unicode="&#x2dd;" horiz-adv-x="328" 
d="M147 570h-49l57 130h80zM306 570h-49l57 130h80z" />
    <glyph glyph-name="uni0394" unicode="&#x394;" horiz-adv-x="665" 
d="M268 700h74l270 -630v-70h-614v70zM542 65l-237 554l-238 -554h475zM599 -225h-705l12 55h705z" />
    <glyph glyph-name="uni03A9" unicode="&#x3a9;" horiz-adv-x="794" 
d="M317 0h-235v65h125q-64 35 -97 109t-33 176q0 166 89.5 263t230.5 97t230.5 -97t89.5 -263q0 -102 -33 -176t-97 -109h125v-65h-235v60q82 21 127 96t45 194q0 139 -66 217t-181 78h-10q-115 0 -181 -78t-66 -217q0 -119 45 -194t127 -96v-60zM726 -225h-831l12 55h831z
" />
    <glyph glyph-name="uni03BC" unicode="&#x3bc;" horiz-adv-x="588" 
d="M256 -10q-63 0 -108 32v-247h-254l12 55h177v670h65v-310q0 -145 120 -145h10q58 0 101.5 51t43.5 134v270h65v-500h-65v94q-41 -104 -167 -104zM223 -225v55h311l-12 -55h-299z" />
    <glyph glyph-name="pi" unicode="&#x3c0;" horiz-adv-x="750" 
d="M248 0h-65v445h-115v55h600v-55h-115v-340q0 -50 45 -50h70v-55h-75q-105 0 -105 105v340h-240v-445zM679 -225h-785l12 55h785z" />
    <glyph glyph-name="Wgrave" unicode="&#x1e80;" horiz-adv-x="907" 
d="M529 890l53 -125h-60l-83 125h90zM522 612l-295 -612h-86l-38 700h73l22 -625l301 625h78l37 -629l283 629h78l-334 -700h-84zM845 -225h-955l12 55h955z" />
    <glyph glyph-name="wgrave" unicode="&#x1e81;" horiz-adv-x="758" 
d="M396 700l57 -130h-49l-88 130h80zM404 421l-207 -421h-87l-47 500h63l38 -441l214 441h79l32 -440l226 440h68l-262 -500h-87zM697 -225h-804l12 55h804z" />
    <glyph glyph-name="Wacute" unicode="&#x1e82;" horiz-adv-x="907" 
d="M575 890h90l-83 -125h-60zM522 612l-295 -612h-86l-38 700h73l22 -625l301 625h78l37 -629l283 629h78l-334 -700h-84zM845 -225h-955l12 55h955z" />
    <glyph glyph-name="wacute" unicode="&#x1e83;" horiz-adv-x="758" 
d="M465 700h80l-88 -130h-49zM404 421l-207 -421h-87l-47 500h63l38 -441l214 441h79l32 -440l226 440h68l-262 -500h-87zM697 -225h-804l12 55h804z" />
    <glyph glyph-name="Wdieresis" unicode="&#x1e84;" horiz-adv-x="907" 
d="M439 860h80l-17 -80h-80zM625 860h80l-17 -80h-80zM522 612l-295 -612h-86l-38 700h73l22 -625l301 625h78l37 -629l283 629h78l-334 -700h-84zM845 -225h-955l12 55h955z" />
    <glyph glyph-name="wdieresis" unicode="&#x1e85;" horiz-adv-x="758" 
d="M320 670h75l-18 -80h-75zM495 670h75l-18 -80h-75zM404 421l-207 -421h-87l-47 500h63l38 -441l214 441h79l32 -440l226 440h68l-262 -500h-87zM697 -225h-804l12 55h804z" />
    <glyph glyph-name="uni1E9E" unicode="&#x1e9e;" horiz-adv-x="655" 
d="M112 0h-76l149 700h207q89 0 143.5 -42.5t54.5 -125.5q0 -56 -29.5 -104t-83.5 -69q50 -13 79.5 -55t29.5 -89q0 -91 -59.5 -153t-152.5 -62h-137l14 65h116q63 0 106 36t43 113q0 51 -35 79.5t-98 28.5h-77l14 65h49q64 0 107.5 37t43.5 100q0 111 -138 111h-141z
M590 -225h-696l12 55h696z" />
    <glyph glyph-name="Ygrave" unicode="&#x1ef2;" horiz-adv-x="620" 
d="M382 890l53 -125h-60l-83 125h90zM283 0h-70l61 284l-180 416h73l152 -353l295 353h85l-356 -418zM550 -225h-652l12 55h652z" />
    <glyph glyph-name="ygrave" unicode="&#x1ef3;" horiz-adv-x="523" 
d="M283 700l57 -130h-49l-88 130h80zM487 500h71l-320 -481l-31 -150q-10 -45 -36 -69.5t-64 -24.5h-228l12 55h194q31 0 42.5 12.5t20.5 56.5l25 116l-105 485h65l86 -407zM458 -225h-201l12 55h201z" />
    <glyph glyph-name="uni2002" unicode="&#x2002;" horiz-adv-x="500" 
 />
    <glyph glyph-name="uni2003" unicode="&#x2003;" horiz-adv-x="1000" 
 />
    <glyph glyph-name="uni2009" unicode="&#x2009;" horiz-adv-x="125" 
d="M59 -225h-165l12 55h165z" />
    <glyph glyph-name="uni200A" unicode="&#x200a;" horiz-adv-x="75" 
d="M9 -225h-115l12 55h115z" />
    <glyph glyph-name="endash" unicode="&#x2013;" horiz-adv-x="570" 
d="M495 275h-430l12 55h430z" />
    <glyph glyph-name="emdash" unicode="&#x2014;" horiz-adv-x="890" 
d="M815 275h-750l12 55h750z" />
    <glyph glyph-name="uni2015" unicode="&#x2015;" horiz-adv-x="890" 
d="M815 275h-750l12 55h750z" />
    <glyph glyph-name="quoteleft" unicode="&#x2018;" horiz-adv-x="245" 
d="M210 485h-105l23 110q22 105 130 105h18l-8 -40h-11q-31 0 -53 -16t-28 -44l-3 -15h58z" />
    <glyph glyph-name="quoteright" unicode="&#x2019;" horiz-adv-x="244" 
d="M118 485h-18l8 40h11q31 0 53 16t28 44l3 15h-58l21 100h105l-23 -110q-22 -105 -130 -105z" />
    <glyph glyph-name="quotesinglbase" unicode="&#x201a;" horiz-adv-x="241" 
d="M-19 -115h-18l8 40h11q31 0 53 16t28 44l3 15h-58l21 100h105l-23 -110q-22 -105 -130 -105z" />
    <glyph glyph-name="quotedblleft" unicode="&#x201c;" horiz-adv-x="450" 
d="M210 485h-105l23 110q22 105 130 105h18l-8 -40h-11q-31 0 -53 -16t-28 -44l-3 -15h58zM415 485h-105l23 110q22 105 130 105h18l-8 -40h-11q-31 0 -53 -16t-28 -44l-3 -15h58z" />
    <glyph glyph-name="quotedblright" unicode="&#x201d;" horiz-adv-x="449" 
d="M118 485h-18l8 40h11q31 0 53 16t28 44l3 15h-58l21 100h105l-23 -110q-22 -105 -130 -105zM323 485h-18l8 40h11q31 0 53 16t28 44l3 15h-58l21 100h105l-23 -110q-22 -105 -130 -105z" />
    <glyph glyph-name="quotedblbase" unicode="&#x201e;" horiz-adv-x="446" 
d="M-19 -115h-18l8 40h11q31 0 53 16t28 44l3 15h-58l21 100h105l-23 -110q-22 -105 -130 -105zM186 -115h-18l8 40h11q31 0 53 16t28 44l3 15h-58l21 100h105l-23 -110q-22 -105 -130 -105z" />
    <glyph glyph-name="dagger" unicode="&#x2020;" horiz-adv-x="580" 
d="M548 530v-55h-185v-645h161l-12 -55h-617l12 55h391v645h-183v55h183v255h65v-255h185z" />
    <glyph glyph-name="daggerdbl" unicode="&#x2021;" horiz-adv-x="580" 
d="M335 170v-340h189l-12 -55h-617l12 55h363v340h-185v55h185v250h-185v55h185v255h65v-255h185v-55h-185v-250h185v-55h-185z" />
    <glyph glyph-name="bullet" unicode="&#x2022;" horiz-adv-x="491" 
d="M256 180q-69 0 -119.5 50.5t-50.5 119.5t50.5 119.5t119.5 50.5t119.5 -50.5t50.5 -119.5t-50.5 -119.5t-119.5 -50.5zM425 -225h-531l12 55h531z" />
    <glyph glyph-name="ellipsis" unicode="&#x2026;" horiz-adv-x="741" 
d="M108 0h-100l21 100h100zM363 0h-100l21 100h100zM613 0h-100l21 100h100zM670 -225h-781l12 55h781z" />
    <glyph glyph-name="perthousand" unicode="&#x2030;" horiz-adv-x="1277" 
d="M233 300q-73 0 -112.5 46t-39.5 127q0 103 51.5 167.5t130.5 64.5q71 0 110 -47t39 -127q0 -103 -51 -167t-128 -64zM69 -170l696 870h73l-740 -925h-204l12 55h163zM261 655q-49 0 -84 -49t-35 -130q0 -126 93 -126q47 0 81.5 49.5t34.5 129.5q0 55 -22 90.5t-68 35.5z
M803 400q91 0 129 -76q52 76 139 76q71 0 110 -47t39 -127q0 -103 -51 -167t-128 -64q-95 0 -132 75q-51 -75 -136 -75q-73 0 -112.5 46t-39.5 127q0 103 51.5 167.5t130.5 64.5zM775 45q47 0 81.5 49.5t34.5 129.5q0 55 -22 90.5t-68 35.5q-49 0 -84 -49t-35 -130
q0 -126 93 -126zM1069 350q-49 0 -84 -49t-35 -130q0 -126 93 -126q47 0 81.5 49.5t34.5 129.5q0 55 -22 90.5t-68 35.5zM205 -225l12 55h1005l-12 -55h-1005z" />
    <glyph glyph-name="guilsinglleft" unicode="&#x2039;" horiz-adv-x="311" 
d="M114 276l96 -206h-69l-99 215l190 215h81zM245 -225h-351l12 55h351z" />
    <glyph glyph-name="guilsinglright" unicode="&#x203a;" horiz-adv-x="310" 
d="M266 285l-190 -215h-81l199 224l-96 206h69zM243 -225h-349l12 55h349z" />
    <glyph glyph-name="fraction" unicode="&#x2044;" horiz-adv-x="200" 
d="M-313 -225h-73l740 925h73zM91 -225h-297l12 55h297z" />
    <glyph glyph-name="uni2070" unicode="&#x2070;" horiz-adv-x="409" 
d="M259 410q-73 0 -112.5 46t-39.5 127q0 103 51.5 167.5t130.5 64.5q71 0 110 -47t39 -127q0 -103 -51 -167t-128 -64zM261 460q47 0 81.5 49.5t34.5 129.5q0 55 -22 90.5t-68 35.5q-49 0 -84 -49t-35 -130q0 -126 93 -126zM342 -225h-447l12 55h447z" />
    <glyph glyph-name="uni2074" unicode="&#x2074;" horiz-adv-x="354" 
d="M296 415h-59l20 96h-186l12 56l223 243h74l-54 -252h58l-11 -47h-57zM306 743l-170 -185h131zM289 -225h-393l12 55h393z" />
    <glyph glyph-name="uni2075" unicode="&#x2075;" horiz-adv-x="340" 
d="M222 410q-61 0 -98 31t-37 80h61q2 -28 22 -44.5t51 -16.5q35 0 57 22t22 59q1 28 -18.5 49t-54.5 21q-46 0 -76 -36h-60l95 235h202l-11 -50h-150l-53 -126q27 27 73 27q52 0 83 -33.5t31 -85.5q0 -55 -37 -93.5t-102 -38.5zM275 -225h-380l12 55h380z" />
    <glyph glyph-name="uni2076" unicode="&#x2076;" horiz-adv-x="376" 
d="M233 410q-59 0 -94.5 40.5t-35.5 120.5q0 98 58 171t143 73q59 0 92.5 -31t33.5 -78h-61q-2 29 -22 44t-51 15q-44 0 -77.5 -35.5t-50.5 -96.5q16 21 44 34t56 13q55 0 88.5 -32.5t32.5 -82.5q-1 -61 -44 -108t-112 -47zM238 460q39 0 64.5 28t25.5 70q0 32 -20 52
t-50 20q-38 0 -66 -26.5t-28 -64.5q0 -34 21 -56.5t53 -22.5zM310 -225h-414l12 55h414z" />
    <glyph glyph-name="uni2077" unicode="&#x2077;" horiz-adv-x="292" 
d="M113 760l11 50h267l-11 -52q-82 -33 -138 -121t-56 -222h-61q0 73 18 135.5t46.5 103.5t57.5 67t58 39h-192zM231 -225h-340l12 55h340z" />
    <glyph glyph-name="uni2078" unicode="&#x2078;" horiz-adv-x="366" 
d="M230 410q-56 0 -95 27.5t-39 75.5q0 39 26 66t67 37q-62 27 -62 87q0 49 41.5 80.5t105.5 31.5q60 0 100 -28.5t40 -77.5q0 -40 -30 -70t-74 -36q56 -23 56 -85q0 -49 -39.5 -78.5t-96.5 -29.5zM270 638q38 0 60.5 17.5t22.5 49.5q0 27 -22 43.5t-60 16.5t-60.5 -19
t-22.5 -50q0 -24 21 -41t61 -17zM231 460q34 0 54 19t20 49q0 28 -19.5 44t-51.5 16q-35 0 -56 -18.5t-21 -51.5q0 -25 19.5 -41.5t54.5 -16.5zM300 -225h-405l12 55h405z" />
    <glyph glyph-name="uni2079" unicode="&#x2079;" horiz-adv-x="376" 
d="M208 410q-59 0 -92.5 31t-33.5 78h61q2 -29 22 -44t51 -15q44 0 77.5 35.5t50.5 96.5q-16 -21 -44 -34t-56 -13q-55 0 -88.5 32.5t-32.5 82.5q1 61 44 108t112 47q59 0 94.5 -40.5t35.5 -120.5q0 -98 -58 -171t-143 -73zM254 595q38 0 66 26.5t28 64.5q0 34 -21 56.5
t-53 22.5q-39 0 -64.5 -28t-25.5 -70q0 -33 20 -52.5t50 -19.5zM300 -225h-415l12 55h415z" />
    <glyph glyph-name="uni20A9" unicode="&#x20a9;" horiz-adv-x="921" 
d="M904 700h78l-154 -322h88l-12 -55h-102l-154 -323h-84l-19 323h-156l-155 -323h-86l-18 323h-103l12 55h88l-17 322h73l11 -322h157l155 322h78l19 -322h156zM529 612l-113 -234h126zM196 323l9 -248l119 248h-128zM606 323l15 -252l113 252h-128zM855 -225h-961l12 55
h961z" />
    <glyph glyph-name="Euro" unicode="&#x20ac;" horiz-adv-x="668" 
d="M457 710q96 0 149.5 -62t41.5 -153h-68q8 68 -27 109t-99 41h-10q-77 0 -140.5 -62.5t-92.5 -162.5l216 48l-13 -63l-216 -48q-6 -37 -6 -76v-7l161 37l-13 -63l-143 -33q11 -76 50.5 -118t100.5 -42h10q60 0 106.5 39t64.5 111h68q-56 -215 -248 -215q-85 0 -144.5 55
t-75.5 155l-103 -24l13 63l85 20v9q0 42 4 73l-69 -15l13 63l67 15q32 138 120 222t198 84zM601 -225h-705l12 55h705z" />
    <glyph glyph-name="uni20BF" unicode="&#x20bf;" horiz-adv-x="667" 
d="M377 0h-111l-83 -225h-289l12 55h232l63 170h-165l149 700h257q12 0 18 -1l45 121h65l-49 -131q56 -17 87.5 -58.5t31.5 -98.5q0 -67 -42.5 -119.5t-107.5 -65.5q46 -17 71 -53.5t25 -86.5q0 -85 -59 -146t-150 -61zM432 635h-191l-53 -248h157l91 248h-4zM570 524
q0 80 -72 103l-88 -240h9q64 0 107.5 37t43.5 100zM174 322l-54 -257h105l96 257h-147zM516 214q0 51 -33.5 79.5t-94.5 28.5h-2l-96 -257h77q63 0 106 36t43 113zM601 -225h-334l12 55h334z" />
    <glyph glyph-name="uni2105" unicode="&#x2105;" horiz-adv-x="729" 
d="M211 445q-57 0 -87.5 34t-30.5 94q0 75 44 121t105 46q47 0 79.5 -26t33.5 -73h-57q0 22 -15 38t-42 16q-41 0 -66 -36t-25 -85q0 -40 17 -62t48 -22q25 0 42 14.5t21 38.5h57q-5 -41 -38 -69.5t-86 -28.5zM135 0h-73l560 700h73zM519 -10q-54 0 -88 33.5t-34 90.5
q0 77 42.5 124t102.5 47q51 0 86.5 -32t35.5 -91q0 -76 -42 -124t-103 -48zM520 35q37 0 62 36t25 88q0 36 -17 58.5t-48 22.5q-40 0 -64 -38.5t-24 -84.5q0 -36 17 -59t49 -23zM663 -225h-771l12 55h771z" />
    <glyph glyph-name="uni2113" unicode="&#x2113;" horiz-adv-x="413" 
d="M74 111l24 112l-80 -33l14 66l80 36l57 268q32 150 147 150q52 0 85.5 -38.5t33.5 -108.5q0 -93 -61.5 -173t-182.5 -129l-17 -7l-30 -141q-2 -12 -2 -17q0 -31 37 -31h110l-14 -65h-122q-38 0 -60 22t-22 61q0 13 3 28zM237 551l-48 -225l20 9q76 33 116.5 97t40.5 138
q0 33 -14.5 54t-40.5 21q-55 0 -74 -94zM347 -225h-453l12 55h453z" />
    <glyph glyph-name="uni2116" unicode="&#x2116;" horiz-adv-x="1034" 
d="M890 410q-54 0 -88 33.5t-34 90.5q0 77 42.5 124t102.5 47q51 0 86.5 -32t35.5 -91q0 -76 -42 -124t-103 -48zM497 0l-259 618l-131 -618h-70l149 700h90l256 -607l129 607h70l-149 -700h-85zM913 660q-40 0 -64 -38.5t-24 -84.5q0 -36 17 -59t49 -23q37 0 62 36t25 88
q0 36 -17 58.5t-48 22.5zM986 305h-258l10 45h258zM968 -225h-1074l12 55h1074z" />
    <glyph glyph-name="uni2117" unicode="&#x2117;" horiz-adv-x="905" 
d="M465 -40q-161 0 -275.5 114.5t-114.5 275.5t114.5 275.5t275.5 114.5t275.5 -114.5t114.5 -275.5t-114.5 -275.5t-275.5 -114.5zM465 10q140 0 239 100t99 240t-99 240t-239 100t-239 -100t-99 -240t99 -240t239 -100zM416 167h-61v376h146q61 0 98.5 -28.5t37.5 -86.5
t-38 -85.5t-99 -27.5h-84v-148zM416 493v-128h76q40 0 62 14t22 50t-22 50t-62 14h-76zM836 -225h-939l12 55h939z" />
    <glyph glyph-name="trademark" unicode="&#x2122;" horiz-adv-x="999" 
d="M310 320h-61v330h-132v50h325v-50h-132v-330zM707 320l-109 312v-312h-61v380h96l109 -315l105 315h95v-380h-61v315l-104 -315h-70zM-106 -225l12 55h1039l-12 -55h-1039z" />
    <glyph glyph-name="uni2126" unicode="&#x2126;" horiz-adv-x="791" 
d="M316 0h-235v65h125q-64 35 -97 109t-33 176q0 166 89.5 263t230.5 97t230.5 -97t89.5 -263q0 -102 -33 -176t-97 -109h125v-65h-235v60q82 21 127 96t45 194q0 139 -66 217t-181 78h-10q-115 0 -181 -78t-66 -217q0 -119 45 -194t127 -96v-60zM725 -225h-831l12 55h831z
" />
    <glyph glyph-name="uni2153" unicode="&#x2153;" horiz-adv-x="881" 
d="M-37 -170l696 870h73l-740 -925h-98l12 55h57zM212 305h-58l65 309l-136 -92l13 64l161 114h39zM626 290h-61q3 49 41.5 79.5t97.5 30.5q57 0 92 -29.5t35 -76.5q0 -39 -25.5 -66t-62.5 -33q24 -10 40.5 -33.5t16.5 -50.5q0 -48 -39 -82t-101 -34q-63 0 -98.5 30.5
t-39.5 74.5v8h61q2 -28 21.5 -45.5t51.5 -17.5h6q34 0 56 19.5t22 49.5q0 26 -19 42.5t-49 16.5h-46l11 55h51q38 0 60 17t22 45q0 29 -18 44t-45 16h-4q-32 0 -52.5 -16.5t-24.5 -43.5zM815 -225h-716l12 55h716z" />
    <glyph glyph-name="uni2154" unicode="&#x2154;" horiz-adv-x="973" 
d="M152 355h204l-10 -50h-279l12 60l139 97q5 3 20.5 13.5t21.5 15.5t18.5 15t18.5 17t13 17.5t10 21.5t3 23q0 29 -18 49.5t-54 20.5h-4q-34 0 -57 -19.5t-26 -49.5h-62q3 50 44 84.5t107 34.5q57 0 94 -31.5t37 -83.5q0 -49 -27 -82.5t-80 -68.5zM68 -170l696 870h73
l-740 -925h-203l12 55h162zM720 290h-61q3 49 41.5 79.5t97.5 30.5q57 0 92 -29.5t35 -76.5q0 -39 -25.5 -66t-62.5 -33q24 -10 40.5 -33.5t16.5 -50.5q0 -48 -39 -82t-101 -34q-63 0 -98.5 30.5t-39.5 74.5v8h61q2 -28 21.5 -45.5t51.5 -17.5h6q34 0 56 19.5t22 49.5
q0 26 -19 42.5t-49 16.5h-46l11 55h51q38 0 60 17t22 45q0 29 -18 44t-45 16h-4q-32 0 -52.5 -16.5t-24.5 -43.5zM907 -225h-703l12 55h703z" />
    <glyph glyph-name="uni2155" unicode="&#x2155;" horiz-adv-x="878" 
d="M-36 -170l696 870h73l-740 -925h-99l12 55h58zM212 305h-58l65 309l-136 -92l13 64l161 114h39zM827 395l-11 -50h-150l-53 -126q27 27 73 27q52 0 83 -33.5t31 -85.5q0 -55 -37 -93.5t-102 -38.5q-61 0 -98 31t-37 80h61q2 -28 22 -44.5t51 -16.5q35 0 57 22t22 59
q1 28 -18.5 49t-54.5 21q-46 0 -76 -36h-60l95 235h202zM812 -225h-712l12 55h712z" />
    <glyph glyph-name="uni2156" unicode="&#x2156;" horiz-adv-x="969" 
d="M152 355h204l-10 -50h-279l12 60l139 97q5 3 20.5 13.5t21.5 15.5t18.5 15t18.5 17t13 17.5t10 21.5t3 23q0 29 -18 49.5t-54 20.5h-4q-34 0 -57 -19.5t-26 -49.5h-62q3 50 44 84.5t107 34.5q57 0 94 -31.5t37 -83.5q0 -49 -27 -82.5t-80 -68.5zM68 -170l696 870h73
l-740 -925h-203l12 55h162zM921 395l-11 -50h-150l-53 -126q27 27 73 27q52 0 83 -33.5t31 -85.5q0 -55 -37 -93.5t-102 -38.5q-61 0 -98 31t-37 80h61q2 -28 22 -44.5t51 -16.5q35 0 57 22t22 59q1 28 -18.5 49t-54.5 21q-46 0 -76 -36h-60l95 235h202zM903 -225h-699
l12 55h699z" />
    <glyph glyph-name="uni2157" unicode="&#x2157;" horiz-adv-x="943" 
d="M204 300q-63 0 -98.5 30.5t-39.5 74.5v8h61q2 -28 21.5 -45.5t51.5 -17.5h6q34 0 56 19.5t22 49.5q0 26 -19 42.5t-49 16.5h-46l11 55h51q38 0 60 17t22 45q0 29 -18 44t-45 16h-4q-32 0 -52.5 -16.5t-24.5 -43.5h-61q3 49 41.5 79.5t97.5 30.5q57 0 92 -29.5t35 -76.5
q0 -39 -25.5 -66t-62.5 -33q24 -10 40.5 -33.5t16.5 -50.5q0 -48 -39 -82t-101 -34zM32 -170l696 870h73l-740 -925h-167l12 55h126zM895 395l-11 -50h-150l-53 -126q27 27 73 27q52 0 83 -33.5t31 -85.5q0 -55 -37 -93.5t-102 -38.5q-61 0 -98 31t-37 80h61q2 -28 22 -44.5
t51 -16.5q35 0 57 22t22 59q1 28 -18.5 49t-54.5 21q-46 0 -76 -36h-60l95 235h202zM877 -225h-709l12 55h709z" />
    <glyph glyph-name="uni2158" unicode="&#x2158;" horiz-adv-x="932" 
d="M28 -170l696 870h73l-740 -925h-163l12 55h122zM282 305h-59l20 96h-186l12 56l223 243h74l-54 -252h58l-11 -47h-57zM292 633l-170 -185h131zM881 395l-11 -50h-150l-53 -126q27 27 73 27q52 0 83 -33.5t31 -85.5q0 -55 -37 -93.5t-102 -38.5q-61 0 -98 31t-37 80h61
q2 -28 22 -44.5t51 -16.5q35 0 57 22t22 59q1 28 -18.5 49t-54.5 21q-46 0 -76 -36h-60l95 235h202zM866 -225h-702l12 55h702z" />
    <glyph glyph-name="uni2159" unicode="&#x2159;" horiz-adv-x="894" 
d="M-36 -170l696 870h73l-740 -925h-99l12 55h58zM212 305h-58l65 309l-136 -92l13 64l161 114h39zM527 156q0 98 58 171t143 73q59 0 92.5 -31t33.5 -78h-61q-2 29 -22 44t-51 15q-44 0 -77.5 -35.5t-50.5 -96.5q16 21 44 34t56 13q55 0 88.5 -32.5t32.5 -82.5
q-1 -61 -44 -108t-112 -47q-59 0 -94.5 40.5t-35.5 120.5zM682 215q-38 0 -66 -26.5t-28 -64.5q0 -34 21 -56.5t53 -22.5q39 0 64.5 28t25.5 70q0 33 -20 52.5t-50 19.5zM828 -225h-728l12 55h728z" />
    <glyph glyph-name="uni215A" unicode="&#x215a;" horiz-adv-x="952" 
d="M34 -170l696 870h73l-740 -925h-169l12 55h128zM201 350q35 0 57 22t22 59q1 28 -18.5 49t-54.5 21q-46 0 -76 -36h-60l95 235h202l-11 -50h-150l-53 -126q27 27 73 27q52 0 83 -33.5t31 -85.5q0 -55 -37 -93.5t-102 -38.5q-61 0 -98 31t-37 80h61q2 -28 22 -44.5
t51 -16.5zM587 156q0 98 58 171t143 73q59 0 92.5 -31t33.5 -78h-61q-2 29 -22 44t-51 15q-44 0 -77.5 -35.5t-50.5 -96.5q16 21 44 34t56 13q55 0 88.5 -32.5t32.5 -82.5q-1 -61 -44 -108t-112 -47q-59 0 -94.5 40.5t-35.5 120.5zM742 215q-38 0 -66 -26.5t-28 -64.5
q0 -34 21 -56.5t53 -22.5q39 0 64.5 28t25.5 70q0 33 -20 52.5t-50 19.5zM886 -225h-716l12 55h716z" />
    <glyph glyph-name="oneeighth" unicode="&#x215b;" horiz-adv-x="896" 
d="M-38 -170l696 870h73l-740 -925h-97l12 55h56zM212 305h-58l65 309l-136 -92l13 64l161 114h39zM566 288q0 49 41.5 80.5t105.5 31.5q60 0 100 -28.5t40 -77.5q0 -40 -30 -70t-74 -36q56 -23 56 -85q0 -49 -39.5 -78.5t-96.5 -29.5q-56 0 -95 27.5t-39 75.5q0 39 26 66
t67 37q-62 27 -62 87zM792 290q0 27 -22 43.5t-60 16.5t-60.5 -19t-22.5 -50q0 -24 21 -41t61 -17q38 0 60.5 17.5t22.5 49.5zM670 45q34 0 54 19t20 49q0 28 -19.5 44t-51.5 16q-35 0 -56 -18.5t-21 -51.5q0 -25 19.5 -41.5t54.5 -16.5zM830 -225h-732l12 55h732z" />
    <glyph glyph-name="threeeighths" unicode="&#x215c;" horiz-adv-x="952" 
d="M204 300q-63 0 -98.5 30.5t-39.5 74.5v8h61q2 -28 21.5 -45.5t51.5 -17.5h6q34 0 56 19.5t22 49.5q0 26 -19 42.5t-49 16.5h-46l11 55h51q38 0 60 17t22 45q0 29 -18 44t-45 16h-4q-32 0 -52.5 -16.5t-24.5 -43.5h-61q3 49 41.5 79.5t97.5 30.5q57 0 92 -29.5t35 -76.5
q0 -39 -25.5 -66t-62.5 -33q24 -10 40.5 -33.5t16.5 -50.5q0 -48 -39 -82t-101 -34zM32 -170l696 870h73l-740 -925h-167l12 55h126zM625 288q0 49 41.5 80.5t105.5 31.5q60 0 100 -28.5t40 -77.5q0 -40 -30 -70t-74 -36q56 -23 56 -85q0 -49 -39.5 -78.5t-96.5 -29.5
q-56 0 -95 27.5t-39 75.5q0 39 26 66t67 37q-62 27 -62 87zM851 290q0 27 -22 43.5t-60 16.5t-60.5 -19t-22.5 -50q0 -24 21 -41t61 -17q38 0 60.5 17.5t22.5 49.5zM729 45q34 0 54 19t20 49q0 28 -19.5 44t-51.5 16q-35 0 -56 -18.5t-21 -51.5q0 -25 19.5 -41.5t54.5 -16.5
zM886 -225h-718l12 55h718z" />
    <glyph glyph-name="fiveeighths" unicode="&#x215d;" horiz-adv-x="934" 
d="M14 -170l696 870h73l-740 -925h-149l12 55h108zM201 350q35 0 57 22t22 59q1 28 -18.5 49t-54.5 21q-46 0 -76 -36h-60l95 235h202l-11 -50h-150l-53 -126q27 27 73 27q52 0 83 -33.5t31 -85.5q0 -55 -37 -93.5t-102 -38.5q-61 0 -98 31t-37 80h61q2 -28 22 -44.5
t51 -16.5zM607 288q0 49 41.5 80.5t105.5 31.5q60 0 100 -28.5t40 -77.5q0 -40 -30 -70t-74 -36q56 -23 56 -85q0 -49 -39.5 -78.5t-96.5 -29.5q-56 0 -95 27.5t-39 75.5q0 39 26 66t67 37q-62 27 -62 87zM833 290q0 27 -22 43.5t-60 16.5t-60.5 -19t-22.5 -50q0 -24 21 -41
t61 -17q38 0 60.5 17.5t22.5 49.5zM711 45q34 0 54 19t20 49q0 28 -19.5 44t-51.5 16q-35 0 -56 -18.5t-21 -51.5q0 -25 19.5 -41.5t54.5 -16.5zM868 -225h-718l12 55h718z" />
    <glyph glyph-name="seveneighths" unicode="&#x215e;" horiz-adv-x="870" 
d="M-55 -170l696 870h73l-740 -925h-80l12 55h39zM181 305h-61q0 73 18 135.5t46.5 103.5t57.5 67t58 39h-192l11 50h267l-11 -52q-82 -33 -138 -121t-56 -222zM538 288q0 49 41.5 80.5t105.5 31.5q60 0 100 -28.5t40 -77.5q0 -40 -30 -70t-74 -36q56 -23 56 -85
q0 -49 -39.5 -78.5t-96.5 -29.5q-56 0 -95 27.5t-39 75.5q0 39 26 66t67 37q-62 27 -62 87zM764 290q0 27 -22 43.5t-60 16.5t-60.5 -19t-22.5 -50q0 -24 21 -41t61 -17q38 0 60.5 17.5t22.5 49.5zM642 45q34 0 54 19t20 49q0 28 -19.5 44t-51.5 16q-35 0 -56 -18.5
t-21 -51.5q0 -25 19.5 -41.5t54.5 -16.5zM804 -225h-723l12 55h723z" />
    <glyph glyph-name="uni215F" unicode="&#x215f;" horiz-adv-x="647" 
d="M-40 -170l696 870h73l-740 -925h-95l12 55h54zM198 305h-58l65 309l-136 -92l13 64l161 114h39zM581 -225h-485l12 55h485z" />
    <glyph glyph-name="uni2160" unicode="&#x2160;" horiz-adv-x="461" 
d="M350 0h-364l12 55h148l125 590h-148l12 55h364l-12 -55h-148l-125 -590h148zM395 -225h-501l12 55h501z" />
    <glyph glyph-name="uni2161" unicode="&#x2161;" horiz-adv-x="746" 
d="M635 0h-649l12 55h148l125 590h-148l12 55h649l-12 -55h-148l-125 -590h148zM339 645l-125 -590h217l125 590h-217zM680 -225h-786l12 55h786z" />
    <glyph glyph-name="uni2162" unicode="&#x2162;" horiz-adv-x="1031" 
d="M920 0h-934l12 55h148l125 590h-148l12 55h934l-12 -55h-148l-125 -590h148zM339 645l-125 -590h217l125 590h-217zM624 645l-125 -590h217l125 590h-217zM965 -225h-1071l12 55h1071z" />
    <glyph glyph-name="uni2163" unicode="&#x2163;" horiz-adv-x="1042" 
d="M824 700h287l-12 -55h-92l-329 -590h167l-12 -55h-844l12 55h148l125 590h-148l12 55h541l-12 -55h-116l67 -573l314 573h-120zM217 55h339l-71 590h-143zM976 -225h-1082l12 55h1082z" />
    <glyph glyph-name="uni2164" unicode="&#x2164;" horiz-adv-x="777" 
d="M541 700h287l-12 -55h-92l-329 -590h167l-12 -55h-455l12 55h166l-71 590h-91l12 55h273l-12 -55h-116l67 -573l314 573h-120zM711 -225h-817l12 55h817z" />
    <glyph glyph-name="uni2165" unicode="&#x2165;" horiz-adv-x="1034" 
d="M1071 700l-12 -55h-148l-125 -590h148l-12 -55h-829l12 55h166l-71 590h-91l12 55h273l-12 -55h-116l67 -573l314 573h-120l12 55h532zM718 55l125 590h-121l-329 -590h325zM968 -225h-1074l12 55h1074z" />
    <glyph glyph-name="uni2166" unicode="&#x2166;" horiz-adv-x="1317" 
d="M1354 700l-12 -55h-148l-125 -590h148l-12 -55h-1112l12 55h166l-71 590h-91l12 55h273l-12 -55h-116l67 -573l314 573h-120l12 55h815zM716 55l125 590h-119l-329 -590h323zM784 55h217l125 590h-217zM1251 -225h-1357l12 55h1357z" />
    <glyph glyph-name="uni2167" unicode="&#x2167;" horiz-adv-x="1600" 
d="M1637 700l-12 -55h-148l-125 -590h148l-12 -55h-1395l12 55h166l-71 590h-91l12 55h273l-12 -55h-116l67 -573l314 573h-120l12 55h1098zM714 55l125 590h-117l-329 -590h321zM907 645l-125 -590h217l125 590h-217zM1067 55h217l125 590h-217zM1534 -225h-1640l12 55
h1640z" />
    <glyph glyph-name="uni2168" unicode="&#x2168;" horiz-adv-x="1012" 
d="M1058 700l-12 -55h-114l-248 -293l134 -297h114l-12 -55h-934l12 55h148l125 590h-148l12 55h923zM214 55h139l258 305l-129 285h-143zM551 645l105 -232l197 232h-302zM432 55h317l-110 244zM946 -225h-1052l12 55h1052z" />
    <glyph glyph-name="uni2169" unicode="&#x2169;" horiz-adv-x="760" 
d="M668 0h-698l12 55h119l258 305l-129 285h-114l12 55h678l-12 -55h-114l-248 -293l134 -297h114zM299 645l105 -232l197 232h-302zM387 299l-207 -244h317zM694 -225h-800l12 55h800z" />
    <glyph glyph-name="uni216C" unicode="&#x216c;" horiz-adv-x="662" 
d="M559 0h-573l12 55h148l125 590h-148l12 55h364l-12 -55h-148l-125 -590h292l41 195h65zM596 -225h-702l12 55h702z" />
    <glyph glyph-name="uni216D" unicode="&#x216d;" horiz-adv-x="703" 
d="M323 -10q-115 0 -185.5 81.5t-70.5 222.5q0 174 101 295t245 121q67 0 124.5 -28.5t88.5 -88.5l23 107h66l-48 -215h-59q-22 77 -69 123.5t-116 46.5h-12q-112 0 -194 -107t-82 -253q0 -105 50 -177.5t134 -72.5h13q73 0 128.5 46t91.5 124h62l-46 -215h-65l17 78
q-70 -88 -197 -88zM637 -225h-743l12 55h743z" />
    <glyph glyph-name="uni216E" unicode="&#x216e;" horiz-adv-x="714" 
d="M318 0h-331l12 55h110l125 590h-110l12 55h221q160 0 237.5 -82t77.5 -209q0 -186 -103 -297.5t-251 -111.5zM302 645l-125 -590h131q57 0 105.5 19.5t83 54t59 80t36.5 97t12 106.5q0 103 -62.5 168t-173.5 65h-66zM648 -225h-754l12 55h754z" />
    <glyph glyph-name="uni216F" unicode="&#x216f;" horiz-adv-x="1003" 
d="M246 0h-259l12 55h116l125 590h-116l12 55h221l99 -628l359 628h226l-12 -55h-116l-125 -590h116l-12 -55h-256l12 55h75l122 577l-361 -632h-81l-98 630l-122 -575h75zM937 -225h-1043l12 55h1043z" />
    <glyph glyph-name="arrowleft" unicode="&#x2190;" horiz-adv-x="780" 
d="M374 87l-48 -48l-311 311l311 311l48 -48l-229 -229h610v-68h-610zM714 -225h-820l12 55h820z" />
    <glyph glyph-name="arrowup" unicode="&#x2191;" horiz-adv-x="742" 
d="M405 0h-68v610l-229 -229l-48 48l311 311l311 -311l-48 -48l-229 229v-610zM676 -225h-782l12 55h782z" />
    <glyph glyph-name="arrowright" unicode="&#x2192;" horiz-adv-x="780" 
d="M765 350l-311 -311l-48 48l229 229h-610v68h610l-229 229l48 48zM714 -225h-820l12 55h820z" />
    <glyph glyph-name="arrowdown" unicode="&#x2193;" horiz-adv-x="742" 
d="M682 271l-311 -311l-311 311l48 48l229 -229v610h68v-610l229 229zM676 -225h-782l12 55h782z" />
    <glyph glyph-name="uni2196" unicode="&#x2196;" horiz-adv-x="660" 
d="M608 201l-48 -48l-429 431v-323h-68v439h439v-68h-323zM594 -225h-700l12 55h700z" />
    <glyph glyph-name="uni2197" unicode="&#x2197;" horiz-adv-x="660" 
d="M529 584l-429 -431l-48 48l429 431h-323v68h439v-439h-68v323zM594 -225h-700l12 55h700z" />
    <glyph glyph-name="uni2198" unicode="&#x2198;" horiz-adv-x="660" 
d="M597 0h-439v68h323l-429 431l48 48l429 -431v323h68v-439zM594 -225h-700l12 55h700z" />
    <glyph glyph-name="uni2199" unicode="&#x2199;" horiz-adv-x="660" 
d="M502 0h-439v439h68v-323l429 431l48 -48l-429 -431h323v-68zM594 -225h-700l12 55h700z" />
    <glyph glyph-name="uni21A4" unicode="&#x21a4;" horiz-adv-x="825" 
d="M150 317l229 -229l-48 -48l-311 311l311 311l48 -48l-229 -229h545v215h65v-500h-65v217h-545zM-106 -225l12 55h865l-12 -55h-865z" />
    <glyph glyph-name="uni21A5" unicode="&#x21a5;" horiz-adv-x="742" 
d="M336 65v545l-229 -229l-48 48l311 311l311 -311l-48 -48l-229 229v-545h217v-65h-500v65h215zM-106 -225l12 55h782l-12 -55h-782z" />
    <glyph glyph-name="uni21A6" unicode="&#x21a6;" horiz-adv-x="835" 
d="M685 317h-545v-217h-65v500h65v-215h545l-229 229l48 48l311 -311l-311 -311l-48 48zM769 -225h-875l12 55h875z" />
    <glyph glyph-name="uni21A7" unicode="&#x21a7;" horiz-adv-x="742" 
d="M633 319l48 -48l-311 -311l-311 311l48 48l229 -229v545h-215v65h500v-65h-217v-545zM-106 -225l12 55h782l-12 -55h-782z" />
    <glyph glyph-name="uni21B0" unicode="&#x21b0;" horiz-adv-x="825" 
d="M140 316l229 -229l-48 -48l-311 311l311 311l48 -48l-229 -229h610v-384h-68v316h-542zM-106 -225l12 55h865l-12 -55h-865z" />
    <glyph glyph-name="uni21B1" unicode="&#x21b1;" horiz-adv-x="825" 
d="M685 316h-542v-316h-68v384h610l-229 229l48 48l311 -311l-311 -311l-48 48zM759 -225h-865l12 55h865z" />
    <glyph glyph-name="uni21B2" unicode="&#x21b2;" horiz-adv-x="825" 
d="M140 316l229 -229l-48 -48l-311 311l311 311l48 -48l-229 -229h542v316h68v-384h-610zM-106 -225l12 55h865l-12 -55h-865z" />
    <glyph glyph-name="uni21B3" unicode="&#x21b3;" horiz-adv-x="825" 
d="M456 87l229 229h-610v384h68v-316h542l-229 229l48 48l311 -311l-311 -311zM759 -225h-865l12 55h865z" />
    <glyph glyph-name="partialdiff" unicode="&#x2202;" horiz-adv-x="563" 
d="M271 -10q-106 0 -166.5 68.5t-60.5 182.5q0 108 60 176t158 68q111 0 163 -70l-3 23q-15 103 -78 155t-142 52q-52 0 -93 -15v65q45 15 101 15q142 0 216.5 -113.5t74.5 -294.5q0 -157 -62.5 -234.5t-167.5 -77.5zM269 55h5q68 0 113.5 48t45.5 137q0 90 -44 137.5
t-115 47.5h-10q-70 0 -111 -46.5t-41 -137.5t43.5 -138.5t113.5 -47.5zM497 -225h-603l12 55h603z" />
    <glyph glyph-name="uni2206" unicode="&#x2206;" horiz-adv-x="665" 
d="M268 700h74l270 -630v-70h-614v70zM542 65l-237 554l-238 -554h475zM599 -225h-705l12 55h705z" />
    <glyph glyph-name="product" unicode="&#x220f;" horiz-adv-x="745" 
d="M290 0h-68v635h-104v65h615v-65h-103v-635h-68v635h-272v-635zM679 -225h-785l12 55h785z" />
    <glyph glyph-name="summation" unicode="&#x2211;" horiz-adv-x="630" 
d="M198 65h341v-65h-425v66l204 284l-204 287v63h425v-65h-341l206 -285zM-106 -225l12 55h670l-12 -55h-670z" />
    <glyph glyph-name="minus" unicode="&#x2212;" horiz-adv-x="655" 
d="M567 225h-494v65h494v-65zM589 -225h-695l12 55h695z" />
    <glyph glyph-name="uni2215" unicode="&#x2215;" horiz-adv-x="376" 
d="M-59 -225h-74l476 925h74zM310 -225h-277l12 55h277z" />
    <glyph glyph-name="uni2219" unicode="&#x2219;" 
d="M244 180q-69 0 -119.5 50.5t-50.5 119.5t50.5 119.5t119.5 50.5t119.5 -50.5t50.5 -119.5t-50.5 -119.5t-119.5 -50.5zM534 -225h-640l12 55h640z" />
    <glyph glyph-name="radical" unicode="&#x221a;" horiz-adv-x="617" 
d="M275 79l144 621h253v-62h-201l-155 -638h-79l-175 500h68zM551 -225h-657l12 55h657z" />
    <glyph glyph-name="infinity" unicode="&#x221e;" horiz-adv-x="854" 
d="M248 170q-75 0 -125 52.5t-50 137.5t50 137.5t125 52.5q36 0 63.5 -9t52 -31.5t38.5 -40t39 -53.5q26 37 39.5 53.5t37.5 39.5t51.5 32t63.5 9q75 0 125 -52.5t50 -137.5t-50 -137.5t-125 -52.5q-36 0 -63.5 8.5t-51 29.5t-38 39t-39.5 53q-24 -34 -39 -52.5t-39 -39
t-51.5 -29.5t-63.5 -9zM248 235h5q44 0 77 30.5t73 94.5q-40 64 -73 94.5t-77 30.5h-5q-51 0 -79 -32.5t-28 -92.5t28 -92.5t79 -32.5zM628 235h5q51 0 79 32.5t28 92.5t-28 92.5t-79 32.5h-5q-44 0 -77 -30.5t-73 -94.5q40 -64 73 -94.5t77 -30.5zM788 -225h-894l12 55h894
z" />
    <glyph glyph-name="integral" unicode="&#x222b;" horiz-adv-x="292" 
d="M-5 -225h-125l12 55h108q61 0 86 27.5t25 92.5v560q0 190 174 190h40v-65h-35q-61 0 -86 -27.5t-25 -92.5v-550q0 -190 -174 -190zM225 -225h-29l12 55h29z" />
    <glyph glyph-name="approxequal" unicode="&#x2248;" horiz-adv-x="726" 
d="M460 278q-36 0 -120.5 40.5t-101.5 40.5q-63 0 -63 -71h-65v25q0 50 32.5 82.5t87.5 32.5q36 0 120.5 -40.5t101.5 -40.5q63 0 63 66h65v-25q0 -50 -31 -80t-89 -30zM460 88q-36 0 -120.5 40.5t-101.5 40.5q-63 0 -63 -71h-65v25q0 50 32.5 82.5t87.5 32.5
q36 0 120.5 -40.5t101.5 -40.5q63 0 63 66h65v-25q0 -50 -31 -80t-89 -30zM660 -225h-766l12 55h766z" />
    <glyph glyph-name="notequal" unicode="&#x2260;" horiz-adv-x="695" 
d="M301 15h-71l37 119h-174v65h194l36 116h-230v65h250l37 120h71l-37 -120h173v-65h-193l-36 -116h229v-65h-249zM-106 -225l12 55h735l-12 -55h-735z" />
    <glyph glyph-name="lessequal" unicode="&#x2264;" horiz-adv-x="746" 
d="M172 321l422 -117v-74l-494 152v76l494 152v-72zM100 90h494v-65h-494v65zM-106 -225l12 55h786l-12 -55h-786z" />
    <glyph glyph-name="greaterequal" unicode="&#x2265;" horiz-adv-x="761" 
d="M117 510l494 -152v-76l-494 -152v72l422 117l-422 117v74zM117 90h494v-65h-494v65zM-106 -225l12 55h801l-12 -55h-801z" />
    <glyph glyph-name="angleleft" unicode="&#x2329;" horiz-adv-x="381" 
d="M455 785l-329 -446l158 -509h43l-12 -55h-85l-179 575l320 435h84z" />
    <glyph glyph-name="angleright" unicode="&#x232a;" horiz-adv-x="377" 
d="M161 785h71l136 -435l-423 -575h-84l432 586z" />
    <glyph glyph-name="uni2460" unicode="&#x2460;" horiz-adv-x="880" 
d="M440 -40q-161 0 -275.5 114.5t-114.5 275.5t114.5 275.5t275.5 114.5t275.5 -114.5t114.5 -275.5t-114.5 -275.5t-275.5 -114.5zM440 10q140 0 239 100t99 240t-99 240t-239 100t-239 -100t-99 -240t99 -240t239 -100zM483 155h-57v320l-117 -94v59l136 110h38v-395z
M814 -225h-920l12 55h920z" />
    <glyph glyph-name="uni2461" unicode="&#x2461;" horiz-adv-x="880" 
d="M440 -40q-161 0 -275.5 114.5t-114.5 275.5t114.5 275.5t275.5 114.5t275.5 -114.5t114.5 -275.5t-114.5 -275.5t-275.5 -114.5zM440 10q140 0 239 100t99 240t-99 240t-239 100t-239 -100t-99 -240t99 -240t239 -100zM568 155h-266v68l126 110q47 42 61 60.5t14 46.5
q0 29 -18.5 47t-46.5 18h-5q-25 0 -46.5 -19t-21.5 -50h-61q0 54 39 86.5t94 32.5q56 0 91.5 -31t35.5 -84q0 -28 -13 -53.5t-26 -38t-40 -36.5l-123 -107h206v-50zM814 -225h-920l12 55h920z" />
    <glyph glyph-name="uni2462" unicode="&#x2462;" horiz-adv-x="880" 
d="M440 -40q-161 0 -275.5 114.5t-114.5 275.5t114.5 275.5t275.5 114.5t275.5 -114.5t114.5 -275.5t-114.5 -275.5t-275.5 -114.5zM440 10q140 0 239 100t99 240t-99 240t-239 100t-239 -100t-99 -240t99 -240t239 -100zM435 150q-56 0 -95 30.5t-39 83.5h61
q1 -29 20.5 -46.5t49.5 -17.5h5q33 0 54.5 18.5t21.5 50.5q0 29 -19 45.5t-48 16.5h-44v47h46q28 0 45 16t17 45q0 32 -19 49t-51 17h-5q-30 0 -47.5 -16.5t-19.5 -43.5h-61q0 52 38.5 81t94.5 29q55 0 93 -29t38 -81q0 -64 -55 -91q58 -24 58 -91q0 -51 -41.5 -82
t-97.5 -31zM814 -225h-920l12 55h920z" />
    <glyph glyph-name="uni2463" unicode="&#x2463;" horiz-adv-x="880" 
d="M440 -40q-161 0 -275.5 114.5t-114.5 275.5t114.5 275.5t275.5 114.5t275.5 -114.5t114.5 -275.5t-114.5 -275.5t-275.5 -114.5zM440 10q140 0 239 100t99 240t-99 240t-239 100t-239 -100t-99 -240t99 -240t239 -100zM509 155h-56v96h-185v56l179 243h62v-249h54v-50
h-54v-96zM453 477l-127 -176h127v176zM814 -225h-920l12 55h920z" />
    <glyph glyph-name="uni2464" unicode="&#x2464;" horiz-adv-x="880" 
d="M440 -40q-161 0 -275.5 114.5t-114.5 275.5t114.5 275.5t275.5 114.5t275.5 -114.5t114.5 -275.5t-114.5 -275.5t-275.5 -114.5zM440 10q140 0 239 100t99 240t-99 240t-239 100t-239 -100t-99 -240t99 -240t239 -100zM428 150q-60 0 -97.5 28.5t-41.5 82.5h61
q4 -30 25.5 -45.5t51.5 -15.5h4q32 0 52.5 22.5t20.5 57.5q0 34 -20 53.5t-52 19.5h-3q-43 0 -71 -34h-53l45 231h209v-50h-165l-26 -125q30 28 74 28q56 0 89.5 -34t33.5 -87q0 -60 -39 -96t-98 -36zM814 -225h-920l12 55h920z" />
    <glyph glyph-name="uni2465" unicode="&#x2465;" horiz-adv-x="880" 
d="M440 -40q-161 0 -275.5 114.5t-114.5 275.5t114.5 275.5t275.5 114.5t275.5 -114.5t114.5 -275.5t-114.5 -275.5t-275.5 -114.5zM440 10q140 0 239 100t99 240t-99 240t-239 100t-239 -100t-99 -240t99 -240t239 -100zM428 150q-68 0 -106.5 50.5t-38.5 140.5
q0 97 46 155.5t115 58.5q63 0 98 -33.5t35 -76.5h-59q-5 27 -24.5 43t-47.5 16h-6q-40 0 -69 -38t-34 -102q12 25 41.5 40.5t65.5 15.5q52 0 89.5 -35.5t37.5 -93.5q0 -62 -38.5 -101.5t-104.5 -39.5zM428 200h3q35 0 58 24t23 61t-22 61t-57 24h-3q-35 0 -57.5 -24
t-22.5 -61t22 -61t56 -24zM814 -225h-920l12 55h920z" />
    <glyph glyph-name="uni2466" unicode="&#x2466;" horiz-adv-x="880" 
d="M440 -40q-161 0 -275.5 114.5t-114.5 275.5t114.5 275.5t275.5 114.5t275.5 -114.5t114.5 -275.5t-114.5 -275.5t-275.5 -114.5zM440 10q140 0 239 100t99 240t-99 240t-239 100t-239 -100t-99 -240t99 -240t239 -100zM439 155h-61v36q0 110 40.5 187.5t104.5 121.5h-212
v50h266v-53q-138 -115 -138 -306v-36zM814 -225h-920l12 55h920z" />
    <glyph glyph-name="uni2467" unicode="&#x2467;" horiz-adv-x="880" 
d="M440 -40q-161 0 -275.5 114.5t-114.5 275.5t114.5 275.5t275.5 114.5t275.5 -114.5t114.5 -275.5t-114.5 -275.5t-275.5 -114.5zM440 10q140 0 239 100t99 240t-99 240t-239 100t-239 -100t-99 -240t99 -240t239 -100zM437 150q-55 0 -93.5 28t-38.5 78q0 64 67 93
q-32 13 -52.5 38.5t-20.5 57.5q0 51 39 80.5t101 29.5t101.5 -29.5t39.5 -80.5q0 -66 -73 -96q63 -29 63 -93q0 -50 -39 -78t-94 -28zM435 377h5q32 0 55.5 16.5t23.5 46.5q0 31 -22 48t-55 17h-5q-33 0 -55 -17t-22 -48q0 -30 22 -46.5t53 -16.5zM435 200h5q29 0 49 17.5
t20 47.5q0 28 -20 46t-49 18h-5q-29 0 -49 -18t-20 -46q0 -30 20 -47.5t49 -17.5zM814 -225h-920l12 55h920z" />
    <glyph glyph-name="uni2468" unicode="&#x2468;" horiz-adv-x="880" 
d="M440 -40q-161 0 -275.5 114.5t-114.5 275.5t114.5 275.5t275.5 114.5t275.5 -114.5t114.5 -275.5t-114.5 -275.5t-275.5 -114.5zM440 10q140 0 239 100t99 240t-99 240t-239 100t-239 -100t-99 -240t99 -240t239 -100zM431 150q-63 0 -98 33.5t-35 76.5h59
q5 -27 24.5 -43t47.5 -16h6q40 0 69 38t34 102q-12 -25 -41.5 -40.5t-65.5 -15.5q-52 0 -89.5 35.5t-37.5 93.5q0 62 38.5 101.5t104.5 39.5q68 0 106.5 -50.5t38.5 -140.5q0 -97 -46 -155.5t-115 -58.5zM442 335h3q35 0 57.5 24t22.5 61t-22 61t-56 24h-3q-35 0 -58 -24
t-23 -61t22 -61t57 -24zM814 -225h-920l12 55h920z" />
    <glyph glyph-name="uni24EA" unicode="&#x24ea;" horiz-adv-x="880" 
d="M440 -40q-161 0 -275.5 114.5t-114.5 275.5t114.5 275.5t275.5 114.5t275.5 -114.5t114.5 -275.5t-114.5 -275.5t-275.5 -114.5zM440 10q140 0 239 100t99 240t-99 240t-239 100t-239 -100t-99 -240t99 -240t239 -100zM440 149q-75 0 -118.5 55t-43.5 147t43.5 147.5
t118.5 55.5t118.5 -55.5t43.5 -147.5t-43.5 -147t-118.5 -55zM438 199h4q48 0 73.5 45t25.5 107t-25.5 107.5t-73.5 45.5h-4q-48 0 -73.5 -45.5t-25.5 -107.5t25.5 -107t73.5 -45zM814 -225h-920l12 55h920z" />
    <glyph glyph-name="uni24FF" unicode="&#x24ff;" horiz-adv-x="880" 
d="M440 -40q-160 0 -275 115t-115 275q0 161 114.5 275.5t275.5 114.5t275.5 -114.5t114.5 -275.5t-114.5 -275.5t-275.5 -114.5zM440 149q75 0 118.5 55t43.5 147t-43.5 147.5t-118.5 55.5t-118.5 -55.5t-43.5 -147.5t43.5 -147t118.5 -55zM442 199h-4q-48 0 -73.5 45
t-25.5 107t25.5 107.5t73.5 45.5h4q48 0 73.5 -45.5t25.5 -107.5t-25.5 -107t-73.5 -45zM814 -225h-920l12 55h920z" />
    <glyph glyph-name="triagup" unicode="&#x25b2;" horiz-adv-x="840" 
d="M825 0h-810l405 720zM812 -225h-918l12 55h918z" />
    <glyph glyph-name="lozenge" unicode="&#x25ca;" horiz-adv-x="615" 
d="M345 0h-70l-240 350l240 350h70l235 -350zM115 350l195 -282l195 282l-195 287zM549 -225h-655l12 55h655z" />
    <glyph glyph-name="uni2776" unicode="&#x2776;" horiz-adv-x="880" 
d="M440 -40q-160 0 -275 115t-115 275q0 161 114.5 275.5t275.5 114.5t275.5 -114.5t114.5 -275.5t-114.5 -275.5t-275.5 -114.5zM426 475v-320h57v395h-38l-136 -110v-59zM814 -225h-920l12 55h920z" />
    <glyph glyph-name="uni2777" unicode="&#x2777;" horiz-adv-x="880" 
d="M440 -40q-160 0 -275 115t-115 275q0 161 114.5 275.5t275.5 114.5t275.5 -114.5t114.5 -275.5t-114.5 -275.5t-275.5 -114.5zM302 223v-68h266v50h-206l123 107q27 24 40 36.5t26 38t13 53.5q0 53 -35.5 84t-91.5 31q-55 0 -94 -32.5t-39 -86.5h61q0 31 21.5 50t46.5 19
h5q28 0 46.5 -18t18.5 -47q0 -28 -14 -46.5t-61 -60.5zM814 -225h-920l12 55h920z" />
    <glyph glyph-name="uni2778" unicode="&#x2778;" horiz-adv-x="880" 
d="M440 -40q-160 0 -275 115t-115 275q0 161 114.5 275.5t275.5 114.5t275.5 -114.5t114.5 -275.5t-114.5 -275.5t-275.5 -114.5zM435 150q56 0 97.5 31t41.5 82q0 67 -58 91q55 27 55 91q0 52 -38 81t-93 29q-56 0 -94.5 -29t-38.5 -81h61q2 27 19.5 43.5t47.5 16.5h5
q32 0 51 -17t19 -49q0 -29 -17 -45t-45 -16h-46v-47h44q29 0 48 -16.5t19 -45.5q0 -32 -21.5 -50.5t-54.5 -18.5h-5q-30 0 -49.5 17.5t-20.5 46.5h-61q0 -53 39 -83.5t95 -30.5zM814 -225h-920l12 55h920z" />
    <glyph glyph-name="uni2779" unicode="&#x2779;" horiz-adv-x="880" 
d="M440 -40q-160 0 -275 115t-115 275q0 161 114.5 275.5t275.5 114.5t275.5 -114.5t114.5 -275.5t-114.5 -275.5t-275.5 -114.5zM453 251v-96h56v96h54v50h-54v249h-62l-179 -243v-56h185zM453 301h-127l127 176v-176zM814 -225h-920l12 55h920z" />
    <glyph glyph-name="uni277A" unicode="&#x277a;" horiz-adv-x="880" 
d="M440 -40q-160 0 -275 115t-115 275q0 161 114.5 275.5t275.5 114.5t275.5 -114.5t114.5 -275.5t-114.5 -275.5t-275.5 -114.5zM428 150q59 0 98 36t39 96q0 53 -33.5 87t-89.5 34q-44 0 -74 -28l26 125h165v50h-209l-45 -231h53q28 34 71 34h3q32 0 52 -19.5t20 -53.5
q0 -35 -20.5 -57.5t-52.5 -22.5h-4q-30 0 -51.5 15.5t-25.5 45.5h-61q4 -54 41.5 -82.5t97.5 -28.5zM814 -225h-920l12 55h920z" />
    <glyph glyph-name="uni277B" unicode="&#x277b;" horiz-adv-x="880" 
d="M440 -40q-160 0 -275 115t-115 275q0 161 114.5 275.5t275.5 114.5t275.5 -114.5t114.5 -275.5t-114.5 -275.5t-275.5 -114.5zM428 150q66 0 104.5 39.5t38.5 101.5q0 58 -37.5 93.5t-89.5 35.5q-36 0 -65.5 -15.5t-41.5 -40.5q5 64 34 102t69 38h6q28 0 47.5 -16
t24.5 -43h59q0 43 -35 76.5t-98 33.5q-69 0 -115 -58.5t-46 -155.5q0 -90 38.5 -140.5t106.5 -50.5zM431 200h-3q-34 0 -56 24t-22 61t22.5 61t57.5 24h3q35 0 57 -24t22 -61t-23 -61t-58 -24zM814 -225h-920l12 55h920z" />
    <glyph glyph-name="uni277C" unicode="&#x277c;" horiz-adv-x="880" 
d="M440 -40q-160 0 -275 115t-115 275q0 161 114.5 275.5t275.5 114.5t275.5 -114.5t114.5 -275.5t-114.5 -275.5t-275.5 -114.5zM378 191v-36h61v36q0 191 138 306v53h-266v-50h212q-64 -44 -104.5 -121.5t-40.5 -187.5zM814 -225h-920l12 55h920z" />
    <glyph glyph-name="uni277D" unicode="&#x277d;" horiz-adv-x="880" 
d="M440 -40q-160 0 -275 115t-115 275q0 161 114.5 275.5t275.5 114.5t275.5 -114.5t114.5 -275.5t-114.5 -275.5t-275.5 -114.5zM437 150q55 0 94 28t39 78q0 64 -63 93q73 30 73 96q0 51 -39.5 80.5t-101.5 29.5t-101 -29.5t-39 -80.5q0 -32 20.5 -57.5t52.5 -38.5
q-67 -29 -67 -93q0 -50 38.5 -78t93.5 -28zM440 377h-5q-31 0 -53 16.5t-22 46.5q0 31 22 48t55 17h5q33 0 55 -17t22 -48q0 -30 -23.5 -46.5t-55.5 -16.5zM440 200h-5q-29 0 -49 17.5t-20 47.5q0 28 20 46t49 18h5q29 0 49 -18t20 -46q0 -30 -20 -47.5t-49 -17.5zM814 -225
h-920l12 55h920z" />
    <glyph glyph-name="uni277E" unicode="&#x277e;" horiz-adv-x="880" 
d="M440 -40q-160 0 -275 115t-115 275q0 161 114.5 275.5t275.5 114.5t275.5 -114.5t114.5 -275.5t-114.5 -275.5t-275.5 -114.5zM431 150q69 0 115 58.5t46 155.5q0 90 -38.5 140.5t-106.5 50.5q-66 0 -104.5 -39.5t-38.5 -101.5q0 -58 37.5 -93.5t89.5 -35.5
q36 0 65.5 15.5t41.5 40.5q-5 -64 -34 -102t-69 -38h-6q-28 0 -47.5 16t-24.5 43h-59q0 -43 35 -76.5t98 -33.5zM445 335h-3q-35 0 -57 24t-22 61t23 61t58 24h3q34 0 56 -24t22 -61t-22.5 -61t-57.5 -24zM814 -225h-920l12 55h920z" />
    <glyph glyph-name="uni300A" unicode="&#x300a;" horiz-adv-x="492" 
d="M418 785l-329 -446l158 -509h232l-12 -55h-274l-179 575l320 435h84zM420 -85h-71l-136 435l320 435h84l-329 -446z" />
    <glyph glyph-name="uni300B" unicode="&#x300b;" horiz-adv-x="492" 
d="M295 785h71l136 -435l-423 -575h-240l12 55h184l392 531zM303 350l-320 -435h-84l329 446l-132 424h71z" />
    <glyph glyph-name="uni300C" unicode="&#x300c;" horiz-adv-x="302" 
d="M162 389h-62l97 456h201l-12 -55h-139zM236 -225h-342l12 55h342z" />
    <glyph glyph-name="uni300D" unicode="&#x300d;" horiz-adv-x="316" 
d="M140 -225h-246l12 55h184l102 481h62z" />
    <glyph glyph-name="uni300E" unicode="&#x300e;" horiz-adv-x="425" 
d="M275 333h-192l110 512h328l-35 -165h-137zM245 790l-86 -402h63l74 347h137l12 55h-200zM359 -225h-465l12 55h465z" />
    <glyph glyph-name="uni300F" unicode="&#x300f;" horiz-adv-x="440" 
d="M117 -60l91 427h192l-127 -592h-379l12 55h51l23 110h137zM221 -170l103 482h-63l-91 -427h-137l-12 -55h200z" />
    <glyph glyph-name="uni3010" unicode="&#x3010;" horiz-adv-x="393" 
d="M210 845h261q-156 -138 -235.5 -304t-79.5 -334q0 -46 7.5 -94.5t26 -100t46 -91.5t71.5 -65.5t98 -25.5l-12 -55h-411l12 55z" />
    <glyph glyph-name="uni3011" unicode="&#x3011;" horiz-adv-x="362" 
d="M129 846h259l-217 -1016l-12 -55h-379l12 55q79 0 151 42t123 109.5t89 151.5t56.5 169.5t18.5 161.5q0 103 -25 205.5t-76 176.5z" />
    <glyph glyph-name="uni3014" unicode="&#x3014;" horiz-adv-x="386" 
d="M213 653l-132 -621l134 -202h93l-12 -55h-127l-162 242l141 666l179 162h96z" />
    <glyph glyph-name="uni3015" unicode="&#x3015;" horiz-adv-x="397" 
d="M223 846h83l109 -162l-141 -666l-268 -243h-136l12 55h88l239 218l132 621z" />
    <glyph glyph-name="uniE000" unicode="&#xe000;" horiz-adv-x="540" 
d="M470 150h-400v400h400v-400zM145 475v-250h250v250h-250zM474 -225h-580l12 55h580z" />
    <glyph glyph-name="uniE001" unicode="&#xe001;" horiz-adv-x="690" 
d="M620 75h-550v550h550v-550zM145 550v-400h400v400h-400zM624 -225h-730l12 55h730z" />
    <glyph glyph-name="uniE002" unicode="&#xe002;" horiz-adv-x="880" 
d="M790 0h-700v700h700v-700zM165 625v-550h550v550h-550zM814 -225h-920l12 55h920z" />
    <glyph glyph-name="uniE003" unicode="&#xe003;" horiz-adv-x="540" 
d="M470 150h-400v400h400v-400zM145 475v-250h250v250h-250zM320 300h-100v100h100v-100zM474 -225h-580l12 55h580z" />
    <glyph glyph-name="uniE004" unicode="&#xe004;" horiz-adv-x="690" 
d="M620 75h-550v550h550v-550zM145 550v-400h400v400h-400zM470 225h-250v250h250v-250zM295 400v-100h100v100h-100zM624 -225h-730l12 55h730z" />
    <glyph glyph-name="uniE005" unicode="&#xe005;" horiz-adv-x="880" 
d="M790 0h-700v700h700v-700zM165 625v-550h550v550h-550zM640 150h-400v400h400v-400zM315 475v-250h250v250h-250zM490 300h-100v100h100v-100zM814 -225h-920l12 55h920z" />
    <glyph glyph-name="uniE006" unicode="&#xe006;" horiz-adv-x="540" 
d="M470 150h-400v400h400v-400zM474 -225h-580l12 55h580z" />
    <glyph glyph-name="uniE007" unicode="&#xe007;" horiz-adv-x="690" 
d="M620 75h-550v550h550v-550zM624 -225h-730l12 55h730z" />
    <glyph glyph-name="uniE008" unicode="&#xe008;" horiz-adv-x="880" 
d="M790 0h-700v700h700v-700zM814 -225h-920l12 55h920z" />
    <glyph glyph-name="uniE010" unicode="&#xe010;" horiz-adv-x="580" 
d="M290 110q-99 0 -169.5 70.5t-70.5 169.5t70.5 169.5t169.5 70.5t169.5 -70.5t70.5 -169.5t-70.5 -169.5t-169.5 -70.5zM290 185q68 0 116.5 48.5t48.5 116.5t-48.5 116.5t-116.5 48.5t-116.5 -48.5t-48.5 -116.5t48.5 -116.5t116.5 -48.5zM514 -225h-620l12 55h620z" />
    <glyph glyph-name="uniE011" unicode="&#xe011;" horiz-adv-x="730" 
d="M365 35q-130 0 -222.5 92.5t-92.5 222.5t92.5 222.5t222.5 92.5t222.5 -92.5t92.5 -222.5t-92.5 -222.5t-222.5 -92.5zM365 110q99 0 169.5 70.5t70.5 169.5t-70.5 169.5t-169.5 70.5t-169.5 -70.5t-70.5 -169.5t70.5 -169.5t169.5 -70.5zM664 -225h-770l12 55h770z" />
    <glyph glyph-name="uniE012" unicode="&#xe012;" horiz-adv-x="880" 
d="M440 -40q-160 0 -275 115t-115 275q0 161 114.5 275.5t275.5 114.5t275.5 -114.5t114.5 -275.5t-114.5 -275.5t-275.5 -114.5zM440 35q130 0 222.5 92.5t92.5 222.5t-92.5 222.5t-222.5 92.5t-222.5 -92.5t-92.5 -222.5t92.5 -222.5t222.5 -92.5zM814 -225h-920l12 55
h920z" />
    <glyph glyph-name="uniE013" unicode="&#xe013;" horiz-adv-x="580" 
d="M290 110q-99 0 -169.5 70.5t-70.5 169.5t70.5 169.5t169.5 70.5t169.5 -70.5t70.5 -169.5t-70.5 -169.5t-169.5 -70.5zM290 185q68 0 116.5 48.5t48.5 116.5t-48.5 116.5t-116.5 48.5t-116.5 -48.5t-48.5 -116.5t48.5 -116.5t116.5 -48.5zM290 260q-37 0 -63.5 26.5
t-26.5 63.5t26.5 63.5t63.5 26.5q38 0 64 -26t26 -64q0 -37 -26.5 -63.5t-63.5 -26.5zM514 -225h-620l12 55h620z" />
    <glyph glyph-name="uniE014" unicode="&#xe014;" horiz-adv-x="730" 
d="M365 35q-130 0 -222.5 92.5t-92.5 222.5t92.5 222.5t222.5 92.5t222.5 -92.5t92.5 -222.5t-92.5 -222.5t-222.5 -92.5zM365 110q99 0 169.5 70.5t70.5 169.5t-70.5 169.5t-169.5 70.5t-169.5 -70.5t-70.5 -169.5t70.5 -169.5t169.5 -70.5zM365 185q-68 0 -116.5 48.5
t-48.5 116.5t48.5 116.5t116.5 48.5t116.5 -48.5t48.5 -116.5t-48.5 -116.5t-116.5 -48.5zM365 260q37 0 63.5 26.5t26.5 63.5q0 38 -26.5 64t-63.5 26t-63.5 -26.5t-26.5 -63.5t26.5 -63.5t63.5 -26.5zM664 -225h-770l12 55h770z" />
    <glyph glyph-name="uniE015" unicode="&#xe015;" horiz-adv-x="880" 
d="M440 -40q-161 0 -275.5 114.5t-114.5 275.5t114.5 275.5t275.5 114.5t275.5 -114.5t114.5 -275.5t-114.5 -275.5t-275.5 -114.5zM440 35q130 0 222.5 92.5t92.5 222.5t-92.5 222.5t-222.5 92.5t-222.5 -92.5t-92.5 -222.5t92.5 -222.5t222.5 -92.5zM440 110
q-99 0 -169.5 70.5t-70.5 169.5t70.5 169.5t169.5 70.5t169.5 -70.5t70.5 -169.5t-70.5 -169.5t-169.5 -70.5zM440 185q68 0 116.5 48.5t48.5 116.5t-48.5 116.5t-116.5 48.5t-116.5 -48.5t-48.5 -116.5t48.5 -116.5t116.5 -48.5zM440 260q-37 0 -63.5 26.5t-26.5 63.5
t26.5 63.5t63.5 26.5q38 0 64 -26t26 -64q0 -37 -26.5 -63.5t-63.5 -26.5zM814 -225h-920l12 55h920z" />
    <glyph glyph-name="uniE016" unicode="&#xe016;" horiz-adv-x="640" 
d="M320 110q-99 0 -169.5 70.5t-70.5 169.5t70.5 169.5t169.5 70.5t169.5 -70.5t70.5 -169.5t-70.5 -169.5t-169.5 -70.5zM574 -225h-680l12 55h680z" />
    <glyph glyph-name="uniE017" unicode="&#xe017;" horiz-adv-x="700" 
d="M350 50q-124 0 -212 88t-88 212t88 212t212 88t212 -88t88 -212t-88 -212t-212 -88zM634 -225h-740l12 55h740z" />
    <glyph glyph-name="uniE018" unicode="&#xe018;" horiz-adv-x="880" 
d="M440 -10q-148 0 -254 106t-106 254t106 254t254 106t254 -106t106 -254t-106 -254t-254 -106zM814 -225h-920l12 55h920z" />
    <glyph glyph-name="uniF8FF" unicode="&#xf8ff;" horiz-adv-x="818" 
d="M784 705q33 4 67 -2.5t47 -17.5q-3 -27 -4 -28q-13 -7 -32.5 -6.5t-31.5 3.5q2 -43 -18 -75t-59 -29q-10 -33 -35 -55t-53.5 -29.5t-59 -11.5t-51.5 0l4 -12q3 -11 8 -30t11 -42.5t12 -53t9 -56.5q58 -65 81 -86q46 -41 60 -78q9 -24 -17 -29q-22 13 -41.5 32t-44 47
t-41.5 45q-2 -39 11 -103.5t14 -70.5q-14 -11 -27 -12t-15 9q-13 22 -21.5 67.5t-12.5 89.5t-5 48q-33 2 -223 -44q-1 -28 12.5 -55.5t30.5 -47t36 -48.5t27 -56q-15 -20 -37 -5q-8 4 -17.5 14.5t-16.5 20t-18.5 26t-15.5 22.5q-11 15 -23.5 42t-18.5 31q-21 -63 -38 -103
t-25 -39h-13t-12 5t-5 15q2 29 19.5 80.5t42.5 95.5q-7 1 -51.5 4.5t-82 12t-60.5 26.5q-5 6 -10 14q6 7 12.5 12.5t10.5 8t12.5 7.5t12.5 8q14 19 52 47.5t53 50.5l-44 24q-44 23 -50 42q2 2 9 19q9 8 91 -34q1 7 2 25t2.5 29.5t5.5 16.5q1 4 10.5 7t18.5 5l8 1
q11 -7 11 -15q1 -8 -5.5 -41t-4.5 -50q23 0 47.5 11t50.5 29t38 23q4 1 52 13.5t73 20.5q-19 34 -20 72.5t17 60.5q79 1 111.5 -34t15.5 -85q19 2 40.5 14t24.5 24q-10 9 -23.5 16.5t-21.5 14.5t-13 21q-23 26 -14.5 54t41.5 40q45 16 73.5 -14t21.5 -83q27 13 23 114z
M715 588q7 19 -2 39t-32 26q-12 -22 1 -42t33 -23zM585 509q14 5 14 34q-28 28 -57 28q-5 -15 -3 -34.5t11 -28.5q6 -6 35 1zM302 224q33 2 110 25.5t131 19.5q-3 18 -10 43t-9 34q-3 13 -4.5 29t-2.5 24t-5 18t-11 18q-48 -11 -117 -47t-109 -46q6 -22 12.5 -50t10 -47
t4.5 -21zM138 236q83 -13 111 -10q-5 13 -13 44t-16 47q-10 -9 -29.5 -25t-31.5 -28.5t-21 -27.5zM752 -225h-858l12 55h858z" />
    <glyph glyph-name="A.fina" horiz-adv-x="668" 
d="M377 700h90l173 -925h-756l12 55h666l-68 363h-356l-118 -193h-76zM411 638l-233 -380h304z" />
    <glyph glyph-name="A.init" horiz-adv-x="667" 
d="M138 193l-221 -363h706l-12 -55h-804l569 925h90l131 -700h-68l-36 193h-355zM481 258l-71 380l-232 -380h303z" />
    <glyph glyph-name="A.isol" horiz-adv-x="668" 
d="M494 193h-356l-118 -193h-76l433 700h90l131 -700h-68zM482 258l-71 380l-233 -380h304zM-116 -225l12 55h728l-12 -55h-728z" />
    <glyph glyph-name="Aacute.fina" horiz-adv-x="668" 
d="M459 890h90l-83 -125h-60zM377 700h90l173 -925h-756l12 55h666l-68 363h-356l-118 -193h-76zM411 638l-233 -380h304z" />
    <glyph glyph-name="Aacute.init" horiz-adv-x="667" 
d="M459 890h90l-83 -125h-60zM138 193l-221 -363h706l-12 -55h-804l569 925h90l131 -700h-68l-36 193h-355zM481 258l-71 380l-232 -380h303z" />
    <glyph glyph-name="Aacute.isol" horiz-adv-x="668" 
d="M459 890h90l-83 -125h-60zM494 193h-356l-118 -193h-76l433 700h90l131 -700h-68zM482 258l-71 380l-233 -380h304zM-116 -225l12 55h728l-12 -55h-728z" />
    <glyph glyph-name="Abreve.fina" horiz-adv-x="668" 
d="M446 755q-64 0 -101 37.5t-28 97.5h55q-5 -37 16 -58.5t59 -21.5q35 0 64.5 20t40.5 60h55q-8 -63 -54 -99t-107 -36zM377 700h90l173 -925h-756l12 55h666l-68 363h-356l-118 -193h-76zM411 638l-233 -380h304z" />
    <glyph glyph-name="Abreve.init" horiz-adv-x="667" 
d="M445 755q-64 0 -101 37.5t-28 97.5h55q-5 -37 16 -58.5t59 -21.5q35 0 64.5 20t40.5 60h55q-8 -63 -54 -99t-107 -36zM138 193l-221 -363h706l-12 -55h-804l569 925h90l131 -700h-68l-36 193h-355zM481 258l-71 380l-232 -380h303z" />
    <glyph glyph-name="Abreve.isol" horiz-adv-x="668" 
d="M446 755q-64 0 -101 37.5t-28 97.5h55q-5 -37 16 -58.5t59 -21.5q35 0 64.5 20t40.5 60h55q-8 -63 -54 -99t-107 -36zM494 193h-356l-118 -193h-76l433 700h90l131 -700h-68zM482 258l-71 380l-233 -380h304zM-116 -225l12 55h728l-12 -55h-728z" />
    <glyph glyph-name="Acircumflex.fina" horiz-adv-x="668" 
d="M534 765l-82 73l-123 -73h-69l150 125h90l99 -125h-65zM377 700h90l173 -925h-756l12 55h666l-68 363h-356l-118 -193h-76zM411 638l-233 -380h304z" />
    <glyph glyph-name="Acircumflex.init" horiz-adv-x="667" 
d="M533 765l-82 73l-123 -73h-69l150 125h90l99 -125h-65zM138 193l-221 -363h706l-12 -55h-804l569 925h90l131 -700h-68l-36 193h-355zM481 258l-71 380l-232 -380h303z" />
    <glyph glyph-name="Acircumflex.isol" horiz-adv-x="668" 
d="M534 765l-82 73l-123 -73h-69l150 125h90l99 -125h-65zM494 193h-356l-118 -193h-76l433 700h90l131 -700h-68zM482 258l-71 380l-233 -380h304zM-116 -225l12 55h728l-12 -55h-728z" />
    <glyph glyph-name="Adieresis.fina" horiz-adv-x="668" 
d="M323 860h80l-17 -80h-80zM509 860h80l-17 -80h-80zM377 700h90l173 -925h-756l12 55h666l-68 363h-356l-118 -193h-76zM411 638l-233 -380h304z" />
    <glyph glyph-name="Adieresis.init" horiz-adv-x="667" 
d="M322 860h80l-17 -80h-80zM508 860h80l-17 -80h-80zM138 193l-221 -363h706l-12 -55h-804l569 925h90l131 -700h-68l-36 193h-355zM481 258l-71 380l-232 -380h303z" />
    <glyph glyph-name="Adieresis.isol" horiz-adv-x="668" 
d="M323 860h80l-17 -80h-80zM509 860h80l-17 -80h-80zM494 193h-356l-118 -193h-76l433 700h90l131 -700h-68zM482 258l-71 380l-233 -380h304zM-116 -225l12 55h728l-12 -55h-728z" />
    <glyph glyph-name="uni0226.fina" horiz-adv-x="668" 
d="M417 865h75l-17 -85h-75zM377 700h90l173 -925h-756l12 55h666l-68 363h-356l-118 -193h-76zM411 638l-233 -380h304z" />
    <glyph glyph-name="uni0226.init" horiz-adv-x="667" 
d="M416 865h75l-17 -85h-75zM138 193l-221 -363h706l-12 -55h-804l569 925h90l131 -700h-68l-36 193h-355zM481 258l-71 380l-232 -380h303z" />
    <glyph glyph-name="uni0226.isol" horiz-adv-x="668" 
d="M417 865h75l-17 -85h-75zM494 193h-356l-118 -193h-76l433 700h90l131 -700h-68zM482 258l-71 380l-233 -380h304zM-116 -225l12 55h728l-12 -55h-728z" />
    <glyph glyph-name="Agrave.fina" horiz-adv-x="668" 
d="M413 890l53 -125h-60l-83 125h90zM377 700h90l173 -925h-756l12 55h666l-68 363h-356l-118 -193h-76zM411 638l-233 -380h304z" />
    <glyph glyph-name="Agrave.init" horiz-adv-x="667" 
d="M412 890l53 -125h-60l-83 125h90zM138 193l-221 -363h706l-12 -55h-804l569 925h90l131 -700h-68l-36 193h-355zM481 258l-71 380l-232 -380h303z" />
    <glyph glyph-name="Agrave.isol" horiz-adv-x="668" 
d="M413 890l53 -125h-60l-83 125h90zM494 193h-356l-118 -193h-76l433 700h90l131 -700h-68zM482 258l-71 380l-233 -380h304zM-116 -225l12 55h728l-12 -55h-728z" />
    <glyph glyph-name="Amacron.fina" horiz-adv-x="668" 
d="M310 835h276l-11 -55h-276zM377 700h90l173 -925h-756l12 55h666l-68 363h-356l-118 -193h-76zM411 638l-233 -380h304z" />
    <glyph glyph-name="Amacron.init" horiz-adv-x="667" 
d="M309 835h276l-11 -55h-276zM138 193l-221 -363h706l-12 -55h-804l569 925h90l131 -700h-68l-36 193h-355zM481 258l-71 380l-232 -380h303z" />
    <glyph glyph-name="Amacron.isol" horiz-adv-x="668" 
d="M310 835h276l-11 -55h-276zM494 193h-356l-118 -193h-76l433 700h90l131 -700h-68zM482 258l-71 380l-233 -380h304zM-116 -225l12 55h728l-12 -55h-728z" />
    <glyph glyph-name="Aogonek.init" horiz-adv-x="668" 
d="M546 -170h78l-12 -55h-82q-108 0 -108 92q0 41 32.5 77t75.5 56l-36 193h-356l-223 -363h437l-12 -55h-535l572 925h90l131 -700q-47 -21 -79 -52.5t-32 -63.5q0 -28 13.5 -41t45.5 -13zM411 638l-233 -380h304z" />
    <glyph glyph-name="Aogonek.isol" horiz-adv-x="668" 
d="M546 -170h78l-12 -55h-82q-108 0 -108 92q0 41 32.5 77t75.5 56l-36 193h-356l-118 -193h-76l433 700h90l131 -700q-47 -21 -79 -52.5t-32 -63.5q0 -28 13.5 -41t45.5 -13zM411 638l-233 -380h304zM340 -225h-456l12 55h456z" />
    <glyph glyph-name="Aring.fina" horiz-adv-x="668" 
d="M444 761q-32 0 -55.5 22.5t-23.5 56.5q0 33 24 56t55 23t55 -23t24 -56q0 -34 -23.5 -56.5t-55.5 -22.5zM445 874q-13 0 -23.5 -10t-10.5 -24t10.5 -24t23.5 -10t23 10t10 24t-10 24t-23 10zM377 700h90l173 -925h-756l12 55h666l-68 363h-356l-118 -193h-76zM411 638
l-233 -380h304z" />
    <glyph glyph-name="Aring.init" horiz-adv-x="667" 
d="M443 761q-32 0 -55.5 22.5t-23.5 56.5q0 33 24 56t55 23t55 -23t24 -56q0 -34 -23.5 -56.5t-55.5 -22.5zM444 874q-14 0 -24 -10t-10 -24t10 -24t24 -10q13 0 23 10t10 24t-10 24t-23 10zM138 193l-221 -363h706l-12 -55h-804l569 925h90l131 -700h-68l-36 193h-355z
M481 258l-71 380l-232 -380h303z" />
    <glyph glyph-name="Aring.isol" horiz-adv-x="668" 
d="M444 761q-32 0 -55.5 22.5t-23.5 56.5q0 33 24 56t55 23t55 -23t24 -56q0 -34 -23.5 -56.5t-55.5 -22.5zM445 874q-13 0 -23.5 -10t-10.5 -24t10.5 -24t23.5 -10t23 10t10 24t-10 24t-23 10zM494 193h-356l-118 -193h-76l433 700h90l131 -700h-68zM482 258l-71 380
l-233 -380h304zM-116 -225l12 55h728l-12 -55h-728z" />
    <glyph glyph-name="Atilde.fina" horiz-adv-x="668" 
d="M371 824q-17 0 -26 -11.5t-15 -42.5h-55l3 14q12 53 32.5 76.5t59.5 23.5q26 0 70 -25l39 -23q26 -16 40 -16q34 0 46 54h55l-3 -15q-9 -46 -33 -72.5t-60 -26.5q-29 0 -69 23l-37 22q-31 19 -47 19zM377 700h90l173 -925h-756l12 55h666l-68 363h-356l-118 -193h-76z
M411 638l-233 -380h304z" />
    <glyph glyph-name="Atilde.init" horiz-adv-x="667" 
d="M370 824q-17 0 -26 -11.5t-15 -42.5h-55l3 14q12 53 32.5 76.5t59.5 23.5q26 0 70 -25l39 -23q26 -16 40 -16q34 0 46 54h55l-3 -15q-9 -46 -33 -72.5t-60 -26.5q-29 0 -69 23l-37 22q-31 19 -47 19zM138 193l-221 -363h706l-12 -55h-804l569 925h90l131 -700h-68
l-36 193h-355zM481 258l-71 380l-232 -380h303z" />
    <glyph glyph-name="Atilde.isol" horiz-adv-x="668" 
d="M371 824q-17 0 -26 -11.5t-15 -42.5h-55l3 14q12 53 32.5 76.5t59.5 23.5q26 0 70 -25l39 -23q26 -16 40 -16q34 0 46 54h55l-3 -15q-9 -46 -33 -72.5t-60 -26.5q-29 0 -69 23l-37 22q-31 19 -47 19zM494 193h-356l-118 -193h-76l433 700h90l131 -700h-68zM482 258
l-71 380l-233 -380h304zM-116 -225l12 55h728l-12 -55h-728z" />
    <glyph glyph-name="AE.fina" horiz-adv-x="970" 
d="M959 700l-14 -65h-353l-19 -242h307l-14 -65h-298l-20 -263h352l-61 -290h-977l12 55h912l35 170h-342l15 193h-327l-157 -193h-85l578 700h456zM220 258h280l30 383z" />
    <glyph glyph-name="AE.init" horiz-adv-x="969" 
d="M958 700l-14 -65h-353l-19 -242h307l-14 -65h-298l-20 -263h352l-14 -65h-407l15 193h-327l-295 -363h1044l-12 -55h-1162l761 925h456zM219 258h280l30 383z" />
    <glyph glyph-name="AE.isol" horiz-adv-x="982" 
d="M22 0h-85l578 700h456l-14 -65h-353l-19 -242h307l-14 -65h-298l-20 -263h352l-14 -65h-407l15 193h-327zM542 641l-310 -383h280zM916 -225h-1033l12 55h1033z" />
    <glyph glyph-name="AEacute.fina" horiz-adv-x="970" 
d="M768 890h90l-83 -125h-60zM959 700l-14 -65h-353l-19 -242h307l-14 -65h-298l-20 -263h352l-61 -290h-977l12 55h912l35 170h-342l15 193h-327l-157 -193h-85l578 700h456zM220 258h280l30 383z" />
    <glyph glyph-name="AEacute.init" horiz-adv-x="969" 
d="M767 890h90l-83 -125h-60zM958 700l-14 -65h-353l-19 -242h307l-14 -65h-298l-20 -263h352l-14 -65h-407l15 193h-327l-295 -363h1044l-12 -55h-1162l761 925h456zM219 258h280l30 383z" />
    <glyph glyph-name="AEacute.isol" horiz-adv-x="982" 
d="M787 765h-60l53 125h90zM22 0h-85l578 700h456l-14 -65h-353l-19 -242h307l-14 -65h-298l-20 -263h352l-14 -65h-407l15 193h-327zM542 641l-310 -383h280zM916 -225h-1033l12 55h1033z" />
    <glyph glyph-name="uni01E2.fina" horiz-adv-x="970" 
d="M619 835h276l-11 -55h-276zM959 700l-14 -65h-353l-19 -242h307l-14 -65h-298l-20 -263h352l-61 -290h-977l12 55h912l35 170h-342l15 193h-327l-157 -193h-85l578 700h456zM220 258h280l30 383z" />
    <glyph glyph-name="uni01E2.init" horiz-adv-x="969" 
d="M618 835h276l-11 -55h-276zM958 700l-14 -65h-353l-19 -242h307l-14 -65h-298l-20 -263h352l-14 -65h-407l15 193h-327l-295 -363h1044l-12 -55h-1162l761 925h456zM219 258h280l30 383z" />
    <glyph glyph-name="uni01E2.isol" horiz-adv-x="982" 
d="M896 780h-276l11 55h276zM22 0h-85l578 700h456l-14 -65h-353l-19 -242h307l-14 -65h-298l-20 -263h352l-14 -65h-407l15 193h-327zM542 641l-310 -383h280zM916 -225h-1033l12 55h1033z" />
    <glyph glyph-name="C.fina" horiz-adv-x="706" 
d="M433 710q105 0 173 -60t72 -164h-70q-2 73 -49.5 115.5t-130.5 43.5h-6q-121 0 -203.5 -99t-82.5 -251q0 -111 59 -175.5t170 -64.5h65l-59 -280h-475l12 55h410l33 160q-130 1 -207.5 81.5t-77.5 211.5q0 181 100.5 304t266.5 123z" />
    <glyph glyph-name="C.init" horiz-adv-x="706" 
d="M430 55l-47 -225h269l-12 -55h-334l45 215q-130 1 -207.5 81.5t-77.5 211.5q0 181 100.5 304t266.5 123q105 0 173 -60t72 -164h-70q-2 73 -49.5 115.5t-130.5 43.5h-6q-121 0 -203.5 -99t-82.5 -251q0 -111 59 -175.5t170 -64.5h65z" />
    <glyph glyph-name="C.isol" horiz-adv-x="704" 
d="M354 -10q-132 0 -211 80t-79 213q0 181 100.5 304t266.5 123q105 0 173 -60t72 -164h-70q-2 73 -49.5 115.5t-130.5 43.5h-6q-121 0 -203.5 -99t-82.5 -251q0 -111 59 -175.5t170 -64.5h6q47 0 89.5 16t77 53t43.5 90h70q-18 -104 -97 -164t-198 -60zM638 -225h-744
l12 55h744z" />
    <glyph glyph-name="Cacute.fina" horiz-adv-x="706" 
d="M479 890h90l-83 -125h-60zM433 710q105 0 173 -60t72 -164h-70q-2 73 -49.5 115.5t-130.5 43.5h-6q-121 0 -203.5 -99t-82.5 -251q0 -111 59 -175.5t170 -64.5h65l-59 -280h-475l12 55h410l33 160q-130 1 -207.5 81.5t-77.5 211.5q0 181 100.5 304t266.5 123z" />
    <glyph glyph-name="Cacute.init" horiz-adv-x="706" 
d="M477 890h90l-83 -125h-60zM430 55l-47 -225h269l-12 -55h-334l45 215q-130 1 -207.5 81.5t-77.5 211.5q0 181 100.5 304t266.5 123q105 0 173 -60t72 -164h-70q-2 73 -49.5 115.5t-130.5 43.5h-6q-121 0 -203.5 -99t-82.5 -251q0 -111 59 -175.5t170 -64.5h65z" />
    <glyph glyph-name="Cacute.isol" horiz-adv-x="704" 
d="M484 765h-60l53 125h90zM354 -10q-132 0 -211 80t-79 213q0 181 100.5 304t266.5 123q105 0 173 -60t72 -164h-70q-2 73 -49.5 115.5t-130.5 43.5h-6q-121 0 -203.5 -99t-82.5 -251q0 -111 59 -175.5t170 -64.5h6q47 0 89.5 16t77 53t43.5 90h70q-18 -104 -97 -164
t-198 -60zM638 -225h-744l12 55h744z" />
    <glyph glyph-name="Ccaron.fina" horiz-adv-x="706" 
d="M657 890l-150 -125h-90l-99 125h66l82 -73l123 73h68zM433 710q105 0 173 -60t72 -164h-70q-2 73 -49.5 115.5t-130.5 43.5h-6q-121 0 -203.5 -99t-82.5 -251q0 -111 59 -175.5t170 -64.5h65l-59 -280h-475l12 55h410l33 160q-130 1 -207.5 81.5t-77.5 211.5
q0 181 100.5 304t266.5 123z" />
    <glyph glyph-name="Ccaron.init" horiz-adv-x="706" 
d="M657 890l-150 -125h-90l-99 125h66l82 -73l123 73h68zM430 55l-47 -225h269l-12 -55h-334l45 215q-130 1 -207.5 81.5t-77.5 211.5q0 181 100.5 304t266.5 123q105 0 173 -60t72 -164h-70q-2 73 -49.5 115.5t-130.5 43.5h-6q-121 0 -203.5 -99t-82.5 -251
q0 -111 59 -175.5t170 -64.5h65z" />
    <glyph glyph-name="Ccaron.isol" horiz-adv-x="704" 
d="M655 890l-150 -125h-90l-99 125h66l82 -73l123 73h68zM354 -10q-132 0 -211 80t-79 213q0 181 100.5 304t266.5 123q105 0 173 -60t72 -164h-70q-2 73 -49.5 115.5t-130.5 43.5h-6q-121 0 -203.5 -99t-82.5 -251q0 -111 59 -175.5t170 -64.5h6q47 0 89.5 16t77 53
t43.5 90h70q-18 -104 -97 -164t-198 -60zM638 -225h-744l12 55h744z" />
    <glyph glyph-name="Ccedilla.fina" horiz-adv-x="706" 
d="M365 55h6q47 0 89.5 16t77 53t43.5 90h70q-18 -103 -95.5 -162.5t-193.5 -61.5l-10 -38q31 -5 48 -24.5t17 -47.5q0 -49 -33.5 -77t-89.5 -28h-398l12 55h400q27 0 43 13.5t16 37.5q0 16 -12.5 26t-32.5 10h-22l17 75q-116 12 -183.5 90.5t-67.5 200.5q0 181 100.5 304
t266.5 123q105 0 173 -60t72 -164h-70q-2 73 -49.5 115.5t-130.5 43.5h-6q-121 0 -203.5 -99t-82.5 -251q0 -111 59 -175.5t170 -64.5z" />
    <glyph glyph-name="Ccircumflex.fina" horiz-adv-x="706" 
d="M554 765l-82 73l-123 -73h-69l150 125h90l99 -125h-65zM433 710q105 0 173 -60t72 -164h-70q-2 73 -49.5 115.5t-130.5 43.5h-6q-121 0 -203.5 -99t-82.5 -251q0 -111 59 -175.5t170 -64.5h65l-59 -280h-475l12 55h410l33 160q-130 1 -207.5 81.5t-77.5 211.5
q0 181 100.5 304t266.5 123z" />
    <glyph glyph-name="Ccircumflex.init" horiz-adv-x="706" 
d="M554 765l-82 73l-123 -73h-69l150 125h90l99 -125h-65zM430 55l-47 -225h269l-12 -55h-334l45 215q-130 1 -207.5 81.5t-77.5 211.5q0 181 100.5 304t266.5 123q105 0 173 -60t72 -164h-70q-2 73 -49.5 115.5t-130.5 43.5h-6q-121 0 -203.5 -99t-82.5 -251
q0 -111 59 -175.5t170 -64.5h65z" />
    <glyph glyph-name="Ccircumflex.isol" horiz-adv-x="704" 
d="M552 765l-82 73l-123 -73h-69l150 125h90l99 -125h-65zM354 -10q-132 0 -211 80t-79 213q0 181 100.5 304t266.5 123q105 0 173 -60t72 -164h-70q-2 73 -49.5 115.5t-130.5 43.5h-6q-121 0 -203.5 -99t-82.5 -251q0 -111 59 -175.5t170 -64.5h6q47 0 89.5 16t77 53
t43.5 90h70q-18 -104 -97 -164t-198 -60zM638 -225h-744l12 55h744z" />
    <glyph glyph-name="Cdotaccent.fina" horiz-adv-x="706" 
d="M437 865h75l-17 -85h-75zM433 710q105 0 173 -60t72 -164h-70q-2 73 -49.5 115.5t-130.5 43.5h-6q-121 0 -203.5 -99t-82.5 -251q0 -111 59 -175.5t170 -64.5h65l-59 -280h-475l12 55h410l33 160q-130 1 -207.5 81.5t-77.5 211.5q0 181 100.5 304t266.5 123z" />
    <glyph glyph-name="Cdotaccent.init" horiz-adv-x="706" 
d="M437 865h75l-17 -85h-75zM430 55l-47 -225h269l-12 -55h-334l45 215q-130 1 -207.5 81.5t-77.5 211.5q0 181 100.5 304t266.5 123q105 0 173 -60t72 -164h-70q-2 73 -49.5 115.5t-130.5 43.5h-6q-121 0 -203.5 -99t-82.5 -251q0 -111 59 -175.5t170 -64.5h65z" />
    <glyph glyph-name="Cdotaccent.isol" horiz-adv-x="704" 
d="M493 780h-75l17 85h75zM354 -10q-132 0 -211 80t-79 213q0 181 100.5 304t266.5 123q105 0 173 -60t72 -164h-70q-2 73 -49.5 115.5t-130.5 43.5h-6q-121 0 -203.5 -99t-82.5 -251q0 -111 59 -175.5t170 -64.5h6q47 0 89.5 16t77 53t43.5 90h70q-18 -104 -97 -164
t-198 -60zM638 -225h-744l12 55h744z" />
    <glyph glyph-name="E.fina" horiz-adv-x="642" 
d="M675 700l-14 -65h-420l-51 -242h360l-14 -65h-360l-56 -263h430l-61 -290h-594l11 55h530l35 170h-435l149 700h490z" />
    <glyph glyph-name="E.init" horiz-adv-x="642" 
d="M675 700l-14 -65h-420l-51 -242h360l-14 -65h-360l-56 -263h430l-49 -235h87l-12 -55h-152l47 225h-435l149 700h490z" />
    <glyph glyph-name="E.isol" horiz-adv-x="642" 
d="M36 0l149 700h490l-14 -65h-420l-51 -242h360l-14 -65h-360l-56 -263h430l-14 -65h-500zM576 -225h-681l11 55h682z" />
    <glyph glyph-name="Eacute.fina" horiz-adv-x="642" 
d="M465 890h90l-83 -125h-60zM675 700l-14 -65h-420l-51 -242h360l-14 -65h-360l-56 -263h430l-61 -290h-594l11 55h530l35 170h-435l149 700h490z" />
    <glyph glyph-name="Eacute.init" horiz-adv-x="642" 
d="M465 890h90l-83 -125h-60zM675 700l-14 -65h-420l-51 -242h360l-14 -65h-360l-56 -263h430l-49 -235h87l-12 -55h-152l47 225h-435l149 700h490z" />
    <glyph glyph-name="Eacute.isol" horiz-adv-x="642" 
d="M465 890h90l-83 -125h-60zM36 0l149 700h490l-14 -65h-420l-51 -242h360l-14 -65h-360l-56 -263h430l-14 -65h-500zM576 -225h-681l11 55h682z" />
    <glyph glyph-name="Ebreve.fina" horiz-adv-x="642" 
d="M452 755q-64 0 -101 37.5t-28 97.5h55q-5 -37 16 -58.5t59 -21.5q35 0 64.5 20t40.5 60h55q-8 -63 -54 -99t-107 -36zM675 700l-14 -65h-420l-51 -242h360l-14 -65h-360l-56 -263h430l-61 -290h-594l11 55h530l35 170h-435l149 700h490z" />
    <glyph glyph-name="Ebreve.init" horiz-adv-x="642" 
d="M452 755q-64 0 -101 37.5t-28 97.5h55q-5 -37 16 -58.5t59 -21.5q35 0 64.5 20t40.5 60h55q-8 -63 -54 -99t-107 -36zM675 700l-14 -65h-420l-51 -242h360l-14 -65h-360l-56 -263h430l-49 -235h87l-12 -55h-152l47 225h-435l149 700h490z" />
    <glyph glyph-name="Ebreve.isol" horiz-adv-x="642" 
d="M452 755q-64 0 -101 37.5t-28 97.5h55q-5 -37 16 -58.5t59 -21.5q35 0 64.5 20t40.5 60h55q-8 -63 -54 -99t-107 -36zM36 0l149 700h490l-14 -65h-420l-51 -242h360l-14 -65h-360l-56 -263h430l-14 -65h-500zM576 -225h-681l11 55h682z" />
    <glyph glyph-name="Ecaron.fina" horiz-adv-x="642" 
d="M643 890l-150 -125h-90l-99 125h66l82 -73l123 73h68zM675 700l-14 -65h-420l-51 -242h360l-14 -65h-360l-56 -263h430l-61 -290h-594l11 55h530l35 170h-435l149 700h490z" />
    <glyph glyph-name="Ecaron.init" horiz-adv-x="642" 
d="M643 890l-150 -125h-90l-99 125h66l82 -73l123 73h68zM675 700l-14 -65h-420l-51 -242h360l-14 -65h-360l-56 -263h430l-49 -235h87l-12 -55h-152l47 225h-435l149 700h490z" />
    <glyph glyph-name="Ecaron.isol" horiz-adv-x="642" 
d="M643 890l-150 -125h-90l-99 125h66l82 -73l123 73h68zM36 0l149 700h490l-14 -65h-420l-51 -242h360l-14 -65h-360l-56 -263h430l-14 -65h-500zM576 -225h-681l11 55h682z" />
    <glyph glyph-name="Ecircumflex.fina" horiz-adv-x="642" 
d="M540 765l-82 73l-123 -73h-69l150 125h90l99 -125h-65zM675 700l-14 -65h-420l-51 -242h360l-14 -65h-360l-56 -263h430l-61 -290h-594l11 55h530l35 170h-435l149 700h490z" />
    <glyph glyph-name="Ecircumflex.init" horiz-adv-x="642" 
d="M540 765l-82 73l-123 -73h-69l150 125h90l99 -125h-65zM675 700l-14 -65h-420l-51 -242h360l-14 -65h-360l-56 -263h430l-49 -235h87l-12 -55h-152l47 225h-435l149 700h490z" />
    <glyph glyph-name="Ecircumflex.isol" horiz-adv-x="642" 
d="M540 765l-82 73l-123 -73h-69l150 125h90l99 -125h-65zM36 0l149 700h490l-14 -65h-420l-51 -242h360l-14 -65h-360l-56 -263h430l-14 -65h-500zM576 -225h-681l11 55h682z" />
    <glyph glyph-name="Edieresis.fina" horiz-adv-x="642" 
d="M329 860h80l-17 -80h-80zM515 860h80l-17 -80h-80zM675 700l-14 -65h-420l-51 -242h360l-14 -65h-360l-56 -263h430l-61 -290h-594l11 55h530l35 170h-435l149 700h490z" />
    <glyph glyph-name="Edieresis.init" horiz-adv-x="642" 
d="M329 860h80l-17 -80h-80zM515 860h80l-17 -80h-80zM675 700l-14 -65h-420l-51 -242h360l-14 -65h-360l-56 -263h430l-49 -235h87l-12 -55h-152l47 225h-435l149 700h490z" />
    <glyph glyph-name="Edieresis.isol" horiz-adv-x="642" 
d="M329 860h80l-17 -80h-80zM515 860h80l-17 -80h-80zM36 0l149 700h490l-14 -65h-420l-51 -242h360l-14 -65h-360l-56 -263h430l-14 -65h-500zM576 -225h-681l11 55h682z" />
    <glyph glyph-name="Edotaccent.fina" horiz-adv-x="642" 
d="M423 865h75l-17 -85h-75zM675 700l-14 -65h-420l-51 -242h360l-14 -65h-360l-56 -263h430l-61 -290h-594l11 55h530l35 170h-435l149 700h490z" />
    <glyph glyph-name="Edotaccent.init" horiz-adv-x="642" 
d="M423 865h75l-17 -85h-75zM675 700l-14 -65h-420l-51 -242h360l-14 -65h-360l-56 -263h430l-49 -235h87l-12 -55h-152l47 225h-435l149 700h490z" />
    <glyph glyph-name="Edotaccent.isol" horiz-adv-x="642" 
d="M423 865h75l-17 -85h-75zM36 0l149 700h490l-14 -65h-420l-51 -242h360l-14 -65h-360l-56 -263h430l-14 -65h-500zM576 -225h-681l11 55h682z" />
    <glyph glyph-name="Egrave.fina" horiz-adv-x="642" 
d="M419 890l53 -125h-60l-83 125h90zM675 700l-14 -65h-420l-51 -242h360l-14 -65h-360l-56 -263h430l-61 -290h-594l11 55h530l35 170h-435l149 700h490z" />
    <glyph glyph-name="Egrave.init" horiz-adv-x="642" 
d="M419 890l53 -125h-60l-83 125h90zM675 700l-14 -65h-420l-51 -242h360l-14 -65h-360l-56 -263h430l-49 -235h87l-12 -55h-152l47 225h-435l149 700h490z" />
    <glyph glyph-name="Egrave.isol" horiz-adv-x="642" 
d="M419 890l53 -125h-60l-83 125h90zM36 0l149 700h490l-14 -65h-420l-51 -242h360l-14 -65h-360l-56 -263h430l-14 -65h-500zM576 -225h-681l11 55h682z" />
    <glyph glyph-name="Emacron.fina" horiz-adv-x="642" 
d="M316 835h276l-11 -55h-276zM675 700l-14 -65h-420l-51 -242h360l-14 -65h-360l-56 -263h430l-61 -290h-594l11 55h530l35 170h-435l149 700h490z" />
    <glyph glyph-name="Emacron.init" horiz-adv-x="642" 
d="M316 835h276l-11 -55h-276zM675 700l-14 -65h-420l-51 -242h360l-14 -65h-360l-56 -263h430l-49 -235h87l-12 -55h-152l47 225h-435l149 700h490z" />
    <glyph glyph-name="Emacron.isol" horiz-adv-x="642" 
d="M316 835h276l-11 -55h-276zM36 0l149 700h490l-14 -65h-420l-51 -242h360l-14 -65h-360l-56 -263h430l-14 -65h-500zM576 -225h-681l11 55h682z" />
    <glyph glyph-name="Eogonek.init" horiz-adv-x="642" 
d="M675 700l-14 -65h-420l-51 -242h360l-14 -65h-360l-56 -263h430l-14 -65q-47 -21 -79 -52.5t-32 -63.5q0 -28 13.5 -41t45.5 -13h105l-12 -55h-109q-108 0 -108 92q0 40 32 76.5t75 56.5h-431l149 700h490z" />
    <glyph glyph-name="Eogonek.isol" horiz-adv-x="642" 
d="M675 700l-14 -65h-420l-51 -242h360l-14 -65h-360l-56 -263h430l-14 -65q-47 -21 -79 -52.5t-32 -63.5q0 -28 13.5 -41t45.5 -13h105l-12 -55h-109q-108 0 -108 92q0 40 32 76.5t75 56.5h-431l149 700h490zM278 -225h-384l12 55h384z" />
    <glyph glyph-name="F.fina" horiz-adv-x="601" 
d="M655 700l-14 -65h-400l-56 -263h351l-14 -65h-351l-113 -532h-164l12 55h94l185 870h470z" />
    <glyph glyph-name="F.init" horiz-adv-x="601" 
d="M655 700l-14 -65h-400l-56 -263h351l-14 -65h-351l-101 -477h476l-12 -55h-546l197 925h470z" />
    <glyph glyph-name="F.isol" horiz-adv-x="601" 
d="M36 0l149 700h470l-14 -65h-400l-56 -263h351l-14 -65h-351l-65 -307h-70zM534 -225h-640l12 55h640z" />
    <glyph glyph-name="G.fina" horiz-adv-x="745" 
d="M407 350h211q33 0 51 -16t18 -45q0 -15 -3 -33l-101 -481h-688l12 55h623l62 298q-29 -57 -96.5 -97.5t-142.5 -40.5q-129 0 -208.5 83t-79.5 213q0 117 45 213t131 153.5t197 57.5t186 -68t75 -167h-70q-6 83 -62.5 126.5t-138.5 43.5q-128 0 -210.5 -102.5
t-82.5 -241.5q0 -115 59 -180.5t160 -65.5q89 0 163.5 67t100.5 163h-224z" />
    <glyph glyph-name="G.init" horiz-adv-x="745" 
d="M684 256l-89 -426h97l-12 -55h-162l74 353q-29 -57 -96.5 -97.5t-142.5 -40.5q-129 0 -208.5 83t-79.5 213q0 117 45 213t131 153.5t197 57.5t186 -68t75 -167h-70q-6 83 -62.5 126.5t-138.5 43.5q-128 0 -210.5 -102.5t-82.5 -241.5q0 -115 59 -180.5t160 -65.5
q89 0 163.5 67t100.5 163h-224l13 65h211q33 0 51 -16t18 -45q0 -15 -3 -33z" />
    <glyph glyph-name="G.isol" horiz-adv-x="745" 
d="M353 -10q-129 0 -208.5 83t-79.5 213q0 117 45 213t131 153.5t197 57.5t186 -68t75 -167h-70q-6 83 -62.5 126.5t-138.5 43.5q-128 0 -210.5 -102.5t-82.5 -241.5q0 -115 59 -180.5t160 -65.5q89 0 163.5 67t100.5 163h-224l13 65h211q33 0 51 -16t18 -45q0 -15 -3 -33
l-54 -256h-65l27 128q-29 -57 -96.5 -97.5t-142.5 -40.5zM680 -225h-785l12 55h785z" />
    <glyph glyph-name="Gbreve.fina" horiz-adv-x="745" 
d="M482 755q-64 0 -101 37.5t-28 97.5h55q-5 -37 16 -58.5t59 -21.5q35 0 64.5 20t40.5 60h55q-8 -63 -54 -99t-107 -36zM407 350h211q33 0 51 -16t18 -45q0 -15 -3 -33l-101 -481h-688l12 55h623l62 298q-29 -57 -96.5 -97.5t-142.5 -40.5q-129 0 -208.5 83t-79.5 213
q0 117 45 213t131 153.5t197 57.5t186 -68t75 -167h-70q-6 83 -62.5 126.5t-138.5 43.5q-128 0 -210.5 -102.5t-82.5 -241.5q0 -115 59 -180.5t160 -65.5q89 0 163.5 67t100.5 163h-224z" />
    <glyph glyph-name="Gbreve.init" horiz-adv-x="745" 
d="M482 755q-64 0 -101 37.5t-28 97.5h55q-5 -37 16 -58.5t59 -21.5q35 0 64.5 20t40.5 60h55q-8 -63 -54 -99t-107 -36zM684 256l-89 -426h97l-12 -55h-162l74 353q-29 -57 -96.5 -97.5t-142.5 -40.5q-129 0 -208.5 83t-79.5 213q0 117 45 213t131 153.5t197 57.5t186 -68
t75 -167h-70q-6 83 -62.5 126.5t-138.5 43.5q-128 0 -210.5 -102.5t-82.5 -241.5q0 -115 59 -180.5t160 -65.5q89 0 163.5 67t100.5 163h-224l13 65h211q33 0 51 -16t18 -45q0 -15 -3 -33z" />
    <glyph glyph-name="Gbreve.isol" horiz-adv-x="745" 
d="M482 755q-64 0 -101 37.5t-28 97.5h55q-5 -37 16 -58.5t59 -21.5q35 0 64.5 20t40.5 60h55q-8 -63 -54 -99t-107 -36zM353 -10q-129 0 -208.5 83t-79.5 213q0 117 45 213t131 153.5t197 57.5t186 -68t75 -167h-70q-6 83 -62.5 126.5t-138.5 43.5q-128 0 -210.5 -102.5
t-82.5 -241.5q0 -115 59 -180.5t160 -65.5q89 0 163.5 67t100.5 163h-224l13 65h211q33 0 51 -16t18 -45q0 -15 -3 -33l-54 -256h-65l27 128q-29 -57 -96.5 -97.5t-142.5 -40.5zM680 -225h-785l12 55h785z" />
    <glyph glyph-name="Gcircumflex.fina" horiz-adv-x="745" 
d="M570 765l-82 73l-123 -73h-69l150 125h90l99 -125h-65zM407 350h211q33 0 51 -16t18 -45q0 -15 -3 -33l-101 -481h-688l12 55h623l62 298q-29 -57 -96.5 -97.5t-142.5 -40.5q-129 0 -208.5 83t-79.5 213q0 117 45 213t131 153.5t197 57.5t186 -68t75 -167h-70
q-6 83 -62.5 126.5t-138.5 43.5q-128 0 -210.5 -102.5t-82.5 -241.5q0 -115 59 -180.5t160 -65.5q89 0 163.5 67t100.5 163h-224z" />
    <glyph glyph-name="Gcircumflex.init" horiz-adv-x="745" 
d="M570 765l-82 73l-123 -73h-69l150 125h90l99 -125h-65zM684 256l-89 -426h97l-12 -55h-162l74 353q-29 -57 -96.5 -97.5t-142.5 -40.5q-129 0 -208.5 83t-79.5 213q0 117 45 213t131 153.5t197 57.5t186 -68t75 -167h-70q-6 83 -62.5 126.5t-138.5 43.5
q-128 0 -210.5 -102.5t-82.5 -241.5q0 -115 59 -180.5t160 -65.5q89 0 163.5 67t100.5 163h-224l13 65h211q33 0 51 -16t18 -45q0 -15 -3 -33z" />
    <glyph glyph-name="Gcircumflex.isol" horiz-adv-x="745" 
d="M570 765l-82 73l-123 -73h-69l150 125h90l99 -125h-65zM353 -10q-129 0 -208.5 83t-79.5 213q0 117 45 213t131 153.5t197 57.5t186 -68t75 -167h-70q-6 83 -62.5 126.5t-138.5 43.5q-128 0 -210.5 -102.5t-82.5 -241.5q0 -115 59 -180.5t160 -65.5q89 0 163.5 67
t100.5 163h-224l13 65h211q33 0 51 -16t18 -45q0 -15 -3 -33l-54 -256h-65l27 128q-29 -57 -96.5 -97.5t-142.5 -40.5zM680 -225h-785l12 55h785z" />
    <glyph glyph-name="uni0122.fina" horiz-adv-x="745" 
d="M407 350h211q33 0 51 -16t18 -45q0 -15 -3 -33l-101 -481h-153l12 55h88l62 298q-29 -57 -96.5 -97.5t-142.5 -40.5q-129 0 -208.5 83t-79.5 213q0 117 45 213t131 153.5t197 57.5t186 -68t75 -167h-70q-6 83 -62.5 126.5t-138.5 43.5q-128 0 -210.5 -102.5t-82.5 -241.5
q0 -115 59 -180.5t160 -65.5q89 0 163.5 67t100.5 163h-224zM-93 -170h460l-11 -49q-11 -50 -32 -74.5t-62 -24.5h-10l7 35h6q24 0 36 14t19 44h-425z" />
    <glyph glyph-name="uni0122.fina.default" horiz-adv-x="745" 
d="M407 350h211q33 0 51 -16t18 -45q0 -15 -3 -33l-54 -256h-65l27 128q-29 -57 -96.5 -97.5t-142.5 -40.5q-129 0 -208.5 83t-79.5 213q0 117 45 213t131 153.5t197 57.5t186 -68t75 -167h-70q-6 83 -62.5 126.5t-138.5 43.5q-128 0 -210.5 -102.5t-82.5 -241.5
q0 -115 59 -180.5t160 -65.5q89 0 163.5 67t100.5 163h-224zM-93 -170h460l-11 -49q-11 -50 -32 -74.5t-62 -24.5h-10l7 35h6q24 0 36 14t19 44h-425z" />
    <glyph glyph-name="uni0122.init" horiz-adv-x="745" 
d="M565 0l27 128q-29 -57 -96.5 -97.5t-142.5 -40.5q-129 0 -208.5 83t-79.5 213q0 117 45 213t131 153.5t197 57.5t186 -68t75 -167h-70q-6 83 -62.5 126.5t-138.5 43.5q-128 0 -210.5 -102.5t-82.5 -241.5q0 -115 59 -180.5t160 -65.5q89 0 163.5 67t100.5 163h-224l13 65
h211q33 0 51 -16t18 -45q0 -15 -3 -33l-54 -256h-65zM301 -225h-30l12 55h65l-11 -49q-11 -50 -32 -74.5t-62 -24.5h-10l7 35h6q24 0 36 14t19 44zM679 -225h-268l12 55h268z" />
    <glyph glyph-name="Gdotaccent.fina" horiz-adv-x="745" 
d="M453 865h75l-17 -85h-75zM407 350h211q33 0 51 -16t18 -45q0 -15 -3 -33l-101 -481h-688l12 55h623l62 298q-29 -57 -96.5 -97.5t-142.5 -40.5q-129 0 -208.5 83t-79.5 213q0 117 45 213t131 153.5t197 57.5t186 -68t75 -167h-70q-6 83 -62.5 126.5t-138.5 43.5
q-128 0 -210.5 -102.5t-82.5 -241.5q0 -115 59 -180.5t160 -65.5q89 0 163.5 67t100.5 163h-224z" />
    <glyph glyph-name="Gdotaccent.init" horiz-adv-x="745" 
d="M453 865h75l-17 -85h-75zM684 256l-89 -426h97l-12 -55h-162l74 353q-29 -57 -96.5 -97.5t-142.5 -40.5q-129 0 -208.5 83t-79.5 213q0 117 45 213t131 153.5t197 57.5t186 -68t75 -167h-70q-6 83 -62.5 126.5t-138.5 43.5q-128 0 -210.5 -102.5t-82.5 -241.5
q0 -115 59 -180.5t160 -65.5q89 0 163.5 67t100.5 163h-224l13 65h211q33 0 51 -16t18 -45q0 -15 -3 -33z" />
    <glyph glyph-name="Gdotaccent.isol" horiz-adv-x="745" 
d="M453 865h75l-17 -85h-75zM353 -10q-129 0 -208.5 83t-79.5 213q0 117 45 213t131 153.5t197 57.5t186 -68t75 -167h-70q-6 83 -62.5 126.5t-138.5 43.5q-128 0 -210.5 -102.5t-82.5 -241.5q0 -115 59 -180.5t160 -65.5q89 0 163.5 67t100.5 163h-224l13 65h211
q33 0 51 -16t18 -45q0 -15 -3 -33l-54 -256h-65l27 128q-29 -57 -96.5 -97.5t-142.5 -40.5zM680 -225h-785l12 55h785z" />
    <glyph glyph-name="G.ss03" horiz-adv-x="736" 
d="M362 -10q-130 0 -213 87.5t-83 222.5q0 176 101.5 293t266.5 117q109 0 183.5 -64t81.5 -171h-70q-7 79 -63 124.5t-136 45.5q-136 0 -215 -97t-79 -243q0 -109 65.5 -179.5t171.5 -70.5q81 0 140.5 44.5t78.5 127.5l13 58h-217l13 65h289l-28 -135
q-22 -106 -103.5 -165.5t-196.5 -59.5zM666 -225h-772l12 55h772z" />
    <glyph glyph-name="Gbreve.ss03" horiz-adv-x="736" 
d="M478 755q-64 0 -101 37.5t-28 97.5h55q-5 -37 16 -58.5t59 -21.5q35 0 64.5 20t40.5 60h55q-8 -63 -54 -99t-107 -36zM362 -10q-130 0 -213 87.5t-83 222.5q0 176 101.5 293t266.5 117q109 0 183.5 -64t81.5 -171h-70q-7 79 -63 124.5t-136 45.5q-136 0 -215 -97
t-79 -243q0 -109 65.5 -179.5t171.5 -70.5q81 0 140.5 44.5t78.5 127.5l13 58h-217l13 65h289l-28 -135q-22 -106 -103.5 -165.5t-196.5 -59.5zM666 -225h-772l12 55h772z" />
    <glyph glyph-name="Gcircumflex.ss03" horiz-adv-x="736" 
d="M566 765l-82 73l-123 -73h-69l150 125h90l99 -125h-65zM605 285h-217l13 65h289l-28 -135q-22 -106 -103.5 -165.5t-196.5 -59.5q-130 0 -213 87.5t-83 222.5q0 176 101.5 293t266.5 117q109 0 183.5 -64t81.5 -171h-70q-7 79 -63 124.5t-136 45.5q-136 0 -215 -97
t-79 -243q0 -109 65.5 -179.5t171.5 -70.5q81 0 140.5 44.5t78.5 127.5zM666 -225h-772l12 55h772z" />
    <glyph glyph-name="uni0122.fina.ss03" horiz-adv-x="736" 
d="M605 285h-217l13 65h289l-28 -135q-22 -106 -103.5 -165.5t-196.5 -59.5q-130 0 -213 87.5t-83 222.5q0 176 101.5 293t266.5 117q109 0 183.5 -64t81.5 -171h-70q-7 79 -63 124.5t-136 45.5q-136 0 -215 -97t-79 -243q0 -109 65.5 -179.5t171.5 -70.5q81 0 140.5 44.5
t78.5 127.5zM-94 -170h449l-11 -49q-11 -50 -32 -74.5t-62 -24.5h-10l7 35h6q24 0 36 14t19 44h-414z" />
    <glyph glyph-name="uni0122.init.ss03" horiz-adv-x="736" 
d="M362 -10q-130 0 -213 87.5t-83 222.5q0 176 101.5 293t266.5 117q109 0 183.5 -64t81.5 -171h-70q-7 79 -63 124.5t-136 45.5q-136 0 -215 -97t-79 -243q0 -109 65.5 -179.5t171.5 -70.5q81 0 140.5 44.5t78.5 127.5l13 58h-217l13 65h289l-28 -135
q-22 -106 -103.5 -165.5t-196.5 -59.5zM250 -318h-10l7 35h6q24 0 36 14t19 44h-30l12 55h65l-11 -49q-11 -50 -32 -74.5t-62 -24.5zM663 -225h-245l12 55h245z" />
    <glyph glyph-name="uni0122.ss03" horiz-adv-x="736" 
d="M605 285h-217l13 65h289l-28 -135q-22 -106 -103.5 -165.5t-196.5 -59.5q-130 0 -213 87.5t-83 222.5q0 176 101.5 293t266.5 117q109 0 183.5 -64t81.5 -171h-70q-7 79 -63 124.5t-136 45.5q-136 0 -215 -97t-79 -243q0 -109 65.5 -179.5t171.5 -70.5q81 0 140.5 44.5
t78.5 127.5zM-94 -170h449l-11 -49q-11 -50 -32 -74.5t-62 -24.5h-10l7 35h6q24 0 36 14t19 44h-414zM670 -225h-252l12 55h252z" />
    <glyph glyph-name="Gdotaccent.ss03" horiz-adv-x="736" 
d="M507 780h-75l17 85h75zM362 -10q-130 0 -213 87.5t-83 222.5q0 176 101.5 293t266.5 117q109 0 183.5 -64t81.5 -171h-70q-7 79 -63 124.5t-136 45.5q-136 0 -215 -97t-79 -243q0 -109 65.5 -179.5t171.5 -70.5q81 0 140.5 44.5t78.5 127.5l13 58h-217l13 65h289
l-28 -135q-22 -106 -103.5 -165.5t-196.5 -59.5zM666 -225h-772l12 55h772z" />
    <glyph glyph-name="H.fina" horiz-adv-x="731" 
d="M583 383l67 317h70l-197 -925h-629l12 55h559l104 488h-395l-68 -318h-70l149 700h70l-67 -317h395z" />
    <glyph glyph-name="H.init" horiz-adv-x="731" 
d="M569 318h-395l-104 -488h607l-12 -55h-677l197 925h70l-67 -317h395l67 317h70l-149 -700h-70z" />
    <glyph glyph-name="H.isol" horiz-adv-x="731" 
d="M106 0h-70l149 700h70l-67 -317h395l67 317h70l-149 -700h-70l68 318h-395zM665 -225h-771l12 55h771z" />
    <glyph glyph-name="Hbar.fina" horiz-adv-x="761" 
d="M709 580h100l-12 -60h-100l-159 -745h-640l12 55h570l104 488h-395l-68 -318h-70l111 520h-99l12 60h99l26 120h70l-25 -120h395l25 120h70zM203 383h395l29 137h-395z" />
    <glyph glyph-name="Hbar.init" horiz-adv-x="762" 
d="M698 520l-111 -520h-70l68 318h-395l-104 -488h618l-12 -55h-688l159 745h-99l12 60h99l26 120h70l-25 -120h395l25 120h70l-26 -120h100l-12 -60h-100zM233 520l-29 -137h395l29 137h-395z" />
    <glyph glyph-name="Hbar.isol" horiz-adv-x="761" 
d="M735 700l-26 -120h100l-12 -60h-100l-111 -520h-70l68 318h-395l-68 -318h-70l111 520h-99l12 60h99l26 120h70l-25 -120h395l25 120h70zM203 383h395l29 137h-395zM691 -225h-793l12 55h793z" />
    <glyph glyph-name="Hcircumflex.fina" horiz-adv-x="731" 
d="M565 765l-82 73l-123 -73h-69l150 125h90l99 -125h-65zM583 383l67 317h70l-197 -925h-629l12 55h559l104 488h-395l-68 -318h-70l149 700h70l-67 -317h395z" />
    <glyph glyph-name="Hcircumflex.init" horiz-adv-x="731" 
d="M565 765l-82 73l-123 -73h-69l150 125h90l99 -125h-65zM569 318h-395l-104 -488h607l-12 -55h-677l197 925h70l-67 -317h395l67 317h70l-149 -700h-70z" />
    <glyph glyph-name="Hcircumflex.isol" horiz-adv-x="731" 
d="M565 765l-82 73l-123 -73h-69l150 125h90l99 -125h-65zM569 318h-395l-68 -318h-70l149 700h70l-67 -317h395l67 317h70l-149 -700h-70zM665 -225h-771l12 55h771z" />
    <glyph glyph-name="I.fina" horiz-adv-x="266" 
d="M0 -170l185 870h70l-197 -925h-164l12 55h94z" />
    <glyph glyph-name="I.init" horiz-adv-x="266" 
d="M185 700h70l-185 -870h142l-12 -55h-212z" />
    <glyph glyph-name="I.isol" horiz-adv-x="266" 
d="M106 0h-70l149 700h70zM200 -225h-306l12 55h306z" />
    <glyph glyph-name="IJ.fina" horiz-adv-x="552" 
d="M178 -225h-264l12 55h263q59 0 88 31.5t43 103.5l157 735h70l-159 -745q-20 -96 -69 -138t-141 -42zM108 0h-70l145 700h70z" />
    <glyph glyph-name="IJ.init" horiz-adv-x="553" 
d="M227 0h-127l-35 -170h434l-12 -55h-499l61 290h189q59 0 88 29.5t43 95.5l109 510h70l-111 -520q-20 -96 -69 -138t-141 -42zM184 700h70l-107 -515h-70z" />
    <glyph glyph-name="IJ.isol" horiz-adv-x="532" 
d="M206 0h-192l14 65h189q59 0 88 29.5t43 95.5l109 510h70l-111 -520q-20 -96 -69 -138t-141 -42zM126 185h-70l107 515h70zM472 -225h-600l12 55h600z" />
    <glyph glyph-name="Iacute.fina" horiz-adv-x="266" 
d="M204 765l53 125h90l-83 -125h-60zM-94 -170h94l185 870h70l-197 -925h-164z" />
    <glyph glyph-name="Iacute.init" horiz-adv-x="266" 
d="M204 765l53 125h90l-83 -125h-60zM-12 -225l197 925h70l-185 -870h142l-12 -55h-212z" />
    <glyph glyph-name="Iacute.isol" horiz-adv-x="266" 
d="M264 765h-60l53 125h90zM106 0h-70l149 700h70zM200 -225h-306l12 55h306z" />
    <glyph glyph-name="Ibreve.fina" horiz-adv-x="266" 
d="M343 890h55q-8 -63 -54 -99t-107 -36q-64 0 -101 37.5t-28 97.5h55q-5 -37 16 -58.5t59 -21.5q35 0 64.5 20t40.5 60zM-114 -170h114l185 870h70l-197 -925h-184z" />
    <glyph glyph-name="Ibreve.init" horiz-adv-x="266" 
d="M343 890h55q-8 -63 -54 -99t-107 -36q-64 0 -101 37.5t-28 97.5h55q-5 -37 16 -58.5t59 -21.5q35 0 64.5 20t40.5 60zM-12 -225l197 925h70l-185 -870h147l-12 -55h-217z" />
    <glyph glyph-name="Ibreve.isol" horiz-adv-x="266" 
d="M237 755q-64 0 -101 37.5t-28 97.5h55q-5 -37 16 -58.5t59 -21.5q35 0 64.5 20t40.5 60h55q-8 -63 -54 -99t-107 -36zM106 0h-70l149 700h70zM205 -225h-331l12 55h331z" />
    <glyph glyph-name="Icircumflex.fina" horiz-adv-x="266" 
d="M202 890h90l99 -125h-65l-82 73l-123 -73h-69zM-139 -170h139l185 870h70l-197 -925h-209z" />
    <glyph glyph-name="Icircumflex.init" horiz-adv-x="266" 
d="M202 890h90l99 -125h-65l-82 73l-123 -73h-69zM-12 -225l197 925h70l-185 -870h170l-12 -55h-240z" />
    <glyph glyph-name="Icircumflex.isol" horiz-adv-x="266" 
d="M202 890h90l99 -125h-65l-82 73l-123 -73h-69zM106 0h-70l149 700h70zM228 -225h-379l12 55h379z" />
    <glyph glyph-name="Idieresis.fina" horiz-adv-x="266" 
d="M113 860h80l-17 -80h-80zM282 780l17 80h80l-17 -80h-80zM-105 -170h105l185 870h70l-197 -925h-175z" />
    <glyph glyph-name="Idieresis.init" horiz-adv-x="266" 
d="M113 860h80l-17 -80h-80zM282 780l17 80h80l-17 -80h-80zM-12 -225l197 925h70l-185 -870h142l-12 -55h-212z" />
    <glyph glyph-name="Idieresis.isol" horiz-adv-x="266" 
d="M176 780h-80l17 80h80zM362 780h-80l17 80h80zM106 0h-70l149 700h70zM200 -225h-306l12 55h306z" />
    <glyph glyph-name="Idotaccent.fina" horiz-adv-x="266" 
d="M198 780l17 85h75l-17 -85h-75zM-94 -170h94l185 870h70l-197 -925h-164z" />
    <glyph glyph-name="Idotaccent.init" horiz-adv-x="266" 
d="M198 780l17 85h75l-17 -85h-75zM-12 -225l197 925h70l-185 -870h142l-12 -55h-212z" />
    <glyph glyph-name="Idotaccent.isol" horiz-adv-x="266" 
d="M273 780h-75l17 85h75zM106 0h-70l149 700h70zM200 -225h-306l12 55h306z" />
    <glyph glyph-name="Igrave.fina" horiz-adv-x="266" 
d="M206 890l53 -125h-60l-83 125h90zM-104 -170h104l185 870h70l-197 -925h-174z" />
    <glyph glyph-name="Igrave.init" horiz-adv-x="266" 
d="M206 890l53 -125h-60l-83 125h90zM-12 -225l197 925h70l-185 -870h142l-12 -55h-212z" />
    <glyph glyph-name="Igrave.isol" horiz-adv-x="266" 
d="M259 765h-60l-83 125h90zM106 0h-70l149 700h70zM200 -225h-316l12 55h316z" />
    <glyph glyph-name="Imacron.fina" horiz-adv-x="266" 
d="M94 780l11 55h276l-11 -55h-276zM-113 -170h113l185 870h70l-197 -925h-183z" />
    <glyph glyph-name="Imacron.init" horiz-adv-x="266" 
d="M94 780l11 55h276l-11 -55h-276zM-12 -225l197 925h70l-185 -870h142l-12 -55h-212z" />
    <glyph glyph-name="Imacron.isol" horiz-adv-x="266" 
d="M370 780h-276l11 55h276zM106 0h-70l149 700h70zM200 -225h-320l12 55h320z" />
    <glyph glyph-name="Itilde.fina" horiz-adv-x="266" 
d="M363 874h55l-3 -15q-9 -46 -33 -72.5t-60 -26.5q-29 0 -69 23l-37 22q-31 19 -47 19q-17 0 -26 -11.5t-15 -42.5h-55l3 14q12 53 32.5 76.5t59.5 23.5q26 0 70 -25l39 -23q26 -16 40 -16q34 0 46 54zM-131 -170h131l185 870h70l-197 -925h-201z" />
    <glyph glyph-name="Itilde.init" horiz-adv-x="266" 
d="M363 874h55l-3 -15q-9 -46 -33 -72.5t-60 -26.5q-29 0 -69 23l-37 22q-31 19 -47 19q-17 0 -26 -11.5t-15 -42.5h-55l3 14q12 53 32.5 76.5t59.5 23.5q26 0 70 -25l39 -23q26 -16 40 -16q34 0 46 54zM-12 -225l197 925h70l-185 -870h162l-12 -55h-232z" />
    <glyph glyph-name="Itilde.isol" horiz-adv-x="266" 
d="M322 760q-29 0 -69 23l-37 22q-31 19 -47 19q-17 0 -26 -11.5t-15 -42.5h-55l3 14q12 53 32.5 76.5t59.5 23.5q26 0 70 -25l39 -23q26 -16 40 -16q34 0 46 54h55l-3 -15q-9 -46 -33 -72.5t-60 -26.5zM106 0h-70l149 700h70zM220 -225h-363l12 55h363z" />
    <glyph glyph-name="J.fina" horiz-adv-x="379" 
d="M5 -225h-111l12 55h113q52 0 82 29.5t44 95.5l159 745h70l-159 -745q-21 -97 -68 -138.5t-142 -41.5z" />
    <glyph glyph-name="J.init" horiz-adv-x="379" 
d="M53 0h-21l-35 -170h328l-12 -55h-393l61 290h88q52 0 82 29.5t44 95.5l109 510h70l-111 -520q-21 -97 -68 -138.5t-142 -41.5z" />
    <glyph glyph-name="J.isol" horiz-adv-x="379" 
d="M53 0h-86l14 65h88q52 0 82 29.5t44 95.5l109 510h70l-111 -520q-21 -97 -68 -138.5t-142 -41.5zM313 -225h-419l12 55h419z" />
    <glyph glyph-name="Jcircumflex.fina" horiz-adv-x="379" 
d="M329 890h90l99 -125h-65l-82 73l-123 -73h-69zM145 -45l159 745h70l-159 -745q-21 -97 -68 -138.5t-142 -41.5h-111l12 55h113q52 0 82 29.5t44 95.5z" />
    <glyph glyph-name="Jcircumflex.init" horiz-adv-x="379" 
d="M329 890h90l99 -125h-65l-82 73l-123 -73h-69zM53 0h-21l-35 -170h328l-12 -55h-393l61 290h88q52 0 82 29.5t44 95.5l109 510h70l-111 -520q-21 -97 -68 -138.5t-142 -41.5z" />
    <glyph glyph-name="Jcircumflex.isol" horiz-adv-x="379" 
d="M329 890h90l99 -125h-65l-82 73l-123 -73h-69zM195 190l109 510h70l-111 -520q-21 -97 -68 -138.5t-142 -41.5h-86l14 65h88q52 0 82 29.5t44 95.5zM347 -225h-453l12 55h453z" />
    <glyph glyph-name="K.fina" horiz-adv-x="701" 
d="M743 700l-360 -299l423 -626h-912l12 55h781l-356 527l-181 -150l-43 -207h-70l147 700h70l-83 -397l474 397h98z" />
    <glyph glyph-name="K.init" horiz-adv-x="701" 
d="M572 0l-241 357l-180 -150l-79 -377h581l-12 -55h-651l194 925h70l-83 -397l474 397h98l-360 -299l271 -401h-82z" />
    <glyph glyph-name="K.isol" horiz-adv-x="701" 
d="M645 700h98l-360 -299l271 -401h-82l-241 357l-181 -150l-43 -207h-70l147 700h70l-83 -397zM641 -225h-747l12 55h747z" />
    <glyph glyph-name="uni0136.fina" horiz-adv-x="701" 
d="M743 700l-360 -299l423 -626h-393l12 55h262l-356 527l-181 -150l-43 -207h-70l147 700h70l-83 -397l474 397h98zM-94 -170h444l-11 -49q-11 -50 -32 -74.5t-62 -24.5h-10l7 35h6q24 0 36 14t19 44h-409z" />
    <glyph glyph-name="uni0136.fina.default" horiz-adv-x="701" 
d="M645 700h98l-360 -299l271 -401h-82l-241 357l-181 -150l-43 -207h-70l147 700h70l-83 -397zM-94 -170h444l-11 -49q-11 -50 -32 -74.5t-62 -24.5h-10l7 35h6q24 0 36 14t19 44h-409z" />
    <glyph glyph-name="uni0136.init" horiz-adv-x="701" 
d="M645 700h98l-360 -299l271 -401h-82l-241 357l-180 -150l-79 -377h278l-11 -49q-11 -50 -32 -74.5t-62 -24.5h-10l7 35h6q24 0 36 14t19 44h-313l194 925h70l-83 -397zM635 -225h-222l12 55h222z" />
    <glyph glyph-name="uni0136.init.default" horiz-adv-x="701" 
d="M645 700h98l-360 -299l271 -401h-82l-241 357l-181 -150l-43 -207h-70l147 700h70l-83 -397zM274 -225h-30l12 55h65l-11 -49q-11 -50 -32 -74.5t-62 -24.5h-10l7 35h6q24 0 36 14t19 44zM635 -225h-251l12 55h251z" />
    <glyph glyph-name="uni0136.isol" horiz-adv-x="701" 
d="M645 700h98l-360 -299l271 -401h-82l-241 357l-181 -150l-43 -207h-70l147 700h70l-83 -397zM-94 -170h415l-11 -49q-11 -50 -32 -74.5t-62 -24.5h-10l7 35h6q24 0 36 14t19 44h-380zM635 -225h-251l12 55h251z" />
    <glyph glyph-name="L.fina" horiz-adv-x="597" 
d="M120 65h420l-61 -290h-585l12 55h520l35 170h-425l149 700h70z" />
    <glyph glyph-name="L.init" horiz-adv-x="597" 
d="M540 65l-49 -235h52l-12 -55h-117l47 225h-425l149 700h70l-135 -635h420z" />
    <glyph glyph-name="L.isol" horiz-adv-x="597" 
d="M526 0h-490l149 700h70l-135 -635h420zM531 -225h-637l12 55h637z" />
    <glyph glyph-name="Lacute.fina" horiz-adv-x="597" 
d="M257 890h90l-83 -125h-60zM120 65h420l-61 -290h-585l12 55h520l35 170h-425l149 700h70z" />
    <glyph glyph-name="Lacute.init" horiz-adv-x="597" 
d="M257 890h90l-83 -125h-60zM540 65l-49 -235h52l-12 -55h-117l47 225h-425l149 700h70l-135 -635h420z" />
    <glyph glyph-name="Lacute.isol" horiz-adv-x="597" 
d="M264 765h-60l53 125h90zM526 0h-490l149 700h70l-135 -635h420zM531 -225h-637l12 55h637z" />
    <glyph glyph-name="Lcaron.fina" horiz-adv-x="597" 
d="M120 65h420l-61 -290h-585l12 55h520l35 170h-425l149 700h70zM427 700l-15 -69q-10 -47 -30.5 -69t-60.5 -22h-12l7 35h8q22 0 33.5 11t17.5 35l1 4h-30l16 75h65z" />
    <glyph glyph-name="Lcaron.init" horiz-adv-x="597" 
d="M540 65l-49 -235h52l-12 -55h-117l47 225h-425l149 700h70l-135 -635h420zM427 700l-15 -69q-10 -47 -30.5 -69t-60.5 -22h-12l7 35h8q22 0 33.5 11t17.5 35l1 4h-30l16 75h65z" />
    <glyph glyph-name="Lcaron.isol" horiz-adv-x="597" 
d="M526 0h-490l149 700h70l-135 -635h420zM321 540h-12l7 35h8q22 0 33.5 11t17.5 35l1 4h-30l16 75h65l-15 -69q-10 -47 -30.5 -69t-60.5 -22zM531 -225h-637l12 55h637z" />
    <glyph glyph-name="uni013B.fina" horiz-adv-x="597" 
d="M255 700l-135 -635h420l-14 -65h-490l149 700h70zM-94 -170h371l-11 -49q-11 -50 -32 -74.5t-62 -24.5h-10l7 35h6q24 0 36 14t19 44h-336z" />
    <glyph glyph-name="uni013B.init" horiz-adv-x="597" 
d="M526 0h-490l149 700h70l-135 -635h420zM172 -318h-10l7 35h6q24 0 36 14t19 44h-30l12 55h65l-11 -49q-11 -50 -32 -74.5t-62 -24.5zM531 -225h-191l12 55h191z" />
    <glyph glyph-name="Ldot.fina" horiz-adv-x="597" 
d="M120 65h420l-61 -290h-585l12 55h520l35 170h-425l149 700h70zM424 404h90l-19 -90h-90z" />
    <glyph glyph-name="Ldot.init" horiz-adv-x="597" 
d="M540 65l-49 -235h52l-12 -55h-117l47 225h-425l149 700h70l-135 -635h420zM424 404h90l-19 -90h-90z" />
    <glyph glyph-name="Ldot.isol" horiz-adv-x="597" 
d="M526 0h-490l149 700h70l-135 -635h420zM495 314h-90l19 90h90zM531 -225h-637l12 55h637z" />
    <glyph glyph-name="Lslash.fina" horiz-adv-x="624" 
d="M147 65h420l-61 -290h-606l12 55h541l35 170h-425l59 275l-112 -56l16 75l112 57l74 349h70l-66 -309l212 108l-16 -77l-212 -107z" />
    <glyph glyph-name="Lslash.init" horiz-adv-x="624" 
d="M567 65l-49 -235h52l-12 -55h-117l47 225h-425l58 275l-110 -56l16 75l111 56l74 350h70l-66 -310l213 109l-16 -77l-213 -108l-53 -249h420z" />
    <glyph glyph-name="Lslash.isol" horiz-adv-x="624" 
d="M553 0h-490l59 275l-112 -56l16 75l112 57l74 349h70l-66 -309l212 108l-16 -77l-212 -107l-53 -250h420zM-100 -225l12 55h657l-12 -55h-657z" />
    <glyph glyph-name="M.fina" horiz-adv-x="929" 
d="M412 56l386 644h120l-197 -925h-827l12 55h757l172 806l-384 -636h-96l-113 637l-136 -637h-70l149 700h114z" />
    <glyph glyph-name="M.init" horiz-adv-x="929" 
d="M355 0l-113 637l-172 -807h805l-12 -55h-875l197 925h114l113 -644l386 644h120l-149 -700h-70l136 636l-384 -636h-96z" />
    <glyph glyph-name="M.isol" horiz-adv-x="929" 
d="M355 0l-113 637l-136 -637h-70l149 700h114l113 -644l386 644h120l-149 -700h-70l136 636l-384 -636h-96zM863 -225h-969l12 55h969z" />
    <glyph glyph-name="N.fina" horiz-adv-x="741" 
d="M531 93l129 607h70l-149 -700h-85l-259 618l-179 -843h-164l12 55h94l185 870h90z" />
    <glyph glyph-name="N.init" horiz-adv-x="741" 
d="M496 0l-259 618l-167 -788h617l-12 -55h-687l197 925h90l256 -607l129 607h70l-149 -700h-85z" />
    <glyph glyph-name="N.isol" horiz-adv-x="741" 
d="M496 0l-259 618l-131 -618h-70l149 700h90l256 -607l129 607h70l-149 -700h-85zM675 -225h-781l12 55h781z" />
    <glyph glyph-name="Nacute.fina" horiz-adv-x="741" 
d="M495 890h90l-83 -125h-60zM531 93l129 607h70l-149 -700h-85l-259 618l-179 -843h-164l12 55h94l185 870h90z" />
    <glyph glyph-name="Nacute.init" horiz-adv-x="741" 
d="M495 890h90l-83 -125h-60zM496 0l-259 618l-167 -788h617l-12 -55h-687l197 925h90l256 -607l129 607h70l-149 -700h-85z" />
    <glyph glyph-name="Nacute.isol" horiz-adv-x="741" 
d="M495 890h90l-83 -125h-60zM496 0l-259 618l-131 -618h-70l149 700h90l256 -607l129 607h70l-149 -700h-85zM675 -225h-781l12 55h781z" />
    <glyph glyph-name="Ncaron.fina" horiz-adv-x="741" 
d="M673 890l-150 -125h-90l-99 125h66l82 -73l123 73h68zM531 93l129 607h70l-149 -700h-85l-259 618l-179 -843h-164l12 55h94l185 870h90z" />
    <glyph glyph-name="Ncaron.init" horiz-adv-x="741" 
d="M673 890l-150 -125h-90l-99 125h66l82 -73l123 73h68zM496 0l-259 618l-167 -788h617l-12 -55h-687l197 925h90l256 -607l129 607h70l-149 -700h-85z" />
    <glyph glyph-name="Ncaron.isol" horiz-adv-x="741" 
d="M673 890l-150 -125h-90l-99 125h66l82 -73l123 73h68zM496 0l-259 618l-131 -618h-70l149 700h90l256 -607l129 607h70l-149 -700h-85zM675 -225h-781l12 55h781z" />
    <glyph glyph-name="uni0145.fina" horiz-adv-x="741" 
d="M531 93l129 607h70l-149 -700h-85l-259 618l-131 -618h-70l149 700h90zM-94 -170h399l-11 -49q-11 -50 -32 -74.5t-62 -24.5h-10l7 35h6q24 0 36 14t19 44h-364z" />
    <glyph glyph-name="uni0145.init" horiz-adv-x="741" 
d="M70 -170h245l-11 -49q-11 -50 -32 -74.5t-62 -24.5h-10l7 35h6q24 0 36 14t19 44h-280l197 925h90l256 -607l129 607h70l-149 -700h-85l-259 618zM675 -225h-297l12 55h297z" />
    <glyph glyph-name="uni0145.init.default" horiz-adv-x="741" 
d="M581 0h-85l-259 618l-131 -618h-70l149 700h90l256 -607l129 607h70zM258 -225h-30l12 55h65l-11 -49q-11 -50 -32 -74.5t-62 -24.5h-10l7 35h6q24 0 36 14t19 44zM675 -225h-307l12 55h307z" />
    <glyph glyph-name="uni0145.isol" horiz-adv-x="741" 
d="M496 0l-259 618l-131 -618h-70l149 700h90l256 -607l129 607h70l-149 -700h-85zM-94 -170h399l-11 -49q-11 -50 -32 -74.5t-62 -24.5h-10l7 35h6q24 0 36 14t19 44h-364zM675 -225h-307l12 55h307z" />
    <glyph glyph-name="Ntilde.fina" horiz-adv-x="741" 
d="M407 824q-17 0 -26 -11.5t-15 -42.5h-55l3 14q12 53 32.5 76.5t59.5 23.5q26 0 70 -25l39 -23q26 -16 40 -16q34 0 46 54h55l-3 -15q-9 -46 -33 -72.5t-60 -26.5q-29 0 -69 23l-37 22q-31 19 -47 19zM531 93l129 607h70l-149 -700h-85l-259 618l-179 -843h-164l12 55h94
l185 870h90z" />
    <glyph glyph-name="Ntilde.init" horiz-adv-x="741" 
d="M407 824q-17 0 -26 -11.5t-15 -42.5h-55l3 14q12 53 32.5 76.5t59.5 23.5q26 0 70 -25l39 -23q26 -16 40 -16q34 0 46 54h55l-3 -15q-9 -46 -33 -72.5t-60 -26.5q-29 0 -69 23l-37 22q-31 19 -47 19zM496 0l-259 618l-167 -788h617l-12 -55h-687l197 925h90l256 -607
l129 607h70l-149 -700h-85z" />
    <glyph glyph-name="Ntilde.isol" horiz-adv-x="741" 
d="M407 824q-17 0 -26 -11.5t-15 -42.5h-55l3 14q12 53 32.5 76.5t59.5 23.5q26 0 70 -25l39 -23q26 -16 40 -16q34 0 46 54h55l-3 -15q-9 -46 -33 -72.5t-60 -26.5q-29 0 -69 23l-37 22q-31 19 -47 19zM496 0l-259 618l-131 -618h-70l149 700h90l256 -607l129 607h70
l-149 -700h-85zM675 -225h-781l12 55h781z" />
    </font>
</defs>
</svg>
