<svg width="68" height="19" viewBox="0 0 68 19" fill="none" xmlns="http://www.w3.org/2000/svg">
<path d="M8.33089 0.500977H3.07677C2.71723 0.500977 2.41146 0.762185 2.35537 1.11712L0.230369 14.5901C0.188115 14.8559 0.394008 15.0956 0.663667 15.0956H3.17203C3.53158 15.0956 3.83735 14.8344 3.89343 14.4787L4.46655 10.8448C4.52186 10.4891 4.8284 10.2279 5.18718 10.2279H6.85046C10.3115 10.2279 12.3089 8.5531 12.8306 5.23422C13.0657 3.78221 12.8406 2.64135 12.1607 1.84236C11.4139 0.965005 10.0894 0.500977 8.33089 0.500977ZM8.93705 5.42168C8.64972 7.30698 7.20923 7.30698 5.81638 7.30698H5.02354L5.57976 3.78605C5.61279 3.57324 5.79718 3.41652 6.01229 3.41652H6.37567C7.32447 3.41652 8.21949 3.41652 8.68199 3.95737C8.95779 4.28004 9.0423 4.75944 8.93705 5.42168Z" fill="#253B80"/>
<path d="M24.0363 5.36114H21.5202C21.3059 5.36114 21.1208 5.51786 21.0877 5.73067L20.9763 6.43439L20.8004 6.17933C20.2557 5.38879 19.0411 5.12451 17.8288 5.12451C15.0484 5.12451 12.6737 7.23031 12.2113 10.1843C11.9708 11.6578 12.3127 13.0668 13.1485 14.0494C13.9153 14.9528 15.0123 15.3293 16.3176 15.3293C18.5578 15.3293 19.8001 13.8888 19.8001 13.8888L19.6879 14.5879C19.6457 14.8553 19.8516 15.095 20.1197 15.095H22.3861C22.7464 15.095 23.0506 14.8338 23.1075 14.4781L24.4673 5.86665C24.5103 5.6016 24.3052 5.36114 24.0363 5.36114ZM20.5292 10.258C20.2864 11.6954 19.1456 12.6604 17.6905 12.6604C16.9599 12.6604 16.376 12.426 16.0011 11.982C15.6292 11.541 15.4879 10.9133 15.6062 10.2142C15.8328 8.78911 16.9929 7.79267 18.4257 7.79267C19.1402 7.79267 19.721 8.03007 20.1036 8.47796C20.4869 8.93047 20.6391 9.56198 20.5292 10.258Z" fill="#253B80"/>
<path d="M37.4362 5.36035H34.9079C34.6666 5.36035 34.44 5.4802 34.3032 5.68072L30.8161 10.8173L29.338 5.88123C29.245 5.57239 28.96 5.36035 28.6373 5.36035H26.1528C25.8509 5.36035 25.6411 5.65536 25.7371 5.93962L28.5221 14.1124L25.9039 17.8085C25.698 18.0996 25.9054 18.4999 26.2611 18.4999H28.7864C29.0261 18.4999 29.2504 18.3831 29.3864 18.1864L37.7957 6.04794C37.997 5.75754 37.7904 5.36035 37.4362 5.36035Z" fill="#253B80"/>
<path d="M45.8075 0.500977H40.5526C40.1938 0.500977 39.888 0.762185 39.8319 1.11712L37.7069 14.5901C37.6647 14.8559 37.8706 15.0956 38.1387 15.0956H40.8353C41.0857 15.0956 41.3001 14.9127 41.3393 14.6638L41.9423 10.8448C41.9977 10.4891 42.3042 10.2279 42.663 10.2279H44.3255C47.7873 10.2279 49.784 8.5531 50.3064 5.23422C50.5422 3.78221 50.3156 2.64135 49.6357 1.84236C48.8897 0.965005 47.566 0.500977 45.8075 0.500977ZM46.4136 5.42168C46.1271 7.30698 44.6866 7.30698 43.2929 7.30698H42.5009L43.0579 3.78605C43.0909 3.57324 43.2737 3.41652 43.4896 3.41652H43.853C44.801 3.41652 45.6968 3.41652 46.1593 3.95737C46.4351 4.28004 46.5189 4.75944 46.4136 5.42168Z" fill="#179BD7"/>
<path d="M61.512 5.36114H58.9975C58.7816 5.36114 58.598 5.51786 58.5657 5.73067L58.4543 6.43439L58.2776 6.17933C57.7329 5.38879 56.5191 5.12451 55.3068 5.12451C52.5265 5.12451 50.1525 7.23031 49.69 10.1843C49.4503 11.6578 49.7907 13.0668 50.6266 14.0494C51.3948 14.9528 52.4903 15.3293 53.7956 15.3293C56.0359 15.3293 57.2781 13.8888 57.2781 13.8888L57.166 14.5879C57.1237 14.8553 57.3296 15.095 57.5993 15.095H59.8649C60.2236 15.095 60.5294 14.8338 60.5855 14.4781L61.9461 5.86665C61.9876 5.6016 61.7817 5.36114 61.512 5.36114ZM58.0049 10.258C57.7637 11.6954 56.6213 12.6604 55.1662 12.6604C54.4371 12.6604 53.8517 12.426 53.4768 11.982C53.105 11.541 52.9651 10.9133 53.0819 10.2142C53.3101 8.78911 54.4686 7.79267 55.9014 7.79267C56.6159 7.79267 57.1967 8.03007 57.5793 8.47796C57.9642 8.93047 58.1163 9.56198 58.0049 10.258Z" fill="#179BD7"/>
<path d="M64.4782 0.870301L62.3217 14.5899C62.2794 14.8557 62.4853 15.0954 62.7534 15.0954H64.9215C65.2818 15.0954 65.5875 14.8342 65.6429 14.4785L67.7694 1.00628C67.8117 0.740465 67.6058 0.5 67.3376 0.5H64.9099C64.6956 0.500768 64.5112 0.657493 64.4782 0.870301Z" fill="#179BD7"/>
</svg>
