<svg width="201" height="200" viewBox="0 0 201 200" fill="none" xmlns="http://www.w3.org/2000/svg">
<path d="M198.253 115.17C199.975 104.041 196.278 93.333 189.134 85.7074C190.529 82.7376 191.531 79.5244 192.055 76.1144C194.976 57.172 182.235 39.4381 163.483 36.0749C160.675 21.9759 149.347 10.4624 134.33 8.13914C126.991 7.0056 119.838 8.23282 113.631 11.24C108.623 6.49035 102.173 3.16466 94.833 2.03111C79.8073 -0.292188 65.5306 7.2679 58.6029 19.8681C39.9074 17.704 22.7003 30.707 19.7982 49.4714C19.2645 52.947 19.2552 56.3757 19.7139 59.6826C10.736 64.8258 4.09845 73.8566 2.3946 84.8736C0.690756 95.8811 4.29504 106.477 11.2789 114.093C9.87467 117.081 8.86358 120.304 8.32995 123.733C5.43716 142.488 17.8978 160.062 36.3405 163.669C39.0835 177.852 50.4393 189.45 65.5305 191.783C72.8702 192.916 80.0226 191.689 86.2295 188.682C91.238 193.432 97.6884 196.757 105.028 197.891C120.11 200.224 134.424 192.598 141.324 179.923C160.197 182.349 177.666 169.299 180.587 150.376C181.102 147.012 181.121 143.696 180.709 140.483C189.79 135.358 196.53 126.281 198.243 115.17H198.253Z" fill="#88AE9C" stroke="black" stroke-width="3" stroke-miterlimit="10"/>
</svg>
