<svg width="559" height="559" viewBox="0 0 559 559" fill="none" xmlns="http://www.w3.org/2000/svg">
    <path d="M555.818 322.414c4.861-31.403-5.573-61.616-25.728-83.133a98.914 98.914 0 0 0 8.241-27.067c8.242-53.449-27.71-103.487-80.62-112.976-7.924-39.782-39.887-72.27-82.257-78.825-20.71-3.198-40.892.265-58.405 8.75-14.132-13.402-32.332-22.786-53.042-25.984-42.397-6.556-82.68 14.776-102.228 50.329-52.751-6.106-101.303 30.583-109.492 83.529-1.505 9.807-1.532 19.482-.237 28.813-25.333 14.512-44.061 39.993-48.87 71.079-4.807 31.059 5.363 60.955 25.07 82.445a99.928 99.928 0 0 0-8.322 27.2c-8.162 52.92 26.997 102.509 79.035 112.685 7.74 40.021 39.782 72.745 82.363 79.327 20.71 3.198 40.892-.264 58.405-8.75 14.132 13.402 32.333 22.786 53.042 25.984 42.556 6.582 82.945-14.934 102.413-50.699 53.254 6.847 102.545-29.975 110.786-83.37a100.019 100.019 0 0 0 .344-27.914c25.623-14.459 44.642-40.073 49.476-71.423h.026z" fill="#88AE9C" stroke="#000" stroke-width="3" stroke-miterlimit="10"/>
</svg>
