<svg width="406" height="406" viewBox="0 0 406 406" fill="none" xmlns="http://www.w3.org/2000/svg">
<path d="M403.767 234.018C401.749 247.02 386.686 256.495 382.373 268.414C377.912 280.694 383.287 297.626 376.658 308.525C369.902 319.615 352.354 322.61 343.686 332.065C334.933 341.582 333.424 359.301 323.035 366.907C312.647 374.513 295.289 370.603 283.583 376.085C271.962 381.502 263.804 397.33 251.184 400.41C238.777 403.448 224.266 393.208 211.222 393.739C198.56 394.271 184.984 405.764 171.982 403.767C158.98 401.749 149.505 386.686 137.586 382.373C125.306 377.912 108.374 383.287 97.4751 376.658C86.3851 369.902 83.3895 352.354 73.9354 343.686C64.4175 334.933 46.699 333.424 39.0932 323.035C31.4874 312.646 35.3966 295.289 29.9153 283.583C24.4978 271.962 8.67009 263.804 5.58953 251.184C2.55147 238.777 12.7917 224.266 12.2605 211.222C11.7294 198.56 0.235742 184.984 2.23279 171.982C4.25109 158.98 19.3139 149.505 23.6267 137.586C28.0882 125.306 22.7132 108.374 29.3417 97.4751C36.0977 86.3851 53.6462 83.3895 62.3142 73.9354C71.0673 64.4175 72.5757 46.699 82.9646 39.0932C93.3535 31.4874 110.711 35.3966 122.417 29.9153C134.038 24.4978 142.196 8.67009 154.816 5.58954C167.223 2.55147 181.734 12.7917 194.778 12.2605C207.44 11.7294 221.016 0.235743 234.018 2.23279C247.02 4.22984 256.495 19.3139 268.414 23.6267C280.694 28.0882 297.626 22.7132 308.525 29.3417C319.615 36.0976 322.611 53.6462 332.065 62.3142C341.582 71.0673 359.301 72.5757 366.907 82.9646C374.513 93.3535 370.603 110.711 376.085 122.417C381.502 134.038 397.33 142.196 400.41 154.816C403.449 167.223 393.208 181.734 393.739 194.778C394.271 207.44 405.764 221.016 403.767 234.018Z" fill="#FFF18C" stroke="black" stroke-width="3" stroke-miterlimit="10"/>
</svg>
