<svg width="404" height="404" viewBox="0 0 404 404" fill="none" xmlns="http://www.w3.org/2000/svg">
<path d="M401.148 232.929C404.651 210.297 397.131 188.521 382.605 173.014C385.442 166.974 387.479 160.44 388.545 153.505C394.485 114.984 368.574 78.9205 330.441 72.0812C324.729 43.4094 301.693 19.9956 271.156 15.271C256.23 12.9658 241.685 15.4615 229.062 21.5769C218.877 11.918 205.76 5.15488 190.834 2.8497C160.278 -1.87496 131.244 13.4992 117.156 39.1229C79.1369 34.7221 44.1449 61.1649 38.243 99.3242C37.1579 106.392 37.1388 113.365 38.0717 120.09C19.8141 130.549 6.31606 148.914 2.85112 171.318C-0.613822 193.703 6.71585 215.25 20.9183 230.738C18.0626 236.816 16.0065 243.369 14.9213 250.342C9.03851 288.482 34.3783 324.222 71.8834 331.556C77.4616 360.4 100.555 383.985 131.244 388.729C146.17 391.034 160.715 388.538 173.338 382.423C183.523 392.082 196.64 398.845 211.566 401.15C242.237 405.894 271.346 390.386 285.377 364.61C323.758 369.544 359.283 343.006 365.223 304.523C366.27 297.684 366.308 290.94 365.471 284.405C383.938 273.984 397.645 255.524 401.129 232.929H401.148Z" fill="#694C4B" stroke="black" stroke-width="3" stroke-miterlimit="10"/>
</svg>
