<svg width="402" height="402" viewBox="0 0 402 402" fill="none" xmlns="http://www.w3.org/2000/svg">
<path d="M400 201C400 226.451 373.265 246.415 364.09 268.544C354.567 291.5 359.008 324.419 341.722 341.722C324.437 359.007 291.5 354.585 268.545 364.09C246.415 373.265 226.451 400 201 400C175.549 400 155.585 373.265 133.456 364.09C110.5 354.567 77.5815 359.007 60.2779 341.722C42.9927 324.437 47.415 291.5 37.9099 268.544C28.7352 246.415 2 226.451 2 201C2 175.549 28.7352 155.585 37.9099 133.456C47.4333 110.5 42.9927 77.5815 60.2779 60.2779C77.5631 42.9927 110.5 47.4149 133.456 37.9099C155.585 28.7352 175.549 2 201 2C226.451 2 246.415 28.7352 268.545 37.9099C291.5 47.4333 324.419 42.9927 341.722 60.2779C359.008 77.5631 354.585 110.5 364.09 133.456C373.595 156.411 400 175.549 400 201Z" fill="#CDDEC8" stroke="black" stroke-width="3" stroke-miterlimit="10"/>
</svg>
